<?xml version="1.0" encoding="UTF-8" standalone="no"?>
<!-- Created with Inkscape (http://www.inkscape.org/) -->

<svg
   xmlns:dc="http://purl.org/dc/elements/1.1/"
   xmlns:cc="http://creativecommons.org/ns#"
   xmlns:rdf="http://www.w3.org/1999/02/22-rdf-syntax-ns#"
   xmlns:svg="http://www.w3.org/2000/svg"
   xmlns="http://www.w3.org/2000/svg"
   xmlns:sodipodi="http://sodipodi.sourceforge.net/DTD/sodipodi-0.dtd"
   xmlns:inkscape="http://www.inkscape.org/namespaces/inkscape"
   width="74.072037mm"
   height="62.353905mm"
   viewBox="0 0 74.072037 62.353904"
   version="1.1"
   id="svg822"
   inkscape:version="0.92.2 5c3e80d, 2017-08-06"
   sodipodi:docname="arrow.svg">
  <defs
     id="defs816" />
  <sodipodi:namedview
     id="base"
     pagecolor="#ffffff"
     bordercolor="#666666"
     borderopacity="1.0"
     inkscape:pageopacity="0.0"
     inkscape:pageshadow="2"
     inkscape:zoom="0.49497475"
     inkscape:cx="321.90697"
     inkscape:cy="-305.91783"
     inkscape:document-units="mm"
     inkscape:current-layer="layer1"
     showgrid="false"
     fit-margin-top="0"
     fit-margin-left="0"
     fit-margin-right="0"
     fit-margin-bottom="0"
     inkscape:window-width="1440"
     inkscape:window-height="813"
     inkscape:window-x="0"
     inkscape:window-y="1"
     inkscape:window-maximized="1" />
  <metadata
     id="metadata819">
    <rdf:RDF>
      <cc:Work
         rdf:about="">
        <dc:format>image/svg+xml</dc:format>
        <dc:type
           rdf:resource="http://purl.org/dc/dcmitype/StillImage" />
        <dc:title></dc:title>
      </cc:Work>
    </rdf:RDF>
  </metadata>
  <g
     inkscape:label="Layer 1"
     inkscape:groupmode="layer"
     id="layer1"
     transform="translate(-72.489032,-123.13726)">
    <path
       style="fill:#000000;stroke-width:0.04815577"
       d="m 74.800562,123.18129 c 1.87882,0.0658 4.41253,0.25873 5.61015,0.42727 1.18035,0.1661 1.42129,0.20197 1.63729,0.24373 0.13243,0.0256 0.46832,0.0894 0.74642,0.14172 0.66354,0.12492 1.45362,0.30615 1.87808,0.43081 0.34074,0.10007 0.60438,0.18205 0.69826,0.21715 0.053,0.0198 0.2805,0.10335 0.50563,0.18568 0.47085,0.17219 1.3135,0.58957 1.53674,0.76117 0.4407,0.33876 0.87105,0.84297 0.87105,1.02055 0,0.10131 -0.47956,0.5342 -0.81865,0.73898 -0.89489,0.54045 -2.32749,1.11976 -4.09324,1.6552 -0.2781,0.0843 -0.55981,0.17077 -0.62603,0.19207 -0.0662,0.0213 -0.26124,0.0761 -0.4334,0.12173 -0.41409,0.10976 -0.52489,0.16621 -0.64548,0.32886 -0.0932,0.12569 -0.10529,0.24023 -0.15764,1.49283 -0.0928,2.2197 -0.2292,3.52638 -0.49107,4.70351 -0.14013,0.62989 -0.45983,1.34837 -0.59999,1.34837 -0.11701,0 -0.53641,-0.15948 -0.71731,-0.27276 -0.0988,-0.0619 -0.19672,-0.11249 -0.21761,-0.11249 -0.0678,0 -0.7312,-0.60816 -1.03248,-0.94652 -0.45486,-0.51084 -1.05561,-1.34629 -1.45963,-2.02989 -0.12889,-0.21808 -0.39564,-0.67994 -0.49207,-0.85197 -0.10738,-0.19158 -1.18794,-2.36843 -1.26691,-2.55226 -0.0227,-0.053 -0.0937,-0.2155 -0.15769,-0.36117 -0.064,-0.14567 -0.21915,-0.51406 -0.34483,-0.81865 -0.12569,-0.30458 -0.26025,-0.62963 -0.29901,-0.72233 -0.0388,-0.0927 -0.0885,-0.21189 -0.11048,-0.26486 -0.022,-0.053 -0.0747,-0.17543 -0.11713,-0.27213 -0.0424,-0.0967 -0.0772,-0.20614 -0.0772,-0.24319 0,-0.037 -0.0181,-0.0879 -0.0402,-0.11311 -0.0221,-0.0252 -0.0783,-0.1541 -0.12494,-0.28653 -0.0466,-0.13243 -0.11519,-0.30906 -0.15242,-0.39252 -0.0372,-0.0835 -0.0677,-0.17586 -0.0677,-0.20532 0,-0.0295 -0.0205,-0.0912 -0.0455,-0.13719 -0.025,-0.046 -0.11395,-0.27865 -0.19762,-0.51702 -0.0837,-0.23837 -0.17053,-0.47674 -0.19304,-0.52971 -0.0225,-0.053 -0.19644,-0.57306 -0.3865,-1.15574 -0.19007,-0.58268 -0.36443,-1.09706 -0.38748,-1.14305 -0.023,-0.046 -0.0419,-0.0948 -0.0419,-0.10835 0,-0.0305 1.00045,-0.0187 2.31148,0.0271 z m 10.38248,8.34253 c 1.58454,1.34172 4.68659,3.95877 4.94785,4.17427 0.0803,0.0662 0.24558,0.20707 0.36734,0.31301 0.12175,0.10594 0.32745,0.2793 0.45709,0.38525 0.12965,0.10594 0.3366,0.2793 0.4599,0.38524 0.12331,0.10595 0.47017,0.39849 0.77082,0.6501 0.30065,0.25162 0.64696,0.54417 0.76957,0.65011 0.12262,0.10594 0.32902,0.2793 0.45866,0.38525 0.12964,0.10594 0.33587,0.2793 0.45828,0.38524 0.12242,0.10594 0.27509,0.23596 0.33929,0.28894 0.0642,0.053 0.2458,0.20466 0.40359,0.33709 0.15778,0.13242 0.33926,0.28412 0.40328,0.33709 0.064,0.053 0.1406,0.11822 0.17019,0.145 0.0502,0.0454 0.48058,0.40689 0.74477,0.62549 0.064,0.053 0.1406,0.11822 0.17019,0.14501 0.0296,0.0268 0.18381,0.1568 0.34272,0.28893 0.15892,0.13213 0.29977,0.25137 0.31301,0.26497 0.0252,0.0259 0.67584,0.5773 0.84314,0.71456 0.20129,0.16514 0.67739,0.56588 0.81721,0.68782 0.08,0.0698 0.58973,0.49928 1.13269,0.9544 1.004928,0.84236 1.294448,1.08581 1.683438,1.4156 0.37413,0.31718 0.44236,0.37462 1.08552,0.91384 0.34431,0.28866 0.68019,0.57188 0.74641,0.62936 0.0662,0.0575 0.81383,0.68773 1.66137,1.40053 1.17087,0.98473 5.18158,4.36511 5.92316,4.99226 0.053,0.0448 0.52732,0.44616 1.05411,0.89191 0.5268,0.44575 1.02521,0.8638 1.10759,0.92901 0.0824,0.0652 0.4965,0.41191 0.92027,0.77045 0.42377,0.35854 0.82283,0.69525 0.8868,0.74825 0.064,0.053 0.21645,0.18303 0.33887,0.28897 0.12241,0.10594 0.3279,0.2793 0.45665,0.38525 0.12875,0.10594 0.25812,0.21429 0.28749,0.24078 0.0294,0.0265 0.18326,0.15602 0.342,0.28786 0.15873,0.13184 0.29944,0.2515 0.31268,0.26593 0.0231,0.0252 0.47089,0.40131 0.71661,0.60195 0.0649,0.053 0.2186,0.18299 0.34164,0.28893 0.12303,0.10594 0.45797,0.38765 0.74432,0.62602 0.28634,0.23838 0.62233,0.52009 0.74663,0.62603 0.5919,0.50449 0.96889,0.82364 1.45046,1.22797 0.14196,0.11919 0.35652,0.30014 0.47682,0.40213 0.12029,0.10198 0.26224,0.22117 0.31543,0.26485 0.0532,0.0437 0.22582,0.18779 0.3836,0.32022 0.15779,0.13242 0.33096,0.27741 0.38484,0.3222 0.0539,0.0448 0.16296,0.13836 0.24242,0.20796 0.0795,0.0696 0.24196,0.20633 0.3611,0.30383 0.11915,0.0975 0.24149,0.20055 0.27186,0.22899 0.0304,0.0284 0.22372,0.19096 0.42968,0.36117 0.20596,0.1702 0.46286,0.38704 0.57088,0.48186 0.10802,0.0948 0.42394,0.36216 0.70204,0.59407 0.2781,0.23191 0.55981,0.46774 0.62602,0.52406 0.0662,0.0563 0.6188,0.52208 1.22797,1.03503 0.60917,0.51294 1.15095,0.96941 1.20396,1.01437 0.094,0.0797 1.93379,1.63006 5.63416,4.74774 1.00646,0.84797 1.87326,1.57821 1.92623,1.62276 0.053,0.0445 0.3997,0.33691 0.7705,0.64971 0.3708,0.3128 0.72651,0.61262 0.79048,0.66628 0.064,0.0537 0.21746,0.18424 0.3411,0.29018 0.12364,0.10594 0.45948,0.38766 0.74632,0.62603 0.28684,0.23837 0.63263,0.53091 0.76842,0.6501 0.13579,0.11919 0.34267,0.29255 0.45972,0.38524 0.11706,0.0927 0.32368,0.26607 0.45916,0.38525 0.13549,0.11919 0.29907,0.26004 0.36352,0.31301 0.0645,0.053 0.24628,0.20467 0.40406,0.3371 0.15779,0.13242 0.33926,0.28411 0.40328,0.33709 0.064,0.053 0.14061,0.11822 0.17019,0.145 0.0296,0.0268 0.18381,0.1568 0.34273,0.28894 0.34696,0.28848 0.39014,0.33746 0.48235,0.54709 0.0934,0.21225 0.0902,0.29146 -0.0221,0.55342 -0.062,0.14462 -0.1591,0.26157 -0.2881,0.34693 -0.16935,0.11208 -0.23161,0.1261 -0.4801,0.10812 -0.26547,-0.0192 -0.30861,-0.0402 -0.61481,-0.29919 -0.18112,-0.15319 -0.38349,-0.32338 -0.4497,-0.37819 -0.0662,-0.0548 -0.19701,-0.1666 -0.29066,-0.24841 -0.0936,-0.0818 -0.25989,-0.22062 -0.36943,-0.30845 -0.10954,-0.0878 -0.26045,-0.21392 -0.33537,-0.2802 -0.0749,-0.0663 -0.23372,-0.20029 -0.3529,-0.29779 -0.11919,-0.0975 -0.22754,-0.1897 -0.24078,-0.20488 -0.0132,-0.0152 -1.07508,-0.9107 -2.35964,-1.99003 -1.28455,-1.07933 -2.38973,-2.0089 -2.45594,-2.06571 -0.0662,-0.0568 -1.89734,-1.59987 -4.06916,-3.42903 -4.46776,-3.76285 -4.15663,-3.50035 -4.4521,-3.75608 -0.12242,-0.10594 -0.32843,-0.2793 -0.4578,-0.38524 -0.12938,-0.10595 -0.47786,-0.39849 -0.77442,-0.6501 -0.29655,-0.25162 -0.77291,-0.65252 -1.05858,-0.89089 -0.28567,-0.23837 -0.69753,-0.58509 -0.91525,-0.77049 -0.50719,-0.43189 -1.08907,-0.92098 -1.2846,-1.07975 -0.0841,-0.0683 -0.26255,-0.21895 -0.39657,-0.33483 -0.37717,-0.32609 -0.45395,-0.39108 -0.91786,-0.77691 -0.23837,-0.19825 -0.44424,-0.37184 -0.45748,-0.38576 -0.0132,-0.0139 -0.15395,-0.13318 -0.31269,-0.26502 -0.15873,-0.13183 -0.31301,-0.26137 -0.34283,-0.28786 -0.0983,-0.0873 -0.56261,-0.47885 -0.74231,-0.62602 -0.097,-0.0795 -0.42354,-0.35336 -0.72561,-0.60868 -0.30206,-0.25532 -0.79841,-0.67388 -1.103,-0.93015 -0.63267,-0.5323 -0.93848,-0.79025 -1.25004,-1.05438 -0.12029,-0.10199 -0.26716,-0.22618 -0.32638,-0.27599 -0.30552,-0.25697 -3.85845,-3.24732 -3.96149,-3.33422 -0.0662,-0.0558 -1.43143,-1.20604 -3.03382,-2.55601 -1.60238,-1.34996 -3.39016,-2.85642 -3.97285,-3.34768 -0.58268,-0.49126 -1.11176,-0.93693 -1.17573,-0.99039 -0.064,-0.0535 -0.21645,-0.18386 -0.33887,-0.2898 -0.12241,-0.10595 -0.32839,-0.27931 -0.45774,-0.38525 -0.12935,-0.10594 -0.32448,-0.26847 -0.43364,-0.36117 -0.10915,-0.0927 -0.31359,-0.26606 -0.454308,-0.38525 -0.14072,-0.11918 -0.30234,-0.25668 -0.35915,-0.30554 -0.0568,-0.0489 -0.19934,-0.16806 -0.31673,-0.26486 -0.11738,-0.0968 -0.31321,-0.26269 -0.43517,-0.36864 -0.12197,-0.10594 -0.32784,-0.2793 -0.45749,-0.38524 -0.12964,-0.10594 -0.33622,-0.2793 -0.45905,-0.38525 -0.12283,-0.10594 -0.45802,-0.38765 -0.74487,-0.62602 -0.28684,-0.23837 -0.63373,-0.53092 -0.77086,-0.6501 -0.13712,-0.11919 -0.36593,-0.31422 -0.50844,-0.43341 -0.14253,-0.11918 -0.35755,-0.30014 -0.47784,-0.40212 -0.1203,-0.10198 -0.26225,-0.22117 -0.31544,-0.26486 -0.0532,-0.0437 -0.22582,-0.18778 -0.3836,-0.32021 -0.15779,-0.13243 -0.33926,-0.28412 -0.40328,-0.33709 -0.064,-0.053 -0.14061,-0.11822 -0.17019,-0.14501 -0.0464,-0.042 -0.40963,-0.34735 -0.72632,-0.61059 -0.0539,-0.0448 -0.16297,-0.13837 -0.24243,-0.20797 -0.0795,-0.0696 -0.24198,-0.20632 -0.36117,-0.30383 -0.11919,-0.0975 -0.22753,-0.18903 -0.24078,-0.20339 -0.0132,-0.0144 -0.21911,-0.18697 -0.45748,-0.38356 -0.23837,-0.19659 -0.52141,-0.43404 -0.62899,-0.52767 -0.10758,-0.0936 -0.31253,-0.26775 -0.45547,-0.38694 -0.14293,-0.11918 -0.34959,-0.29254 -0.45925,-0.38524 -0.10966,-0.0927 -0.31553,-0.26606 -0.45748,-0.38525 -0.14196,-0.11918 -0.35652,-0.30014 -0.47682,-0.40213 -0.12029,-0.10198 -0.27289,-0.23007 -0.3391,-0.28464 -0.0662,-0.0546 -0.19782,-0.16616 -0.29245,-0.24798 -0.0946,-0.0818 -0.28876,-0.24627 -0.43139,-0.36546 -0.14263,-0.11918 -0.35775,-0.30014 -0.47804,-0.40212 -0.12029,-0.10198 -0.26205,-0.22155 -0.31503,-0.2657 -0.053,-0.0442 -0.5967,-0.50246 -1.2083,-1.01847 -0.61159,-0.51601 -1.72059,-1.44744 -2.46443,-2.06985 -0.74384,-0.62242 -1.36122,-1.15334 -1.37195,-1.17982 -0.0107,-0.0265 -0.01,-0.26807 0.002,-0.53686 l 0.0214,-0.48871 0.27148,-0.0804 c 0.14932,-0.0442 0.32128,-0.10059 0.38212,-0.12528 0.0608,-0.0247 0.13668,-0.0434 0.16854,-0.0417 0.0319,0.002 0.75358,0.59229 1.60382,1.31225 z m 44.707718,31.17416 c 0.42809,0.35303 0.44787,0.36899 0.67434,0.54397 0.1191,0.092 0.22738,0.1794 0.24062,0.19419 0.0132,0.0148 0.30579,0.25043 0.65011,0.52364 0.34431,0.27321 0.66965,0.53255 0.72298,0.5763 0.0533,0.0438 0.34587,0.27361 0.6501,0.5108 0.30423,0.23718 0.56398,0.44338 0.57723,0.45821 0.0132,0.0148 0.15409,0.12948 0.31301,0.25478 0.15891,0.1253 0.54048,0.42836 0.84793,0.67345 0.30744,0.2451 1.16045,0.92237 1.89556,1.50506 0.73512,0.58268 1.36121,1.08141 1.39132,1.10828 0.0301,0.0269 0.15225,0.12418 0.27144,0.21626 0.11919,0.0921 0.25874,0.20557 0.31011,0.25218 0.0514,0.0466 0.165,0.1335 0.25249,0.19306 0.0875,0.0596 0.15923,0.12479 0.15941,0.14496 1.9e-4,0.0202 -0.14595,0.10345 -0.32473,0.18506 -0.17877,0.0816 -0.47674,0.21915 -0.66214,0.30564 -0.1854,0.0865 -0.42377,0.19526 -0.52971,0.24173 -0.10594,0.0465 -0.38765,0.17762 -0.62603,0.29146 -0.23837,0.11383 -0.55258,0.2609 -0.69825,0.32681 -0.14567,0.0659 -0.4779,0.21996 -0.73827,0.34234 l -0.47341,0.22252 -0.37456,-0.32601 c -0.374,-0.32553 -0.97575,-0.83396 -1.26481,-1.06867 -0.0841,-0.0683 -0.26255,-0.21895 -0.39657,-0.33483 -0.3355,-0.29006 -0.8006,-0.68306 -1.17544,-0.99321 -0.064,-0.053 -0.1406,-0.11822 -0.17019,-0.145 -0.0502,-0.0454 -0.48057,-0.4069 -0.74477,-0.62549 -0.064,-0.053 -0.1406,-0.11822 -0.17019,-0.14501 -0.0296,-0.0268 -0.18381,-0.1568 -0.34272,-0.28893 -0.15891,-0.13213 -0.45341,-0.3811 -0.65444,-0.55325 -0.20103,-0.17216 -0.52313,-0.44304 -0.71579,-0.60195 -0.19267,-0.15892 -0.37491,-0.31069 -0.40499,-0.33729 -0.0628,-0.0555 -0.61648,-0.52372 -0.99636,-0.84253 -0.14202,-0.11918 -0.35663,-0.30014 -0.47692,-0.40212 -0.1203,-0.10199 -0.26224,-0.22117 -0.31544,-0.26486 -0.40106,-0.32936 -0.67897,-0.56826 -0.70759,-0.60827 -0.0299,-0.0417 0.27446,-0.20242 1.06917,-0.56457 0.11919,-0.0543 0.36839,-0.16932 0.55379,-0.25557 0.92683,-0.43115 1.07715,-0.50067 1.30021,-0.60136 0.13243,-0.0598 0.34777,-0.16006 0.47853,-0.22287 0.13076,-0.0628 0.26079,-0.11265 0.28894,-0.11076 0.0282,0.002 0.17036,0.10172 0.31603,0.22185 z m -7.03074,4.69414 c 0.19864,0.16091 0.42643,0.34964 0.5062,0.41941 0.0798,0.0698 0.30673,0.25687 0.50437,0.41578 0.19762,0.15892 0.61994,0.50247 0.93846,0.76345 0.31853,0.26098 0.78501,0.63967 1.03663,0.84154 0.25161,0.20186 0.46831,0.37839 0.48156,0.39229 0.0132,0.0139 0.13242,0.11369 0.26485,0.22176 0.13243,0.10806 0.74212,0.60647 1.35487,1.10758 0.61274,0.5011 1.31495,1.07362 1.56047,1.27226 0.24552,0.19864 0.53646,0.43701 0.64654,0.52972 0.11009,0.0927 0.29475,0.24438 0.41036,0.33708 0.11562,0.0927 0.28925,0.23356 0.38586,0.31302 0.0966,0.0795 0.26972,0.22031 0.38469,0.31301 0.37091,0.29907 0.3573,0.16215 0.11969,1.20389 -0.0453,0.19865 -0.10053,0.44785 -0.12271,0.5538 -0.0222,0.10594 -0.0727,0.33347 -0.11227,0.50563 -0.0396,0.17216 -0.10746,0.47554 -0.15088,0.67418 -0.0434,0.19864 -0.0962,0.43701 -0.11741,0.52971 -0.0212,0.0927 -0.0633,0.28774 -0.0936,0.43341 -0.0303,0.14567 -0.075,0.3407 -0.0993,0.4334 -0.0243,0.0927 -0.0565,0.22814 -0.0716,0.30097 -0.015,0.0728 -0.05,0.13243 -0.0777,0.13243 -0.0277,0 -0.15188,-0.0856 -0.27598,-0.19023 -0.24705,-0.20829 -0.7873,-0.65249 -1.11571,-0.91735 -0.23102,-0.18631 -2.07629,-1.69534 -3.20317,-2.61948 -0.39728,-0.32581 -0.89569,-0.73053 -1.10758,-0.89938 -0.21188,-0.16886 -0.39608,-0.31846 -0.40932,-0.33245 -0.0132,-0.014 -0.18661,-0.15542 -0.38525,-0.31428 -0.19864,-0.15885 -0.38692,-0.31303 -0.4184,-0.34262 -0.0315,-0.0296 -0.50649,-0.41965 -1.05558,-0.8668 -0.54908,-0.44716 -1.04756,-0.85635 -1.10773,-0.90932 -0.11694,-0.10295 -0.11263,-0.15141 0.0794,-0.89088 0.0241,-0.0927 0.0782,-0.33107 0.1203,-0.52971 0.0421,-0.19865 0.0955,-0.43702 0.11869,-0.52972 0.0398,-0.15907 0.10266,-0.44423 0.27079,-1.22797 0.0398,-0.1854 0.0915,-0.41294 0.11494,-0.50564 0.0234,-0.0927 0.0795,-0.33649 0.12458,-0.54175 0.0451,-0.20526 0.095,-0.37233 0.11087,-0.37125 0.0159,0.001 0.19145,0.1336 0.39009,0.29451 z m 17.84809,3.76473 c 0.34081,0.27372 1.00971,0.80657 1.48645,1.18411 0.47674,0.37753 0.91036,0.72242 0.96359,0.76641 0.12265,0.10138 1.06386,0.85173 1.8776,1.49686 0.797,0.63186 0.95407,0.75755 1.22326,0.97888 0.12081,0.0993 0.2363,0.18058 0.25665,0.18058 0.12011,0 -0.006,0.10019 -0.28805,0.22957 -0.17878,0.0819 -0.52008,0.23798 -0.75846,0.34686 -0.54341,0.24823 -0.71755,0.32913 -1.22797,0.57049 -0.22513,0.10645 -0.52851,0.24731 -0.67418,0.31303 -0.14567,0.0657 -0.479,0.22013 -0.74073,0.34315 l -0.47588,0.22366 -0.29461,-0.22995 c -0.35098,-0.27394 -2.66054,-2.10791 -2.79888,-2.22252 -0.0531,-0.044 -0.19391,-0.15521 -0.31301,-0.24722 -0.1191,-0.092 -0.22738,-0.17875 -0.24062,-0.19274 -0.0256,-0.027 -0.0934,-0.0812 -1.77979,-1.42198 l -1.08153,-0.85988 0.33512,-0.15738 c 0.62731,-0.29461 1.15313,-0.53925 1.47881,-0.68801 0.17878,-0.0817 0.46049,-0.21062 0.62603,-0.28656 0.16553,-0.076 0.40932,-0.18709 0.54175,-0.24698 0.13243,-0.0599 0.46286,-0.21444 0.73428,-0.34346 0.27143,-0.12903 0.50184,-0.23459 0.51202,-0.23459 0.0102,0 0.29735,0.22395 0.63815,0.49767 z m -7.80393,4.54806 c 0.16969,0.15006 0.2476,0.21421 0.74392,0.61257 0.19799,0.15892 0.38922,0.31663 0.42495,0.35047 0.081,0.0767 1.72026,1.4136 2.61119,2.12956 0.11536,0.0927 0.28636,0.23481 0.38001,0.31579 0.0937,0.081 0.39728,0.3302 0.67474,0.55379 0.63727,0.51356 0.61052,0.49164 1.16748,0.95666 0.41515,0.34661 0.46337,0.40294 0.42653,0.49821 -0.0228,0.0591 -0.0771,0.28077 -0.12067,0.49266 -0.0435,0.21188 -0.0987,0.46109 -0.12255,0.55379 -0.0239,0.0927 -0.0773,0.32565 -0.11865,0.51767 -0.0414,0.19202 -0.10909,0.50624 -0.15047,0.69826 -0.0414,0.19202 -0.0944,0.42498 -0.11788,0.51768 -0.0234,0.0927 -0.0782,0.3419 -0.12169,0.55379 -0.0435,0.21189 -0.097,0.43118 -0.11901,0.48732 -0.022,0.0561 -0.055,0.20241 -0.0734,0.32505 -0.0184,0.12264 -0.0539,0.22298 -0.0789,0.22298 -0.025,0 -0.28808,-0.20045 -0.58465,-0.44544 -0.29656,-0.245 -0.64601,-0.53212 -0.77656,-0.63807 -0.13054,-0.10594 -0.3832,-0.31181 -0.56145,-0.45748 -0.17826,-0.14567 -0.59144,-0.48114 -0.91818,-0.74549 -0.32675,-0.26435 -0.60492,-0.49313 -0.61816,-0.5084 -0.0132,-0.0153 -0.20827,-0.17729 -0.4334,-0.36006 -1.04847,-0.85117 -1.19057,-0.96745 -1.35009,-1.10476 -0.0936,-0.0806 -0.25617,-0.21507 -0.36117,-0.2988 -0.81269,-0.64813 -1.00911,-0.82645 -1.00388,-0.91142 0.005,-0.0804 0.0541,-0.30981 0.21072,-0.98296 0.0216,-0.0927 0.0643,-0.29856 0.095,-0.45747 0.0307,-0.15892 0.0754,-0.35395 0.0993,-0.43341 0.0239,-0.0795 0.0778,-0.30699 0.1197,-0.50563 0.0419,-0.19865 0.0955,-0.43702 0.11902,-0.52972 0.0236,-0.0927 0.0776,-0.33107 0.11999,-0.52971 0.15319,-0.71692 0.2287,-1.01124 0.25907,-1.00986 0.017,8.2e-4 0.0976,0.0604 0.17908,0.13243 z"
       id="path1540"
       inkscape:connector-curvature="0" />
  </g>
</svg>
