<?xml version="1.0" encoding="UTF-8" standalone="no"?>
<svg
   xmlns:dc="http://purl.org/dc/elements/1.1/"
   xmlns:cc="http://creativecommons.org/ns#"
   xmlns:rdf="http://www.w3.org/1999/02/22-rdf-syntax-ns#"
   xmlns:svg="http://www.w3.org/2000/svg"
   xmlns="http://www.w3.org/2000/svg"
   xmlns:sodipodi="http://sodipodi.sourceforge.net/DTD/sodipodi-0.dtd"
   xmlns:inkscape="http://www.inkscape.org/namespaces/inkscape"
   class="icon"
   height="350.08026"
   viewBox="0 0 359.27161 700.16052"
   version="1.1"
   id="svg4"
   sodipodi:docname="bear.svg"
   width="359.27161"
   inkscape:version="1.0.2-2 (e86c870879, 2021-01-15)">
  <metadata
     id="metadata10">
    <rdf:RDF>
      <cc:Work
         rdf:about="">
        <dc:format>image/svg+xml</dc:format>
        <dc:type
           rdf:resource="http://purl.org/dc/dcmitype/StillImage" />
      </cc:Work>
    </rdf:RDF>
  </metadata>
  <defs
     id="defs8" />
  <sodipodi:namedview
     pagecolor="#ffffff"
     bordercolor="#666666"
     borderopacity="1"
     objecttolerance="10"
     gridtolerance="10"
     guidetolerance="10"
     inkscape:pageopacity="0"
     inkscape:pageshadow="2"
     inkscape:window-width="1037"
     inkscape:window-height="713"
     id="namedview6"
     showgrid="false"
     fit-margin-top="0"
     fit-margin-left="0"
     fit-margin-right="0"
     fit-margin-bottom="0"
     inkscape:zoom="0.4351914"
     inkscape:cx="239.35936"
     inkscape:cy="40.697876"
     inkscape:window-x="184"
     inkscape:window-y="38"
     inkscape:window-maximized="0"
     inkscape:current-layer="svg4"
     inkscape:pagecheckerboard="0"
     inkscape:document-rotation="0" />
  <path
     style="fill:#000000;stroke-width:2"
     d="M 118.34154,582.31242 C 68.81272,569.33546 28.489,530.81072 16.93034,485.42546 12.63224,468.54894 12.3855,255.8288 16.65216,245.61722 c 5.73544,-13.72684 20.16042,-19.0365 33.2824,-12.25086 10.59536,5.47908 10.88208,7.2286 11.95996,72.9793 0.97268,59.33334 1.10928,61 5,61 3.93678,0 4.0158,-1.66666 5,-105.46304 l 1,-105.46303 6.53846,-6.53696 c 5.627,-5.62572 7.92174,-6.53697 16.46154,-6.53697 8.5399,0 10.83448,0.91122 16.46154,6.53713 l 6.53846,6.53714 0.55496,97.96287 0.55494,97.96286 h 4.94506 4.94504 V 242.24634 c 0,-120.78454 -0.21008,-118.58661 11.93454,-124.86683 11.98488,-6.19762 27.36742,-2.05265 33.0316,8.90068 2.60402,5.03561 3.03386,21.46578 3.03386,115.96615 v 110.09932 h 4.94504 4.94506 l 0.55494,-97.96286 0.55496,-97.96287 6.53846,-6.53714 c 5.62706,-5.62591 7.92164,-6.53713 16.46154,-6.53713 8.54018,0 10.83428,0.9111 16.46154,6.5377 l 6.53846,6.5377 0.54078,135.9623 0.54078,135.9623 h 4.95922 4.95922 v -50.09932 c 0,-53.61756 0.69962,-57.96134 10.43358,-64.77928 7.22976,-5.0639 24.17206,-4.12936 30.9549,1.70752 l 5.61152,4.8289 -0.0248,76.6711 -0.0248,76.67108 -5.40436,16 c -15.79326,46.7571 -52.32718,81.17918 -98.76512,93.056 -20.31298,5.19518 -50.31034,5.15712 -70.33402,-0.0892 z M 527.2531,0.84566234 c -0.63396,-4.12500004 -0.39112,-10.65000004 0.53966,-14.50000034 1.44,-5.9564 1.72284,-4.8382 1.89704,7.5000003 0.22544,15.9673 -0.66528,18.5260997 -2.4367,7.00000004 z"
     id="path844" />
</svg>
