<?xml version="1.0" encoding="UTF-8" standalone="no"?>
<svg
   class="icon"
   height="350.08026"
   viewBox="0 0 359.27161 700.16052"
   version="1.1"
   id="svg4"
   sodipodi:docname="bear.svg"
   width="359.27161"
   inkscape:version="1.1.1 (c3084ef, 2021-09-22)"
   xmlns:inkscape="http://www.inkscape.org/namespaces/inkscape"
   xmlns:sodipodi="http://sodipodi.sourceforge.net/DTD/sodipodi-0.dtd"
   xmlns="http://www.w3.org/2000/svg"
   xmlns:svg="http://www.w3.org/2000/svg"
   xmlns:rdf="http://www.w3.org/1999/02/22-rdf-syntax-ns#"
   xmlns:cc="http://creativecommons.org/ns#"
   xmlns:dc="http://purl.org/dc/elements/1.1/">
  <metadata
     id="metadata10">
    <rdf:RDF>
      <cc:Work
         rdf:about="">
        <dc:format>image/svg+xml</dc:format>
        <dc:type
           rdf:resource="http://purl.org/dc/dcmitype/StillImage" />
      </cc:Work>
    </rdf:RDF>
  </metadata>
  <defs
     id="defs8" />
  <sodipodi:namedview
     pagecolor="#ffffff"
     bordercolor="#666666"
     borderopacity="1"
     objecttolerance="10"
     gridtolerance="10"
     guidetolerance="10"
     inkscape:pageopacity="0"
     inkscape:pageshadow="2"
     inkscape:window-width="1037"
     inkscape:window-height="713"
     id="namedview6"
     showgrid="false"
     fit-margin-top="0"
     fit-margin-left="0"
     fit-margin-right="0"
     fit-margin-bottom="0"
     inkscape:zoom="0.2175957"
     inkscape:cx="-87.317902"
     inkscape:cy="98.8071"
     inkscape:window-x="184"
     inkscape:window-y="38"
     inkscape:window-maximized="0"
     inkscape:current-layer="svg4"
     inkscape:pagecheckerboard="0" />
  <path
     style="fill:#000000;fill-opacity:1;stroke:none;stroke-width:0.448678;stroke-opacity:1"
     d="m -31.643001,672.65578 c -0.61703,-0.20242 -2.73449,-0.71401 -4.70566,-1.13724 -7.510943,-1.61271 -16.083461,-6.17551 -21.176724,-11.27138 -4.77889,-4.78133 -7.771128,-12.33962 -7.766083,-19.6169 0,-7.07029 1.213232,-9.45982 8.513288,-16.8344 3.542227,-3.57835 6.017995,-6.48728 6.701251,-7.8738 2.980033,-6.04745 1.106488,-11.94926 -7.330159,-23.09111 -5.219533,-6.89294 -7.030269,-9.88306 -8.319653,-13.73754 -2.543621,-7.60451 0.542504,-17.59658 7.658689,-24.79673 6.666266,-6.74502 15.284996,-10.99491 25.685501,-12.66571 2.59129,-0.41624 7.04117,-0.48881 16.82562,-0.27435 12.76302,0.27972 21.92816,-0.0163 34.16592,-1.08826 6.32211,-0.55585 9.99077,-1.29898 14.16077,-2.86873 3.17627,-1.1955 24.83139,-10.36275 29.28028,-12.39511 1.5595,-0.71255 2.90453,-1.29541 2.98899,-1.29541 0.21088,0 21.42795,-9.20142 24.36129,-10.56501 1.3024,-0.60531 2.46242,-1.10063 2.57812,-1.10063 0.11553,0 1.73995,-0.70669 3.60991,-1.5704 1.86981,-0.86371 3.47991,-1.5704 3.57803,-1.5704 0.0976,0 1.345201,-0.53437 2.771431,-1.18736 1.42623,-0.65299 3.90557,-1.74776 5.50966,-2.43264 1.60392,-0.68489 2.91641,-1.4814 2.91641,-1.77006 0,-0.28866 -1.11056,-0.97989 -2.4678,-1.5359 -1.35724,-0.55601 -3.37625,-1.42135 -4.48681,-1.92285 -1.11039,-0.5015 -4.239961,-1.87013 -6.954441,-3.04122 -2.71447,-1.17109 -5.74316,-2.49806 -6.73021,-2.94879 -2.96979,-1.35594 -18.69673,-8.13741 -37.01594,-15.96158 -9.50083,-4.05788 -17.87988,-7.65234 -18.62025,-7.98771 -4.66482,-2.11355 -11.02729,-3.1779 -23.10705,-3.86522 -4.56524,-0.2597 -10.21858003,-0.58221 -12.56287,-0.71645 -2.34446,-0.13506 -8.22365,-0.0293 -13.06519,0.23399 -14.27761,0.77568 -22.38866,-0.3256 -30.708147,-4.16951 -15.863624,-7.32951 -24.527753,-22.00333 -20.153056,-34.13191 1.399382,-3.87971 2.671355,-5.95307 8.227554,-13.41161 5.196752,-6.97609 6.386715,-8.96842 7.642905,-12.79605 2.107046,-6.42073 0.759246,-9.99403 -6.456848,-17.11754 -2.608058,-2.57486 -5.465075,-5.72608 -6.348802,-7.00261 -5.208956,-7.52542 -3.047724,-22.01732 4.435391,-29.73996 5.993912,-6.18576 13.297874,-9.93382 24.569893,-12.60795 4.04633,-0.95987 16.31258,-0.73467 21.99553,0.40387 13.55806,2.71627 20.58394,7.75128 30.776,22.05557 2.72538,3.82503 6.12571,8.56975 7.55634,10.54402 1.61531,2.22892 4.80639,8.09461 8.4194,15.47554 6.5766,13.43553 9.55582,18.31759 13.5784,22.25034 3.08515,3.01632 4.61047,3.96106 11.7483,7.27597 2.67282,1.24138 6.67684,3.10354 8.89795,4.13827 2.22095,1.03457 5.24948,2.44355 6.73006,3.13087 1.48074,0.68749 4.50926,2.1007 6.73021,3.1408 2.22095,1.0401 5.35052,2.49237 6.95461,3.22737 3.02201,1.3849 4.38299,2.02357 14.074691,6.60573 3.17595,1.50141 5.83136,2.72994 5.90116,2.72994 0.07,0 2.82187,1.28645 6.11579,2.85897 3.29376,1.57235 7.09926,3.36763 8.45666,3.98938 1.35724,0.62191 4.28488,1.98191 6.50583,3.02217 2.22095,1.04027 5.35036,2.49286 6.95444,3.22786 1.60408,0.735 4.12785,1.90625 5.60843,2.60301 2.57112,1.20982 6.13108,2.8676 13.01181,6.05949 1.72743,0.80139 4.75595,2.21021 6.73022,3.13071 1.9741,0.9205 4.80086,2.23576 6.28144,2.92259 1.48057,0.687 4.7112,2.20224 7.17883,3.36731 2.46779,1.16506 5.31537,2.48032 6.32813,2.92275 l 1.84133,0.80465 3.7671,-1.68853 c 2.0719,-0.92864 5.34678,-2.42305 7.27728,-3.3211 1.9305,-0.89788 3.57624,-1.63256 3.65694,-1.63256 0.0814,0 1.83287,-0.78284 3.89322,-1.73962 2.0605,-0.95679 4.75578,-2.1941 5.98951,-2.74963 1.2339,-0.55536 3.75767,-1.71343 5.6086,-2.57323 1.85076,-0.85981 4.1726,-1.92171 5.15981,-2.35975 0.98706,-0.43788 3.30889,-1.49929 5.15982,-2.35861 1.85076,-0.85932 4.57647,-2.11811 6.05705,-2.79746 1.48074,-0.67936 6.32651,-2.90209 10.7684,-4.93933 4.4419,-2.03725 9.69138,-4.45655 11.66565,-5.37624 1.9741,-0.91968 4.6998,-2.17766 6.05721,-2.79567 1.35723,-0.61784 4.76408,-2.21184 7.57098,-3.54223 2.80674,-1.33055 5.16714,-2.41914 5.2454,-2.41914 0.15133,0 1.56145,-0.65429 18.36673,-8.52354 22.57464,-10.5707 26.27943,-12.57475 35.68653,-19.30366 8.42574,-6.02678 17.50936,-14.18241 23.72766,-21.30315 5.49876,-6.2969 12.94738,-17.30776 16.84531,-24.90169 2.57796,-5.02215 4.04243,-7.01253 8.28141,-11.2551 9.83343,-9.84156 23.32917,-13.51787 34.35907,-9.35942 2.02569,0.7638 3.4267,1.74825 5.66017,3.97782 4.0452,4.03787 6.35629,8.79414 8.41094,17.30971 2.15163,8.91764 4.53189,13.62396 13.72924,27.14509 8.28858,12.18503 10.27049,15.88591 12.75212,23.81195 0.94409,3.01534 0.5936,9.61961 -0.78414,14.77455 -2.48635,9.30296 -5.99896,15.77331 -11.3472,20.90205 -6.59223,6.32179 -10.86767,7.02685 -41.42155,6.83175 -18.20125,-0.11553 -21.13849,-0.039 -24.76386,0.65657 -5.41854,1.03863 -10.96709,2.89998 -16.75028,5.61884 -11.85928,5.57557 -13.57027,6.37191 -13.69068,6.37191 -0.07,0 -3.29164,1.51426 -7.15817,3.36503 -3.86636,1.85076 -7.09226,3.36503 -7.16858,3.36503 -0.0765,0 -3.10191,1.41337 -6.72354,3.14079 -3.62163,1.72743 -6.66448,3.1408 -6.76178,3.1408 -0.0976,0 -3.14015,1.41338 -6.76178,3.1408 -3.62164,1.72743 -6.63812,3.14064 -6.70337,3.14064 -0.0651,0 -2.31175,1.03343 -4.99238,2.29645 -2.68063,1.26319 -6.08519,2.85669 -7.56594,3.54142 -1.48058,0.68455 -4.50926,2.09581 -6.73021,3.13624 -2.22095,1.04026 -5.04754,2.35845 -6.28144,2.92943 -15.74028,7.28264 -18.8596,8.78079 -18.96944,9.11046 -0.07,0.21154 3.46201,2.06523 7.85021,4.11891 4.3882,2.05351 10.28025,4.81908 13.09366,6.1454 2.81325,1.32648 6.04371,2.83163 7.17883,3.34501 1.13497,0.51338 3.67891,1.69065 5.65318,2.61603 1.97411,0.92538 4.69981,2.19085 6.05721,2.81227 1.35724,0.62143 4.28488,1.9811 6.50583,3.02169 2.22095,1.04043 5.14859,2.40206 6.50582,3.0256 1.35724,0.6237 5.16926,2.41897 8.47115,3.98954 3.30189,1.57072 6.05786,2.85571 6.12457,2.85571 0.0667,0 3.82617,1.74061 8.35431,3.86783 11.51041,5.40764 15.41745,7.2392 18.77711,8.8026 12.47094,5.80321 15.8825,6.95461 24.22868,8.17646 3.81754,0.55894 8.79577,0.66992 26.24769,0.5853 23.8196,-0.11553 26.73878,0.12692 31.9134,2.65704 12.27909,6.00237 21.34725,28.33131 16.98199,41.81614 -1.72645,5.33263 -4.51154,10.34632 -11.56768,20.82249 -9.65525,14.3352 -11.83438,18.53465 -14.01644,27.0123 -2.40548,9.34592 -4.88629,14.73452 -8.40199,18.25023 -3.79103,3.79102 -7.77276,5.32709 -14.59702,5.63088 -6.08471,0.27093 -12.23744,-1.4137 -18.03511,-4.93819 -7.30819,-4.44288 -11.77206,-9.24634 -15.93587,-17.14829 -12.98334,-24.63954 -33.20734,-44.42616 -58.54479,-57.27883 -2.66566,-1.35203 -14.82873,-7.10658 -15.02123,-7.10658 -0.0651,0 -2.81861,-1.28499 -6.1205,-2.85572 -3.30189,-1.57056 -7.11391,-3.36405 -8.47115,-3.98564 -4.84951,-2.22111 -14.73029,-6.78749 -23.77989,-10.99003 -5.05893,-2.34933 -10.71228,-4.97415 -12.56304,-5.83282 -1.85076,-0.85883 -5.28316,-2.4276 -7.62761,-3.48641 -2.34429,-1.05881 -5.77668,-2.62531 -7.62745,-3.48105 -3.943,-1.82326 -7.69009,-3.54662 -11.44141,-5.26216 -1.48058,-0.67708 -4.00435,-1.83612 -5.60843,-2.57535 -1.60408,-0.7394 -3.87548,-1.77494 -5.0477,-2.30117 -1.17207,-0.52624 -3.0902,-1.38735 -4.26242,-1.91358 -1.17223,-0.52623 -3.34258,-1.50905 -4.82332,-2.18401 -1.48058,-0.6748 -3.70153,-1.68154 -4.93542,-2.23706 -1.2339,-0.55536 -3.03845,-1.38978 -4.01021,-1.85418 -0.97176,-0.46424 -2.14675,-0.84419 -2.61131,-0.84419 -0.4644,0 -6.63503,2.70504 -13.71248,6.01133 -7.07762,3.30628 -14.18063,6.61598 -15.78471,7.35505 -1.60392,0.73907 -4.73349,2.19378 -6.95444,3.2329 -7.63428,3.57135 -10.77362,5.03387 -13.23604,6.16623 -2.44908,1.12618 -19.52675,9.12576 -28.87821,13.52698 -2.68063,1.26173 -4.92566,2.29385 -4.98912,2.29385 -0.0635,0 -2.816991,1.28564 -6.118881,2.85686 -3.30189,1.57121 -7.01302,3.31409 -8.24675,3.87319 -3.50855,1.5896 -7.27695,3.32907 -11.66565,5.38486 -2.22111,1.04026 -5.14858,2.39669 -6.50598,3.01437 -1.35724,0.61751 -5.71567,2.69657 -9.68552,4.61991 -6.30047,3.05261 -7.59832,3.87206 -10.21158,6.44708 -4.08701,4.02713 -7.22114,9.01398 -12.23191,19.46297 -6.56749,13.69491 -7.37165,15.09982 -13.15809,22.98876 -1.90056,2.59113 -4.62659,6.36475 -6.05786,8.38604 -3.51132,4.9587 -8.28646,10.06481 -11.63066,12.43693 -5.61868003,3.98563 -10.88898,5.93615 -21.17868,7.83849 -3.08254,0.56984 -14.64714,0.59767 -16.34967,0.039 z M 179.90911,411.50111 c -8.23765,-0.74688 -16.9078,-1.99721 -21.76089,-3.13852 -15.1296,-3.55785 -23.96604,-7.64323 -29.61792,-13.69361 -2.57714,-2.75873 -3.44687,-4.29057 -5.83429,-10.27472 -0.78755,-1.97426 -1.70529,-4.19521 -2.03935,-4.93542 -0.33406,-0.74037 -1.50206,-3.67989 -2.59569,-6.53235 -4.53319,-11.82527 -7.19738,-16.66746 -11.93234,-21.68766 -4.76278,-5.04949 -8.871431,-7.66064 -21.186811,-13.46433 -14.39606,-6.78424 -24.90233,-20.93232 -31.18458,-41.99433 -5.69777,-19.10205 -7.95972,-40.93306 -8.50727,-82.10826 -0.22943,-17.24739 -0.15621,-21.49386 0.47107,-27.36948 1.69472,-15.87273 4.45036,-27.22335 9.95563,-41.01003 10.10159,-25.2966 27.70858,-47.824379 50.173871,-64.196339 11.85521,-8.63972 23.43901,-14.63347 39.28587,-20.32798 6.87471,-2.47039 19.45809,-5.37492 27.59387,-6.3693 2.22095,-0.27141 5.38941,-0.68716 7.04084,-0.92375 3.9225,-0.56204 21.24116,-0.55504 24.76353,0.0163 1.50906,0.24196 4.63749,0.65396 6.952,0.91529 11.98636,1.35366 28.16371,5.77148 39.3137,10.73587 26.82778,11.94503 49.5077,31.16863 64.96371,55.063899 10.95424,16.93561 18.19685,35.53682 21.63234,55.55856 1.60327,9.34381 1.79381,13.00043 1.76403,33.8753 -0.0423,30.13717 -1.33673,51.43121 -4.06179,66.85321 -1.77347,10.03683 -2.39506,12.77555 -4.39699,19.37233 -4.34101,14.30462 -9.87736,24.37431 -17.74953,32.28343 -4.83226,4.85488 -8.80228,7.61199 -15.17614,10.53962 -7.90163,3.62929 -9.44502,4.48405 -13.76211,7.62176 -3.11867,2.26667 -7.11456,6.08291 -8.64151,8.25293 -2.53402,3.60162 -5.76513,10.20703 -8.88526,18.1648 -7.0415,17.95847 -7.66357,19.22881 -11.03234,22.53347 -6.01426,5.89937 -14.27533,9.61945 -29.10748,13.10733 -12.62438,2.96864 -33.06903,4.35045 -46.43817,3.13852 z m 2.58592,-51.22341 c 1.8524,-1.03538 3.08271,-2.33713 4.65555,-4.92647 2.03236,-3.34534 3.88459,-4.3306 6.51152,-3.46364 1.65193,0.54511 3.96986,2.78933 3.96986,3.84342 0,0.90098 2.86304,3.82097 4.3594,4.44613 2.18401,0.91253 5.94135,0.83133 8.27848,-0.17899 2.38872,-1.03245 5.9119,-4.54913 7.17786,-7.16435 1.90934,-3.94414 1.70057,-5.58532 -2.37781,-18.69168 -4.18855,-13.45994 -6.61501,-19.26152 -10.62587,-25.40562 -6.02092,-9.22307 -13.68498,-11.01395 -20.52341,-4.79597 -2.39115,2.17408 -6.1825,8.10405 -8.44722,13.21244 -3.43923,7.75665 -9.69772,27.8163 -9.69772,31.08272 0,2.41003 2.74849,7.7324 4.84349,9.37961 3.03145,2.38334 5.04168,3.18213 8.06207,3.20344 1.54583,0.0163 3.26186,-0.23252 3.8138,-0.54104 z m -57.51477,-48.99449 c 7.44813,-0.9916 13.40983,-2.72212 18.99824,-5.51454 17.50937,-8.74939 25.65296,-24.15936 23.65444,-44.76119 -0.93677,-9.65688 -3.02315,-14.87006 -7.90455,-19.75163 -6.5841,-6.58393 -16.20534,-9.18808 -33.94592,-9.18808 -10.8488,0 -16.17296,1.14602 -24.34307,5.24003 -12.602901,6.31528 -22.741431,17.88167 -26.935021,30.72865 -2.04375,6.2606 -3.16618,16.56787 -2.10298,19.30984 1.5979,4.1207 2.22974,5.38112 3.89403,7.76706 8.43307,12.09067 28.718581,18.8282 48.684831,16.16986 z m 151.4706,0 c 14.98364,-1.97622 26.24509,-7.85541 32.26634,-16.84514 1.19403,-1.78242 1.86931,-3.19987 3.3769,-7.08771 0.88991,-2.29499 0.12855,-11.41684 -1.4137,-16.91658 -3.24396,-11.57517 -10.33249,-21.55862 -20.39632,-28.72574 -6.11742,-4.35679 -12.62292,-7.25075 -20.1062,-8.94449 -6.07738,-1.37546 -24.38146,-0.70636 -31.49179,1.15107 -12.21547,3.19108 -17.9448,8.78406 -20.86381,20.36671 -0.86323,3.42588 -1.02139,5.26282 -1.04319,12.11442 -0.0293,8.94466 0.53778,12.17186 3.2988,18.80396 7.62028,18.30505 31.51701,29.3618 56.37297,26.0835 z"
     id="path881"
     inkscape:connector-curvature="0" />
</svg>
