<?xml version="1.0" encoding="UTF-8" standalone="no"?>
<!-- Created with Inkscape (http://www.inkscape.org/) -->

<svg
   xmlns:dc="http://purl.org/dc/elements/1.1/"
   xmlns:cc="http://creativecommons.org/ns#"
   xmlns:rdf="http://www.w3.org/1999/02/22-rdf-syntax-ns#"
   xmlns:svg="http://www.w3.org/2000/svg"
   xmlns="http://www.w3.org/2000/svg"
   xmlns:sodipodi="http://sodipodi.sourceforge.net/DTD/sodipodi-0.dtd"
   xmlns:inkscape="http://www.inkscape.org/namespaces/inkscape"
   width="85.553192mm"
   height="53.324371mm"
   viewBox="0 0 85.553194 53.324372"
   version="1.1"
   id="svg822"
   inkscape:version="0.92.2 5c3e80d, 2017-08-06"
   sodipodi:docname="bell.svg">
  <defs
     id="defs816" />
  <sodipodi:namedview
     id="base"
     pagecolor="#ffffff"
     bordercolor="#666666"
     borderopacity="1.0"
     inkscape:pageopacity="0.0"
     inkscape:pageshadow="2"
     inkscape:zoom="0.49497475"
     inkscape:cx="307.99982"
     inkscape:cy="-36.043906"
     inkscape:document-units="mm"
     inkscape:current-layer="layer1"
     showgrid="false"
     fit-margin-top="0"
     fit-margin-left="0"
     fit-margin-right="0"
     fit-margin-bottom="0"
     inkscape:window-width="1440"
     inkscape:window-height="813"
     inkscape:window-x="0"
     inkscape:window-y="1"
     inkscape:window-maximized="1" />
  <metadata
     id="metadata819">
    <rdf:RDF>
      <cc:Work
         rdf:about="">
        <dc:format>image/svg+xml</dc:format>
        <dc:type
           rdf:resource="http://purl.org/dc/dcmitype/StillImage" />
        <dc:title></dc:title>
      </cc:Work>
    </rdf:RDF>
  </metadata>
  <g
     inkscape:label="Layer 1"
     inkscape:groupmode="layer"
     id="layer1"
     transform="translate(-76.168633,-203.57095)">
    <path
       style="fill:#000000;stroke-width:0.17638889"
       d="m 116.97555,256.6487 c -1.98383,-0.7287 -3.39034,-2.46618 -3.74626,-4.62778 l -0.12343,-0.74966 h 5.85184 5.85184 l -0.11664,0.74966 c -0.29524,1.89757 -2.01927,4.02794 -3.73189,4.61149 -1.00812,0.3435 -3.07169,0.35194 -3.98546,0.0163 z m -34.728896,-9.34739 c -0.25473,-0.13842 -0.95516,-0.98852 -1.55652,-1.88912 -2.02311,-3.02984 -3.50169,-6.669 -4.17694,-10.28051 -0.49345,-2.6392 -0.45042,-7.62762 0.0875,-10.14236 0.78119,-3.65207 2.15696,-6.89641 4.22925,-9.97342 1.96671,-2.92023 2.32086,-3.07998 3.76794,-1.69956 0.79003,0.75363 0.90079,0.94975 0.97128,1.71979 0.0758,0.82791 0.0231,0.9566 -1.10944,2.71179 -2.74036,4.24683 -3.94281,8.63527 -3.72069,13.57896 0.20153,4.48534 1.35903,8.00047 3.89281,11.82181 1.04609,1.57766 1.21549,2.28359 0.76272,3.17839 -0.5336,1.05453 -2.10509,1.54088 -3.1479,0.97423 z m 71.091436,-0.13638 c -0.722,-0.48656 -1.03682,-1.06291 -1.04029,-1.90448 -0.002,-0.48001 0.27844,-1.06852 1.17215,-2.46 2.70938,-4.21841 3.92817,-8.67449 3.71369,-13.5778 -0.19229,-4.39612 -1.40209,-8.0546 -3.90118,-11.79729 -1.04663,-1.56745 -1.21851,-2.2875 -0.7616,-3.19047 0.53211,-1.0516 2.05086,-1.53127 3.11159,-0.98275 1.13072,0.58472 3.76137,5.26195 4.8653,8.65037 0.96484,2.96149 1.23567,4.85488 1.2237,8.55486 -0.0116,3.58445 -0.30268,5.4645 -1.31606,8.50025 -1.02335,3.06563 -3.74183,7.819 -4.77825,8.35495 -0.71599,0.37025 -1.6057,0.31287 -2.28905,-0.14764 z m -51.97812,-0.2448 c -1.0686,-0.37817 -2.552936,-1.79651 -3.057296,-2.92136 -0.3264,-0.72795 -0.41703,-1.2381 -0.4178,-2.3519 -8.8e-4,-1.24746 0.0661,-1.55104 0.5444,-2.46945 2.834326,-5.44183 2.727596,-5.01298 2.894436,-11.63046 0.14814,-5.87551 0.28863,-6.65852 1.74064,-9.70139 2.01642,-4.22569 5.66891,-7.29134 10.26542,-8.6161 l 1.48279,-0.42736 0.0894,-1.56369 c 0.10643,-1.86057 0.47118,-2.58968 1.62164,-3.24155 0.65841,-0.37306 0.97923,-0.42918 2.43406,-0.42578 1.89322,0.004 2.43108,0.20047 3.31651,1.20892 0.58772,0.66938 0.71763,1.14901 0.78525,2.89935 l 0.0434,1.12267 1.4877,0.42882 c 5.76447,1.66154 9.92354,5.94011 11.50615,11.83675 0.31108,1.15907 0.38659,2.14613 0.50243,6.56755 0.17084,6.52057 0.16782,6.50822 2.77906,11.35452 0.60063,1.11474 0.65306,1.32741 0.65225,2.64584 -10e-4,1.86429 -0.46905,2.95885 -1.77513,4.15253 -1.66361,1.52044 -0.39713,1.42811 -19.37312,1.41235 -14.4809,-0.012 -16.87233,-0.0503 -17.52221,-0.28026 z m -12.163436,-4.54461 c -0.82989,-0.37307 -2.16219,-2.55868 -3.13472,-5.14245 -1.56622,-4.16108 -1.52885,-9.78869 0.0929,-13.99398 0.76241,-1.97691 2.12709,-4.26454 2.83222,-4.74764 0.89229,-0.61134 1.97848,-0.4567 2.7567,0.39248 0.54294,0.59245 0.67473,1.03308 0.5863,1.96025 -0.0185,0.19403 -0.34343,0.87064 -0.72205,1.50358 -1.61272,2.69602 -2.18063,4.76957 -2.17277,7.93322 0.007,3.01586 0.35758,4.40645 1.85822,7.38118 1.16643,2.31222 1.30951,3.0133 0.77991,3.82157 -0.62294,0.95073 -1.87926,1.34019 -2.87674,0.89179 z m 58.033906,-0.0442 c -0.60064,-0.12121 -1.40633,-0.97404 -1.60708,-1.7011 -0.20902,-0.75702 -0.0523,-1.46223 0.49606,-2.23235 0.61304,-0.86093 1.70358,-3.3518 2.04781,-4.67735 0.44449,-1.71159 0.44381,-5.34852 -10e-4,-7.05556 -0.3687,-1.41395 -1.27504,-3.47546 -2.07834,-4.72731 -1.20563,-1.87868 -0.30154,-3.82755 1.77552,-3.82755 0.94375,0 1.56619,0.55198 2.54198,2.25418 1.72197,3.0039 2.4231,5.47891 2.54983,9.00098 0.13711,3.81016 -0.47141,6.68428 -2.07982,9.82331 -1.34933,2.63341 -2.26334,3.42154 -3.64473,3.14275 z"
       id="path2301"
       inkscape:connector-curvature="0" />
  </g>
</svg>
