<?xml version="1.0" encoding="UTF-8" standalone="no"?>
<!-- Created with Inkscape (http://www.inkscape.org/) -->

<svg
   xmlns:dc="http://purl.org/dc/elements/1.1/"
   xmlns:cc="http://creativecommons.org/ns#"
   xmlns:rdf="http://www.w3.org/1999/02/22-rdf-syntax-ns#"
   xmlns:svg="http://www.w3.org/2000/svg"
   xmlns="http://www.w3.org/2000/svg"
   xmlns:sodipodi="http://sodipodi.sourceforge.net/DTD/sodipodi-0.dtd"
   xmlns:inkscape="http://www.inkscape.org/namespaces/inkscape"
   width="56.75037mm"
   height="33.12252mm"
   viewBox="0 0 56.750371 33.122521"
   version="1.1"
   id="svg822"
   inkscape:version="0.92.2 5c3e80d, 2017-08-06"
   sodipodi:docname="blanket.svg">
  <defs
     id="defs816" />
  <sodipodi:namedview
     id="base"
     pagecolor="#ffffff"
     bordercolor="#666666"
     borderopacity="1.0"
     inkscape:pageopacity="0.0"
     inkscape:pageshadow="2"
     inkscape:zoom="0.49497475"
     inkscape:cx="389.52803"
     inkscape:cy="12.773847"
     inkscape:document-units="mm"
     inkscape:current-layer="layer1"
     showgrid="false"
     fit-margin-top="0"
     fit-margin-left="0"
     fit-margin-right="0"
     fit-margin-bottom="0"
     inkscape:window-width="1440"
     inkscape:window-height="813"
     inkscape:window-x="34"
     inkscape:window-y="0"
     inkscape:window-maximized="0" />
  <metadata
     id="metadata819">
    <rdf:RDF>
      <cc:Work
         rdf:about="">
        <dc:format>image/svg+xml</dc:format>
        <dc:type
           rdf:resource="http://purl.org/dc/dcmitype/StillImage" />
        <dc:title></dc:title>
      </cc:Work>
    </rdf:RDF>
  </metadata>
  <g
     inkscape:label="Layer 1"
     inkscape:groupmode="layer"
     id="layer1"
     transform="translate(-54.597626,-236.68917)">
    <path
       style="fill:#000000;stroke-width:0.17638889;stroke:#000000;stroke-opacity:1"
       d="m 100.8877,269.21099 c -3.943595,-0.72491 -14.056525,-2.74158 -17.768985,-3.5434 -3.24735,-0.70136 -4.60168,-0.8369 -13.09908,-1.31093 -11.47819,-0.64031 -13.301119,-0.977 -14.269795,-2.6356 -0.577867,-0.98945 -0.375415,-3.06219 0.503725,-5.15723 0.09199,-0.21923 -0.02108,-0.37206 -0.432796,-0.58496 -0.343586,-0.17768 -0.685816,-0.57122 -0.892367,-1.02616 -0.677565,-1.49238 -0.311997,-3.72075 1.076585,-6.56245 0.84908,-1.73762 0.883859,-1.77914 2.054289,-2.45231 1.33319,-0.76678 2.947953,-2.20964 3.356002,-2.99872 0.193101,-0.37341 0.240042,-0.79974 0.166028,-1.50787 -0.169656,-1.62318 0.674593,-3.02336 2.598017,-4.30879 0.869036,-0.58078 1.470676,-0.57876 3.412303,0.0115 1.527069,0.46423 1.634939,0.47165 8.778009,0.60387 7.31034,0.13532 9.98688,0.32969 14.13809,1.02667 3.55842,0.59747 5.41076,0.73865 11.702895,0.89198 3.37926,0.0824 6.29321,0.22939 6.55268,0.33064 1.04631,0.40832 1.29129,1.60892 0.74123,3.63263 -0.33443,1.23039 -0.40761,1.34259 -0.89975,1.37966 -0.3183,0.024 -0.4156,0.30048 -0.81924,2.32817 -0.5368,2.69666 -0.98567,5.74736 -0.9744,6.62249 0.008,0.59218 0.0153,0.59938 0.18758,0.17639 0.31256,-0.76727 1.35247,-5.14697 1.56426,-6.588 0.11191,-0.76149 0.15794,-1.56598 0.10227,-1.78775 -0.0822,-0.32755 -0.018,-0.41913 0.34227,-0.488 0.2439,-0.0466 0.47611,-0.0319 0.51601,0.0326 0.12397,0.20059 -0.0623,2.34109 -0.32383,3.72185 -0.27595,1.45674 -0.26315,1.48371 0.78358,1.65109 1.02668,0.16418 1.46058,0.82353 1.34713,2.04709 -0.0495,0.53358 -0.25191,1.34337 -0.44985,1.79954 -0.28235,0.65071 -0.3245,0.95279 -0.19562,1.40216 0.5376,1.87451 -2.396,10.65026 -4.41046,13.19373 -0.52147,0.65841 -0.63012,0.7131 -1.38876,0.69902 -0.45266,-0.008 -2.25177,-0.27791 -3.99802,-0.59891 z m 4.90808,-0.84103 c 0.65711,-0.87989 0.7851,-1.54106 0.99878,-5.15937 0.22874,-3.87349 0.49435,-5.36418 1.22276,-6.86258 0.66675,-1.37155 0.92507,-1.68338 1.52815,-1.84466 0.55199,-0.14763 0.9197,-0.92316 0.942,-1.98679 0.0161,-0.76865 -0.21501,-0.99179 -1.10534,-1.06712 l -0.67251,-0.0569 -0.6011,2.07865 c -0.77213,2.67013 -1.58115,4.60503 -2.23845,5.35366 -0.45882,0.52256 -0.62456,0.59339 -1.3887,0.59339 -0.8783,0 -7.338895,-0.61471 -8.407125,-0.79993 -0.5714,-0.0991 -0.58829,-0.0826 -1.12327,1.0973 -0.80379,1.77273 -1.42121,4.34277 -1.33941,5.57537 0.11178,1.68443 0.16026,1.70829 5.42405,2.67055 2.473855,0.45223 4.616975,0.84892 4.762505,0.88152 0.14552,0.0326 0.5582,0.0685 0.91706,0.0797 0.54259,0.017 0.72459,-0.0761 1.0806,-0.55281 z M 92.930525,266.2533 c -0.0545,-0.3153 -0.13062,-0.67572 -0.16921,-0.80095 -0.15555,-0.50482 0.33657,-3.05097 0.91058,-4.71121 0.33542,-0.97014 0.65373,-1.89082 0.70735,-2.04597 0.0813,-0.23533 -0.11674,-0.30197 -1.19495,-0.40203 -0.71084,-0.066 -1.5903,-0.16748 -1.95437,-0.2256 l -0.66193,-0.10566 -0.78455,1.6562 c -0.4315,0.91091 -0.90754,2.12839 -1.05786,2.70551 -0.49928,1.91688 -0.27933,3.53036 0.50658,3.71616 0.46087,0.10895 3.49712,0.74538 3.66952,0.76917 0.0703,0.01 0.0833,-0.24033 0.0288,-0.55562 z m -5.31341,-1.59367 c -0.10439,-1.30043 0.33675,-3.12214 1.28716,-5.3154 0.33293,-0.7683 0.58571,-1.41472 0.56174,-1.43649 -0.024,-0.0218 -2.31421,-0.32773 -5.0894,-0.67993 -4.38903,-0.557 -5.44516,-0.63406 -8.11389,-0.59198 l -3.06809,0.0484 -0.59337,1.5875 c -0.79942,2.13873 -1.21155,4.14764 -0.98381,4.79557 l 0.17436,0.4961 3.43544,0.21454 c 4.2262,0.26392 5.26672,0.40781 9.16808,1.2678 1.69774,0.37423 3.13719,0.6899 3.19878,0.70147 0.0616,0.0116 0.0719,-0.47782 0.023,-1.08755 z m 21.585635,-4.62404 c 0.63664,-2.18525 0.83391,-3.97191 0.47802,-4.32937 -0.24676,-0.24785 -0.92989,0.86116 -1.36299,2.2127 -0.32284,1.00748 -0.63564,3.68952 -0.62743,5.37986 l 0.006,1.14653 0.44508,-1.14653 c 0.2448,-0.63059 0.72259,-2.09903 1.06175,-3.26319 z m -38.483705,3.03692 c -0.15993,-0.63722 0.23451,-2.70853 0.87225,-4.58032 l 0.58594,-1.7198 h -1.57379 -1.57378 l -0.33121,0.74966 c -0.590407,1.3363 -1.236456,3.85222 -1.236456,4.81515 0,0.92746 0.0072,0.94012 0.573264,1.01037 0.315295,0.0391 1.070872,0.0838 1.679052,0.0994 1.06902,0.0273 1.10243,0.0148 1.00473,-0.37443 z m -4.095411,-1.14498 c 0.07964,-1.16194 0.59074,-3.09276 1.281749,-4.84216 0.112158,-0.28395 -0.174084,-0.30172 -4.262618,-0.26459 -2.410566,0.0219 -4.839608,-0.0255 -5.39787,-0.10527 l -1.015022,-0.14509 -0.33237,0.77539 c -0.59536,1.38892 -0.807338,2.6875 -0.568714,3.48396 0.433435,1.44667 1.795367,1.82831 8.399183,2.35359 0.388055,0.0309 0.952182,0.0695 1.253615,0.0858 l 0.548058,0.0297 z m 38.911476,-4.05271 c 0.26661,-0.5295 0.35287,-1.20685 0.43244,-3.39548 0.095,-2.61254 0.5465,-5.76678 1.27355,-8.89671 0.34985,-1.5061 0.53294,-1.86301 0.95569,-1.86301 0.65121,0 1.01545,-2.35462 0.43832,-2.83359 -0.38128,-0.31644 -10.128665,-0.4924 -10.128665,-0.18285 0,0.39799 -2.62606,5.87191 -3.35021,6.98337 -0.82421,1.26505 -1.42833,2.86994 -1.8404,4.88917 -0.47991,2.35171 -0.30225,4.04716 0.49324,4.70688 0.35144,0.29146 7.542455,1.1457 10.294135,1.22287 l 1.09885,0.0308 z m -13.044645,-1.05833 c -0.31257,-0.81338 -0.20846,-3.39901 0.2089,-5.18799 0.49286,-2.11257 0.89144,-3.11708 1.84313,-4.64505 0.68392,-1.09806 3.082,-6.10475 3.082,-6.43457 0,-0.0708 -0.81359,-0.18223 -1.80798,-0.24767 -1.7138,-0.11278 -2.81157,-0.25287 -6.92327,-0.88347 -3.05817,-0.46903 -5.17104,-0.63928 -9.36917,-0.75497 l -4.07752,-0.11236 -0.75169,1.30578 c -1.38891,2.41271 -2.79589,4.6494 -3.59531,5.71551 l -0.7936,1.05833 1.35615,0.0882 c 1.2407,0.0807 1.36094,0.12198 1.41251,0.48507 0.0555,0.39106 0.0278,0.39687 -1.89618,0.39687 -1.7486,0 -1.99125,0.0387 -2.32311,0.37056 -0.81053,0.81053 -1.883419,4.20466 -2.04719,6.47637 l -0.105765,1.46708 6.421135,-0.10778 6.42113,-0.10777 5.99723,0.78519 c 3.29847,0.43185 6.25322,0.79251 6.56612,0.80146 0.54986,0.0157 0.56266,5e-5 0.38248,-0.46879 z m -15.94444,-8.80014 c -2.10363,-0.26295 -2.05236,-0.24628 -1.99502,-0.64907 0.0513,-0.36057 0.1315,-0.38041 1.28947,-0.31917 1.51836,0.0803 2.07426,0.2711 1.9954,0.68487 -0.0612,0.32132 -0.39667,0.39501 -1.28985,0.28337 z m -11.885566,7.93772 1.167209,-0.11026 0.112289,-1.3437 c 0.138344,-1.65548 0.837923,-4.33517 1.506501,-5.77055 l 0.500937,-1.07546 -3.814572,0.0749 c -2.098015,0.0412 -4.430987,0.004 -5.184383,-0.0819 -1.565068,-0.17907 -1.567191,-0.17789 -2.294161,1.27598 -1.076528,2.15295 -1.480575,4.65274 -0.925521,5.7261 0.450257,0.8707 2.530298,1.34665 6.088797,1.39321 0.921632,0.0121 2.200938,-0.0277 2.842904,-0.0883 z m 4.977866,-9.96757 c 0.84647,-0.95001 2.28811,-3.10907 3.65657,-5.47626 l 1.05081,-1.81771 -2.6922,-0.10924 c -2.1881,-0.0888 -2.97294,-0.19544 -4.191506,-0.56957 -2.056962,-0.63152 -2.26173,-0.61057 -3.443818,0.35235 -1.27804,1.04108 -1.667357,1.85486 -1.543075,3.22546 0.0668,0.73669 0.01221,1.1565 -0.205038,1.5766 -0.429165,0.82992 -1.450628,1.91308 -2.616361,2.7744 -0.997143,0.73676 -1.007638,0.75339 -0.529166,0.83868 0.268484,0.0479 2.59159,0.0596 5.162458,0.0261 l 4.674306,-0.0609 z"
       id="path2473"
       inkscape:connector-curvature="0" />
  </g>
</svg>
