<?xml version="1.0" encoding="UTF-8" standalone="no"?>
<!-- Created with Inkscape (http://www.inkscape.org/) -->

<svg
   xmlns:dc="http://purl.org/dc/elements/1.1/"
   xmlns:cc="http://creativecommons.org/ns#"
   xmlns:rdf="http://www.w3.org/1999/02/22-rdf-syntax-ns#"
   xmlns:svg="http://www.w3.org/2000/svg"
   xmlns="http://www.w3.org/2000/svg"
   xmlns:sodipodi="http://sodipodi.sourceforge.net/DTD/sodipodi-0.dtd"
   xmlns:inkscape="http://www.inkscape.org/namespaces/inkscape"
   width="56.203606mm"
   height="61.004333mm"
   viewBox="0 0 56.203606 61.004333"
   version="1.1"
   id="svg1856"
   inkscape:version="0.92.2 5c3e80d, 2017-08-06"
   sodipodi:docname="brain.svg">
  <defs
     id="defs1850" />
  <sodipodi:namedview
     id="base"
     pagecolor="#ffffff"
     bordercolor="#666666"
     borderopacity="1.0"
     inkscape:pageopacity="0.0"
     inkscape:pageshadow="2"
     inkscape:zoom="0.35"
     inkscape:cx="-251.37428"
     inkscape:cy="-241.232"
     inkscape:document-units="mm"
     inkscape:current-layer="layer1"
     showgrid="false"
     fit-margin-top="0"
     fit-margin-left="0"
     fit-margin-right="0"
     fit-margin-bottom="0"
     inkscape:window-width="1440"
     inkscape:window-height="811"
     inkscape:window-x="0"
     inkscape:window-y="1"
     inkscape:window-maximized="1" />
  <metadata
     id="metadata1853">
    <rdf:RDF>
      <cc:Work
         rdf:about="">
        <dc:format>image/svg+xml</dc:format>
        <dc:type
           rdf:resource="http://purl.org/dc/dcmitype/StillImage" />
        <dc:title></dc:title>
      </cc:Work>
    </rdf:RDF>
  </metadata>
  <g
     inkscape:label="Layer 1"
     inkscape:groupmode="layer"
     id="layer1"
     transform="translate(-21.908255,-24.003031)">
    <path
       style="fill:#000000;stroke-width:0.17638889"
       d="m 40.855844,84.758879 c -2.136036,-0.58405 -3.72378,-1.78465 -4.810222,-3.63735 -0.505095,-0.86132 -0.61839,-0.95109 -1.333964,-1.05697 -1.735341,-0.25676 -2.817062,-0.68791 -4.42267,-1.76276 -2.617574,-1.7523 -3.917416,-4.742814 -3.323606,-7.646544 0.445501,-2.17849 0.464356,-2.0689 -0.437064,-2.54054 -1.038277,-0.54325 -2.728778,-2.17111 -3.314941,-3.1921 -1.482944,-2.58301 -1.586425,-5.98241 -0.262915,-8.63691 0.432091,-0.86662 0.955448,-1.23651 2.544223,-1.79816 2.264675,-0.8006 2.919553,-0.90951 5.524566,-0.91879 3.178649,-0.0113 5.114715,0.41271 7.634095,1.67204 1.671904,0.8357 2.77285,0.57537 2.77285,-0.65566 0,-0.79517 -0.399696,-1.20576 -1.855608,-1.9062 -1.672414,-0.8046 -3.195497,-1.30161 -5.164533,-1.68529 -1.916407,-0.37343 -6.642411,-0.17281 -8.06111,0.34219 -1.444479,0.52436 -2.906442,0.91006 -3.068904,0.80965 -0.106859,-0.066 -0.19429,-0.2377 -0.19429,-0.38146 0,-0.14377 -0.148757,-0.75424 -0.330572,-1.35661 -0.516403,-1.71089 -0.701935,-2.73225 -0.807738,-4.4466 -0.42207,-6.8389 2.980167,-12.38253 8.744048,-14.24761 1.215537,-0.39333 1.3147,-0.4656 1.765302,-1.28665 0.987675,-1.79965 3.123804,-3.77972 5.181043,-4.80253 2.418467,-1.2024 4.270021,-1.62463 7.108337,-1.62097 2.02917,0.003 3.03699,0.19299 3.63089,0.68589 0.26043,0.21614 0.28508,2.78805 0.28508,29.74812 v 29.511534 l -0.48507,0.33781 c -0.26679,0.1858 -0.75488,0.42933 -1.08465,0.54118 -0.80247,0.27218 -5.1616,0.22412 -6.232577,-0.0687 z M 40.99324,72.603555 c 0.339314,-0.33932 0.432949,-0.6159 0.432926,-1.27882 -3e-5,-0.83781 -0.358416,-2.9565 -0.688159,-4.06823 -0.842422,-2.8402 -3.518542,-5.4697 -6.367367,-6.25641 -1.391433,-0.38426 -1.940516,-0.37208 -2.393059,0.0531 -0.90784,0.85287 -0.355634,1.86452 1.246531,2.28367 1.466275,0.3836 2.424003,0.90937 3.358199,1.84357 1.355426,1.35542 2.109211,3.26413 2.321897,5.87942 0.08885,1.09253 0.170771,1.33853 0.543343,1.6316 0.584668,0.45989 1.022839,0.43499 1.545689,-0.0879 z m -2.471688,-29.54218 c 2.813727,-0.77972 4.570427,-2.43476 5.202379,-4.9013 0.28162,-1.09921 0.0746,-1.66376 -0.732776,-1.99818 -0.418742,-0.17345 -0.581325,-0.15868 -0.956037,0.0868 -0.248322,0.1627 -0.47785,0.39042 -0.510063,0.50604 -0.03221,0.11561 -0.154873,0.56739 -0.27258,1.00395 -0.472776,1.75352 -2.424433,2.93362 -5.235596,3.1658 -1.44578,0.11941 -1.999017,0.47124 -1.999017,1.27126 0,0.27601 0.15875,0.66058 0.352778,0.85461 0.475938,0.47594 2.45418,0.48117 4.150912,0.011 z m 13.840749,41.484314 -0.97014,-0.48487 V 54.427475 24.794145 l 0.79375,-0.3896 c 0.68886,-0.33812 1.0895,-0.39057 3.03177,-0.39688 2.31019,-0.007 3.55763,0.19252 5.51389,0.88416 2.80453,0.99154 5.32107,3.00341 6.69462,5.35207 0.59728,1.0213 0.73479,1.14633 1.48434,1.34962 5.49355,1.48992 9.21343,6.8224 9.2013,13.19013 -0.003,1.44949 -0.29561,3.85282 -0.58404,4.79314 -0.0446,0.14552 -0.2681,0.89166 -0.49659,1.65808 -0.33489,1.12334 -0.58318,1.57852 -1.28074,2.34784 -2.41777,2.66652 -5.76678,4.05738 -10.68289,4.43666 -1.9393,0.14962 -2.23675,0.21558 -2.51355,0.55741 -0.38707,0.47802 -0.4036,1.20046 -0.0394,1.72048 0.25494,0.36397 0.40958,0.39178 2.16077,0.38856 2.04248,-0.004 4.49149,-0.39146 6.55887,-1.03833 1.14865,-0.35941 3.79001,-1.76887 4.65103,-2.48184 1.01106,-0.83722 1.29017,-0.87772 1.54812,-0.22462 1.06935,2.70742 0.834,5.78763 -0.60986,7.98159 -0.99612,1.51363 -2.80836,3.11205 -4.06428,3.58475 -0.24393,0.0918 -0.29772,0.2255 -0.20858,0.51844 0.0661,0.2171 0.20629,0.67254 0.31162,1.01209 0.10533,0.33955 0.22419,1.29329 0.26413,2.11942 0.0801,1.656 -0.19735,2.594674 -1.12705,3.813574 -0.98491,1.29128 -3.27598,2.4641 -5.47069,2.80049 -0.84678,0.12979 -1.5065,-0.12263 -3.08809,-1.18155 -1.353,-0.90587 -2.68474,-2.28918 -3.43308,-3.566024 -0.66689,-1.13789 -1.28821,-3.27761 -1.29256,-4.45144 -0.004,-1.0073 -0.46526,-1.5453 -1.32562,-1.5453 -0.4901,0 -0.75447,0.11261 -1.01453,0.43215 -0.30832,0.37883 -0.33878,0.6017 -0.24684,1.80617 0.16778,2.19819 0.37345,2.82965 1.85046,5.681544 0.45074,0.8703 3.21698,3.53 4.3057,4.13985 0.55783,0.31247 1.01423,0.67866 1.01423,0.81376 0,0.49438 -2.07266,2.30509 -3.39873,2.96919 -1.78482,0.89383 -2.37303,1.03394 -4.62696,1.10213 -1.82403,0.0552 -1.99841,0.0297 -2.91042,-0.42617 z m 18.1348,-36.563274 c 0.50805,-0.47332 0.48938,-1.14054 -0.0469,-1.67684 -0.34967,-0.34967 -0.61264,-0.43348 -1.36701,-0.43566 -1.10865,-0.003 -3.37398,-0.54564 -4.34268,-1.03983 -1.73767,-0.8865 -3.55874,-3.23145 -3.55874,-4.58251 0,-0.74529 -0.31682,-1.3575 -0.8215,-1.58745 -0.60313,-0.2748 -0.77513,-0.24876 -1.2397,0.18768 -0.71251,0.66937 -0.5108,2.44673 0.50383,4.43948 0.6055,1.18921 2.70614,3.15246 4.06346,3.79769 1.60955,0.76513 3.4893,1.22384 5.08947,1.24197 1.11148,0.0126 1.39808,-0.0448 1.71979,-0.34453 z"
       id="path2469"
       inkscape:connector-curvature="0" />
  </g>
</svg>
