<?xml version="1.0" encoding="UTF-8" standalone="no"?>
<!-- Created with Inkscape (http://www.inkscape.org/) -->

<svg
   xmlns:dc="http://purl.org/dc/elements/1.1/"
   xmlns:cc="http://creativecommons.org/ns#"
   xmlns:rdf="http://www.w3.org/1999/02/22-rdf-syntax-ns#"
   xmlns:svg="http://www.w3.org/2000/svg"
   xmlns="http://www.w3.org/2000/svg"
   xmlns:sodipodi="http://sodipodi.sourceforge.net/DTD/sodipodi-0.dtd"
   xmlns:inkscape="http://www.inkscape.org/namespaces/inkscape"
   width="146.16214mm"
   height="146.14621mm"
   viewBox="0 0 146.16214 146.14621"
   version="1.1"
   id="svg822"
   inkscape:version="0.92.2 5c3e80d, 2017-08-06"
   sodipodi:docname="bread.svg">
  <defs
     id="defs816" />
  <sodipodi:namedview
     id="base"
     pagecolor="#ffffff"
     bordercolor="#666666"
     borderopacity="1.0"
     inkscape:pageopacity="0.0"
     inkscape:pageshadow="2"
     inkscape:zoom="0.49497475"
     inkscape:cx="362.43144"
     inkscape:cy="45.293563"
     inkscape:document-units="mm"
     inkscape:current-layer="layer1"
     showgrid="false"
     fit-margin-top="0"
     fit-margin-left="0"
     fit-margin-right="0"
     fit-margin-bottom="0"
     inkscape:window-width="1440"
     inkscape:window-height="813"
     inkscape:window-x="0"
     inkscape:window-y="1"
     inkscape:window-maximized="1" />
  <metadata
     id="metadata819">
    <rdf:RDF>
      <cc:Work
         rdf:about="">
        <dc:format>image/svg+xml</dc:format>
        <dc:type
           rdf:resource="http://purl.org/dc/dcmitype/StillImage" />
        <dc:title></dc:title>
      </cc:Work>
    </rdf:RDF>
  </metadata>
  <g
     inkscape:label="Layer 1"
     inkscape:groupmode="layer"
     id="layer1"
     transform="translate(-61.766933,-132.26964)">
    <path
       style="fill:#000000;stroke-width:0.17638889"
       d="m 77.351622,278.27796 c -3.11287,-0.48861 -5.39388,-1.82392 -7.8016,-4.56707 -7.51019,-8.55648 -9.59173,-20.92691 -6.21641,-36.94372 1.43508,-6.80983 3.9303,-13.9814 6.9422,-19.95273 l 1.60145,-3.175 2.02847,0.0265 c 1.63826,0.0214 3.64022,0.29894 10.40695,1.44271 11.85621,2.00403 13.74912,2.22463 19.138188,2.2303 3.78806,0.004 4.55892,-0.0411 5.46805,-0.31963 3.02182,-0.92591 3.42374,-2.34075 1.30758,-4.60293 -3.32405,-3.55343 -11.202198,-7.07763 -18.799508,-8.40976 -2.9568,-0.51846 -7.64294,-0.56386 -9.99411,-0.0968 -2.10738,0.4186 -4.22812,1.21031 -5.74164,2.14347 l -1.25634,0.77458 v -0.85411 c 0,-1.33678 0.63601,-4.72389 1.24706,-6.64132 1.04381,-3.27541 2.62887,-6.01346 4.81111,-8.31079 2.03992,-2.14751 3.86169,-3.39049 8.05294,-5.49448 2.0858,-1.04707 4.098,-2.1132 4.47156,-2.3692 0.88801,-0.60853 1.59564,-0.74431 3.73052,-0.71578 2.91248,0.0389 6.931678,0.88619 14.158628,2.98477 15.47445,4.49352 18.93545,5.3906 23.14478,5.9991 2.80254,0.40513 5.92555,0.29476 7.14659,-0.25256 1.62374,-0.72782 2.36488,-1.83436 2.12056,-3.16603 -1.01896,-5.55401 -20.02024,-13.64702 -33.0897,-14.09355 -4.14031,-0.14145 -6.93614,0.32968 -8.67048,1.46108 -0.36172,0.23597 -0.7,0.42904 -0.75174,0.42904 -0.0956,0 -0.0393,-0.52374 0.29367,-2.73403 0.60137,-3.99181 2.64279,-7.69727 5.48208,-9.95074 2.60696,-2.06908 5.63134,-3.24052 12.08168,-4.67965 4.66169,-1.04005 6.10344,-1.5071 7.31381,-2.36929 0.99422,-0.70822 1.81658,-0.8116 3.84303,-0.48314 2.30431,0.37349 4.6673,1.00808 12.25903,3.29219 11.45074,3.44516 16.66989,4.61518 20.7257,4.64624 2.64054,0.0202 4.01612,-0.31542 5.10199,-1.24488 2.57677,-2.20562 -0.75571,-5.56178 -8.80993,-8.87253 -8.64517,-3.55367 -19.01418,-5.33398 -24.13432,-4.14376 -0.54693,0.12713 -1.01852,0.20705 -1.04797,0.1776 -0.0295,-0.0294 0.50906,-0.89492 1.19669,-1.92326 2.2819,-3.41251 5.01139,-5.93139 7.94931,-7.33592 2.56688,-1.22715 3.72933,-1.44305 8.54353,-1.58678 l 4.23333,-0.12638 2.25341,-0.91262 c 5.79807,-2.34821 11.71694,-4.00621 17.41395,-4.87801 2.57286,-0.39372 7.74778,-0.537 10.14236,-0.28081 7.28383,0.77926 13.32936,3.6003 18.36343,8.56896 1.6937,1.6717 2.06696,2.14782 2.69655,3.43959 1.03198,2.11738 1.30947,3.60854 1.19806,6.43819 -0.10775,2.73667 -0.70437,5.29895 -1.97958,8.5017 -5.3843,13.52293 -20.04274,31.8168 -48.50068,60.52934 -31.15816,31.43692 -50.59715,47.7962 -65.205058,54.87469 -5.87841,2.84847 -11.1805,4.10622 -14.86918,3.52723 z"
       id="path1783"
       inkscape:connector-curvature="0" />
  </g>
</svg>
