<?xml version="1.0" encoding="UTF-8" standalone="no"?>
<svg
   xmlns:dc="http://purl.org/dc/elements/1.1/"
   xmlns:cc="http://creativecommons.org/ns#"
   xmlns:rdf="http://www.w3.org/1999/02/22-rdf-syntax-ns#"
   xmlns:svg="http://www.w3.org/2000/svg"
   xmlns="http://www.w3.org/2000/svg"
   xmlns:sodipodi="http://sodipodi.sourceforge.net/DTD/sodipodi-0.dtd"
   xmlns:inkscape="http://www.inkscape.org/namespaces/inkscape"
   class="icon"
   height="382.82129"
   viewBox="0 0 471.3349 765.64258"
   version="1.1"
   id="svg4"
   sodipodi:docname="cone.svg"
   width="471.3349"
   inkscape:version="0.92.2 5c3e80d, 2017-08-06">
  <metadata
     id="metadata10">
    <rdf:RDF>
      <cc:Work
         rdf:about="">
        <dc:format>image/svg+xml</dc:format>
        <dc:type
           rdf:resource="http://purl.org/dc/dcmitype/StillImage" />
        <dc:title />
      </cc:Work>
    </rdf:RDF>
  </metadata>
  <defs
     id="defs8" />
  <sodipodi:namedview
     pagecolor="#ffffff"
     bordercolor="#666666"
     borderopacity="1"
     objecttolerance="10"
     gridtolerance="10"
     guidetolerance="10"
     inkscape:pageopacity="0"
     inkscape:pageshadow="2"
     inkscape:window-width="1083"
     inkscape:window-height="722"
     id="namedview6"
     showgrid="false"
     fit-margin-top="0"
     fit-margin-left="0"
     fit-margin-right="0"
     fit-margin-bottom="0"
     inkscape:zoom="0.2175957"
     inkscape:cx="-587.0589"
     inkscape:cy="191.41228"
     inkscape:window-x="235"
     inkscape:window-y="93"
     inkscape:window-maximized="0"
     inkscape:current-layer="svg4" />
  <path
     d="M 21.543559,689.14782 592.25753,421.3864 a 31.370809,31.370809 0 0 0 18.03575,-28.39488 v -1.95649 A 31.375958,31.375958 0 0 0 592.25753,362.64015 L 21.543559,94.878731 A 31.530418,31.530418 0 0 0 4.7383194,92.103596 C -8.7202906,93.607011 -126.012,114.61871 -127.69046,385.1398 a 31.705472,31.705472 0 0 0 -0.98855,7.85172 c 0,276.12284 119.7836694,297.41257 133.4379234,298.92627 a 31.339917,31.339917 0 0 0 16.7846456,-2.76997 z m -87.49639,-290.42069 a 30.891983,30.891983 0 0 0 0.96794,-7.69725 c 0,-179.69867 52.434,-223.92569 71.3398924,-234.00678 l 18.1181476,8.5056 a 12.305307,12.305307 0 0 0 6.080572,2.85751 L 507.20158,392.01327 58.21234,602.67601 c 2.20878,-6.27108 -0.803191,-13.29386 -7.089705,-15.80125 a 12.547294,12.547294 0 0 0 -16.300673,6.99703 241.20976,241.20976 0 0 1 -12.032426,25.4241 L 6.2726204,627.04463 C -12.586931,617.1489 -64.825271,573.95676 -65.952831,398.72713 Z M 87.539137,312.97098 c -1.354102,-14.29784 -3.156133,-28.3125 -5.328869,-41.65269 a 12.547294,12.547294 0 0 0 -14.400818,-10.35911 12.557591,12.557591 0 0 0 -10.359106,14.40081 602.13625,602.13625 0 0 1 5.128069,39.98968 12.521551,12.521551 0 0 0 13.674851,11.28587 c 6.904356,-0.64359 12.181738,-6.65208 11.285873,-13.66456 z M 73.776754,229.97452 a 397.34299,397.34299 0 0 0 -12.39283,-40.6384 12.539544,12.539544 0 1 0 -23.534548,8.6652 369.66377,369.66377 0 0 1 11.589646,38.04347 12.573038,12.573038 0 0 0 15.214302,9.14403 12.624524,12.624524 0 0 0 9.12343,-15.2143 z m -2.249967,332.76845 a 491.62532,491.62532 0 0 0 9.164623,-41.2202 c 1.282014,-6.85803 -3.320888,-13.3299 -10.132569,-14.56043 a 12.557591,12.557591 0 0 0 -14.565574,10.13772 467.81275,467.81275 0 0 1 -8.696094,39.10925 12.567889,12.567889 0 0 0 8.840256,15.39451 12.578186,12.578186 0 0 0 15.389358,-8.86085 z m 15.116477,-82.8317 a 786.93209,786.93209 0 0 0 3.326038,-41.72993 c 0.478823,-6.80653 -4.968464,-12.80472 -11.87797,-13.18573 a 12.578186,12.578186 0 0 0 -13.185728,11.87797 c -0.715659,13.68514 -1.796881,27.26218 -3.19732,40.33978 a 12.540255,12.540255 0 0 0 24.93498,2.69791 z m 9.406611,-83.42381 v -4.48964 c 0,-12.99008 -1.318058,-25.4138 -1.812332,-37.28662 -0.27288,-6.92495 -7.172087,-12.29501 -14.081593,-12.01698 -6.749901,0.27803 -9.195518,5.83343 -9.195518,12.5164 v 41.17387 a 12.547294,12.547294 0 0 0 12.434025,12.54729 c 6.930099,0.067 12.655418,-5.51937 12.655418,-12.44432 z"
     id="path2"
     inkscape:connector-curvature="0"
     style="stroke-width:0.78391427" />
</svg>
