<?xml version="1.0" encoding="UTF-8" standalone="no"?>
<svg
   xmlns:dc="http://purl.org/dc/elements/1.1/"
   xmlns:cc="http://creativecommons.org/ns#"
   xmlns:rdf="http://www.w3.org/1999/02/22-rdf-syntax-ns#"
   xmlns:svg="http://www.w3.org/2000/svg"
   xmlns="http://www.w3.org/2000/svg"
   xmlns:sodipodi="http://sodipodi.sourceforge.net/DTD/sodipodi-0.dtd"
   xmlns:inkscape="http://www.inkscape.org/namespaces/inkscape"
   width="384.47043"
   height="368.59796"
   version="1.1"
   id="svg18"
   sodipodi:docname="cursesvg.svg"
   inkscape:version="0.92.2 5c3e80d, 2017-08-06">
  <metadata
     id="metadata22">
    <rdf:RDF>
      <cc:Work
         rdf:about="">
        <dc:format>image/svg+xml</dc:format>
        <dc:type
           rdf:resource="http://purl.org/dc/dcmitype/StillImage" />
        <dc:title></dc:title>
      </cc:Work>
    </rdf:RDF>
  </metadata>
  <sodipodi:namedview
     pagecolor="#ffffff"
     bordercolor="#666666"
     borderopacity="1"
     objecttolerance="10"
     gridtolerance="10"
     guidetolerance="10"
     inkscape:pageopacity="0"
     inkscape:pageshadow="2"
     inkscape:window-width="1396"
     inkscape:window-height="810"
     id="namedview20"
     showgrid="false"
     fit-margin-top="0"
     fit-margin-left="0"
     fit-margin-right="0"
     fit-margin-bottom="0"
     inkscape:zoom="0.85218394"
     inkscape:cx="218.14918"
     inkscape:cy="131.77433"
     inkscape:window-x="0"
     inkscape:window-y="0"
     inkscape:window-maximized="0"
     inkscape:current-layer="g16" />
  <desc
     id="desc2">/Volumes/3D PRINTING/lasercuts/card_box_10.dxf - scale = 1.000000, origin = (0.000000, 0.000000), method = manual</desc>
  <defs
     id="defs14">
    <marker
       id="DistanceX"
       orient="auto"
       refX="0"
       refY="0"
       style="overflow:visible">
      <path
         d="M 3,-3 -3,3 M 0,-5 V 5"
         style="stroke:#000000;stroke-width:0.5"
         id="path4"
         inkscape:connector-curvature="0" />
    </marker>
    <pattern
       height="8"
       id="Hatch"
       patternUnits="userSpaceOnUse"
       width="8"
       x="0"
       y="0">
      <path
         d="M8 4 l-4,4"
         linecap="square"
         stroke="#000000"
         stroke-width="0.25"
         id="path7" />
      <path
         d="M6 2 l-4,4"
         linecap="square"
         stroke="#000000"
         stroke-width="0.25"
         id="path9" />
      <path
         d="M4 0 l-4,4"
         linecap="square"
         stroke="#000000"
         stroke-width="0.25"
         id="path11" />
    </pattern>
  </defs>
  <g
     inkscape:groupmode="layer"
     inkscape:label="0"
     id="g16"
     transform="translate(69.703315,186.93393)">
    <g
       aria-label="10"
       style="font-style:normal;font-weight:normal;font-size:34.07538605px;line-height:1.25;font-family:sans-serif;letter-spacing:0px;word-spacing:0px;fill:#000000;fill-opacity:1;stroke:none;stroke-width:0.8518846"
       id="text985" />
    <path
       style="fill:#000000;stroke-width:0.66666669"
       d="m 193.72181,181.66082 c -2.80304,-0.0375 -5.99644,-0.2871 -7.09644,-0.5546 -1.1,-0.2675 -3.35,-1.09144 -5,-1.83097 -1.65,-0.73954 -4.57024,-2.76348 -6.48942,-4.49766 -2.39226,-2.16165 -4.2138,-4.65633 -5.79332,-7.93412 -1.26714,-2.62959 -10.90836,-29.53107 -21.4249,-59.78107 -10.51656,-30.250014 -19.44637,-56.880095 -19.84403,-59.177965 -0.71779,-4.14773 -0.74253,-4.18277 -3.41901,-4.84345 -1.4828,-0.36602 -4.98106,-1.50872 -7.77392,-2.53935 l -5.07794,-1.87387 -7.92206,12.66915 c -4.357141,6.968031 -8.014711,13.043191 -8.127941,13.500371 -0.11322,0.45716 0.41178,2.04188 1.16667,3.5216 0.78029,1.52949 1.37253,3.97762 1.37253,5.67354 0,1.64074 -0.31908,3.8277 -0.70908,4.8599 -0.38999,1.0322 -1.51499,2.73956 -2.5,3.79413 -0.985,1.05457 -2.99092,2.47298 -4.45758,3.15203 -1.46667,0.67904 -3.86667,1.23462 -5.33334,1.23462 -1.46666,0 -3.86666,-0.55384 -5.33333,-1.23074 -1.46667,-0.67692 -3.32735,-1.94942 -4.13485,-2.8278 -0.8075,-0.87837 -1.9325,-2.70831 -2.5,-4.06653 -0.5675,-1.35822 -1.03182,-3.53876 -1.03182,-4.84565 0,-1.30688 0.46432,-3.48742 1.03182,-4.84564 0.5675,-1.35822 1.6925,-3.17778 2.5,-4.04347 0.8075,-0.86569 2.58123,-2.14478 3.94162,-2.84243 1.4791,-0.75853 3.89115,-1.27893 6,-1.29451 l 3.52656,-0.0261 7.88238,-12.724901 c 4.335311,-6.9987 7.634291,-12.972999 7.331071,-13.276219 -0.30323,-0.30322 -9.888611,-5.3653 -21.300871,-11.24904 -11.41225,-5.88374 -21.02738,-10.69772 -21.36695,-10.69772 -0.37073,0 -0.60307,12.85183 -0.58152,32.16667 0.0356,31.89033 0.0229,32.19862 -1.46948,35.88634 -0.82796,2.04582 -2.83373,5.10603 -4.45728,6.80046 -1.62355,1.69443 -4.45891,3.84443 -6.30079,4.77779 -1.84188,0.93335 -5.43522,2.05477 -7.98519,2.49204 -3.64753,0.62548 -5.60677,0.61622 -9.18672,-0.0434 -2.50273,-0.46114 -6.28918,-1.7652 -8.41434,-2.89789 -2.12516,-1.1327 -4.79803,-3.12334 -5.93971,-4.42364 -1.14168,-1.3003 -2.85611,-4.02787 -3.80986,-6.06127 l -1.73407,-3.6971 -0.41955,-52.33333 c -0.27278,-34.0246104 -0.18573,-53.499494 0.2488,-55.666667 0.3676,-1.833333 1.2314,-4.44638 1.91956,-5.806773 0.68815,-1.360394 1.25119,-2.640447 1.25119,-2.844567 0,-0.204113 -1.43257,0.354813 -3.18348,1.242073 -1.75092,0.887254 -5.2759197,2.240114 -7.8333297,3.006347 -2.55742,0.76624 -7.19492,1.669893 -10.30556,2.008127 -3.4586,0.376066 -7.9908303,0.375373 -11.6666703,-0.002 -3.30603,-0.338994 -7.66096,-1.092554 -9.67763,-1.67436 -2.01666,-0.581814 -5.46666,-1.813554 -7.66666,-2.737214 -2.2,-0.923653 -6.1,-3.034673 -8.66667,-4.691153 -2.56667,-1.65648 -6.70567,-5.084027 -9.19778,-7.616774 -2.49212,-2.532753 -5.83238,-6.617707 -7.4228,-9.077687 -1.59042,-2.45998 -3.68192,-6.35172 -4.64778,-8.64831 -0.96585,-2.2966 -2.34849,-6.6466 -3.07253,-9.66667 -0.88765,-3.70249 -1.31796,-7.83453 -1.32111,-12.68581 -0.003,-3.97788 0.46752,-9.49231 1.05141,-12.333338 0.58084,-2.8262 1.97728,-7.35785 3.10319,-10.07032 1.12591,-2.71246 3.51049,-7.11969 5.29906,-9.79383 1.78858,-2.67415 5.10698,-6.69992 7.37422,-8.94616 2.26725,-2.24624 6.12809,-5.41755 8.57966,-7.04735 2.45156,-1.62979 6.15326,-3.71326 8.226,-4.62992 2.07274,-0.91667 5.92708,-2.27679 8.56521,-3.02249 2.63812,-0.74571 7.94658,-1.53007 11.79658,-1.74304 4.10978,-0.22734 9.0471703,-0.0667 11.9581603,0.38908 2.72699,0.42697 7.22699,1.53154 10,2.45461 2.77302,0.92307 7.2918397,2.93663 10.0418397,4.47458 3.35187,1.87456 7.11033,4.88392 11.40218,9.12962 3.97908,3.93628 7.44838,8.11408 9.1664,11.03832 1.52032,2.58774 3.6499,7.13183 4.73241,10.09798 1.08251,2.96614 2.17128,6.9239 2.41949,8.79501 0.24822,1.871108 0.65708,3.402018 0.9086,3.402018 0.25152,0 0.96171,-1.05774 1.5782,-2.35053 0.61649,-1.292798 3.68774,-5.192588 6.82499,-8.666208 l 5.7041,-6.31567 4.77453,-23.92342 4.77454,-23.9234 -2.23758,-1.88281 c -1.23068,-1.03554 -2.78831,-3.09521 -3.46142,-4.57705 -0.6731,-1.48183 -1.22382,-3.89424 -1.22382,-5.36091 0,-1.46667 0.55072,-3.87908 1.22382,-5.36092 0.67311,-1.48183 2.17584,-3.4953 3.3394,-4.47438 1.16356,-0.97907 3.23125,-2.08999 4.59486,-2.4687 1.36362,-0.37871 3.25954,-0.69024 4.21316,-0.69228 0.95361,-0.002 2.75361,0.33651 4,0.75235 1.24638,0.41584 3.27692,1.69084 4.5123,2.83333 1.23539,1.1425 2.66039,3.04263 3.16667,4.22252 0.50628,1.17989 0.92051,3.75346 0.92051,5.71904 0,2.8689 -0.40128,4.1796 -2.0345,6.6453 -1.29118,1.94933 -3.07307,3.57429 -4.87714,4.44763 -1.56347,0.75686 -3.29421,1.37611 -3.8461,1.37611 -0.77813,0 -1.7894,3.89704 -4.50399,17.35658 -1.92531,9.54611 -3.40011,17.65793 -3.27733,18.02625 0.12277,0.36832 11.56015,-11.33116 25.4164,-25.99883 23.109851,-24.46318 25.554731,-26.84649 29.565441,-28.82096 3.81424,-1.87775 5.06477,-2.15621 9.79808,-2.1818 4.7143,-0.0255 5.99936,0.24123 9.79965,2.03398 2.60373,1.22829 5.91675,3.56969 8.18628,5.78545 2.39868,2.34186 4.45661,5.15796 5.54953,7.59407 1.12716,2.5124 1.84846,5.5105 2.05426,8.53859 0.17445,2.56667 -0.0217,5.91988 -0.43602,7.45158 -0.41426,1.53169 -1.87251,4.42982 -3.24055,6.44028 -1.36804,2.01047 -11.95697,13.65726 -23.53096,25.88177 -11.57399,12.22454 -21.99183,23.307858 -23.15078,24.629648 l -2.10716,2.40325 22.88286,11.76342 c 12.58557,6.46988 23.21791,11.76342 23.62741,11.76342 0.4095,0 8.48006,-5.08364 17.93458,-11.29698 l 17.19004,-11.29696 -0.23042,-3.36087 c -0.16736,-2.44122 0.16358,-4.17474 1.20944,-6.335198 0.93819,-1.93803 2.51003,-3.68319 4.51138,-5.00883 2.5864,-1.71316 3.71727,-2.0345 7.16004,-2.0345 3.36184,0 4.62785,0.34204 7.12296,1.92439 2.07243,1.3143 3.51217,2.91123 4.5413,5.03713 1.19852,2.475808 1.44834,3.921508 1.22094,7.065368 -0.22846,3.15837 -0.69361,4.45707 -2.31479,6.46288 -1.11589,1.38063 -3.00717,3.08335 -4.20286,3.78382 -1.40083,0.82065 -3.50952,1.29077 -5.92932,1.32192 -2.56833,0.0331 -4.58925,-0.38549 -6.39355,-1.32417 l -2.63821,-1.37252 -14.69513,9.61826 c -8.08231,5.29004 -15.08122,9.98463 -15.55313,10.43242 -0.68724,0.6521 0.26099,1.49796 4.76401,4.24968 3.09212,1.88954 7.46918,5.28266 9.7268,7.540291 2.25763,2.257626 5.24729,5.78982 6.6437,7.84932 1.39641,2.0595 3.31734,5.2837 4.26874,7.164887 1.47352,2.913546 2.08208,3.48642 4.10716,3.866333 1.30753,0.245293 4.24564,1.423973 6.52914,2.619287 2.28348,1.195313 26.3518,19.509887 53.48513,40.6990496 27.13333,21.1891604 51.22288,40.3713294 53.53233,42.6270394 2.53653,2.4775 4.9806,5.684961 6.17312,8.101281 1.08577,2.2 2.30328,5.875 2.70557,8.16667 0.52454,2.98803 0.52939,5.31377 0.0171,8.2219 -0.39287,2.23038 -1.46084,5.68585 -2.37325,7.67883 -0.91242,1.99298 -3.27312,5.23778 -5.24601,7.21067 -1.97288,1.97289 -5.09822,4.35282 -6.94518,5.28875 -1.84696,0.93592 -5.27674,2.05521 -7.62174,2.48729 -3.28872,0.60597 -5.34701,0.60286 -9.00167,-0.0136 -2.62128,-0.44214 -6.63727,-1.76103 -8.98917,-2.95213 -2.56188,-1.29744 -21.96446,-16.00399 -48.8282,-37.01027 -28.31297,-22.139511 -44.80933,-34.62507 -45.21364,-34.22076 -0.40432,0.40431 0.0872,1.82345 1.3473,3.88959 1.14499,1.8775 10.09876,26.509639 21.17492,58.25303 10.55509,30.250004 19.7547,57.100004 20.44359,59.666674 0.93317,3.47683 1.15085,5.85141 0.85375,9.31337 -0.2401,2.79783 -1.06183,6.09502 -2.06524,8.28675 -0.91656,2.00203 -2.76242,4.97753 -4.10192,6.61221 -1.3395,1.63468 -4.23472,4.13506 -6.43382,5.55641 -2.1991,1.42135 -5.9266,3.17985 -8.28334,3.90777 -2.8349,0.8756 -6.00966,1.3004 -9.38142,1.25525 z M 171.86867,121.0624 c 0.50972,0 1.2655,-0.40815 1.67951,-0.907 0.57365,-0.69121 0.35515,-1.80601 -0.91837,-4.68568 -0.91911,-2.07827 -1.67111,-4.00031 -1.67111,-4.2712 0,-0.2709 1.83155,-1.22002 4.07011,-2.10918 2.23856,-0.88916 4.2284,-2.02913 4.42186,-2.53327 0.19346,-0.50415 0.003,-1.26553 -0.4236,-1.69197 -0.58933,-0.58933 -1.81906,-0.40101 -5.12609,0.78502 -2.39291,0.8582 -4.45611,1.45226 -4.58486,1.32015 -0.12876,-0.13211 -0.99535,-1.96521 -1.92575,-4.07354 -1.24504,-2.82133 -2.04293,-3.833334 -3.0223,-3.833334 -0.73188,0 -1.50687,0.28508 -1.72221,0.63351 -0.21535,0.348434 0.36645,2.498934 1.29288,4.778884 0.92643,2.27996 1.52113,4.30865 1.32157,4.50822 -0.19956,0.19957 -1.92142,1.0217 -3.82634,1.82696 -1.90492,0.80527 -3.75939,1.93323 -4.12106,2.50659 -0.44906,0.71192 -0.40744,1.2926 0.13126,1.8313 0.60733,0.60734 1.60092,0.47307 4.31835,-0.58355 1.94123,-0.75481 4.05451,-1.58363 4.69618,-1.84181 0.64167,-0.25818 1.16667,-0.17466 1.16667,0.18562 0,0.36027 0.74622,2.34236 1.65826,4.40466 0.91204,2.06229 2.0753,3.74962 2.58504,3.74962 z M 107.68563,-50.270945 c 0.7232,0 1.50575,-0.497313 1.739,-1.105133 0.23324,-0.607827 0.0303,-2.932824 -0.4509,-5.166664 -0.48124,-2.23385 -0.90648,-4.63224 -0.945,-5.32978 -0.0574,-1.03959 0.89152,-1.52036 5.2633,-2.66666 4.87154,-1.27734 5.33334,-1.54274 5.33334,-3.0651 0,-1.30545 -0.38148,-1.71085 -1.76014,-1.87055 -0.96808,-0.11213 -3.62626,0.27968 -5.90708,0.8707 -2.28082,0.59101 -4.28672,0.93481 -4.45755,0.76397 -0.17083,-0.17083 -0.86815,-2.47814 -1.54959,-5.12737 -0.68145,-2.64922 -1.52662,-5.10439 -1.87817,-5.45594 -0.35155,-0.35155 -1.19605,-0.53348 -1.87666,-0.40429 -0.76129,0.1445 -1.315931,0.91 -1.441371,1.98932 -0.11213,0.96494 0.279681,3.62056 0.870701,5.90138 0.59102,2.28082 0.93481,4.28672 0.76398,4.45755 -0.17084,0.17083 -2.403811,0.84903 -4.962171,1.5071 -2.55835,0.65807 -4.98539,1.40282 -5.39342,1.65499 -0.40803,0.25218 -0.74187,1.05021 -0.74187,1.77341 0,0.7232 0.48674,1.50169 1.08164,1.72997 0.59489,0.22829 3.31465,-0.11137 6.0439,-0.75479 2.729251,-0.64343 5.115481,-1.01666 5.302721,-0.82941 0.18725,0.18724 0.87887,2.43365 1.53694,4.99201 0.65808,2.558354 1.40282,4.985394 1.655,5.393421 0.25217,0.408026 1.0502,0.741866 1.7734,0.741866 z M 0.29202934,-59.604282 c 0.32339,0 0.72095996,-0.225 0.88349996,-0.5 0.16254,-0.275 -0.0495,-2.20468 -0.47104996,-4.28817 -0.42162,-2.0835 -0.96694,-3.98854 -1.21183,-4.23343 -0.24488,-0.24488 -0.72126004,-0.27465 -1.05863004,-0.0661 -0.37019,0.2288 -0.37756,1.88294 -0.0186,4.17212 0.32715,2.08616 0.75091004,4.04561 0.94171004,4.35433 0.19082,0.3087 0.61152,0.56129 0.9349,0.56129 z m -33.95640034,-6.17694 c 2.56417,-0.15458 4.39204,-0.70913 5.91737,-1.79526 1.21391,-0.86438 2.79829,-2.90806 3.52083,-4.5415 0.99186,-2.24224 1.20436,-3.69923 0.86733,-5.94667 -0.31081,-2.07263 -1.16257,-3.7695 -2.80431,-5.58671 -1.34698,-1.49094 -3.44227,-2.93482 -4.88706,-3.36768 -1.39103,-0.41676 -3.53308,-0.56806 -4.76012,-0.33622 -1.22703,0.23184 -3.20871,1.01792 -4.40373,1.74683 -1.19502,0.72891 -2.7689,2.30304 -3.49751,3.49806 -0.84099,1.37933 -1.32566,3.35685 -1.32724,5.41533 -0.002,2.06684 0.5072,4.14942 1.4032,5.74364 0.77312,1.3756 2.49812,3.15196 3.83333,3.94747 1.89296,1.12782 3.24483,1.39713 6.13791,1.22271 z m 32.6438203,-5.94108 c 0.49086004,-0.16362 1.29244004,-2.05857 1.78128004,-4.21099 0.49647996,-2.18605 0.63557996,-4.16671 0.31512996,-4.48716 -0.32044996,-0.32045 -0.93348996,-0.14011 -1.38882996,0.40854 -0.44834,0.54021 -0.99176004,2.69331 -1.20761004,4.78465 -0.31009,3.00443 -0.20514,3.74001 0.50003,3.50496 z m 3.91438,-11.34678 c 0.26379,-0.11103 1.5863,-1.43822 2.93891,-2.94933 1.35261,-1.51111 2.45929,-3.08611 2.45929,-3.5 0,-0.41389 -0.39387,-0.75253 -0.87527,-0.75253 -0.4814,0 -1.6214,0.825 -2.53334,1.83333 -0.91194,1.00833 -2.04389,2.34519 -2.51545,2.9708 -0.47156,0.6256 -0.65407,1.46644 -0.40557,1.86852 0.2485,0.40209 0.66765,0.64023 0.93143,0.52921 z m 8.6879297,-7.86853 c 0.2994,0 2.27592,-0.76577 4.39227,-1.70172 2.6998,-1.19399 3.63797,-1.91165 3.14432,-2.40529 -0.49364,-0.49365 -1.4678,-0.46102 -3.26494,0.10935 -1.40876,0.44711 -3.24594,1.24267 -4.08262,1.76791 -0.83668,0.52525 -1.34398,1.24181 -1.12732,1.59237 0.21666,0.35056 0.63888,0.63738 0.93829,0.63738 z m -30.67457,-14.135108 c 1.1654,-0.13712 2.14868,-1.02024 3.18982,-2.86489 0.8278,-1.46667 1.60551,-2.95219 1.72823,-3.30117 0.12272,-0.34898 1.7585,0.026 3.63507,0.83326 2.5560903,1.09961 3.8179803,1.3134 5.0307003,0.85232 0.89032,-0.33849 1.79437,-1.28696 2.009,-2.10771 0.21463,-0.82075 0.0956,-2.04278 -0.2645,-2.71564 -0.3601,-0.67285 -1.9197,-1.86123 -3.46577,-2.64083 -1.54607,-0.7796 -2.9062103,-1.50075 -3.0225303,-1.60256 -0.11632,-0.1018 0.5765803,-1.74026 1.5397703,-3.64104 1.64144,-3.23922 1.68509,-3.55692 0.69612,-5.06628 -0.63806,-0.97381 -1.69759,-1.61035 -2.6804703,-1.61035 -0.89392,0 -2.21366,0.63151 -2.93275,1.40336 -0.71909,0.77185 -1.66717,2.27185 -2.10685,3.33333 -0.43968,1.06149 -1.055,1.92998 -1.36738,1.92998 -0.31237,0 -1.90382,-0.64902 -3.53656,-1.44226 -2.8226,-1.37133 -3.053,-1.38697 -4.6845,-0.31797 -1.07704,0.70571 -1.71589,1.73755 -1.71589,2.77141 0,1.15962 0.80205,2.22812 2.70989,3.61016 1.49044,1.07966 3.02835,2.06918 3.41758,2.19892 0.43446,0.14482 0.16036,1.30876 -0.70989,3.0146 -0.77967,1.52828 -1.41758,3.29202 -1.41758,3.91942 0,0.6274 0.50935,1.70355 1.13188,2.39144 0.67435,0.74515 1.81289,1.1706 2.81661,1.0525 z"
       id="path2673"
       inkscape:connector-curvature="0" />
  </g>
</svg>
