<?xml version="1.0" encoding="UTF-8" standalone="no"?>
<!-- Generator: Adobe Illustrator 18.1.1, SVG Export Plug-In . SVG Version: 6.00 Build 0)  -->

<svg
   xmlns:dc="http://purl.org/dc/elements/1.1/"
   xmlns:cc="http://creativecommons.org/ns#"
   xmlns:rdf="http://www.w3.org/1999/02/22-rdf-syntax-ns#"
   xmlns:svg="http://www.w3.org/2000/svg"
   xmlns="http://www.w3.org/2000/svg"
   xmlns:sodipodi="http://sodipodi.sourceforge.net/DTD/sodipodi-0.dtd"
   xmlns:inkscape="http://www.inkscape.org/namespaces/inkscape"
   version="1.1"
   id="Capa_1"
   x="0px"
   y="0px"
   viewBox="0 0 33.35593 37.491524"
   xml:space="preserve"
   sodipodi:docname="cycle.svg"
   width="33.35593"
   height="37.491524"
   inkscape:version="0.92.2 5c3e80d, 2017-08-06"><metadata
     id="metadata46"><rdf:RDF><cc:Work
         rdf:about=""><dc:format>image/svg+xml</dc:format><dc:type
           rdf:resource="http://purl.org/dc/dcmitype/StillImage" /><dc:title></dc:title></cc:Work></rdf:RDF></metadata><defs
     id="defs44" /><sodipodi:namedview
     pagecolor="#ffffff"
     bordercolor="#666666"
     borderopacity="1"
     objecttolerance="10"
     gridtolerance="10"
     guidetolerance="10"
     inkscape:pageopacity="0"
     inkscape:pageshadow="2"
     inkscape:window-width="1019"
     inkscape:window-height="675"
     id="namedview42"
     showgrid="false"
     fit-margin-top="0"
     fit-margin-left="0"
     fit-margin-right="0"
     fit-margin-bottom="0"
     inkscape:zoom="7.375"
     inkscape:cx="15.864407"
     inkscape:cy="21.864406"
     inkscape:window-x="0"
     inkscape:window-y="0"
     inkscape:window-maximized="0"
     inkscape:current-layer="g9" /><g
     id="g9"
     transform="translate(-0.13559324,-0.37288136)"><g
       id="loop_x5F_alt2"
       transform="matrix(0.84827582,0,0,1.1943844,-0.09444769,-1.0441849)"><g
         id="g6"><path
           style="fill:#030104;stroke-width:1.11450911"
           d="m 24.619335,24.576272 7.462721,-8 7.511165,8 h -4.968523 v 2 c 0,3.309 -3.342574,6 -7.452785,6 H 12.266344 c -4.1102108,0 -7.4527847,-2.691 -7.4527847,-6 v -2 h 4.9685229 v 2 c 0,1.102 1.1154328,2 2.4842618,2 h 14.905569 c 1.368828,0 2.484262,-0.898 2.484262,-2 v -2 z"
           id="path2"
           inkscape:connector-curvature="0" /><path
           style="fill:#030104;stroke-width:1.11233461"
           d="M 15.186695,9.1864407 7.7530678,17.186441 0.27118648,9.1864407 H 5.220339 v -2 c 0,-3.309 3.3295424,-6 7.42373,-6 h 14.847457 c 4.094186,0 7.423729,2.691 7.423729,6 v 2 h -4.949153 v -2 c 0,-1.102 -1.111085,-2 -2.474576,-2 H 12.644069 c -1.363493,0 -2.474577,0.898 -2.474577,2 v 2 z"
           id="path4"
           inkscape:connector-curvature="0" /></g></g></g><g
     id="g11"
     transform="translate(-0.13559324,-0.37288136)" /><g
     id="g13"
     transform="translate(-0.13559324,-0.37288136)" /><g
     id="g15"
     transform="translate(-0.13559324,-0.37288136)" /><g
     id="g17"
     transform="translate(-0.13559324,-0.37288136)" /><g
     id="g19"
     transform="translate(-0.13559324,-0.37288136)" /><g
     id="g21"
     transform="translate(-0.13559324,-0.37288136)" /><g
     id="g23"
     transform="translate(-0.13559324,-0.37288136)" /><g
     id="g25"
     transform="translate(-0.13559324,-0.37288136)" /><g
     id="g27"
     transform="translate(-0.13559324,-0.37288136)" /><g
     id="g29"
     transform="translate(-0.13559324,-0.37288136)" /><g
     id="g31"
     transform="translate(-0.13559324,-0.37288136)" /><g
     id="g33"
     transform="translate(-0.13559324,-0.37288136)" /><g
     id="g35"
     transform="translate(-0.13559324,-0.37288136)" /><g
     id="g37"
     transform="translate(-0.13559324,-0.37288136)" /><g
     id="g39"
     transform="translate(-0.13559324,-0.37288136)" /></svg>