<?xml version="1.0" encoding="UTF-8" standalone="no"?>
<!-- Created with Inkscape (http://www.inkscape.org/) -->

<svg
   xmlns:dc="http://purl.org/dc/elements/1.1/"
   xmlns:cc="http://creativecommons.org/ns#"
   xmlns:rdf="http://www.w3.org/1999/02/22-rdf-syntax-ns#"
   xmlns:svg="http://www.w3.org/2000/svg"
   xmlns="http://www.w3.org/2000/svg"
   xmlns:sodipodi="http://sodipodi.sourceforge.net/DTD/sodipodi-0.dtd"
   xmlns:inkscape="http://www.inkscape.org/namespaces/inkscape"
   width="90.117928mm"
   height="89.893539mm"
   viewBox="0 0 90.117928 89.893539"
   version="1.1"
   id="svg822"
   inkscape:version="0.92.2 5c3e80d, 2017-08-06"
   sodipodi:docname="dagger.svg">
  <defs
     id="defs816" />
  <sodipodi:namedview
     id="base"
     pagecolor="#ffffff"
     bordercolor="#666666"
     borderopacity="1.0"
     inkscape:pageopacity="0.0"
     inkscape:pageshadow="2"
     inkscape:zoom="0.98994949"
     inkscape:cx="304.74503"
     inkscape:cy="172.56965"
     inkscape:document-units="mm"
     inkscape:current-layer="layer1"
     showgrid="false"
     fit-margin-top="0"
     fit-margin-left="0"
     fit-margin-right="0"
     fit-margin-bottom="0"
     inkscape:window-width="1440"
     inkscape:window-height="813"
     inkscape:window-x="0"
     inkscape:window-y="1"
     inkscape:window-maximized="1" />
  <metadata
     id="metadata819">
    <rdf:RDF>
      <cc:Work
         rdf:about="">
        <dc:format>image/svg+xml</dc:format>
        <dc:type
           rdf:resource="http://purl.org/dc/dcmitype/StillImage" />
        <dc:title></dc:title>
      </cc:Work>
    </rdf:RDF>
  </metadata>
  <g
     inkscape:label="Layer 1"
     inkscape:groupmode="layer"
     id="layer1"
     transform="translate(-66.339015,-104.59884)">
    <path
       style="fill:#000000;stroke-width:0.17638889"
       d="m 149.48958,194.05169 c -1.72217,-0.80551 -2.73288,-2.27431 -2.86952,-4.17015 l -0.0827,-1.14653 -1.76126,-1.12847 c -7.13192,-4.56955 -12.85288,-9.98834 -19.53289,-18.50118 l -1.83897,-2.34354 -5.38999,5.36698 c -2.9645,2.95184 -5.65499,5.50039 -5.97887,5.66343 -1.14184,0.57484 -2.95256,0.30684 -3.97191,-0.58786 -1.10884,-0.97325 -1.35601,-3.05057 -0.523,-4.39544 0.7206,-1.16338 1.75811,-1.67945 3.14351,-1.56361 0.58208,0.0487 1.19451,0.11439 1.36096,0.14604 0.23046,0.0438 0.91,-0.99404 2.84958,-4.35218 l 2.54696,-4.40972 -12.11364,-12.17084 C 87.586255,132.63323 80.26302,124.52405 72.585443,114.20217 c -2.826998,-3.80067 -6.45418,-9.3843 -6.23713,-9.60135 0.03786,-0.0379 0.95677,0.47361 2.042029,1.1366 7.88869,4.81925 18.323827,13.25596 30.621489,24.7572 1.666029,1.55813 8.069449,7.85367 14.229829,13.99009 l 11.2007,11.15713 4.40972,-2.54392 c 3.87333,-2.23449 4.40387,-2.59264 4.36162,-2.94439 -0.24603,-2.04792 -0.23934,-2.16474 0.16887,-2.94788 0.64791,-1.24301 1.52571,-1.83249 2.85484,-1.91713 0.88218,-0.0562 1.26199,0.007 1.84789,0.30553 1.46855,0.7492 2.21988,2.46122 1.79201,4.08337 -0.18273,0.69278 -0.83317,1.41035 -5.74626,6.33939 l -5.5402,5.55819 2.45639,1.90384 c 5.70367,4.42063 10.73481,9.19805 13.97155,13.26698 1.66885,2.09792 4.90042,6.62592 5.36336,7.51502 0.21153,0.40626 0.35112,0.46472 1.10969,0.46472 1.49711,0 2.86187,0.63322 3.85806,1.79005 0.53081,0.6164 1.10704,2.17158 1.10704,2.98775 0,3.56491 -3.78592,6.03638 -6.96736,4.54833 z"
       id="path1435"
       inkscape:connector-curvature="0" />
  </g>
</svg>
