<?xml version="1.0" encoding="UTF-8" standalone="no"?>
<!-- Created with Inkscape (http://www.inkscape.org/) -->

<svg
   xmlns:dc="http://purl.org/dc/elements/1.1/"
   xmlns:cc="http://creativecommons.org/ns#"
   xmlns:rdf="http://www.w3.org/1999/02/22-rdf-syntax-ns#"
   xmlns:svg="http://www.w3.org/2000/svg"
   xmlns="http://www.w3.org/2000/svg"
   xmlns:sodipodi="http://sodipodi.sourceforge.net/DTD/sodipodi-0.dtd"
   xmlns:inkscape="http://www.inkscape.org/namespaces/inkscape"
   width="57.716434mm"
   height="107.81311mm"
   viewBox="0 0 57.716435 107.81311"
   version="1.1"
   id="svg822"
   inkscape:version="0.92.2 5c3e80d, 2017-08-06"
   sodipodi:docname="death.svg">
  <defs
     id="defs816" />
  <sodipodi:namedview
     id="base"
     pagecolor="#ffffff"
     bordercolor="#666666"
     borderopacity="1.0"
     inkscape:pageopacity="0.0"
     inkscape:pageshadow="2"
     inkscape:zoom="0.49497475"
     inkscape:cx="379.10296"
     inkscape:cy="3.1434955"
     inkscape:document-units="mm"
     inkscape:current-layer="layer1"
     showgrid="false"
     fit-margin-top="0"
     fit-margin-left="0"
     fit-margin-right="0"
     fit-margin-bottom="0"
     inkscape:window-width="1440"
     inkscape:window-height="813"
     inkscape:window-x="34"
     inkscape:window-y="0"
     inkscape:window-maximized="0" />
  <metadata
     id="metadata819">
    <rdf:RDF>
      <cc:Work
         rdf:about="">
        <dc:format>image/svg+xml</dc:format>
        <dc:type
           rdf:resource="http://purl.org/dc/dcmitype/StillImage" />
        <dc:title></dc:title>
      </cc:Work>
    </rdf:RDF>
  </metadata>
  <g
     inkscape:label="Layer 1"
     inkscape:groupmode="layer"
     id="layer1"
     transform="translate(-57.355927,-159.45055)">
    <path
       style="fill:#000000;stroke-width:0.08984432"
       d="m 63.771257,239.88649 v -27.37676 l -2.64047,-2.6537 c -3.47339,-3.49082 -3.77439,-3.95316 -3.77486,-5.79826 -3e-4,-1.1458 0.14455,-1.60172 0.80123,-2.52197 1.24413,-1.74349 3.31352,-2.57034 5.06702,-2.02459 l 0.54708,0.17027 v -19.12045 -19.12045 l 0.29199,-0.0916 c 2.34721,-0.73613 12.99109,-1.90005 17.36088,-1.89843 2.94919,7.8e-4 7.04547,0.27858 9.98517,0.6764 11.164813,1.51091 18.904383,5.25872 23.158913,11.21445 0.27728,0.38816 0.50415,0.73961 0.50415,0.781 0,0.0414 -0.3942,-0.0994 -0.87598,-0.31286 -8.2954,-3.67557 -21.782533,-5.32814 -34.110023,-4.17947 -3.52215,0.32819 -6.97496,0.92881 -9.12756,1.58774 -0.56827,0.17395 -1.10396,0.33638 -1.19044,0.36094 -0.14905,0.0423 -0.15722,0.96292 -0.15722,17.71283 v 17.66817 l 0.85295,0.84941 0.85295,0.8494 3.12266,-3.1056 c 3.33234,-3.31413 3.6167,-3.5458 4.94916,-4.03209 0.76524,-0.27928 1.98719,-0.53932 2.53428,-0.53932 h 0.34287 l 0.0359,-5.59281 c 0.0336,-5.23942 0.0482,-5.66093 0.22923,-6.67094 0.78067,-4.35441 2.79917,-7.10208 6.25289,-8.51176 3.05635,-1.2475 7.44396,-1.09514 10.34093,0.35906 3.123203,1.56779 4.882253,4.36014 5.532023,8.78161 0.0677,0.46037 0.12053,2.68087 0.14708,6.17679 l 0.0415,5.45805 h 0.38665 c 0.58692,0 1.7898,0.25163 2.57807,0.53932 2.65788,0.97 4.22681,3.19787 4.56365,6.48031 0.1255,1.22296 0.12795,27.80756 0.002,28.47907 -0.22238,1.19154 -1.09876,2.29592 -2.13364,2.68874 -0.53192,0.20191 -1.77248,0.34248 -3.09932,0.3512 l -0.69629,0.005 v 14.86924 14.86923 H 93.239557 80.032437 v -27.82399 -27.82398 l -2.31348,2.29311 c -2.28616,2.26602 -2.87068,2.75479 -3.93788,3.29286 -1.26446,0.63752 -2.87868,0.76477 -4.04143,0.31858 -0.1121,-0.043 -0.12914,3.23509 -0.12914,24.84693 v 24.89649 h -2.91994 -2.91994 z m 31.78696,-42.53147 c 1.52879,-0.3853 2.86916,-1.44112 3.58656,-2.82518 0.73075,-1.40981 1.085623,-3.25456 0.984283,-5.11669 -0.217663,-3.99936 -1.989223,-6.67402 -4.890433,-7.38348 -0.80719,-0.19739 -2.46166,-0.19415 -3.30119,0.006 -1.39311,0.33293 -2.68998,1.20039 -3.50763,2.34623 -2.05817,2.88426 -2.06121,7.80193 -0.006,10.68119 1.49893,2.10057 4.31012,3.0034 7.13502,2.29145 z"
       id="path2559"
       inkscape:connector-curvature="0" />
  </g>
</svg>
