<?xml version="1.0" encoding="UTF-8" standalone="no"?>
<svg
   xmlns:dc="http://purl.org/dc/elements/1.1/"
   xmlns:cc="http://creativecommons.org/ns#"
   xmlns:rdf="http://www.w3.org/1999/02/22-rdf-syntax-ns#"
   xmlns:svg="http://www.w3.org/2000/svg"
   xmlns="http://www.w3.org/2000/svg"
   xmlns:sodipodi="http://sodipodi.sourceforge.net/DTD/sodipodi-0.dtd"
   xmlns:inkscape="http://www.inkscape.org/namespaces/inkscape"
   inkscape:version="1.0beta2 (2b71d25, 2019-12-03)"
   sodipodi:docname="defense_dice.svg"
   id="svg2653"
   version="1.1"
   viewBox="0 0 224.46265 225.2893"
   height="225.28931mm"
   width="224.46265mm">
  <defs
     id="defs2647">
    <marker
       inkscape:isstock="true"
       style="overflow:visible"
       id="marker3535"
       refX="0"
       refY="0"
       orient="auto"
       inkscape:stockid="Arrow1Lstart">
      <path
         inkscape:connector-curvature="0"
         transform="matrix(0.8,0,0,0.8,10,0)"
         style="fill:#000000;fill-opacity:1;fill-rule:evenodd;stroke:#000000;stroke-width:1pt;stroke-opacity:1"
         d="M 0,0 5,-5 -12.5,0 5,5 Z"
         id="path3533" />
    </marker>
    <marker
       inkscape:isstock="true"
       style="overflow:visible"
       id="marker3507"
       refX="0"
       refY="0"
       orient="auto"
       inkscape:stockid="Arrow1Lstart">
      <path
         inkscape:connector-curvature="0"
         transform="matrix(0.8,0,0,0.8,10,0)"
         style="fill:#000000;fill-opacity:1;fill-rule:evenodd;stroke:#000000;stroke-width:1pt;stroke-opacity:1"
         d="M 0,0 5,-5 -12.5,0 5,5 Z"
         id="path3505" />
    </marker>
    <marker
       inkscape:isstock="true"
       style="overflow:visible"
       id="marker3485"
       refX="0"
       refY="0"
       orient="auto"
       inkscape:stockid="Arrow1Lstart">
      <path
         inkscape:connector-curvature="0"
         transform="matrix(0.8,0,0,0.8,10,0)"
         style="fill:#000000;fill-opacity:1;fill-rule:evenodd;stroke:#000000;stroke-width:1pt;stroke-opacity:1"
         d="M 0,0 5,-5 -12.5,0 5,5 Z"
         id="path3483" />
    </marker>
    <marker
       inkscape:isstock="true"
       style="overflow:visible"
       id="Arrow1Lstart"
       refX="0"
       refY="0"
       orient="auto"
       inkscape:stockid="Arrow1Lstart">
      <path
         inkscape:connector-curvature="0"
         transform="matrix(0.8,0,0,0.8,10,0)"
         style="fill:#000000;fill-opacity:1;fill-rule:evenodd;stroke:#000000;stroke-width:1pt;stroke-opacity:1"
         d="M 0,0 5,-5 -12.5,0 5,5 Z"
         id="path3207" />
    </marker>
  </defs>
  <sodipodi:namedview
     inkscape:document-rotation="0"
     inkscape:window-maximized="1"
     inkscape:window-y="23"
     inkscape:window-x="0"
     inkscape:window-height="811"
     inkscape:window-width="1440"
     fit-margin-bottom="0"
     fit-margin-right="0"
     fit-margin-left="0"
     fit-margin-top="0"
     showgrid="false"
     inkscape:current-layer="layer1"
     inkscape:document-units="mm"
     inkscape:cy="32.381508"
     inkscape:cx="199.66093"
     inkscape:zoom="0.35777399"
     inkscape:pageshadow="2"
     inkscape:pageopacity="0.0"
     borderopacity="1.0"
     bordercolor="#666666"
     pagecolor="#ffffff"
     id="base" />
  <metadata
     id="metadata2650">
    <rdf:RDF>
      <cc:Work
         rdf:about="">
        <dc:format>image/svg+xml</dc:format>
        <dc:type
           rdf:resource="http://purl.org/dc/dcmitype/StillImage" />
        <dc:title></dc:title>
      </cc:Work>
    </rdf:RDF>
  </metadata>
  <g
     transform="translate(-84.041007,-141.92169)"
     id="layer1"
     inkscape:groupmode="layer"
     inkscape:label="Layer 1">
    <rect
       y="147.51094"
       x="89.630257"
       height="214.11081"
       width="213.28415"
       id="rect871"
       style="fill:none;stroke:#000000;stroke-width:11.1785;stroke-linejoin:round;stroke-miterlimit:10;stroke-dasharray:none" />
    <g
       style="fill:none;stroke:#000000;stroke-opacity:1;stroke-width:780.52892545;stroke-miterlimit:4;stroke-dasharray:none"
       transform="matrix(0.01537419,0,0,-0.01537419,112.23562,359.21357)"
       fill="#000000"
       stroke="none"
       id="g1256">
      <path
         style="fill:none;stroke:#000000;stroke-opacity:1;stroke-width:780.52892545;stroke-miterlimit:4;stroke-dasharray:none"
         inkscape:connector-curvature="0"
         d="m 5388,12103 c 34,-2 88,-2 120,0 31,2 3,3 -63,3 -66,0 -92,-1 -57,-3 z"
         id="path1136" />
      <path
         style="fill:none;stroke:#000000;stroke-opacity:1;stroke-width:780.52892545;stroke-miterlimit:4;stroke-dasharray:none"
         inkscape:connector-curvature="0"
         d="m 4983,12093 c 20,-2 54,-2 75,0 20,2 3,4 -38,4 -41,0 -58,-2 -37,-4 z"
         id="path1138" />
      <path
         style="fill:none;stroke:#000000;stroke-opacity:1;stroke-width:780.52892545;stroke-miterlimit:4;stroke-dasharray:none"
         inkscape:connector-curvature="0"
         d="m 5833,12093 c 15,-2 39,-2 55,0 15,2 2,4 -28,4 -30,0 -43,-2 -27,-4 z"
         id="path1140" />
      <path
         style="fill:none;stroke:#000000;stroke-opacity:1;stroke-width:780.52892545;stroke-miterlimit:4;stroke-dasharray:none"
         inkscape:connector-curvature="0"
         d="m 4738,12083 c 12,-2 32,-2 45,0 12,2 2,4 -23,4 -25,0 -35,-2 -22,-4 z"
         id="path1142" />
      <path
         style="fill:none;stroke:#000000;stroke-opacity:1;stroke-width:780.52892545;stroke-miterlimit:4;stroke-dasharray:none"
         inkscape:connector-curvature="0"
         d="m 4960,12079 c -1135,-45 -2292,-244 -3589,-617 -217,-62 -276,-83 -282,-98 -5,-11 -8,-13 -8,-5 -1,8 -3,12 -6,10 -2,-3 -12,-115 -22,-250 -21,-308 -24,-1223 -5,-1519 15,-235 49,-627 62,-730 5,-41 17,-129 25,-195 23,-189 55,-400 75,-505 5,-25 13,-72 19,-105 6,-33 20,-106 32,-163 11,-57 19,-108 17,-114 -3,-9 -12,31 -69,326 -10,54 -20,110 -20,125 -1,16 -3,20 -6,9 -3,-14 46,-331 83,-533 50,-277 153,-721 224,-970 17,-60 44,-155 60,-210 111,-388 336,-988 510,-1360 253,-541 465,-922 784,-1404 72,-108 134,-200 138,-206 5,-5 26,-35 48,-65 22,-30 43,-59 47,-65 5,-5 19,-26 33,-45 13,-19 27,-37 30,-40 3,-3 17,-21 30,-40 13,-19 27,-37 30,-40 3,-3 17,-21 30,-40 13,-19 27,-37 30,-40 3,-3 21,-25 40,-50 19,-25 37,-47 40,-50 3,-3 21,-25 40,-50 19,-25 37,-47 40,-50 3,-3 25,-30 50,-60 25,-30 47,-57 50,-60 3,-3 30,-34 60,-70 30,-36 62,-72 70,-80 8,-8 48,-53 89,-100 78,-88 555,-568 651,-655 209,-187 253,-225 399,-345 59,-48 210,-156 241,-172 13,-7 49,-28 79,-46 177,-104 405,-146 590,-107 89,18 210,65 282,107 30,18 66,39 79,46 31,16 182,124 241,172 148,121 217,180 399,345 99,89 574,568 651,655 41,47 81,92 89,100 8,8 40,44 70,80 30,36 57,67 60,70 3,3 25,30 50,60 25,30 47,57 50,60 3,3 21,25 40,50 19,25 37,47 40,50 3,3 21,25 40,50 19,25 37,47 40,50 3,3 17,21 30,40 13,19 27,37 30,40 3,3 17,21 30,40 13,19 27,37 30,40 3,3 17,21 30,40 14,19 28,40 33,45 4,6 25,35 47,65 22,30 43,60 48,65 4,6 67,100 140,210 73,110 138,209 145,220 144,215 480,832 591,1084 16,35 47,105 71,155 71,152 176,406 235,566 15,41 48,131 73,200 41,113 84,243 161,488 55,172 134,470 200,752 38,160 118,571 113,576 -2,2 -13,-37 -23,-88 -10,-51 -20,-86 -22,-78 -4,24 55,277 59,255 3,-11 5,5 5,35 0,30 10,109 23,175 20,106 34,199 71,445 105,721 143,1756 91,2542 -6,89 -12,187 -13,217 -1,29 -6,54 -12,56 -6,2 -112,31 -236,64 -1853,498 -3367,699 -4820,640 z M 1287,7748 c -3,-8 -6,-5 -6,6 -1,11 2,17 5,13 3,-3 4,-12 1,-19 z m 10,-50 c -3,-7 -5,-2 -5,12 0,14 2,19 5,13 2,-7 2,-19 0,-25 z m 10,-40 c -3,-8 -6,-5 -6,6 -1,11 2,17 5,13 3,-3 4,-12 1,-19 z m 10,-50 c -3,-7 -5,-2 -5,12 0,14 2,19 5,13 2,-7 2,-19 0,-25 z m 8470,0 c -3,-8 -6,-5 -6,6 -1,11 2,17 5,13 3,-3 4,-12 1,-19 z m -17,-78 -11,-25 6,25 c 2,14 5,34 6,45 2,19 2,19 6,0 2,-12 -1,-32 -7,-45 z m -8433,-12 c -3,-8 -6,-5 -6,6 -1,11 2,17 5,13 3,-3 4,-12 1,-19 z m 10,-40 c -3,-8 -6,-5 -6,6 -1,11 2,17 5,13 3,-3 4,-12 1,-19 z m 8408,-18 c -4,-17 -9,-30 -11,-27 -2,2 -1,18 2,36 4,17 9,30 11,27 3,-2 2,-19 -2,-36 z m -8398,-22 c -3,-8 -6,-5 -6,6 -1,11 2,17 5,13 3,-3 4,-12 1,-19 z m 10,-40 c -3,-8 -6,-5 -6,6 -1,11 2,17 5,13 3,-3 4,-12 1,-19 z m 8370,0 c -3,-8 -6,-5 -6,6 -1,11 2,17 5,13 3,-3 4,-12 1,-19 z m -8360,-40 c -3,-8 -6,-5 -6,6 -1,11 2,17 5,13 3,-3 4,-12 1,-19 z m 8340,-50 c -3,-8 -6,-5 -6,6 -1,11 2,17 5,13 3,-3 4,-12 1,-19 z"
         id="path1144" />
      <path
         style="fill:none;stroke:#000000;stroke-opacity:1;stroke-width:780.52892545;stroke-miterlimit:4;stroke-dasharray:none"
         inkscape:connector-curvature="0"
         d="m 6118,12083 c 12,-2 30,-2 40,0 9,3 -1,5 -23,4 -22,0 -30,-2 -17,-4 z"
         id="path1146" />
      <path
         style="fill:none;stroke:#000000;stroke-opacity:1;stroke-width:780.52892545;stroke-miterlimit:4;stroke-dasharray:none"
         inkscape:connector-curvature="0"
         d="m 4593,12073 c 9,-2 25,-2 35,0 9,3 1,5 -18,5 -19,0 -27,-2 -17,-5 z"
         id="path1148" />
      <path
         style="fill:none;stroke:#000000;stroke-opacity:1;stroke-width:780.52892545;stroke-miterlimit:4;stroke-dasharray:none"
         inkscape:connector-curvature="0"
         d="m 6268,12073 c 6,-2 18,-2 25,0 6,3 1,5 -13,5 -14,0 -19,-2 -12,-5 z"
         id="path1150" />
      <path
         style="fill:none;stroke:#000000;stroke-opacity:1;stroke-width:780.52892545;stroke-miterlimit:4;stroke-dasharray:none"
         inkscape:connector-curvature="0"
         d="m 4443,12063 c 9,-2 25,-2 35,0 9,3 1,5 -18,5 -19,0 -27,-2 -17,-5 z"
         id="path1152" />
      <path
         style="fill:none;stroke:#000000;stroke-opacity:1;stroke-width:780.52892545;stroke-miterlimit:4;stroke-dasharray:none"
         inkscape:connector-curvature="0"
         d="m 6433,12063 c 9,-2 23,-2 30,0 6,3 -1,5 -18,5 -16,0 -22,-2 -12,-5 z"
         id="path1154" />
      <path
         style="fill:none;stroke:#000000;stroke-opacity:1;stroke-width:780.52892545;stroke-miterlimit:4;stroke-dasharray:none"
         inkscape:connector-curvature="0"
         d="m 4348,12053 c 7,-3 16,-2 19,1 4,3 -2,6 -13,5 -11,0 -14,-3 -6,-6 z"
         id="path1156" />
      <path
         style="fill:none;stroke:#000000;stroke-opacity:1;stroke-width:780.52892545;stroke-miterlimit:4;stroke-dasharray:none"
         inkscape:connector-curvature="0"
         d="m 6538,12053 c 6,-2 18,-2 25,0 6,3 1,5 -13,5 -14,0 -19,-2 -12,-5 z"
         id="path1158" />
      <path
         style="fill:none;stroke:#000000;stroke-opacity:1;stroke-width:780.52892545;stroke-miterlimit:4;stroke-dasharray:none"
         inkscape:connector-curvature="0"
         d="m 4218,12043 c 6,-2 18,-2 25,0 6,3 1,5 -13,5 -14,0 -19,-2 -12,-5 z"
         id="path1160" />
      <path
         style="fill:none;stroke:#000000;stroke-opacity:1;stroke-width:780.52892545;stroke-miterlimit:4;stroke-dasharray:none"
         inkscape:connector-curvature="0"
         d="m 6668,12043 c 6,-2 18,-2 25,0 6,3 1,5 -13,5 -14,0 -19,-2 -12,-5 z"
         id="path1162" />
      <path
         style="fill:none;stroke:#000000;stroke-opacity:1;stroke-width:780.52892545;stroke-miterlimit:4;stroke-dasharray:none"
         inkscape:connector-curvature="0"
         d="m 4128,12033 c 6,-2 18,-2 25,0 6,3 1,5 -13,5 -14,0 -19,-2 -12,-5 z"
         id="path1164" />
      <path
         style="fill:none;stroke:#000000;stroke-opacity:1;stroke-width:780.52892545;stroke-miterlimit:4;stroke-dasharray:none"
         inkscape:connector-curvature="0"
         d="m 6758,12033 c 6,-2 18,-2 25,0 6,3 1,5 -13,5 -14,0 -19,-2 -12,-5 z"
         id="path1166" />
      <path
         style="fill:none;stroke:#000000;stroke-opacity:1;stroke-width:780.52892545;stroke-miterlimit:4;stroke-dasharray:none"
         inkscape:connector-curvature="0"
         d="m 4028,12023 c 7,-3 16,-2 19,1 4,3 -2,6 -13,5 -11,0 -14,-3 -6,-6 z"
         id="path1168" />
      <path
         style="fill:none;stroke:#000000;stroke-opacity:1;stroke-width:780.52892545;stroke-miterlimit:4;stroke-dasharray:none"
         inkscape:connector-curvature="0"
         d="m 6868,12023 c 7,-3 16,-2 19,1 4,3 -2,6 -13,5 -11,0 -14,-3 -6,-6 z"
         id="path1170" />
      <path
         style="fill:none;stroke:#000000;stroke-opacity:1;stroke-width:780.52892545;stroke-miterlimit:4;stroke-dasharray:none"
         inkscape:connector-curvature="0"
         d="m 3933,12013 c 9,-2 25,-2 35,0 9,3 1,5 -18,5 -19,0 -27,-2 -17,-5 z"
         id="path1172" />
      <path
         style="fill:none;stroke:#000000;stroke-opacity:1;stroke-width:780.52892545;stroke-miterlimit:4;stroke-dasharray:none"
         inkscape:connector-curvature="0"
         d="m 6948,12013 c 6,-2 18,-2 25,0 6,3 1,5 -13,5 -14,0 -19,-2 -12,-5 z"
         id="path1174" />
      <path
         style="fill:none;stroke:#000000;stroke-opacity:1;stroke-width:780.52892545;stroke-miterlimit:4;stroke-dasharray:none"
         inkscape:connector-curvature="0"
         d="m 3848,12003 c 6,-2 18,-2 25,0 6,3 1,5 -13,5 -14,0 -19,-2 -12,-5 z"
         id="path1176" />
      <path
         style="fill:none;stroke:#000000;stroke-opacity:1;stroke-width:780.52892545;stroke-miterlimit:4;stroke-dasharray:none"
         inkscape:connector-curvature="0"
         d="m 7048,12003 c 7,-3 16,-2 19,1 4,3 -2,6 -13,5 -11,0 -14,-3 -6,-6 z"
         id="path1178" />
      <path
         style="fill:none;stroke:#000000;stroke-opacity:1;stroke-width:780.52892545;stroke-miterlimit:4;stroke-dasharray:none"
         inkscape:connector-curvature="0"
         d="m 3773,11993 c 9,-2 23,-2 30,0 6,3 -1,5 -18,5 -16,0 -22,-2 -12,-5 z"
         id="path1180" />
      <path
         style="fill:none;stroke:#000000;stroke-opacity:1;stroke-width:780.52892545;stroke-miterlimit:4;stroke-dasharray:none"
         inkscape:connector-curvature="0"
         d="m 7118,11993 c 7,-3 16,-2 19,1 4,3 -2,6 -13,5 -11,0 -14,-3 -6,-6 z"
         id="path1182" />
      <path
         style="fill:none;stroke:#000000;stroke-opacity:1;stroke-width:780.52892545;stroke-miterlimit:4;stroke-dasharray:none"
         inkscape:connector-curvature="0"
         d="m 3708,11983 c 7,-3 16,-2 19,1 4,3 -2,6 -13,5 -11,0 -14,-3 -6,-6 z"
         id="path1184" />
      <path
         style="fill:none;stroke:#000000;stroke-opacity:1;stroke-width:780.52892545;stroke-miterlimit:4;stroke-dasharray:none"
         inkscape:connector-curvature="0"
         d="m 3628,11973 c 6,-2 18,-2 25,0 6,3 1,5 -13,5 -14,0 -19,-2 -12,-5 z"
         id="path1186" />
      <path
         style="fill:none;stroke:#000000;stroke-opacity:1;stroke-width:780.52892545;stroke-miterlimit:4;stroke-dasharray:none"
         inkscape:connector-curvature="0"
         d="m 3558,11963 c 7,-3 16,-2 19,1 4,3 -2,6 -13,5 -11,0 -14,-3 -6,-6 z"
         id="path1188" />
      <path
         style="fill:none;stroke:#000000;stroke-opacity:1;stroke-width:780.52892545;stroke-miterlimit:4;stroke-dasharray:none"
         inkscape:connector-curvature="0"
         d="m 3508,11953 c 7,-3 16,-2 19,1 4,3 -2,6 -13,5 -11,0 -14,-3 -6,-6 z"
         id="path1190" />
      <path
         style="fill:none;stroke:#000000;stroke-opacity:1;stroke-width:780.52892545;stroke-miterlimit:4;stroke-dasharray:none"
         inkscape:connector-curvature="0"
         d="m 3428,11943 c 7,-3 16,-2 19,1 4,3 -2,6 -13,5 -11,0 -14,-3 -6,-6 z"
         id="path1192" />
      <path
         style="fill:none;stroke:#000000;stroke-opacity:1;stroke-width:780.52892545;stroke-miterlimit:4;stroke-dasharray:none"
         inkscape:connector-curvature="0"
         d="m 3363,11933 c 9,-2 23,-2 30,0 6,3 -1,5 -18,5 -16,0 -22,-2 -12,-5 z"
         id="path1194" />
      <path
         style="fill:none;stroke:#000000;stroke-opacity:1;stroke-width:780.52892545;stroke-miterlimit:4;stroke-dasharray:none"
         inkscape:connector-curvature="0"
         d="m 3308,11923 c 7,-3 16,-2 19,1 4,3 -2,6 -13,5 -11,0 -14,-3 -6,-6 z"
         id="path1196" />
      <path
         style="fill:none;stroke:#000000;stroke-opacity:1;stroke-width:780.52892545;stroke-miterlimit:4;stroke-dasharray:none"
         inkscape:connector-curvature="0"
         d="m 3248,11913 c 7,-3 16,-2 19,1 4,3 -2,6 -13,5 -11,0 -14,-3 -6,-6 z"
         id="path1198" />
      <path
         style="fill:none;stroke:#000000;stroke-opacity:1;stroke-width:780.52892545;stroke-miterlimit:4;stroke-dasharray:none"
         inkscape:connector-curvature="0"
         d="m 3188,11903 c 7,-3 16,-2 19,1 4,3 -2,6 -13,5 -11,0 -14,-3 -6,-6 z"
         id="path1200" />
      <path
         style="fill:none;stroke:#000000;stroke-opacity:1;stroke-width:780.52892545;stroke-miterlimit:4;stroke-dasharray:none"
         inkscape:connector-curvature="0"
         d="m 3128,11893 c 6,-2 18,-2 25,0 6,3 1,5 -13,5 -14,0 -19,-2 -12,-5 z"
         id="path1202" />
      <path
         style="fill:none;stroke:#000000;stroke-opacity:1;stroke-width:780.52892545;stroke-miterlimit:4;stroke-dasharray:none"
         inkscape:connector-curvature="0"
         d="m 3078,11883 c 7,-3 16,-2 19,1 4,3 -2,6 -13,5 -11,0 -14,-3 -6,-6 z"
         id="path1204" />
      <path
         style="fill:none;stroke:#000000;stroke-opacity:1;stroke-width:780.52892545;stroke-miterlimit:4;stroke-dasharray:none"
         inkscape:connector-curvature="0"
         d="m 3018,11873 c 6,-2 18,-2 25,0 6,3 1,5 -13,5 -14,0 -19,-2 -12,-5 z"
         id="path1206" />
      <path
         style="fill:none;stroke:#000000;stroke-opacity:1;stroke-width:780.52892545;stroke-miterlimit:4;stroke-dasharray:none"
         inkscape:connector-curvature="0"
         d="m 2968,11863 c 7,-3 16,-2 19,1 4,3 -2,6 -13,5 -11,0 -14,-3 -6,-6 z"
         id="path1208" />
      <path
         style="fill:none;stroke:#000000;stroke-opacity:1;stroke-width:780.52892545;stroke-miterlimit:4;stroke-dasharray:none"
         inkscape:connector-curvature="0"
         d="m 2918,11853 c 7,-3 16,-2 19,1 4,3 -2,6 -13,5 -11,0 -14,-3 -6,-6 z"
         id="path1210" />
      <path
         style="fill:none;stroke:#000000;stroke-opacity:1;stroke-width:780.52892545;stroke-miterlimit:4;stroke-dasharray:none"
         inkscape:connector-curvature="0"
         d="m 2808,11833 c 6,-2 18,-2 25,0 6,3 1,5 -13,5 -14,0 -19,-2 -12,-5 z"
         id="path1212" />
      <path
         style="fill:none;stroke:#000000;stroke-opacity:1;stroke-width:780.52892545;stroke-miterlimit:4;stroke-dasharray:none"
         inkscape:connector-curvature="0"
         d="m 2718,11813 c 7,-3 16,-2 19,1 4,3 -2,6 -13,5 -11,0 -14,-3 -6,-6 z"
         id="path1214" />
      <path
         style="fill:none;stroke:#000000;stroke-opacity:1;stroke-width:780.52892545;stroke-miterlimit:4;stroke-dasharray:none"
         inkscape:connector-curvature="0"
         d="m 2668,11803 c 7,-3 16,-2 19,1 4,3 -2,6 -13,5 -11,0 -14,-3 -6,-6 z"
         id="path1216" />
      <path
         style="fill:none;stroke:#000000;stroke-opacity:1;stroke-width:780.52892545;stroke-miterlimit:4;stroke-dasharray:none"
         inkscape:connector-curvature="0"
         d="m 2618,11793 c 6,-2 18,-2 25,0 6,3 1,5 -13,5 -14,0 -19,-2 -12,-5 z"
         id="path1218" />
      <path
         style="fill:none;stroke:#000000;stroke-opacity:1;stroke-width:780.52892545;stroke-miterlimit:4;stroke-dasharray:none"
         inkscape:connector-curvature="0"
         d="m 2528,11773 c 7,-3 16,-2 19,1 4,3 -2,6 -13,5 -11,0 -14,-3 -6,-6 z"
         id="path1220" />
      <path
         style="fill:none;stroke:#000000;stroke-opacity:1;stroke-width:780.52892545;stroke-miterlimit:4;stroke-dasharray:none"
         inkscape:connector-curvature="0"
         d="m 2438,11753 c 7,-3 16,-2 19,1 4,3 -2,6 -13,5 -11,0 -14,-3 -6,-6 z"
         id="path1222" />
      <path
         style="fill:none;stroke:#000000;stroke-opacity:1;stroke-width:780.52892545;stroke-miterlimit:4;stroke-dasharray:none"
         inkscape:connector-curvature="0"
         d="m 2348,11733 c 6,-2 18,-2 25,0 6,3 1,5 -13,5 -14,0 -19,-2 -12,-5 z"
         id="path1224" />
      <path
         style="fill:none;stroke:#000000;stroke-opacity:1;stroke-width:780.52892545;stroke-miterlimit:4;stroke-dasharray:none"
         inkscape:connector-curvature="0"
         d="m 2308,11723 c 7,-3 16,-2 19,1 4,3 -2,6 -13,5 -11,0 -14,-3 -6,-6 z"
         id="path1226" />
      <path
         style="fill:none;stroke:#000000;stroke-opacity:1;stroke-width:780.52892545;stroke-miterlimit:4;stroke-dasharray:none"
         inkscape:connector-curvature="0"
         d="m 2268,11713 c 7,-3 16,-2 19,1 4,3 -2,6 -13,5 -11,0 -14,-3 -6,-6 z"
         id="path1228" />
      <path
         style="fill:none;stroke:#000000;stroke-opacity:1;stroke-width:780.52892545;stroke-miterlimit:4;stroke-dasharray:none"
         inkscape:connector-curvature="0"
         d="m 2178,11693 c 7,-3 16,-2 19,1 4,3 -2,6 -13,5 -11,0 -14,-3 -6,-6 z"
         id="path1230" />
      <path
         style="fill:none;stroke:#000000;stroke-opacity:1;stroke-width:780.52892545;stroke-miterlimit:4;stroke-dasharray:none"
         inkscape:connector-curvature="0"
         d="m 2098,11673 c 7,-3 16,-2 19,1 4,3 -2,6 -13,5 -11,0 -14,-3 -6,-6 z"
         id="path1232" />
      <path
         style="fill:none;stroke:#000000;stroke-opacity:1;stroke-width:780.52892545;stroke-miterlimit:4;stroke-dasharray:none"
         inkscape:connector-curvature="0"
         d="m 2018,11653 c 7,-3 16,-2 19,1 4,3 -2,6 -13,5 -11,0 -14,-3 -6,-6 z"
         id="path1234" />
      <path
         style="fill:none;stroke:#000000;stroke-opacity:1;stroke-width:780.52892545;stroke-miterlimit:4;stroke-dasharray:none"
         inkscape:connector-curvature="0"
         d="m 1938,11633 c 7,-3 16,-2 19,1 4,3 -2,6 -13,5 -11,0 -14,-3 -6,-6 z"
         id="path1236" />
      <path
         style="fill:none;stroke:#000000;stroke-opacity:1;stroke-width:780.52892545;stroke-miterlimit:4;stroke-dasharray:none"
         inkscape:connector-curvature="0"
         d="m 1708,11573 c 7,-3 16,-2 19,1 4,3 -2,6 -13,5 -11,0 -14,-3 -6,-6 z"
         id="path1238" />
      <path
         style="fill:none;stroke:#000000;stroke-opacity:1;stroke-width:780.52892545;stroke-miterlimit:4;stroke-dasharray:none"
         inkscape:connector-curvature="0"
         d="m 1111,8714 c 0,-11 3,-14 6,-6 3,7 2,16 -1,19 -3,4 -6,-2 -5,-13 z"
         id="path1240" />
      <path
         style="fill:none;stroke:#000000;stroke-opacity:1;stroke-width:780.52892545;stroke-miterlimit:4;stroke-dasharray:none"
         inkscape:connector-curvature="0"
         d="m 1131,8554 c 0,-11 3,-14 6,-6 3,7 2,16 -1,19 -3,4 -6,-2 -5,-13 z"
         id="path1242" />
      <path
         style="fill:none;stroke:#000000;stroke-opacity:1;stroke-width:780.52892545;stroke-miterlimit:4;stroke-dasharray:none"
         inkscape:connector-curvature="0"
         d="m 1142,8480 c 0,-14 2,-19 5,-12 2,6 2,18 0,25 -3,6 -5,1 -5,-13 z"
         id="path1244" />
      <path
         style="fill:none;stroke:#000000;stroke-opacity:1;stroke-width:780.52892545;stroke-miterlimit:4;stroke-dasharray:none"
         inkscape:connector-curvature="0"
         d="m 1151,8424 c 0,-11 3,-14 6,-6 3,7 2,16 -1,19 -3,4 -6,-2 -5,-13 z"
         id="path1246" />
      <path
         style="fill:none;stroke:#000000;stroke-opacity:1;stroke-width:780.52892545;stroke-miterlimit:4;stroke-dasharray:none"
         inkscape:connector-curvature="0"
         d="m 1162,8360 c 0,-19 2,-27 5,-17 2,9 2,25 0,35 -3,9 -5,1 -5,-18 z"
         id="path1248" />
      <path
         style="fill:none;stroke:#000000;stroke-opacity:1;stroke-width:780.52892545;stroke-miterlimit:4;stroke-dasharray:none"
         inkscape:connector-curvature="0"
         d="m 1172,8290 c 0,-14 2,-19 5,-12 2,6 2,18 0,25 -3,6 -5,1 -5,-13 z"
         id="path1250" />
      <path
         style="fill:none;stroke:#000000;stroke-opacity:1;stroke-width:780.52892545;stroke-miterlimit:4;stroke-dasharray:none"
         inkscape:connector-curvature="0"
         d="m 9861,7964 c 0,-11 3,-14 6,-6 3,7 2,16 -1,19 -3,4 -6,-2 -5,-13 z"
         id="path1252" />
      <path
         style="fill:none;stroke:#000000;stroke-opacity:1;stroke-width:780.52892545;stroke-miterlimit:4;stroke-dasharray:none"
         inkscape:connector-curvature="0"
         d="m 9842,7850 c 0,-14 2,-19 5,-12 2,6 2,18 0,25 -3,6 -5,1 -5,-13 z"
         id="path1254" />
    </g>
  </g>
</svg>
