<?xml version="1.0" encoding="UTF-8" standalone="no"?>
<!-- Created with Inkscape (http://www.inkscape.org/) -->

<svg
   xmlns:dc="http://purl.org/dc/elements/1.1/"
   xmlns:cc="http://creativecommons.org/ns#"
   xmlns:rdf="http://www.w3.org/1999/02/22-rdf-syntax-ns#"
   xmlns:svg="http://www.w3.org/2000/svg"
   xmlns="http://www.w3.org/2000/svg"
   xmlns:sodipodi="http://sodipodi.sourceforge.net/DTD/sodipodi-0.dtd"
   xmlns:inkscape="http://www.inkscape.org/namespaces/inkscape"
   width="54.437855mm"
   height="56.268162mm"
   viewBox="0 0 54.437856 56.268162"
   version="1.1"
   id="svg822"
   inkscape:version="0.92.2 5c3e80d, 2017-08-06"
   sodipodi:docname="dust.svg">
  <defs
     id="defs816" />
  <sodipodi:namedview
     id="base"
     pagecolor="#ffffff"
     bordercolor="#666666"
     borderopacity="1.0"
     inkscape:pageopacity="0.0"
     inkscape:pageshadow="2"
     inkscape:zoom="0.49497475"
     inkscape:cx="282.30873"
     inkscape:cy="-92.21817"
     inkscape:document-units="mm"
     inkscape:current-layer="layer1"
     showgrid="false"
     fit-margin-top="0"
     fit-margin-left="0"
     fit-margin-right="0"
     fit-margin-bottom="0"
     inkscape:window-width="1440"
     inkscape:window-height="813"
     inkscape:window-x="0"
     inkscape:window-y="1"
     inkscape:window-maximized="1" />
  <metadata
     id="metadata819">
    <rdf:RDF>
      <cc:Work
         rdf:about="">
        <dc:format>image/svg+xml</dc:format>
        <dc:type
           rdf:resource="http://purl.org/dc/dcmitype/StillImage" />
        <dc:title></dc:title>
      </cc:Work>
    </rdf:RDF>
  </metadata>
  <g
     inkscape:label="Layer 1"
     inkscape:groupmode="layer"
     id="layer1"
     transform="translate(-82.966065,-185.76438)">
    <path
       style="fill:#000000;stroke-width:0.17638889"
       d="m 122.23447,241.85615 c 0,-0.097 0.0747,-0.17638 0.16598,-0.17638 0.0913,0 0.21503,0.0794 0.27499,0.17638 0.06,0.097 -0.0147,0.17639 -0.16598,0.17639 -0.15124,0 -0.27499,-0.0794 -0.27499,-0.17639 z m -5.46806,-0.27024 c 0,-0.29531 0.5404,-1.31726 0.69656,-1.31726 0.25478,0 0.23287,0.20341 -0.0921,0.85485 -0.23787,0.47682 -0.60445,0.75725 -0.60445,0.46241 z m -7.06293,-0.62548 c -0.287,-0.53627 -0.0819,-0.86816 0.53654,-0.86816 0.3043,0 0.58228,0.10953 0.63648,0.2508 0.14425,0.37589 -0.24907,0.98392 -0.63648,0.98392 -0.1872,0 -0.42864,-0.16495 -0.53654,-0.36656 z m -8.327,-5.11563 c -0.65885,-0.38374 -0.24163,-1.22059 0.60854,-1.22059 0.44389,0 0.49389,0.0606 0.49389,0.59849 0,0.75319 -0.44562,1.00466 -1.10243,0.6221 z m 7.80521,-0.0552 c 0,-0.25937 0.42673,-0.50349 0.59172,-0.3385 0.0992,0.0992 -0.30845,0.58421 -0.49092,0.58421 -0.0554,0 -0.1008,-0.11057 -0.1008,-0.24571 z m -2.02847,-2.40012 c -0.06,-0.097 -0.025,-0.17639 0.0778,-0.17639 0.10274,0 0.1868,0.0794 0.1868,0.17639 0,0.097 -0.035,0.17639 -0.0778,0.17639 -0.0428,0 -0.12684,-0.0794 -0.1868,-0.17639 z m 23.54792,-1.05834 c 0,-0.097 0.0794,-0.17638 0.17639,-0.17638 0.097,0 0.17638,0.0794 0.17638,0.17638 0,0.097 -0.0794,0.17639 -0.17638,0.17639 -0.097,0 -0.17639,-0.0794 -0.17639,-0.17639 z m -27.30945,-0.5802 c -0.10381,-0.12509 -0.26702,-0.57577 -0.36267,-1.00152 -0.13493,-0.6005 -0.11621,-0.88572 0.0835,-1.27188 0.2573,-0.49757 0.47821,-0.58481 1.30669,-0.51605 1.31081,0.10878 1.09164,2.06746 -0.31561,2.8206 -0.46009,0.24623 -0.4825,0.24525 -0.71189,-0.0312 z m 21.11369,-0.72089 c -0.41679,-0.91474 0.96255,-1.87149 1.4324,-0.99355 0.14148,0.26434 0.12008,0.48243 -0.0865,0.88194 -0.34884,0.67458 -1.06243,0.73376 -1.34589,0.11161 z m -8.83617,-0.0313 c -0.12578,-0.12577 0.61343,-2.01818 0.78852,-2.01864 0.18351,-5.3e-4 0.16659,0.4868 -0.0209,0.60269 -0.0843,0.0521 -0.20427,0.41395 -0.26666,0.80416 -0.10532,0.65863 -0.26233,0.85039 -0.50093,0.61179 z m 6.21248,-0.4419 c 0,-0.10274 0.0794,-0.13775 0.17639,-0.0778 0.097,0.06 0.17639,0.14402 0.17639,0.1868 0,0.0428 -0.0794,0.0778 -0.17639,0.0778 -0.097,0 -0.17639,-0.084 -0.17639,-0.18679 z m -22.450354,-0.86334 c -0.13041,-0.4987 0.25577,-0.93459 0.764404,-0.8628 0.34177,0.0482 0.44254,0.17962 0.48636,0.63412 0.0527,0.54656 0.027,0.57326 -0.55269,0.57326 -0.454804,0 -0.630664,-0.0868 -0.698074,-0.34458 z m 22.097574,-0.0186 c 0,-0.19975 0.0794,-0.31413 0.17639,-0.25417 0.097,0.06 0.17639,0.22339 0.17639,0.36319 0,0.13979 -0.0794,0.25417 -0.17639,0.25417 -0.097,0 -0.17639,-0.16344 -0.17639,-0.36319 z M 95.776136,228.4506 c 0,-0.097 0.0794,-0.17639 0.17638,-0.17639 0.097,0 0.17639,0.0794 0.17639,0.17639 0,0.097 -0.0794,0.17639 -0.17639,0.17639 -0.097,0 -0.17638,-0.0794 -0.17638,-0.17639 z m 41.275004,0 c 0,-0.097 0.0794,-0.17639 0.17639,-0.17639 0.097,0 0.17639,0.0794 0.17639,0.17639 0,0.097 -0.0794,0.17639 -0.17639,0.17639 -0.097,0 -0.17639,-0.0794 -0.17639,-0.17639 z m -27.16389,-1.03777 c 0,-0.40659 0.0912,-0.52605 0.45487,-0.59556 0.27889,-0.0533 0.48887,0.002 0.54275,0.14204 0.13824,0.36025 -0.26904,0.96212 -0.65105,0.96212 -0.26437,0 -0.34657,-0.12063 -0.34657,-0.5086 z m 22.225,-1.43167 c 0,-0.097 0.12375,-0.17639 0.27499,-0.17639 0.15125,0 0.22594,0.0794 0.16598,0.17639 -0.06,0.097 -0.18371,0.17638 -0.27499,0.17638 -0.0913,0 -0.16598,-0.0794 -0.16598,-0.17638 z m -10.75972,-0.83402 c -0.84367,-0.32081 -1.76321,-1.53028 -1.42249,-1.871 0.26014,-0.26014 1.96684,-0.35277 2.52492,-0.13705 0.64866,0.25074 0.63814,0.877 -0.0267,1.58869 -0.52267,0.55953 -0.61376,0.59504 -1.07575,0.41936 z m -10.99491,-0.16552 c -0.19166,-0.19166 -0.13409,-0.85369 0.0941,-1.08185 0.11642,-0.11642 0.42923,-0.21167 0.69515,-0.21167 0.26591,0 0.53253,-0.0794 0.59249,-0.17639 0.06,-0.097 0.46152,-0.17639 0.89236,-0.17639 0.71466,0 0.78334,0.0381 0.78334,0.4341 0,0.43377 -0.60563,1.15839 -0.95931,1.14779 -0.10297,-0.003 -0.3413,-0.12215 -0.52962,-0.26458 -0.46321,-0.35036 -0.62774,-0.32577 -0.62774,0.0938 0,0.25199 -0.11759,0.35278 -0.41158,0.35278 -0.22636,0 -0.46449,-0.0529 -0.52916,-0.11759 z m 4.52743,-1.39442 c -0.1748,-0.45551 0.18411,-0.86924 0.75406,-0.86924 0.44901,0 0.50994,0.0632 0.50994,0.52917 0,0.46831 -0.0661,0.53553 -0.57447,0.58453 -0.41272,0.0398 -0.60688,-0.0291 -0.68953,-0.24446 z m 3.46886,-0.0755 c 0,-0.097 0.0794,-0.17639 0.17639,-0.17639 0.097,0 0.17639,0.0794 0.17639,0.17639 0,0.097 -0.0794,0.17639 -0.17639,0.17639 -0.097,0 -0.17639,-0.0794 -0.17639,-0.17639 z m -14.42861,-0.21167 c -0.26697,-0.26697 -0.27286,-0.62048 -0.0118,-0.7075 0.10993,-0.0366 0.28852,-0.34091 0.39688,-0.67616 0.15302,-0.47344 0.30531,-0.62199 0.68208,-0.66534 0.57633,-0.0663 0.60939,0.11476 0.13181,0.72191 -0.20267,0.25765 -0.30602,0.57217 -0.24246,0.73782 0.0675,0.17584 -0.0185,0.38666 -0.22001,0.53922 -0.40934,0.30997 -0.4723,0.31425 -0.7365,0.05 z m 1.55222,0.0387 c -0.23315,-0.14764 -0.22934,-0.22591 0.032,-0.65876 0.16314,-0.27016 0.40696,-0.51415 0.54182,-0.54218 0.29681,-0.0617 0.69191,0.73501 0.54908,1.10722 -0.11459,0.29861 -0.71963,0.34911 -1.12293,0.0937 z m 23.28334,-0.87497 c 0,-0.25339 0.28882,-0.37666 0.60144,-0.2567 0.43068,0.16527 0.33295,0.42268 -0.16047,0.42268 -0.24253,0 -0.44097,-0.0747 -0.44097,-0.16598 z m -38.981954,-0.33609 c 0,-0.35836 0.57758,-1.26182 0.80667,-1.26182 0.33441,0 0.32075,0.0747 -0.14521,0.79404 -0.37994,0.58657 -0.66146,0.78565 -0.66146,0.46778 z m 35.277784,-0.0271 c 0,-0.097 0.0794,-0.17639 0.17639,-0.17639 0.097,0 0.17639,0.0794 0.17639,0.17639 0,0.097 -0.0794,0.17639 -0.17639,0.17639 -0.097,0 -0.17639,-0.0794 -0.17639,-0.17639 z M 82.995466,221.4072 c -0.12048,-0.19495 0.15777,-0.40545 0.32065,-0.24258 0.1677,0.16771 0.13645,0.40678 -0.0532,0.40678 -0.0913,0 -0.21164,-0.0739 -0.26746,-0.1642 z m 12.46318,-1.20273 0.0529,-1.01415 0.76133,-0.1599 c 0.66229,-0.1391 0.80931,-0.11191 1.1302,0.20898 0.35845,0.35844 0.35999,0.38291 0.0545,0.86537 -0.45714,0.72189 -0.99554,1.10547 -1.55792,1.10993 -0.49016,0.004 -0.49348,-0.004 -0.44098,-1.01023 z m 18.701314,0.89576 c -0.26564,-0.1068 -0.92132,-1.33561 -0.92132,-1.72666 0,-0.63586 1.51129,-0.0597 2.17493,0.82916 0.29106,0.38984 0.31245,0.51716 0.12488,0.74317 -0.21853,0.26331 -0.9138,0.34116 -1.37849,0.15433 z m 12.48438,-0.32231 c -0.12973,-0.24239 -0.17634,-0.50023 -0.10358,-0.57299 0.15297,-0.15297 0.6326,0.44056 0.6326,0.78283 0,0.37403 -0.2749,0.26499 -0.52902,-0.20984 z m -15.69876,-0.0885 c 0,-0.097 0.0794,-0.17639 0.17639,-0.17639 0.097,0 0.17639,0.0794 0.17639,0.17639 0,0.097 -0.0794,0.17639 -0.17639,0.17639 -0.097,0 -0.17639,-0.0794 -0.17639,-0.17639 z m -1.02526,-0.3638 c 0.0424,-0.12734 0.18135,-0.26624 0.30868,-0.30868 0.13229,-0.0441 0.19844,0.022 0.15434,0.15434 -0.0424,0.12733 -0.18135,0.26623 -0.30868,0.30868 -0.13229,0.0441 -0.19844,-0.022 -0.15434,-0.15434 z m 22.89748,0.011 c 0,-0.097 0.0794,-0.17639 0.17639,-0.17639 0.097,0 0.17639,0.0794 0.17639,0.17639 0,0.097 -0.0794,0.17639 -0.17639,0.17639 -0.097,0 -0.17639,-0.0794 -0.17639,-0.17639 z m -31.82069,-0.67723 c -0.22075,-0.35718 -0.46411,-1.89416 -0.3687,-2.32856 0.0737,-0.33561 0.30786,-0.56818 0.79171,-0.78636 1.22176,-0.55094 1.63266,-0.0562 1.17066,1.40941 -0.43665,1.38519 -1.25221,2.25799 -1.59367,1.70551 z m 19.12069,-0.3811 c 0,-0.097 0.0794,-0.17639 0.17639,-0.17639 0.097,0 0.17639,0.0794 0.17639,0.17639 0,0.097 -0.0794,0.17639 -0.17639,0.17639 -0.097,0 -0.17639,-0.0794 -0.17639,-0.17639 z m 2.0864,-0.43362 c -0.52114,-0.48323 -0.81322,-1.43928 -0.52712,-1.72538 0.10111,-0.10112 0.58759,-0.22264 1.08107,-0.27006 0.68469,-0.0658 0.97561,-0.0153 1.2282,0.21333 0.28132,0.25459 0.38647,0.2649 0.70067,0.0687 0.20332,-0.12698 0.36967,-0.35115 0.36967,-0.49816 0,-0.14701 0.25225,-0.37894 0.56055,-0.51541 0.50318,-0.22273 0.62504,-0.2136 1.19063,0.0892 0.52428,0.28071 0.63917,0.44688 0.68427,0.98964 0.0475,0.57131 -0.0401,0.74195 -0.70556,1.37467 -0.67817,0.64482 -0.8259,0.71037 -1.37577,0.61052 -0.74122,-0.13459 -0.88245,-0.21224 -0.88598,-0.48712 -0.008,-0.64084 -0.31071,-0.65514 -0.92225,-0.0436 -0.345,0.345 -0.69556,0.62728 -0.77901,0.62728 -0.0835,0 -0.36217,-0.19513 -0.61937,-0.43362 z m -5.35859,-0.35447 c -0.3264,-0.78118 -0.32199,-0.86103 0.067,-1.21305 0.40473,-0.36626 1.41613,-0.38643 1.55254,-0.031 0.0551,0.14353 -0.0736,0.61978 -0.28585,1.05833 -0.48434,1.0005 -0.96524,1.06745 -1.33367,0.18567 z m -6.91427,-0.16586 c -0.50381,-0.53151 -0.50194,-0.77685 0.007,-0.90456 0.51156,-0.12839 1.36013,0.18598 1.36013,0.50389 0,0.26626 -0.55088,0.82722 -0.80764,0.8224 -0.0894,-0.002 -0.34109,-0.19145 -0.55937,-0.42173 z m -24.385764,-0.45716 c 0,-0.097 0.0794,-0.17639 0.17639,-0.17639 0.097,0 0.17639,0.0794 0.17639,0.17639 0,0.097 -0.0794,0.17639 -0.17639,0.17639 -0.097,0 -0.17639,-0.0794 -0.17639,-0.17639 z m 0.82315,-0.82315 c -0.16858,-0.16858 -0.145,-0.41158 0.0399,-0.41158 0.0866,0 0.20321,0.11907 0.25905,0.26459 0.10317,0.26886 -0.0847,0.36124 -0.29897,0.14699 z m 42.921304,-0.85255 c 0,-0.14552 0.0785,-0.26458 0.17437,-0.26458 0.282,0 0.89127,-0.57843 1.17252,-1.11318 0.20023,-0.38068 0.36693,-0.48307 0.71797,-0.44097 1.01185,0.12138 0.9048,1.20137 -0.11908,1.20137 -0.54609,0 -1.59301,0.47218 -1.59301,0.71848 0,0.0899 -0.0794,0.16347 -0.17639,0.16347 -0.097,0 -0.17638,-0.11907 -0.17638,-0.26459 z m -20.6963,-0.0294 c -0.21419,-0.21419 -0.12193,-0.89394 0.15221,-1.12146 0.37042,-0.30742 1.14131,0.0462 1.14131,0.52351 0,0.50478 -0.94832,0.94316 -1.29352,0.59795 z m -17.756484,-0.39075 c 0,-0.19403 0.0794,-0.40183 0.17639,-0.46179 0.097,-0.06 0.17638,0.0497 0.17638,0.24376 0,0.19403 -0.0794,0.40184 -0.17638,0.46179 -0.097,0.06 -0.17639,-0.0497 -0.17639,-0.24376 z m 27.516664,-0.72638 c 0,-0.097 0.0794,-0.17638 0.17639,-0.17638 0.097,0 0.17639,0.0794 0.17639,0.17638 0,0.097 -0.0794,0.17639 -0.17639,0.17639 -0.097,0 -0.17639,-0.0794 -0.17639,-0.17639 z m -21.519444,-1.05833 c 0,-0.29104 0.0595,-0.53025 0.13229,-0.53157 0.0728,-0.001 0.31089,-0.0503 0.52917,-0.10877 0.31639,-0.0848 0.39687,-0.0336 0.39687,0.25256 0,0.6265 -0.20153,0.91695 -0.63623,0.91695 -0.35141,0 -0.4221,-0.0886 -0.4221,-0.52917 z m 10.658964,-0.83785 c 0.0628,-0.3638 0.11958,-0.84005 0.12615,-1.05833 0.0143,-0.47574 0.34413,-0.50632 0.99505,-0.0923 0.75539,0.4805 1.02981,1.10651 0.48507,1.10651 -0.14211,0 -0.34333,0.15875 -0.44718,0.35277 -0.12594,0.23534 -0.36932,0.35278 -0.73105,0.35278 -0.52933,0 -0.53954,-0.0158 -0.42804,-0.66146 z m 7.57207,0.3192 c -0.96332,-0.41175 -1.23351,-1.67824 -0.51196,-2.39978 0.3542,-0.3542 0.60854,-0.43296 1.3983,-0.43296 0.8328,0 1.01556,0.0638 1.33094,0.46476 0.78484,0.99776 0.17632,2.31482 -1.134,2.45441 -0.38791,0.0413 -0.87538,0.002 -1.08328,-0.0864 z m -2.00325,-0.1869 c 0,-0.097 0.0794,-0.17639 0.17639,-0.17639 0.097,0 0.17639,0.0794 0.17639,0.17639 0,0.097 -0.0794,0.17638 -0.17639,0.17638 -0.097,0 -0.17639,-0.0794 -0.17639,-0.17638 z m 8.87432,-0.49267 c -0.83622,-1.13105 -0.725,-1.96823 0.30417,-2.28944 0.97786,-0.30518 1.65529,-0.26916 1.99486,0.10606 0.40757,0.45036 0.37406,0.60408 -0.31023,1.42313 -0.33119,0.3964 -0.62885,0.78851 -0.66146,0.87134 -0.0326,0.0828 -0.26405,0.20069 -0.51429,0.2619 -0.36278,0.0887 -0.52757,0.0131 -0.81305,-0.37299 z m -2.47708,-1.10849 c 0.0879,-1.28258 0.2009,-1.76969 0.36165,-1.55915 0.14528,0.19029 -0.11348,2.98392 -0.27639,2.98392 -0.11925,0 -0.14893,-0.49584 -0.0853,-1.42477 z m -16.6278,0.46831 c 0,-0.50754 0.147,-0.73228 0.92301,-1.41111 0.50766,-0.44409 0.98391,-0.80743 1.05834,-0.80743 0.24093,0 0.14413,0.50085 -0.24611,1.27339 -0.80403,1.59166 -1.73524,2.09887 -1.73524,0.94515 z m 23.28334,0.28957 c 0,-0.43286 0.96752,-0.8016 1.24044,-0.47275 0.15211,0.18328 0.0771,0.29703 -0.33726,0.51129 -0.69009,0.35686 -0.90318,0.34777 -0.90318,-0.0385 z m -16.36889,-0.25034 c -0.11642,-0.11641 -0.21167,-0.27516 -0.21167,-0.35277 0,-0.23296 0.68755,-0.84667 0.94854,-0.84667 0.40031,0 0.68715,0.48954 0.5671,0.96785 -0.0855,0.34049 -0.22498,0.44326 -0.60178,0.44326 -0.26979,0 -0.58578,-0.0952 -0.70219,-0.21167 z m -16.599514,-0.38602 c -0.12001,-0.1446 -0.19263,-0.486 -0.16137,-0.75866 0.0436,-0.38051 0.15934,-0.50635 0.49782,-0.54143 0.62993,-0.0653 0.86346,0.14948 0.92032,0.84632 0.0462,0.56574 0.01,0.61438 -0.49437,0.66359 -0.32334,0.0316 -0.63275,-0.0536 -0.7624,-0.20982 z m 18.443654,-0.60682 c -0.16056,-0.17742 -0.29192,-0.56961 -0.29192,-0.87154 0,-0.5677 0.2449,-0.88703 0.43919,-0.57266 0.0609,0.0986 0.3006,0.17927 0.53259,0.17927 0.59765,0 0.82297,0.487 0.50754,1.09698 -0.29229,0.56523 -0.76709,0.63238 -1.1874,0.16795 z m -23.928034,-0.73577 c 0,-0.097 0.0794,-0.17639 0.17639,-0.17639 0.097,0 0.17638,0.0794 0.17638,0.17639 0,0.097 -0.0794,0.17639 -0.17638,0.17639 -0.097,0 -0.17639,-0.0794 -0.17639,-0.17639 z m 44.695464,-0.0744 c -0.11221,-0.29243 0.21865,-0.97793 0.6212,-1.28699 0.15392,-0.11818 0.49815,-0.2174 0.76494,-0.22049 0.6668,-0.008 0.64196,0.51592 -0.0577,1.21555 -0.57633,0.57633 -1.16933,0.70664 -1.32847,0.29193 z m -26.43921,-0.67053 c -0.85091,-0.28662 -1.05476,-0.42124 -1.117,-0.73764 -0.14878,-0.7564 0.68154,-1.01127 1.78817,-0.54889 0.68696,0.28703 0.97641,0.84652 0.64472,1.24619 -0.2399,0.28906 -0.54935,0.29855 -1.31589,0.0403 z m 14.79779,-0.41601 c 0.0589,-0.15346 0.10707,-0.39158 0.10707,-0.52917 0,-0.16036 0.18995,-0.25015 0.52917,-0.25015 0.39197,0 0.52916,0.0823 0.52916,0.3175 0,0.44009 -0.3442,0.74083 -0.8479,0.74083 -0.31468,0 -0.39685,-0.0722 -0.3175,-0.27901 z m -22.850464,-0.3271 c -0.28467,-0.62479 -0.0744,-1.01648 0.50953,-0.94911 0.59035,0.0681 0.73225,0.56078 0.29932,1.03918 -0.40468,0.44716 -0.57259,0.42846 -0.80885,-0.0901 z m 12.669194,-0.74522 c -0.93812,-0.91119 -0.84444,-1.36457 0.29696,-1.43722 0.88887,-0.0566 1.52471,0.27544 1.52471,0.79617 0,0.46785 -0.53939,1.28682 -0.84752,1.28682 -0.17011,0 -0.60848,-0.2906 -0.97415,-0.64577 z m 7.58371,0.52818 c -0.0647,-0.0647 -0.11759,-0.33388 -0.11759,-0.59824 0,-0.3679 0.10534,-0.50708 0.44908,-0.59336 0.247,-0.062 0.52481,-0.0659 0.61736,-0.009 0.19079,0.11791 0.22059,0.62357 0.0612,1.03889 -0.10646,0.27745 -0.78551,0.38597 -1.01006,0.16142 z m 10.21579,-0.56429 c -0.076,-0.12294 -0.0905,-0.27117 -0.0323,-0.32939 0.15787,-0.15786 0.32999,0.0743 0.24472,0.3301 -0.0597,0.17924 -0.10129,0.17911 -0.21242,-7e-4 z m -43.847274,-0.20006 c 0,-0.097 0.0794,-0.17639 0.17638,-0.17639 0.097,0 0.17639,0.0794 0.17639,0.17639 0,0.097 -0.0794,0.17639 -0.17639,0.17639 -0.097,0 -0.17638,-0.0794 -0.17638,-0.17639 z m 6.35,0 c 0,-0.097 0.0794,-0.17639 0.17639,-0.17639 0.097,0 0.17638,0.0794 0.17638,0.17639 0,0.097 -0.0794,0.17639 -0.17638,0.17639 -0.097,0 -0.17639,-0.0794 -0.17639,-0.17639 z m 16.580554,0 c 0,-0.097 0.0794,-0.17639 0.17639,-0.17639 0.097,0 0.17639,0.0794 0.17639,0.17639 0,0.097 -0.0794,0.17639 -0.17639,0.17639 -0.097,0 -0.17639,-0.0794 -0.17639,-0.17639 z m -4.96555,-0.47211 c -0.30803,-0.0806 -0.79949,-1.05359 -0.62189,-1.23119 0.1322,-0.1322 1.26591,0.81071 1.26591,1.05286 0,0.21498 -0.24485,0.28278 -0.64402,0.17833 z m 27.75141,-0.0678 c -0.65225,-0.26054 -0.45773,-0.94393 0.28907,-1.0156 0.56353,-0.0541 0.58325,-0.0349 0.52916,0.51558 -0.0629,0.64043 -0.22253,0.73797 -0.81823,0.50002 z m -25.96086,-0.87123 c 0,-0.097 0.11906,-0.17639 0.26459,-0.17639 0.14552,0 0.26458,0.0794 0.26458,0.17639 0,0.097 -0.11906,0.17639 -0.26458,0.17639 -0.14553,0 -0.26459,-0.0794 -0.26459,-0.17639 z m 2.60169,-0.27933 c -0.16094,-0.16095 0.58002,-1.30817 0.84491,-1.30817 0.42763,0 0.4175,0.27255 -0.0315,0.84622 -0.43836,0.56013 -0.61496,0.66042 -0.81344,0.46195 z m 25.44415,-0.40664 c -0.34001,-0.0938 -0.45401,-0.25644 -0.49792,-0.71041 -0.0733,-0.7575 0.0487,-0.85838 1.11528,-0.92222 0.87064,-0.0521 0.88263,-0.0458 0.93569,0.49515 0.0414,0.42182 -0.0554,0.63382 -0.42066,0.92111 -0.26093,0.20524 -0.52324,0.36526 -0.58292,0.35559 -0.0597,-0.01 -0.30694,-0.0723 -0.54947,-0.13922 z m -17.63889,-0.19344 c 0,-0.14894 1.93501,-1.23726 2.19983,-1.23726 0.0513,0 0.0932,0.10194 0.0932,0.22653 0,0.1246 -0.4564,0.44263 -1.01423,0.70675 -1.10778,0.52451 -1.27882,0.56516 -1.27882,0.30398 z m -27.092134,-0.24634 c -0.12044,-0.31385 0.003,-1.6535 0.16731,-1.81796 0.19918,-0.19917 1.76298,-0.25462 2.041,-0.0724 0.21457,0.14066 0.20725,0.22548 -0.0497,0.57627 -0.16571,0.22624 -0.46536,0.6693 -0.66589,0.9846 -0.27575,0.43355 -0.49067,0.57326 -0.88189,0.57326 -0.2845,0 -0.55938,-0.10971 -0.61083,-0.2438 z m 34.942004,-0.10718 c -0.15038,-0.47381 0.2097,-0.91671 0.68955,-0.84815 0.27985,0.04 0.36822,0.17961 0.36822,0.58177 0,0.44195 -0.0775,0.53813 -0.46993,0.58352 -0.35026,0.0405 -0.49996,-0.0403 -0.58784,-0.31714 z m -12.99212,-0.43152 c -0.10769,-0.23635 -0.14689,-0.55717 -0.0871,-0.71293 0.11655,-0.30372 1.16894,-0.82059 1.39116,-0.68325 0.41911,0.25902 -0.26289,1.82289 -0.79578,1.82479 -0.17186,5.3e-4 -0.40057,-0.19226 -0.50826,-0.42861 z m -15.325074,-0.19511 c -0.14819,-0.17856 -0.16609,-0.33175 -0.0521,-0.44576 0.114,-0.114 0.2435,-0.0205 0.3768,0.27206 0.22472,0.49322 0.0279,0.59852 -0.32471,0.1737 z m 23.590964,-0.0145 c -0.42829,-0.42829 0.1297,-1.44402 0.67774,-1.23371 0.43102,0.1654 0.27255,1.24061 -0.19267,1.3072 -0.19802,0.0283 -0.4163,-0.005 -0.48507,-0.0735 z m -12.97876,-0.65629 c -0.29034,-0.34985 0.0926,-1.17384 0.54547,-1.17384 0.27927,0 0.32599,0.10998 0.28036,0.65999 -0.0592,0.71356 -0.45545,0.96012 -0.82583,0.51385 z m -7.254614,-0.99745 c 0,-0.097 0.0794,-0.17639 0.17639,-0.17639 0.097,0 0.17639,0.0794 0.17639,0.17639 0,0.097 -0.0794,0.17639 -0.17639,0.17639 -0.097,0 -0.17639,-0.0794 -0.17639,-0.17639 z m -6.77051,-0.83785 c -0.0599,-0.16977 -0.15513,-0.4079 -0.21166,-0.52916 -0.0565,-0.12127 -0.026,-0.22049 0.0677,-0.22049 0.0938,0 0.21951,0.13891 0.27939,0.30868 0.0599,0.16978 0.15513,0.4079 0.21166,0.52917 0.0565,0.12126 0.026,0.22048 -0.0677,0.22048 -0.0938,0 -0.21951,-0.1389 -0.2794,-0.30868 z m 16.648294,-0.12626 c 0,-0.31263 0.12618,-0.50678 0.39688,-0.61064 0.49251,-0.18897 0.70926,-0.004 0.63229,0.54017 -0.0432,0.30563 -0.18876,0.43215 -0.5441,0.47303 -0.41904,0.0482 -0.48507,-0.007 -0.48507,-0.40256 z m 14.42808,-0.0378 c -0.39487,-0.10394 -0.49794,-0.51534 -0.34555,-1.37931 0.11589,-0.65709 0.16053,-0.70131 0.64978,-0.64372 0.67965,0.08 0.78992,0.156 0.78992,0.54439 0,0.42176 -0.49745,1.60438 -0.66383,1.57817 -0.0715,-0.0113 -0.2651,-0.056 -0.43032,-0.0995 z m 2.50526,-0.0564 c 0,-0.097 0.0794,-0.17639 0.17639,-0.17639 0.097,0 0.17638,0.0794 0.17638,0.17639 0,0.097 -0.0794,0.17639 -0.17638,0.17639 -0.097,0 -0.17639,-0.0794 -0.17639,-0.17639 z m -10.12591,-0.91198 c -0.66824,-0.95405 0.11593,-1.81538 1.03856,-1.14073 0.3202,0.23414 0.31989,0.2554 -0.012,0.82368 -0.43414,0.74336 -0.6757,0.81797 -1.02655,0.31705 z m -4.69076,-0.49577 c 0,-0.43025 -0.0882,-0.54513 -0.48507,-0.6321 -0.80189,-0.17571 -0.92604,-0.23363 -0.92604,-0.43205 0,-0.11949 0.21679,-0.14925 0.58457,-0.0803 0.41946,0.0787 0.64976,0.0311 0.81535,-0.1684 0.33588,-0.4047 0.95035,-0.34077 1.48474,0.15449 0.89298,0.82759 0.40846,1.68411 -0.95268,1.68411 -0.46041,0 -0.52087,-0.061 -0.52087,-0.5258 z m 8.19589,0.163 c -0.24243,-0.39225 0.0887,-0.97539 0.67409,-1.18706 0.80628,-0.29156 0.83141,-0.28302 0.83141,0.28247 0,0.39467 -0.12785,0.55747 -0.62335,0.79375 -0.73531,0.35065 -0.73404,0.35049 -0.88215,0.11084 z m -25.482004,-1.2247 c 0,-0.097 0.0794,-0.17639 0.17639,-0.17639 0.097,0 0.17639,0.0794 0.17639,0.17639 0,0.097 -0.0794,0.17639 -0.17639,0.17639 -0.097,0 -0.17639,-0.0794 -0.17639,-0.17639 z m 5.50043,-0.8346 c 0.0394,-0.34022 0.19736,-0.53131 0.53745,-0.6502 0.61027,-0.21335 0.75217,-0.0725 0.45663,0.45339 -0.46426,0.82605 -1.08111,0.94818 -0.99408,0.19681 z m 4.127394,0.15272 c -0.076,-0.12294 -0.0905,-0.27117 -0.0323,-0.32939 0.15786,-0.15786 0.32998,0.0743 0.24472,0.3301 -0.0598,0.17924 -0.1013,0.1791 -0.21243,-7e-4 z m 17.0069,-0.72923 c 0,-0.097 0.0841,-0.17639 0.1868,-0.17639 0.10274,0 0.13774,0.0794 0.0778,0.17639 -0.06,0.097 -0.14401,0.17639 -0.1868,0.17639 -0.0428,0 -0.0778,-0.0794 -0.0778,-0.17639 z m -2.99469,-0.22048 c 0.007,-0.41112 0.64593,-1.07336 0.92996,-0.96437 0.29953,0.11495 0.21584,0.81987 -0.12466,1.04986 -0.30774,0.20786 -0.80957,0.15458 -0.8053,-0.0855 z m -3.70809,-1.0751 c 0,-0.22761 0.53824,-0.82109 0.74467,-0.82109 0.25102,0 0.27111,0.54653 0.029,0.78865 -0.33317,0.33317 -0.77366,0.35164 -0.77366,0.0324 z m -15.348244,-0.5124 c -10e-4,-0.12127 -0.0509,-0.41893 -0.11024,-0.66146 -0.10518,-0.43014 -0.10092,-0.43231 0.17319,-0.0882 0.31591,0.39658 0.3844,0.97014 0.11585,0.97014 -0.097,0 -0.17747,-0.0992 -0.1788,-0.22048 z m 23.991304,-0.30869 c 0,-0.097 0.0794,-0.17638 0.17639,-0.17638 0.097,0 0.17639,0.0794 0.17639,0.17638 0,0.097 -0.0794,0.17639 -0.17639,0.17639 -0.097,0 -0.17639,-0.0794 -0.17639,-0.17639 z m -6.44769,-0.36814 c -0.0652,-0.10547 -0.0269,-0.2834 0.0851,-0.3954 0.15394,-0.15393 0.24207,-0.14147 0.36105,0.051 0.16812,0.27202 0.0833,0.53612 -0.17209,0.53612 -0.0856,0 -0.2089,-0.0863 -0.27408,-0.19176 z m 10.78385,-0.31374 c -0.076,-0.12294 -0.0905,-0.27117 -0.0323,-0.32939 0.15787,-0.15786 0.32999,0.0743 0.24472,0.33011 -0.0597,0.17924 -0.10129,0.1791 -0.21242,-7.1e-4 z m 5.01245,-1.082 c 0,-0.48717 0.049,-0.52917 0.61736,-0.52917 0.56837,0 0.61736,0.042 0.61736,0.52917 0,0.48716 -0.049,0.52916 -0.61736,0.52916 -0.56836,0 -0.61736,-0.042 -0.61736,-0.52916 z m -24.51806,-1.77549 c 0,-0.44331 0.3925,-0.87035 0.79996,-0.87035 0.51278,0 0.52505,0.051 0.1499,0.62357 -0.28334,0.43242 -0.94986,0.60559 -0.94986,0.24678 z m 21.02434,-0.0896 c -0.49636,-0.34841 -0.4628,-1.02432 0.0541,-1.09042 0.52067,-0.0666 0.80276,0.1867 0.8447,0.7584 0.0448,0.61132 -0.31276,0.74342 -0.89884,0.33202 z m -33.253974,-0.0164 c -0.18298,-0.18298 -0.13826,-0.76435 0.0588,-0.76435 0.097,0 0.17639,0.19844 0.17639,0.44098 0,0.46179 -0.0408,0.51781 -0.23519,0.32337 z m 17.248644,-0.60104 c -0.13907,-0.22501 0.41001,-0.86886 0.74097,-0.86886 0.38778,0 0.26999,0.46714 -0.19453,0.7715 -0.28527,0.18692 -0.47068,0.21996 -0.54644,0.0974 z m -5.99462,-0.17217 c -0.16761,-0.2712 0.062,-0.44617 0.28837,-0.21978 0.12668,0.12668 0.12972,0.22534 0.009,0.2998 -0.0988,0.061 -0.23269,0.025 -0.29762,-0.08 z m 11.77943,-0.81351 c -0.30443,-0.12285 -0.27712,-0.85132 0.0419,-1.11604 0.58622,-0.48652 1.13426,0.47126 0.58432,1.02119 -0.22559,0.2256 -0.28125,0.23403 -0.62618,0.0949 z m -16.09548,-1.1935 c 0,-0.32031 0.47976,-0.80635 0.79594,-0.80635 0.38446,0 0.44573,0.26437 0.15684,0.67681 -0.29993,0.42821 -0.95278,0.51697 -0.95278,0.12954 z m -2.822234,-0.27718 c 0,-0.097 0.0794,-0.17639 0.17639,-0.17639 0.097,0 0.17639,0.0794 0.17639,0.17639 0,0.097 -0.0794,0.17639 -0.17639,0.17639 -0.097,0 -0.17639,-0.0794 -0.17639,-0.17639 z m 28.222234,-2.46945 c 0,-0.097 0.0794,-0.17639 0.17639,-0.17639 0.097,0 0.17639,0.0794 0.17639,0.17639 0,0.097 -0.0794,0.17639 -0.17639,0.17639 -0.097,0 -0.17639,-0.0794 -0.17639,-0.17639 z m -15.80798,-0.43252 c -0.14572,-0.37975 0.0748,-0.62581 0.56075,-0.62581 0.34167,0 0.43056,0.091 0.43056,0.44097 0,0.35424 -0.0878,0.44097 -0.44651,0.44097 -0.24558,0 -0.49074,-0.11526 -0.5448,-0.25613 z"
       id="path2041"
       inkscape:connector-curvature="0" />
  </g>
</svg>
