<?xml version="1.0" encoding="UTF-8" standalone="no"?>
<!-- Created with Inkscape (http://www.inkscape.org/) -->

<svg
   xmlns:dc="http://purl.org/dc/elements/1.1/"
   xmlns:cc="http://creativecommons.org/ns#"
   xmlns:rdf="http://www.w3.org/1999/02/22-rdf-syntax-ns#"
   xmlns:svg="http://www.w3.org/2000/svg"
   xmlns="http://www.w3.org/2000/svg"
   xmlns:sodipodi="http://sodipodi.sourceforge.net/DTD/sodipodi-0.dtd"
   xmlns:inkscape="http://www.inkscape.org/namespaces/inkscape"
   width="50.641499mm"
   height="25.049616mm"
   version="1.1"
   viewBox="0 0 50.641499 25.049616"
   id="svg14"
   sodipodi:docname="eye.svg"
   inkscape:version="0.92.2 5c3e80d, 2017-08-06">
  <defs
     id="defs18" />
  <sodipodi:namedview
     pagecolor="#ffffff"
     bordercolor="#666666"
     borderopacity="1"
     objecttolerance="10"
     gridtolerance="10"
     guidetolerance="10"
     inkscape:pageopacity="0"
     inkscape:pageshadow="2"
     inkscape:window-width="976"
     inkscape:window-height="720"
     id="namedview16"
     showgrid="false"
     inkscape:zoom="0.45166246"
     inkscape:cx="379.418"
     inkscape:cy="-453.021"
     inkscape:window-x="0"
     inkscape:window-y="0"
     inkscape:window-maximized="0"
     inkscape:current-layer="g6"
     fit-margin-top="0"
     fit-margin-left="0"
     fit-margin-right="0"
     fit-margin-bottom="0" />
  <metadata
     id="metadata2">
    <rdf:RDF>
      <cc:Work
         rdf:about="">
        <dc:format>image/svg+xml</dc:format>
        <dc:type
           rdf:resource="http://purl.org/dc/dcmitype/StillImage" />
        <dc:title></dc:title>
      </cc:Work>
    </rdf:RDF>
  </metadata>
  <g
     transform="matrix(0.042843,0,0,0.042843,2.0387841,-0.51813284)"
     id="g8"
     style="fill:none;stroke:#000000;stroke-width:3.77950001">
    <g
       id="g6"
       style="fill:none;stroke:#000000;stroke-width:3.77950001">
      <path
         style="fill:#000000;stroke-width:8.78273773"
         d="M 475.95499,589.11891 C 340.25465,573.51997 201.97989,513.01392 65.133268,409.35211 27.520076,380.86001 -30.119555,330.08294 -37.811859,318.66371 -49.412121,301.44302 -44.677814,293.28734 0.15773726,253.25461 130.57416,136.80838 283.08369,55.735657 424.01137,27.937748 618.17726,-10.361357 818.88354,47.42911 1019.5136,199.40396 c 35.0593,26.55698 91.7382,75.9619 103.4592,90.1815 13.9656,16.94272 10.498,22.85939 -39.4098,67.24269 -130.27164,115.85147 -282.70666,196.72755 -422.58751,224.20852 -57.60568,11.31723 -129.54178,14.4596 -185.0205,8.08224 z M 599.39526,525.3492 c 21.06503,-5.7439 55.91354,-21.54569 72.14673,-32.71437 30.87712,-21.24401 59.8001,-55.62879 76.42928,-90.86201 16.76791,-35.52717 20.94594,-54.93325 20.94594,-97.28914 0,-30.28516 -0.84946,-39.16279 -5.33645,-55.77081 C 745.50254,181.79856 700.88309,127.84069 639.75169,98.967641 609.67362,84.761446 586.37342,78.933344 553.50134,77.393798 507.61401,75.244692 464.89237,85.5836 426.27341,108.18379 c -26.90235,15.74351 -64.24944,52.9921 -79.75864,79.54823 -21.53604,36.87597 -31.78296,74.51689 -31.78296,116.75166 0,63.25814 21.52757,114.47891 67.38971,160.34105 34.81956,34.81955 67.2555,52.5931 116.4619,63.8163 22.29536,5.08527 76.59197,3.31231 100.81184,-3.29183 z m -90.21323,-87.42558 c -42.26508,-10.23495 -79.39481,-43.53508 -96.23966,-86.31344 -5.63841,-14.31906 -6.20402,-18.61544 -6.20402,-47.1265 0,-28.51107 0.56561,-32.80745 6.20402,-47.12645 17.25129,-43.81047 54.09029,-76.24714 98.48352,-86.71452 11.44056,-2.69754 22.15567,-3.41687 38.00806,-2.55157 29.70967,1.62168 33.41391,3.25251 20.48193,9.01737 -39.62761,17.66538 -49.18819,71.00489 -18.26883,101.92423 36.49566,36.49561 99.88526,15.79226 107.06308,-34.96741 l 1.47873,-10.45702 7.14993,15.16084 c 8.0091,16.98279 12.22697,36.20222 12.22697,55.71453 0,63.22422 -45.88336,120.89176 -106.39074,133.71482 -19.47895,4.12807 -46.28661,4.01293 -63.99299,-0.27488 z"
         id="path950"
         inkscape:connector-curvature="0" />
    </g>
  </g>
</svg>
