<?xml version="1.0" encoding="UTF-8" standalone="no"?>
<svg
   xmlns:dc="http://purl.org/dc/elements/1.1/"
   xmlns:cc="http://creativecommons.org/ns#"
   xmlns:rdf="http://www.w3.org/1999/02/22-rdf-syntax-ns#"
   xmlns:svg="http://www.w3.org/2000/svg"
   xmlns="http://www.w3.org/2000/svg"
   xmlns:sodipodi="http://sodipodi.sourceforge.net/DTD/sodipodi-0.dtd"
   xmlns:inkscape="http://www.inkscape.org/namespaces/inkscape"
   viewBox="0 0 512 512"
   version="1.1"
   id="svg6"
   sodipodi:docname="floor-hatch.svg"
   inkscape:version="0.92.2 5c3e80d, 2017-08-06">
  <metadata
     id="metadata12">
    <rdf:RDF>
      <cc:Work
         rdf:about="">
        <dc:format>image/svg+xml</dc:format>
        <dc:type
           rdf:resource="http://purl.org/dc/dcmitype/StillImage" />
      </cc:Work>
    </rdf:RDF>
  </metadata>
  <defs
     id="defs10" />
  <sodipodi:namedview
     pagecolor="#ffffff"
     bordercolor="#666666"
     borderopacity="1"
     objecttolerance="10"
     gridtolerance="10"
     guidetolerance="10"
     inkscape:pageopacity="0"
     inkscape:pageshadow="2"
     inkscape:window-width="1172"
     inkscape:window-height="734"
     id="namedview8"
     showgrid="false"
     inkscape:zoom="0.65186406"
     inkscape:cx="164.9523"
     inkscape:cy="203.34647"
     inkscape:window-x="0"
     inkscape:window-y="0"
     inkscape:window-maximized="0"
     inkscape:current-layer="svg6" />
  <path
     d="m 116.29688,71.816406 -46.710942,12.9375 C 104.90594,185.09591 151.71023,280.14273 201.24023,382.05273 l 133.41602,13.64649 c -0.385,-33.58 -4.50873,-74.91797 -15.42773,-113.04297 33.89,-49.694 60.60737,-111.00913 92.48437,-176.20313 L 372.85547,78.683594 c -23.013,55.261996 -46.32528,111.085076 -81.98828,163.830076 -9.005,11.141 -91.21672,8.9615 -99.01172,1.8125 -29.931,-62.736 -58.2246,-112.58476 -75.55859,-172.509764 z m 115.45507,42.623044 c -1.27621,-0.0101 -2.55154,0.0701 -3.8164,0.24024 -10.15,1.36 -19.01099,8.38526 -25.20899,20.19726 -6.2,11.812 -9.19823,28.10544 -6.86523,45.52344 2.333,17.42 9.51451,32.35123 18.60351,42.11523 9.088,9.76401 19.48672,14.20861 29.63672,12.84961 10.15,-1.36 19.00999,-8.38431 25.20899,-20.19531 6.198,-11.812 9.19628,-28.10739 6.86328,-45.52539 -2.333,-17.42 -9.51061,-32.35123 -18.59961,-42.11523 -7.952,-8.543 -16.90827,-13.01585 -25.82227,-13.08985 z M 142.00977,292.35352 25.029297,400.7793 44.808594,402.81641 407.83789,440.18359 498.9707,296.65625 340.91992,293.13477 c 1.58,6.018 2.9443,12.04975 4.1543,18.09375 l 121.60156,2.71093 -68.0664,107.19922 -332.175786,-34.19336 82.839846,-76.78515 c -2.457,-5.934 -4.87967,-11.86964 -7.26367,-17.80664 z"
     id="path2"
     inkscape:connector-curvature="0"
     sodipodi:nodetypes="cccccccccccccccccccccccccccccccc" />
</svg>
