<?xml version="1.0" encoding="UTF-8" standalone="no"?>
<!-- Created with Inkscape (http://www.inkscape.org/) -->

<svg
   width="21.616962mm"
   height="9.9999428mm"
   viewBox="0 0 21.616962 9.9999431"
   version="1.1"
   id="svg5"
   inkscape:version="1.1.1 (c3084ef, 2021-09-22)"
   sodipodi:docname="fly_stat.svg"
   xmlns:inkscape="http://www.inkscape.org/namespaces/inkscape"
   xmlns:sodipodi="http://sodipodi.sourceforge.net/DTD/sodipodi-0.dtd"
   xmlns="http://www.w3.org/2000/svg"
   xmlns:svg="http://www.w3.org/2000/svg">
  <sodipodi:namedview
     id="namedview7"
     pagecolor="#ffffff"
     bordercolor="#666666"
     borderopacity="1.0"
     inkscape:pageshadow="2"
     inkscape:pageopacity="0.0"
     inkscape:pagecheckerboard="0"
     inkscape:document-units="mm"
     showgrid="false"
     fit-margin-top="0"
     fit-margin-left="0"
     fit-margin-right="0"
     fit-margin-bottom="0"
     inkscape:zoom="0.64052329"
     inkscape:cx="273.99472"
     inkscape:cy="-8.5867292"
     inkscape:window-width="1312"
     inkscape:window-height="969"
     inkscape:window-x="1547"
     inkscape:window-y="137"
     inkscape:window-maximized="0"
     inkscape:current-layer="layer1" />
  <defs
     id="defs2" />
  <g
     inkscape:label="Layer 1"
     inkscape:groupmode="layer"
     id="layer1"
     transform="translate(35.426296,-214.23041)">
    <path
       style="fill:#000000;stroke-width:0.0422584"
       d="m -26.433584,223.99654 c -0.343185,-0.47127 -0.872019,-0.80283 -1.576207,-0.98824 -0.213898,-0.0563 -0.807512,-0.16018 -1.31914,-0.23081 -0.511629,-0.0706 -1.0723,-0.16778 -1.245935,-0.2159 -0.716521,-0.19855 -1.224217,-0.59672 -1.523616,-1.1949 -0.184935,-0.36949 -0.205912,-0.46755 -0.09292,-0.43434 0.300627,0.0883 0.794529,0.153 1.168812,0.153 0.418311,0 0.852613,-0.0578 0.922971,-0.12283 0.01742,-0.0161 -0.125197,-0.052 -0.316938,-0.0797 -0.527489,-0.0763 -1.357592,-0.28992 -1.784503,-0.4592 -1.267804,-0.50271 -1.933995,-1.25208 -2.072623,-2.33137 l -0.02892,-0.22518 0.165144,0.10425 c 0.654326,0.41306 1.525099,0.70417 2.10453,0.70358 l 0.253551,-3.2e-4 -0.464844,-0.24313 c -0.844006,-0.44145 -1.430779,-0.87303 -2.030379,-1.4934 -0.795097,-0.82264 -1.20507,-1.67315 -1.146115,-2.37767 0.01343,-0.16048 0.0407,-0.30807 0.06061,-0.32798 0.02008,-0.0201 0.230187,0.11468 0.472024,0.30275 0.91753,0.71354 1.791019,1.29359 2.439494,1.61996 0.491059,0.24715 0.93814,0.41966 2.195693,0.84721 0.653626,0.22223 1.417179,0.50629 1.696783,0.63126 1.793107,0.80139 2.900468,1.9143 3.24529,3.26155 0.114597,0.44774 0.107321,1.25283 -0.0152,1.6814 -0.127705,0.44672 -0.302624,0.82025 -0.577747,1.23373 -0.326953,0.49138 -0.311538,0.48596 -0.529817,0.18622 z m 3.215038,-0.0221 c -0.276033,-0.37314 -0.566236,-0.95959 -0.687316,-1.38897 -0.12373,-0.43876 -0.131529,-1.24067 -0.01644,-1.69034 0.344823,-1.34725 1.452183,-2.46016 3.24529,-3.26155 0.279604,-0.12496 1.043157,-0.40902 1.696783,-0.63125 1.257553,-0.42756 1.704635,-0.60006 2.195693,-0.84721 0.648475,-0.32637 1.521964,-0.90642 2.439494,-1.61996 0.241837,-0.18807 0.451943,-0.32283 0.472025,-0.30275 0.07726,0.0773 0.08645,0.61415 0.01531,0.89444 -0.304292,1.19889 -1.482379,2.44222 -3.131195,3.3046 l -0.464843,0.24313 0.253551,3.2e-4 c 0.579431,6.3e-4 1.450203,-0.29052 2.10453,-0.70358 l 0.165144,-0.10425 -0.02892,0.22518 c -0.138628,1.07929 -0.80482,1.82865 -2.072624,2.33137 -0.426911,0.16928 -1.257014,0.38289 -1.784502,0.4592 -0.191741,0.0277 -0.334364,0.0636 -0.316939,0.0797 0.07036,0.065 0.504661,0.12283 0.922972,0.12283 0.374282,0 0.868184,-0.0647 1.168811,-0.153 0.112971,-0.0332 0.09202,0.0649 -0.09256,0.43335 -0.298562,0.596 -0.811386,0.99843 -1.523971,1.19589 -0.173636,0.0481 -0.734306,0.14527 -1.245935,0.2159 -0.511628,0.0706 -1.105392,0.17453 -1.319474,0.23089 -0.684004,0.1801 -1.206656,0.50032 -1.538951,0.94288 -0.09915,0.13205 -0.193978,0.2566 -0.210739,0.27678 -0.01676,0.0202 -0.127095,-0.0939 -0.245187,-0.25355 z"
       id="path1085" />
  </g>
</svg>
