<?xml version="1.0" encoding="UTF-8" standalone="no"?>
<!-- Svg Vector Icons : http://www.onlinewebfonts.com/icon -->

<svg
   xmlns:dc="http://purl.org/dc/elements/1.1/"
   xmlns:cc="http://creativecommons.org/ns#"
   xmlns:rdf="http://www.w3.org/1999/02/22-rdf-syntax-ns#"
   xmlns:svg="http://www.w3.org/2000/svg"
   xmlns="http://www.w3.org/2000/svg"
   xmlns:sodipodi="http://sodipodi.sourceforge.net/DTD/sodipodi-0.dtd"
   xmlns:inkscape="http://www.inkscape.org/namespaces/inkscape"
   version="1.1"
   x="0px"
   y="0px"
   viewBox="0 0 809.82404 980.00635"
   enable-background="new 0 0 1000 1000"
   xml:space="preserve"
   id="svg20"
   sodipodi:docname="foot.svg"
   width="809.82404"
   height="980.00635"
   inkscape:version="0.92.2 5c3e80d, 2017-08-06"><defs
     id="defs24" /><sodipodi:namedview
     pagecolor="#ffffff"
     bordercolor="#666666"
     borderopacity="1"
     objecttolerance="10"
     gridtolerance="10"
     guidetolerance="10"
     inkscape:pageopacity="0"
     inkscape:pageshadow="2"
     inkscape:window-width="738"
     inkscape:window-height="480"
     id="namedview22"
     showgrid="false"
     fit-margin-top="0"
     fit-margin-left="0"
     fit-margin-right="0"
     fit-margin-bottom="0"
     inkscape:zoom="0.236"
     inkscape:cx="483.29694"
     inkscape:cy="490.00435"
     inkscape:window-x="0"
     inkscape:window-y="0"
     inkscape:window-maximized="0"
     inkscape:current-layer="svg20" /><metadata
     id="metadata2"> Svg Vector Icons : http://www.onlinewebfonts.com/icon <rdf:RDF><cc:Work
     rdf:about=""><dc:format>image/svg+xml</dc:format><dc:type
       rdf:resource="http://purl.org/dc/dcmitype/StillImage" /><dc:title></dc:title></cc:Work></rdf:RDF></metadata><g
     id="g18"
     transform="matrix(1.2563792,0,0,1,-223.28371,-9.9979867)"><g
       transform="matrix(0.1,0,0,-0.1,0,511)"
       id="g16"><path
         d="m 5619.4,4990.6 c -136.9,-47 -202.3,-87.9 -302.5,-196.2 -484.4,-519.1 -155.3,-1465.4 496.6,-1428.6 331.1,18.4 588.6,284.1 654,676.5 81.8,474.2 -230.9,938.1 -652,966.7 -63.3,4 -151.2,-4.1 -196.1,-18.4 z"
         id="path4"
         inkscape:connector-curvature="0" /><path
         d="m 4111.1,4702.4 c -277.9,-104.2 -433.3,-349.5 -433.3,-686.7 2,-206.4 38.8,-333.1 153.3,-508.9 139,-216.6 343.3,-329 592.7,-329 390.4,0 676.5,406.7 594.7,848.2 -71.5,386.3 -363.8,678.5 -694.9,699 -83.8,4 -163.5,-4.2 -212.5,-22.6 z"
         id="path6"
         inkscape:connector-curvature="0" /><path
         d="M 7168.5,4498 C 7031.6,4453 6908.9,4371.3 6804.7,4256.8 6351,3752 6483.9,2873.2 7056.1,2591.2 c 141,-71.5 169.6,-77.7 320.9,-77.7 151.3,0 179.9,6.1 320.9,77.7 580.4,286.1 707.1,1167 241.2,1675.9 -147.2,161.5 -318.8,243.2 -527.3,253.4 -96.1,4.1 -190.1,-6.1 -243.3,-22.5 z"
         id="path8"
         inkscape:connector-curvature="0" /><path
         d="m 2854.2,3962.5 c -449.6,-222.8 -396.5,-1011.7 81.7,-1256.9 132.8,-67.5 327,-75.6 461.9,-18.4 335.2,145.1 453.7,627.4 243.2,987.1 -67.5,112.4 -216.6,251.4 -327,302.5 -130.8,59.3 -327,53.2 -459.8,-14.3 z"
         id="path10"
         inkscape:connector-curvature="0" /><path
         d="M 5128.9,2983.6 C 4049.8,2807.8 3252.7,2282.6 2870.5,1493.7 2678.4,1097.2 2598.7,715 2598.7,183.6 c 2,-549.8 61.3,-872.7 296.3,-1583.9 721.5,-2201.1 1590,-3282.3 2720.2,-3384.5 605,-55.2 1397.9,333.1 1645.2,803.2 141,267.7 190.1,664.2 128.8,1028 -57.2,329.1 -249.3,817.5 -453.7,1154.7 -49,79.7 -104.2,186 -122.6,237.1 -85.8,224.8 -67.5,545.7 55.2,917.6 69.5,216.7 98.1,278 288.2,633.6 347.4,647.9 427.1,1320.3 228.9,1915 -114.5,345.4 -506.9,746 -913.6,929.9 -253.4,114.4 -488.5,163.5 -842,171.7 -212.6,4.1 -376.1,-2 -500.7,-22.4 z"
         id="path12"
         inkscape:connector-curvature="0" /><path
         d="m 2083.7,2873.2 c -108.3,-49.1 -210.5,-153.3 -263.6,-267.7 -32.7,-69.5 -42.9,-132.8 -42.9,-265.7 0,-153.3 8.2,-190.1 65.4,-310.7 161.5,-341.3 500.7,-484.4 784.8,-331.1 427.1,233 351.5,956.5 -124.7,1171.1 -118.6,53.2 -306.6,55.2 -419,4.1 z"
         id="path14"
         inkscape:connector-curvature="0" /></g></g></svg>