<?xml version="1.0" encoding="iso-8859-1"?>
<!-- Generator: Adobe Illustrator 18.0.0, SVG Export Plug-In . SVG Version: 6.00 Build 0)  -->
<!DOCTYPE svg PUBLIC "-//W3C//DTD SVG 1.1//EN" "http://www.w3.org/Graphics/SVG/1.1/DTD/svg11.dtd">
<svg version="1.1" id="Capa_1" xmlns="http://www.w3.org/2000/svg" xmlns:xlink="http://www.w3.org/1999/xlink" x="0px" y="0px"
	 viewBox="0 0 297 297" style="enable-background:new 0 0 297 297;" xml:space="preserve">
<g>
	<path d="M96.359,90.597c2.245,0,4.441-0.912,6.026-2.497c1.584-1.584,2.497-3.781,2.497-6.026c0-2.246-0.913-4.442-2.497-6.027
		c-1.584-1.583-3.78-2.496-6.026-2.496c-2.246,0-4.442,0.913-6.027,2.496c-1.583,1.584-2.496,3.781-2.496,6.027
		c0,2.245,0.913,4.441,2.496,6.026C91.916,89.684,94.113,90.597,96.359,90.597z"/>
	<path d="M187.601,123.183c-2.236,0-4.443,0.913-6.027,2.496c-1.583,1.584-2.496,3.781-2.496,6.027c0,2.245,0.913,4.441,2.496,6.026
		c1.584,1.584,3.79,2.497,6.027,2.497c2.245,0,4.441-0.913,6.026-2.497c1.594-1.584,2.497-3.781,2.497-6.026
		c0-2.246-0.903-4.442-2.497-6.027C192.042,124.096,189.846,123.183,187.601,123.183z"/>
	<path d="M220.678,76.048c-1.583,1.584-2.496,3.781-2.496,6.027c0,2.245,0.913,4.441,2.496,6.026
		c1.584,1.584,3.781,2.497,6.027,2.497c2.245,0,4.441-0.912,6.026-2.497c1.584-1.584,2.497-3.781,2.497-6.026
		c0-2.246-0.913-4.442-2.497-6.027c-1.584-1.583-3.781-2.496-6.026-2.496C224.458,73.552,222.262,74.464,220.678,76.048z"/>
	<path d="M271.424,176.647c-1.577-2.392-4.251-3.832-7.117-3.832H32.693c-2.866,0-5.539,1.44-7.117,3.832
		c-1.576,2.393-1.846,5.418-0.716,8.051c3.444,8.025,7.705,15.431,12.69,22.207H259.45c4.985-6.777,9.246-14.182,12.69-22.207
		C273.27,182.065,273,179.04,271.424,176.647z"/>
	<path d="M148.5,256.036c40.267,0,74.003-12.072,97.578-34.09H50.922C74.497,243.963,108.233,256.036,148.5,256.036z"/>
	<path d="M148.5,270.073c-15.402,0-29.92-1.626-43.486-4.824c-3.286,6.541-5.142,13.918-5.142,21.724
		c0,5.537,4.489,10.027,10.027,10.027h77.205c5.537,0,10.027-4.49,10.027-10.027c0-7.806-1.856-15.183-5.142-21.725
		C178.421,268.447,163.902,270.073,148.5,270.073z"/>
	<path d="M98.868,63.265c5.537,0,10.027-4.489,10.027-10.027c0-8.768,7.127-15.902,15.889-15.902
		c8.762,0,15.889,7.133,15.889,15.902v51.28c-2.424-0.696-4.98-1.077-7.625-1.077c-15.262,0-27.679,12.421-27.679,27.687
		c0,5.537,4.489,10.027,10.027,10.027c5.537,0,10.027-4.489,10.027-10.027c0-4.209,3.421-7.634,7.626-7.634s7.625,3.424,7.625,7.634
		v27.65h20.053v-60.16c0-4.411,3.585-8,7.991-8c4.406,0,7.991,3.589,7.991,8c0,5.537,4.489,10.027,10.027,10.027
		s10.027-4.489,10.027-10.027c0-15.469-12.58-28.053-28.044-28.053c-2.776,0-5.457,0.412-7.991,1.167V44.597
		c0-13.533,11.003-24.544,24.527-24.544c13.524,0,24.527,11.011,24.527,24.544c0,5.537,4.49,10.027,10.027,10.027
		c5.537,0,10.027-4.49,10.027-10.027C229.833,20.006,209.835,0,185.253,0c-17.171,0-32.096,9.769-39.54,24.036
		c-5.899-4.243-13.125-6.752-20.929-6.752c-19.818,0-35.942,16.13-35.942,35.955C88.842,58.776,93.331,63.265,98.868,63.265z"/>
</g>
<g>
</g>
<g>
</g>
<g>
</g>
<g>
</g>
<g>
</g>
<g>
</g>
<g>
</g>
<g>
</g>
<g>
</g>
<g>
</g>
<g>
</g>
<g>
</g>
<g>
</g>
<g>
</g>
<g>
</g>
</svg>
