<?xml version="1.0" encoding="UTF-8" standalone="no"?>
<svg
   xmlns:dc="http://purl.org/dc/elements/1.1/"
   xmlns:cc="http://creativecommons.org/ns#"
   xmlns:rdf="http://www.w3.org/1999/02/22-rdf-syntax-ns#"
   xmlns:svg="http://www.w3.org/2000/svg"
   xmlns="http://www.w3.org/2000/svg"
   xmlns:sodipodi="http://sodipodi.sourceforge.net/DTD/sodipodi-0.dtd"
   xmlns:inkscape="http://www.inkscape.org/namespaces/inkscape"
   class="icon"
   height="350.08026"
   viewBox="0 0 359.27161 700.16052"
   version="1.1"
   id="svg4"
   sodipodi:docname="hand.svg"
   width="359.27161"
   inkscape:version="1.0.2-2 (e86c870879, 2021-01-15)">
  <metadata
     id="metadata10">
    <rdf:RDF>
      <cc:Work
         rdf:about="">
        <dc:format>image/svg+xml</dc:format>
        <dc:type
           rdf:resource="http://purl.org/dc/dcmitype/StillImage" />
        <dc:title></dc:title>
      </cc:Work>
    </rdf:RDF>
  </metadata>
  <defs
     id="defs8" />
  <sodipodi:namedview
     pagecolor="#ffffff"
     bordercolor="#666666"
     borderopacity="1"
     objecttolerance="10"
     gridtolerance="10"
     guidetolerance="10"
     inkscape:pageopacity="0"
     inkscape:pageshadow="2"
     inkscape:window-width="1037"
     inkscape:window-height="713"
     id="namedview6"
     showgrid="false"
     fit-margin-top="0"
     fit-margin-left="0"
     fit-margin-right="0"
     fit-margin-bottom="0"
     inkscape:zoom="0.4351914"
     inkscape:cx="239.35936"
     inkscape:cy="40.697876"
     inkscape:window-x="184"
     inkscape:window-y="38"
     inkscape:window-maximized="0"
     inkscape:current-layer="svg4"
     inkscape:pagecheckerboard="0"
     inkscape:document-rotation="0" />
  <path
     style="fill:#000000;stroke-width:2.89038"
     d="M 123.62083,683.74391 C 52.042258,664.98973 -6.2331892,609.31415 -22.937652,543.72381 c -6.211572,-24.38977 -6.568159,-331.81086 -0.402023,-346.56853 8.288802,-19.8379 29.135643,-27.51136 48.099401,-17.70482 15.312311,7.91831 15.726675,10.4467 17.284417,105.46897 1.405708,85.74797 1.60312,88.15661 7.225951,88.15661 5.689396,0 5.803595,-2.40864 7.225952,-152.41416 l 1.44519,-152.414142 9.449319,-9.447146 c 8.132082,-8.130232 11.448426,-9.447168 23.790052,-9.447168 12.341783,0 15.657893,1.316883 23.790063,9.447398 l 9.44932,9.447407 0.80202,141.574981 0.802,141.57498 h 7.14655 7.14652 V 192.28372 c 0,-174.556633 -0.3036,-171.380214 17.24768,-180.456318 17.32043,-8.9567481 39.55113,-2.9664761 47.73695,12.863169 3.7633,7.277412 4.3845,31.02214 4.3845,167.593149 v 159.11447 h 7.14653 7.14655 l 0.802,-141.57498 0.80202,-141.574981 9.44932,-9.447407 c 8.13217,-8.130515 11.44828,-9.447398 23.79006,-9.447398 12.34218,0 15.65759,1.316716 23.79005,9.448223 l 9.44932,9.448223 0.78153,196.49139 0.78153,196.49138 h 7.16701 7.16702 V 388.8296 c 0,-77.48758 1.01109,-83.76517 15.07851,-93.61839 10.44838,-7.3183 34.93323,-5.96771 44.73572,2.46769 l 8.10972,6.97868 -0.0358,110.80433 -0.0358,110.8043 -7.81032,23.12305 c -22.82427,67.5729 -75.62274,117.31935 -142.7344,134.48361 -29.35612,7.50803 -72.708,7.45303 -101.64603,-0.12891 z m 590.95501,-840.3301 c -0.91619,-5.9614 -0.56525,-15.39128 0.7799,-20.95525 2.08108,-8.60813 2.48983,-6.99212 2.74159,10.83892 0.3258,23.07579 -0.96146,26.77374 -3.52149,10.11633 z"
     id="path844" />
</svg>
