<?xml version="1.0" encoding="UTF-8" standalone="no"?>
<!-- Created with EazyDraw for Mac ( http://www.eazydraw.com/ ) -->

<svg
   xmlns:dc="http://purl.org/dc/elements/1.1/"
   xmlns:cc="http://creativecommons.org/ns#"
   xmlns:rdf="http://www.w3.org/1999/02/22-rdf-syntax-ns#"
   xmlns:svg="http://www.w3.org/2000/svg"
   xmlns="http://www.w3.org/2000/svg"
   xmlns:sodipodi="http://sodipodi.sourceforge.net/DTD/sodipodi-0.dtd"
   xmlns:inkscape="http://www.inkscape.org/namespaces/inkscape"
   version="1.1"
   width="58.941799"
   height="59.654068"
   viewBox="0 0 58.9418 59.65407"
   preserveAspectRatio="none"
   id="svg2"
   sodipodi:docname="luck.svg"
   inkscape:version="0.92.2 5c3e80d, 2017-08-06">
  <sodipodi:namedview
     pagecolor="#ffffff"
     bordercolor="#666666"
     borderopacity="1"
     objecttolerance="10"
     gridtolerance="10"
     guidetolerance="10"
     inkscape:pageopacity="0"
     inkscape:pageshadow="2"
     inkscape:window-width="1214"
     inkscape:window-height="714"
     id="namedview4576"
     showgrid="false"
     fit-margin-top="0"
     fit-margin-left="0"
     fit-margin-right="0"
     fit-margin-bottom="0"
     inkscape:zoom="8.3984215"
     inkscape:cx="29.4709"
     inkscape:cy="29.827034"
     inkscape:window-x="0"
     inkscape:window-y="0"
     inkscape:window-maximized="0"
     inkscape:current-layer="svg2" />
  <defs
     id="defs_A8262DBE" />
  <metadata
     id="metadata7">
    <rdf:RDF>
      <cc:Work
         rdf:about="">
        <dc:format>image/svg+xml</dc:format>
        <dc:type
           rdf:resource="http://purl.org/dc/dcmitype/StillImage" />
        <dc:title />
      </cc:Work>
    </rdf:RDF>
  </metadata>
  <path
     inkscape:connector-curvature="0"
     d="m 39.2438,1.0425258 c -1.0109,0.12165 -1.5886,0.28835 -2.6237,0.76594 -1.6513,0.76145 -3.2833,1.9374 -4.3568,3.1449 -0.5874,0.653309 -1.5983,2.063549 -1.945,2.703349 -0.2407,0.44605 -0.361,1.11738 -0.5536,3.1178602 -0.1011,1.02276 -0.1444,1.55893 -0.3659,4.43799 -0.2118,2.73038 -0.3562,4.08656 -0.4525,4.24426 -0.077,0.13066 -0.2455,-1.01376 -0.7269,-4.89757 -0.6885,-5.5643902 -0.8666,-6.5150602 -1.4924,-7.8892702 -0.934,-2.036519 -3.11,-3.730609 -5.8493,-4.550629 -1.372,-0.41001 -2.4889,-0.41902 -3.9813,-0.036 -1.2998,0.33791 -2.4071,0.8921 -3.6395,1.83827 -1.1073,0.84705 -1.7283,1.46882 -3.1677,3.158409 -1.3528,1.58597 -2.1183,2.55917 -2.4023,3.0502802 -0.096,0.17121 -0.1926,0.26583 -0.3322,0.33341 -0.2407,0.11715 -0.3322,0.18473 -1.5213,1.09486 -1.3239,1.01826 -1.8919,1.48684 -2.4311,2.0185 -1.1169,1.09936 -1.7042,2.00047 -2.0846,3.21248 C 1.0626,17.600565 1,18.046615 1,19.042345 c 0,1.21651 0.1492,2.11763 0.4381,2.65379 0.2455,0.46408 1.1313,1.44629 1.7379,1.93289 0.9436,0.75694 2.9704,1.75267 4.4579,2.19422 1.9546,0.57672 3.8369,0.86057 8.0445,1.21651 3.4037,0.28835 4.6794,0.43253 5.026,0.5677 l 0.1637,0.0631 -0.1637,0.1622 c -0.2022,0.19374 -0.4477,0.26583 -1.2468,0.35143 -0.857,0.0946 -2.0124,0.15319 -4.1884,0.20726 -4.0054,0.0991 -5.724,0.22528 -6.9805,0.51814 -1.6802,0.39199 -3.8466,1.7707 -5.1031,3.24402 -1.319,1.55442 -1.8293,2.94214 -2.0941,5.69956 -0.096,0.9732 -0.096,1.89685 0,2.18971 0.13,0.41451 0.8521,1.42376 1.8919,2.64477 0.7559,0.8831 1.3191,1.43728 2.1905,2.14466 l 0.828,0.67584 0.4285,0.86056 c 0.2359,0.47309 0.5344,1.03629 0.6644,1.25255 0.7847,1.28409 2.1086,2.91061 3.134,3.85227 0.9676,0.8876 1.6416,1.25255 2.8837,1.55893 1.6801,0.41902 4.2653,0.59925 5.387,0.37397 1.2854,-0.25232 2.8982,-1.1309 4.0969,-2.22576 0.5392,-0.49111 1.0976,-1.24354 1.555,-2.1041 0.5632,-1.05882 1.011,-2.78896 1.6368,-6.3799 0.4622,-2.62225 0.751,-4.06854 0.9388,-4.63174 0.1877,-0.5632 0.4669,-0.82452 0.9821,-0.91463 l 0.1829,-0.0315 -0.029,0.37847 c -0.039,0.49561 -0.2022,3.82974 -0.2744,5.58241 -0.063,1.48233 -0.034,3.85227 0.053,4.55063 0.2118,1.73465 0.8762,3.80271 1.8053,5.62297 0.6788,1.32464 1.2517,2.07256 2.4023,3.14039 0.8954,0.83353 1.4154,1.212 2.1471,1.55442 0.5681,0.26583 1.0158,0.401 1.9835,0.58573 0.8424,0.1667 0.8665,0.1622 0.9532,-0.13067 0.024,-0.0901 0.091,-0.39649 0.1492,-0.68034 0.1348,-0.68485 0.1059,-0.94166 -0.1589,-1.44178 -0.1829,-0.35144 -0.2696,-0.45056 -1.1072,-1.23003 -1.4684,-1.3742 -1.8631,-1.8563 -2.4456,-2.98269 -1.3384,-2.5817 -1.8439,-4.69481 -2.0942,-8.74082 -0.1252,-1.97795 -0.096,-3.65853 0.072,-4.37042 0.096,-0.42352 0.1011,-0.42803 0.2022,-0.15769 0.5007,1.36068 0.8617,2.5862 1.2854,4.39294 0.5825,2.44653 0.7028,2.73939 1.7283,4.10909 1.4009,1.87432 2.4793,2.98269 4.0054,4.11359 1.3431,0.99573 2.3252,1.4508 3.6924,1.70762 1.8005,0.33791 3.1292,0.18022 4.5879,-0.54518 0.7655,-0.38297 1.2277,-0.69386 1.5502,-1.04079 0.1637,-0.17572 0.4814,-0.46407 0.7077,-0.6443 0.881,-0.68034 1.2565,-1.19848 2.3252,-3.19445 0.7655,-1.42377 1.2565,-2.16719 2.152,-3.24402 0.6691,-0.80199 1.2372,-1.29761 1.9016,-1.66706 l 0.5729,-0.31539 0.2262,-0.40551 c 0.1252,-0.22527 0.3467,-0.59924 0.5007,-0.83353 0.4477,-0.69836 0.6547,-1.2931 0.8714,-2.49609 0.2022,-1.13991 0.284,-2.04553 0.284,-3.15841 -0.01,-1.26607 -0.043,-1.44179 -0.5681,-2.43301 -1.1072,-2.08609 -2.4696,-3.27105 -4.6986,-4.09107 -1.0976,-0.40099 -2.0701,-0.63529 -3.2014,-0.77045 -1.4635,-0.17572 -1.8631,-0.18473 -7.2213,-0.18473 -2.9752,0 -5.2763,-0.018 -5.3148,-0.0405 -0.053,-0.0315 -0.053,-0.0451 0.01,-0.0766 0.154,-0.0811 1.2516,-0.21176 4.2509,-0.51363 3.962,-0.401 5.0212,-0.56771 6.3065,-1.01376 2.0701,-0.71188 3.6203,-1.49134 5.2475,-2.63576 1.8438,-1.29761 2.7633,-2.46455 3.3218,-4.21722 0.3755,-1.16244 0.6499,-2.91962 0.6499,-4.09557 0,-0.94167 -0.13,-1.42827 -0.6258,-2.36543 -0.7174,-1.35168 -1.4732,-2.14015 -2.826,-2.96017 -0.3803,-0.2297802 -1.242,-0.7569402 -1.9112,-1.1714502 -1.7331,-1.06332 -2.1856,-1.48684 -3.4758,-3.23501 -0.7318,-1.000229 -1.2228,-1.590459 -1.762,-2.149159 -1.271,-1.30661 -2.8548,-2.20322 -4.4194,-2.49609 -0.5344,-0.10363 -1.8968,-0.14867997 -2.4553,-0.0856 z"
     id="910D273E"
     style="fill:#000000;fill-opacity:1;fill-rule:nonzero;stroke:#000000;stroke-width:2;stroke-linecap:butt;stroke-linejoin:miter;stroke-miterlimit:4;stroke-opacity:1" />
  <g
     id="layer_Top etch"
     style="fill:#000000;fill-opacity:1;fill-rule:nonzero;stroke:#000000;stroke-width:2;stroke-linecap:square;stroke-linejoin:miter;stroke-miterlimit:10;stroke-opacity:1"
     transform="translate(-170.86421,-94.496835)" />
</svg>
