<?xml version="1.0" encoding="UTF-8" standalone="no"?>
<!-- Created with Inkscape (http://www.inkscape.org/) -->

<svg
   xmlns:dc="http://purl.org/dc/elements/1.1/"
   xmlns:cc="http://creativecommons.org/ns#"
   xmlns:rdf="http://www.w3.org/1999/02/22-rdf-syntax-ns#"
   xmlns:svg="http://www.w3.org/2000/svg"
   xmlns="http://www.w3.org/2000/svg"
   xmlns:sodipodi="http://sodipodi.sourceforge.net/DTD/sodipodi-0.dtd"
   xmlns:inkscape="http://www.inkscape.org/namespaces/inkscape"
   width="86.599602mm"
   height="86.641891mm"
   viewBox="0 0 86.599602 86.641891"
   version="1.1"
   id="svg822"
   inkscape:version="0.92.2 5c3e80d, 2017-08-06"
   sodipodi:docname="meatbone.svg">
  <defs
     id="defs816" />
  <sodipodi:namedview
     id="base"
     pagecolor="#ffffff"
     bordercolor="#666666"
     borderopacity="1.0"
     inkscape:pageopacity="0.0"
     inkscape:pageshadow="2"
     inkscape:zoom="0.49497475"
     inkscape:cx="-103.54489"
     inkscape:cy="-37.797998"
     inkscape:document-units="mm"
     inkscape:current-layer="layer1"
     showgrid="false"
     fit-margin-top="0"
     fit-margin-left="0"
     fit-margin-right="0"
     fit-margin-bottom="0"
     inkscape:window-width="1440"
     inkscape:window-height="813"
     inkscape:window-x="0"
     inkscape:window-y="1"
     inkscape:window-maximized="1" />
  <metadata
     id="metadata819">
    <rdf:RDF>
      <cc:Work
         rdf:about="">
        <dc:format>image/svg+xml</dc:format>
        <dc:type
           rdf:resource="http://purl.org/dc/dcmitype/StillImage" />
        <dc:title></dc:title>
      </cc:Work>
    </rdf:RDF>
  </metadata>
  <g
     inkscape:label="Layer 1"
     inkscape:groupmode="layer"
     id="layer1"
     transform="translate(-85.63224,-169.78931)">
    <path
       style="fill:#000000;stroke-width:0.17638889"
       d="m 107.22695,256.33042 c -10.745426,-1.3111 -18.947646,-8.82856 -21.184416,-19.41586 -0.54428,-2.57623 -0.54748,-6.71801 -0.007,-9.27376 0.44631,-2.11107 1.23122,-4.41402 2.09281,-6.14037 1.51521,-3.03601 4.09497,-6.18759 6.55978,-8.01383 5.20728,-3.85819 17.745956,-10.30803 24.798006,-12.75598 3.51484,-1.22009 4.70244,-1.43595 7.24031,-1.31604 l 2.14574,0.10139 0.63006,-1.54051 c 1.0174,-2.4876 1.70298,-5.73069 1.71912,-8.13221 0.004,-0.59829 0.048,-0.72533 0.17553,-0.50689 0.42735,0.73203 1.44027,4.17519 1.72402,5.8604 l 0.3136,1.86247 4.96518,-4.97732 4.96518,-4.97732 -0.52669,-0.61736 c -0.67254,-0.78832 -1.50833,-2.47729 -1.83695,-3.71216 -0.14083,-0.52918 -0.25699,-1.73195 -0.25814,-2.67283 -0.0101,-8.23761 9.05887,-13.10504 15.99605,-8.58529 2.69281,1.75444 4.63935,5.20179 4.63935,8.21637 v 0.93308 h 0.93308 c 1.25084,0 2.77295,0.40589 4.2704,1.13875 3.99651,1.95594 6.28797,6.5367 5.49333,10.98149 -0.89262,4.99286 -5.07493,8.51726 -10.10719,8.51726 -2.57079,0 -4.42809,-0.59177 -6.27001,-1.99774 l -0.79873,-0.60969 -4.56438,4.56691 -4.56437,4.56691 h 0.82106 c 1.26253,0 3.38759,0.45701 5.5264,1.18849 l 1.94027,0.66359 -1.57718,0.12007 c -3.14176,0.23917 -5.37787,0.82914 -8.37186,2.2088 l -1.48238,0.68309 0.036,2.46277 c 0.0314,2.14372 -0.0221,2.68526 -0.41261,4.18016 -1.71064,6.54835 -8.1184,19.7895 -13.18403,27.24378 -3.21293,4.72797 -8.55597,8.17256 -14.57405,9.39572 -2.03299,0.4132 -5.42421,0.57828 -7.26518,0.35366 z m 40.85634,-55.93077 7.07948,-7.07786 0.99805,1.32604 c 1.05329,1.39942 1.74726,1.97279 3.18905,2.63485 0.72351,0.33223 1.18365,0.40501 2.56135,0.40511 1.53747,1.3e-4 1.77755,-0.0482 2.84074,-0.57159 1.39865,-0.68855 2.63729,-1.95017 3.2974,-3.35856 0.41417,-0.88365 0.47273,-1.22758 0.47273,-2.7762 0,-1.64114 -0.0414,-1.85169 -0.57865,-2.94302 -0.96142,-1.95292 -2.74863,-3.28653 -4.95133,-3.69465 -1.29106,-0.23922 -2.16269,-0.11037 -4.4912,0.66389 -1.04901,0.34881 -1.95021,0.59128 -2.00266,0.53883 -0.0524,-0.0525 0.18657,-0.95365 0.53115,-2.00266 0.77116,-2.34759 0.90319,-3.23598 0.66912,-4.50218 -0.40486,-2.19011 -1.74275,-3.98048 -3.69175,-4.94034 -1.09102,-0.53732 -1.30127,-0.57866 -2.94301,-0.57866 -1.57513,0 -1.88782,0.0553 -2.86561,0.50697 -1.34479,0.62117 -2.70054,1.99763 -3.36581,3.41722 -0.41191,0.87895 -0.47551,1.23887 -0.47539,2.69039 1.1e-4,1.37384 0.0731,1.83457 0.40511,2.55764 0.66206,1.4418 1.23543,2.13576 2.63486,3.18906 l 1.32604,0.99805 -7.21016,7.23015 c -3.96558,3.97658 -7.11521,7.26639 -6.99917,7.31068 0.11604,0.0443 0.69418,0.39285 1.28477,0.77456 0.59058,0.38172 1.15313,0.69403 1.25009,0.69403 0.097,0 0.55428,-0.19153 1.01624,-0.42563 1.05151,-0.53284 2.45704,-1.78631 3.31772,-2.95878 0.5677,-0.77338 0.67758,-0.85192 0.79024,-0.56492 0.23077,0.58789 0.16429,2.26872 -0.12877,3.25556 -0.28924,0.97397 -1.23734,2.96732 -1.71212,3.59968 -0.23498,0.31297 -0.22303,0.41562 0.11788,1.01287 0.20865,0.36554 0.41868,0.66522 0.46675,0.66597 0.0481,7.1e-4 3.27315,-3.18368 7.16686,-7.0765 z"
       id="path881"
       inkscape:connector-curvature="0" />
  </g>
</svg>
