<?xml version="1.0" encoding="UTF-8" standalone="no"?>
<svg
   xmlns:dc="http://purl.org/dc/elements/1.1/"
   xmlns:cc="http://creativecommons.org/ns#"
   xmlns:rdf="http://www.w3.org/1999/02/22-rdf-syntax-ns#"
   xmlns:svg="http://www.w3.org/2000/svg"
   xmlns="http://www.w3.org/2000/svg"
   xmlns:sodipodi="http://sodipodi.sourceforge.net/DTD/sodipodi-0.dtd"
   xmlns:inkscape="http://www.inkscape.org/namespaces/inkscape"
   version="1.1"
   width="24.998772mm"
   height="25.000767mm"
   viewBox="0 0 94.483638 94.491084"
   preserveAspectRatio="none"
   id="svg2"
   sodipodi:docname="noise.svg"
   inkscape:version="1.0.2-2 (e86c870879, 2021-01-15)">
  <sodipodi:namedview
     pagecolor="#ffffff"
     bordercolor="#666666"
     borderopacity="1"
     objecttolerance="10"
     gridtolerance="10"
     guidetolerance="10"
     inkscape:pageopacity="0"
     inkscape:pageshadow="2"
     inkscape:window-width="1440"
     inkscape:window-height="856"
     id="namedview76"
     showgrid="false"
     units="mm"
     inkscape:zoom="3.6203867"
     inkscape:cx="60.390837"
     inkscape:cy="44.474408"
     inkscape:window-x="0"
     inkscape:window-y="0"
     inkscape:window-maximized="0"
     inkscape:current-layer="svg2"
     inkscape:document-units="mm"
     fit-margin-top="0"
     fit-margin-left="0"
     fit-margin-right="0"
     fit-margin-bottom="0"
     inkscape:document-rotation="0" />
  <defs
     id="defs_A8262DBE" />
  <metadata
     id="metadata7">
    <rdf:RDF>
      <cc:Work
         rdf:about="">
        <dc:format>image/svg+xml</dc:format>
        <dc:type
           rdf:resource="http://purl.org/dc/dcmitype/StillImage" />
        <dc:title></dc:title>
      </cc:Work>
    </rdf:RDF>
  </metadata>
  <g
     inkscape:groupmode="layer"
     id="layer1"
     inkscape:label="Top etch"
     transform="translate(-1368.5355,-767.17919)" />
  <g
     inkscape:groupmode="layer"
     id="layer4"
     inkscape:label="Top cut"
     transform="translate(-1368.5355,-767.17919)" />
  <g
     inkscape:groupmode="layer"
     id="layer2"
     inkscape:label="Middle"
     transform="translate(-1368.5355,-767.17919)" />
  <g
     inkscape:groupmode="layer"
     id="layer3"
     inkscape:label="Bottom"
     transform="translate(-1368.5355,-767.17919)" />
  <path
     style="color:#000000;font-style:normal;font-variant:normal;font-weight:normal;font-stretch:normal;font-size:medium;line-height:normal;font-family:sans-serif;font-variant-ligatures:normal;font-variant-position:normal;font-variant-caps:normal;font-variant-numeric:normal;font-variant-alternates:normal;font-variant-east-asian:normal;font-feature-settings:normal;font-variation-settings:normal;text-indent:0;text-align:start;text-decoration:none;text-decoration-line:none;text-decoration-style:solid;text-decoration-color:#000000;letter-spacing:normal;word-spacing:normal;text-transform:none;writing-mode:lr-tb;direction:ltr;text-orientation:mixed;dominant-baseline:auto;baseline-shift:baseline;text-anchor:start;white-space:normal;shape-padding:0;shape-margin:0;inline-size:0;clip-rule:nonzero;display:inline;overflow:visible;visibility:visible;opacity:1;isolation:auto;mix-blend-mode:normal;color-interpolation:sRGB;color-interpolation-filters:linearRGB;solid-color:#000000;solid-opacity:1;vector-effect:none;fill:#000000;fill-opacity:1;fill-rule:nonzero;stroke:none;stroke-width:9.44428;stroke-linecap:butt;stroke-linejoin:miter;stroke-miterlimit:7;stroke-dasharray:none;stroke-dashoffset:0;stroke-opacity:1;color-rendering:auto;image-rendering:auto;shape-rendering:auto;text-rendering:auto;enable-background:accumulate;stop-color:#000000;stop-opacity:1"
     d="M 41.055133,90.221396 C 40.846684,89.932135 39.383674,74.110819 37.803977,55.062936 36.224291,36.015051 34.818535,20.773246 34.680076,21.192242 34.541691,21.611256 33.340348,33.201438 32.010581,46.948214 30.680812,60.695011 29.408169,72.197365 29.182475,72.509033 28.668776,73.218431 27.965526,73.235164 27.47155,72.549813 27.263079,72.260551 26.500093,65.775681 25.776033,58.139002 25.051972,50.502308 24.35329,43.591423 24.223394,42.781474 23.997628,41.373585 23.952495,41.453391 23.19698,44.59589 c -0.43465,1.807885 -1.031177,3.461701 -1.325611,3.675155 -0.294433,0.21345 -2.279713,0.391002 -4.411742,0.394544 -4.142962,0.0066 -5.30939,-0.434337 -5.061934,-1.914766 0.122289,-0.731906 0.515485,-0.825775 3.911239,-0.933809 3.162203,-0.100698 3.815839,-0.23725 4.025468,-0.841502 0.137658,-0.396776 0.914934,-3.656153 1.727312,-7.243091 1.408642,-6.21961 1.52165,-6.5276 2.439745,-6.649633 0.610556,-0.08107 1.042936,0.111783 1.182083,0.527333 0.120658,0.360405 0.747259,6.240488 1.392416,13.066831 0.645146,6.826365 1.229192,12.347149 1.297889,12.268418 0.06869,-0.07871 1.28837,-11.951581 2.710382,-26.384107 1.422026,-14.432545 2.763026,-26.4861661 2.980022,-26.7858163 0.507005,-0.7001514 1.207606,-0.694663 1.720399,0.013425 0.297991,0.4115108 6.119796,66.8044033 6.322808,72.1062823 0.016,0.416327 0.106174,0.541145 0.200679,0.277378 0.09446,-0.263784 1.888395,-13.404345 3.986567,-29.201262 2.502086,-18.837738 3.989803,-28.922118 4.323191,-29.304208 0.602073,-0.69003 1.634994,-0.339695 1.899685,0.644312 0.186896,0.694848 4.245811,37.397549 4.245811,38.392786 0,1.852428 0.612298,-1.594671 2.588645,-14.573646 1.230674,-8.08194 2.417559,-14.942993 2.637543,-15.246772 0.219984,-0.303778 0.74484,-0.495864 1.166341,-0.426834 0.694817,0.113796 0.944381,1.127237 2.67301,10.854718 1.04866,5.901062 1.962642,11.013242 2.031071,11.360356 0.06839,0.34713 0.779884,-2.303638 1.581018,-5.890559 l 1.4566,-6.521694 h 1.062615 c 1.012433,0 1.133818,0.213283 2.56986,4.515126 l 1.507239,4.515109 2.318652,0.0084 c 2.628741,0.0084 3.73888,0.511137 3.73888,1.69099 0,0.446554 -0.31955,1.007907 -0.710105,1.247459 -0.897901,0.550747 -5.726415,0.570484 -6.612424,0.02703 -0.366321,-0.224699 -1.048457,-1.649992 -1.515851,-3.167325 -0.493973,-1.603667 -0.952099,-2.533699 -1.094132,-2.221192 -0.134439,0.295689 -0.866633,3.472374 -1.627203,7.059299 -1.471992,6.942183 -2.118058,8.413077 -3.270911,7.446943 -0.50613,-0.424149 -1.086238,-2.957662 -2.41261,-10.536677 -0.960431,-5.48804 -1.812906,-10.05464 -1.894369,-10.148005 -0.08142,-0.09331 -1.20433,6.870399 -2.495262,15.475028 -1.290918,8.604609 -2.491818,15.976109 -2.668661,16.381076 -0.456118,1.044544 -1.715302,0.919257 -2.11441,-0.210381 -0.183972,-0.520669 -1.186156,-8.993612 -2.227084,-18.828725 -1.040945,-9.835133 -1.981327,-18.166055 -2.089738,-18.513186 -0.108381,-0.347113 -1.973229,12.661398 -4.144034,28.907823 -2.170808,16.246405 -4.044881,29.831506 -4.16461,30.189093 -0.261762,0.781769 -1.470337,0.856907 -1.998317,0.124201 z"
     id="path907" />
</svg>
