<?xml version="1.0" encoding="UTF-8" standalone="no"?>
<svg
   class="icon"
   height="350.08026"
   viewBox="0 0 359.27161 700.16052"
   version="1.1"
   id="svg4"
   sodipodi:docname="orc.svg"
   width="359.27161"
   inkscape:version="1.1.1 (c3084ef, 2021-09-22)"
   xmlns:inkscape="http://www.inkscape.org/namespaces/inkscape"
   xmlns:sodipodi="http://sodipodi.sourceforge.net/DTD/sodipodi-0.dtd"
   xmlns="http://www.w3.org/2000/svg"
   xmlns:svg="http://www.w3.org/2000/svg"
   xmlns:rdf="http://www.w3.org/1999/02/22-rdf-syntax-ns#"
   xmlns:cc="http://creativecommons.org/ns#"
   xmlns:dc="http://purl.org/dc/elements/1.1/">
  <metadata
     id="metadata10">
    <rdf:RDF>
      <cc:Work
         rdf:about="">
        <dc:format>image/svg+xml</dc:format>
        <dc:type
           rdf:resource="http://purl.org/dc/dcmitype/StillImage" />
      </cc:Work>
    </rdf:RDF>
  </metadata>
  <defs
     id="defs8" />
  <sodipodi:namedview
     pagecolor="#ffffff"
     bordercolor="#666666"
     borderopacity="1"
     objecttolerance="10"
     gridtolerance="10"
     guidetolerance="10"
     inkscape:pageopacity="0"
     inkscape:pageshadow="2"
     inkscape:window-width="1037"
     inkscape:window-height="713"
     id="namedview6"
     showgrid="false"
     fit-margin-top="0"
     fit-margin-left="0"
     fit-margin-right="0"
     fit-margin-bottom="0"
     inkscape:zoom="0.2175957"
     inkscape:cx="-87.317902"
     inkscape:cy="98.8071"
     inkscape:window-x="466"
     inkscape:window-y="38"
     inkscape:window-maximized="0"
     inkscape:current-layer="svg4"
     inkscape:pagecheckerboard="0" />
  <path
     style="fill:#000000;stroke-width:1.33333"
     d="M 129.47754,542.55527 C 68.107708,533.75247 25.684688,505.97678 4.8996778,460.99038 c -8.50388,-18.4056 -14.77883,-49.5299 -13.41818,-66.5554 0.34851,-4.3609 1.92504,-12.1288 3.5034,-17.2621 1.78659,-5.8106 3.17966,-14.9167 3.69084,-24.126 0.72107999,-12.9909 0.45637999,-15.9934 -2.17315,-24.6505 -3.56274,-11.7296 -5.3618,-15.4196 -18.1481098,-37.2235 -5.59356,-9.5385 -10.6408,-19.9985 -11.80108,-24.4569 -2.07985,-7.9919 -5.24142,-33.5661 -6.78401,-54.8765 l -0.86864,-12 10.25855,15.0604 c 13.97668,20.5188 21.7884998,28.8457 29.5392098,31.4866 3.40899,1.1615 6.33215,1.9637 6.4959,1.7825 0.16376,-0.1812 0.98575,-8.7295 1.82665,-18.9961 4.7143402,-57.55794 22.5615502,-95.23135 54.1623502,-114.3305 10.90637,-6.59168 28.74316,-12.34286 47.261052,-15.238531 22.02765,-3.44449 87.30568,-3.44449 109.33333,0 17.45892,2.730081 35.977,8.501071 46.38323,14.454921 31.44665,17.99195 50.318,57.46053 55.04017,115.11411 0.84091,10.2666 1.6629,18.8149 1.82664,18.9961 0.16376,0.1812 3.08692,-0.621 6.49591,-1.7825 7.75071,-2.6409 15.56253,-10.9678 29.53921,-31.4866 l 10.25856,-15.0604 -0.86865,12 c -1.53457,21.1997 -4.69953,46.865 -6.76717,54.8765 -1.1578,4.4861 -5.87732,14.2936 -11.12732,23.1235 -20.90484,35.1595 -23.99495,46.8231 -20.00512,75.5089 0.79317,5.7027 2.59286,13.3961 3.99933,17.0965 6.15871,16.2035 0.1072,54.9218 -12.72164,81.3946 -19.15292,39.5229 -55.40773,65.10509 -107.83823,76.09299 -20.50468,4.2972 -61.71101,5.607 -82.51517,2.6228 z M 61.966538,409.62538 c 5.97876,-1.7912 15.16711,-9.1787 16.16567,-12.9971 0.40773,-1.5592 -2.41794,-9.2669 -6.97922,-19.0377 -4.21538,-9.0298 -12.07834,-27.3677 -17.47325,-40.7511 -5.39492,-13.3833 -10.25576,-24.3333 -10.80187,-24.3333 -0.5461,0 -2.24186,4.0436 -3.76833,8.9857 -7.79417,25.2346 -8.64327,53.2539 -2.21259,73.0143 4.85144,14.9077 6.30806,16.6667 13.80175,16.6667 3.35668,0 8.4272,-0.6964 11.26784,-1.5475 z m 224.085532,-7.9639 c 5.10718,-12.3005 8.22643,-31.3076 7.19159,-43.822 -0.90453,-10.9387 -6.0872,-35.3243 -9.04649,-42.5659 l -1.8659,-4.5659 -10.48464,25.8992 c -5.76654,14.2446 -13.69108,32.7375 -17.61006,41.0953 -3.919,8.3578 -7.12544,16.2269 -7.12544,17.4868 0,3.9047 5.48333,9.5073 12.56152,12.8347 5.21561,2.4518 8.60282,3.1028 14.73945,2.8329 l 7.96764,-0.3504 z m -129.64976,-51.4886 -0.0421,-15.6667 -4.95784,9.1994 c -4.58881,8.5147 -5.47891,9.39 -11.95785,11.7599 -5.62856,2.0587 -7,3.1517 -7,5.5783 0,1.6599 0.4,3.418 0.88889,3.9068 0.48888,0.4889 5.88888,0.8889 12,0.8889 h 11.11111 l -0.0421,-15.6666 z m 34.06246,12.936 c 1.20128,-3.7849 -1.13486,-6.0943 -8.71016,-8.6104 -5.66138,-1.8804 -6.75664,-2.863 -8.62732,-7.7397 -1.17848,-3.0723 -3.30088,-7.0859 -4.71644,-8.9193 l -2.57376,-3.3333 -0.0296,15.6667 -0.0297,15.6666 h 11.91015 c 10.83216,0 11.9886,-0.2471 12.77683,-2.7306 z m -80.24856,-55.0881 c 5.83052,-2.4361 10.76556,-8.5658 14.12468,-17.5438 3.98906,-10.6618 3.76793,-11.4632 -2.3304,-8.446 -5.0802,2.5135 -5.14566,2.5105 -16.33334,-0.7379 -13.179822,-3.8268 -28.315422,-9.4265 -43.318162,-16.0263 -5.91368,-2.6015 -14.48765,-5.2409 -19.05328,-5.8652 -8.78184,-1.201 -9.36885,-0.2305 -1.3989,2.3128 7.74421,2.4713 16.60818,8.7754 18.20324,12.9462 0.80888,2.1151 2.43329,8.3456 3.60981,13.8456 3.00715,14.058 4.56985,15.6619 18.12304,18.601 13.87907,3.0098 22.678362,3.2931 28.373312,0.9136 z m 126.62089,-0.1064 c 4.55072,-1.0588 9.94264,-2.2749 11.98205,-2.7024 4.82299,-1.0112 8.24342,-6.7529 10.20983,-17.139 2.72575,-14.3965 3.75685,-16.4227 10.48847,-20.6102 3.44318,-2.1419 8.36034,-4.6795 10.92701,-5.6392 7.66081,-2.8643 7.24989,-3.6225 -1.3276,-2.4495 -4.68393,0.6406 -14.40771,3.8497 -23.05328,7.6082 -17.71335,7.7006 -43.07783,16.3156 -48.4896,16.4694 -2.11448,0.06 -5.80123,-0.9025 -8.19276,-2.1392 l -4.34823,-2.2485 0.90894,3.7211 c 5.8716,24.0378 16.77909,30.7403 40.89517,25.1293 z"
     id="path939" />
</svg>
