<?xml version="1.0" encoding="UTF-8" standalone="no"?>
<!-- Created with Inkscape (http://www.inkscape.org/) -->

<svg
   xmlns:dc="http://purl.org/dc/elements/1.1/"
   xmlns:cc="http://creativecommons.org/ns#"
   xmlns:rdf="http://www.w3.org/1999/02/22-rdf-syntax-ns#"
   xmlns:svg="http://www.w3.org/2000/svg"
   xmlns="http://www.w3.org/2000/svg"
   xmlns:sodipodi="http://sodipodi.sourceforge.net/DTD/sodipodi-0.dtd"
   xmlns:inkscape="http://www.inkscape.org/namespaces/inkscape"
   width="59.421207mm"
   height="60.560608mm"
   viewBox="0 0 59.421209 60.560607"
   version="1.1"
   id="svg824"
   inkscape:version="0.92.2 5c3e80d, 2017-08-06"
   sodipodi:docname="penetration.svg">
  <defs
     id="defs818" />
  <sodipodi:namedview
     id="base"
     pagecolor="#ffffff"
     bordercolor="#666666"
     borderopacity="1.0"
     inkscape:pageopacity="0.0"
     inkscape:pageshadow="2"
     inkscape:zoom="0.7"
     inkscape:cx="512.01354"
     inkscape:cy="-92.378421"
     inkscape:document-units="mm"
     inkscape:current-layer="layer1"
     showgrid="false"
     fit-margin-top="0"
     fit-margin-left="0"
     fit-margin-right="0"
     fit-margin-bottom="0"
     inkscape:window-width="1440"
     inkscape:window-height="813"
     inkscape:window-x="0"
     inkscape:window-y="1"
     inkscape:window-maximized="1" />
  <metadata
     id="metadata821">
    <rdf:RDF>
      <cc:Work
         rdf:about="">
        <dc:format>image/svg+xml</dc:format>
        <dc:type
           rdf:resource="http://purl.org/dc/dcmitype/StillImage" />
        <dc:title></dc:title>
      </cc:Work>
    </rdf:RDF>
  </metadata>
  <g
     inkscape:label="Layer 1"
     inkscape:groupmode="layer"
     id="layer1"
     transform="translate(-3.3213107,-25.132218)">
    <path
       style="fill:#000000;stroke-width:0.17638889"
       d="m 31.609868,85.609236 c -1.09387,-0.14508 -2.51467,-0.63802 -3.88056,-1.34633 -1.64705,-0.85412 -1.2353,-0.45762 -13.5916,-13.088553 C 4.9929476,61.826342 4.5873076,61.34556 3.7994776,58.921171 c -0.46592,-1.433793 -0.62418,-4.187403 -0.32751,-5.698814 0.28192,-1.436345 0.87211,-2.862658 1.70167,-4.112442 0.6346,-0.956064 19.8455104,-20.720922 21.2129204,-21.8246 1.05213,-0.849197 3.04661,-1.704034 4.63244,-1.985466 2.40242,-0.426347 4.66762,-0.04381 7.09316,1.197869 1.58379,0.810773 1.45107,0.683296 12.5007,12.00644 l 5.29295,5.423958 h -5.26936 -5.26935 l -6.14806,-6.349999 c -3.38143,-3.4925 -6.199,-6.349879 -6.26125,-6.34973 -0.0623,1.48e-4 -3.36757,3.310296 -7.34514,7.355884 -3.97757,4.045588 -9.28592,9.442788 -11.79634,11.993775 l -4.5643904,4.638158 7.7393904,7.857168 c 4.25667,4.321441 9.57865,9.738971 11.82664,12.038941 l 4.08724,4.18177 6.23243,-6.2177 6.23242,-6.21771 h 5.26776 5.26776 l -4.5898,4.7184 c -11.15526,11.467833 -12.00126,12.284123 -13.44408,12.971853 -1.98481,0.94608 -4.24171,1.32824 -6.26181,1.06031 z m -2.46866,-22.982911 -7.40754,-7.40932 7.40754,-7.409321 7.40755,-7.409321 0.0882,5.51314 0.0882,5.513141 13.00868,0.04524 13.00868,0.04524 v 3.701891 3.701891 l -13.00868,0.04524 -13.00868,0.04523 -0.0882,5.513141 -0.0882,5.513136 z"
       id="path1520"
       inkscape:connector-curvature="0" />
  </g>
</svg>
