<?xml version="1.0" encoding="UTF-8" standalone="no"?>
<!-- Created with Inkscape (http://www.inkscape.org/) -->

<svg
   xmlns:dc="http://purl.org/dc/elements/1.1/"
   xmlns:cc="http://creativecommons.org/ns#"
   xmlns:rdf="http://www.w3.org/1999/02/22-rdf-syntax-ns#"
   xmlns:svg="http://www.w3.org/2000/svg"
   xmlns="http://www.w3.org/2000/svg"
   xmlns:sodipodi="http://sodipodi.sourceforge.net/DTD/sodipodi-0.dtd"
   xmlns:inkscape="http://www.inkscape.org/namespaces/inkscape"
   width="70.55555mm"
   height="56.974941mm"
   viewBox="0 0 70.55555 56.974941"
   version="1.1"
   id="svg822"
   inkscape:version="0.92.2 5c3e80d, 2017-08-06"
   sodipodi:docname="pie.svg">
  <defs
     id="defs816" />
  <sodipodi:namedview
     id="base"
     pagecolor="#ffffff"
     bordercolor="#666666"
     borderopacity="1.0"
     inkscape:pageopacity="0.0"
     inkscape:pageshadow="2"
     inkscape:zoom="0.49497475"
     inkscape:cx="237.10474"
     inkscape:cy="-146.29186"
     inkscape:document-units="mm"
     inkscape:current-layer="layer1"
     showgrid="false"
     fit-margin-top="0"
     fit-margin-left="0"
     fit-margin-right="0"
     fit-margin-bottom="0"
     inkscape:window-width="1440"
     inkscape:window-height="813"
     inkscape:window-x="0"
     inkscape:window-y="1"
     inkscape:window-maximized="1" />
  <metadata
     id="metadata819">
    <rdf:RDF>
      <cc:Work
         rdf:about="">
        <dc:format>image/svg+xml</dc:format>
        <dc:type
           rdf:resource="http://purl.org/dc/dcmitype/StillImage" />
        <dc:title></dc:title>
      </cc:Work>
    </rdf:RDF>
  </metadata>
  <g
     inkscape:label="Layer 1"
     inkscape:groupmode="layer"
     id="layer1"
     transform="translate(-94.926288,-170.7506)">
    <path
       style="fill:#000000;stroke-width:0.17638889"
       d="m 107.22706,227.23977 c -0.13713,-0.26716 -0.47167,-0.88261 -0.74342,-1.36768 -0.27175,-0.48507 -0.68145,-1.21929 -0.91045,-1.6316 -0.22899,-0.41231 -0.61479,-1.10684 -0.85732,-1.5434 -0.24254,-0.43657 -0.63941,-1.15094 -0.88195,-1.5875 -0.24253,-0.43657 -0.63941,-1.14637 -0.88194,-1.57735 -0.55122,-0.97951 -0.56288,-1.33248 -0.0441,-1.33498 0.65952,-0.003 2.0127,-0.47656 3.30815,-1.1573 l 1.22507,-0.64375 0.82367,0.54558 c 1.56748,1.03826 2.58507,1.31912 4.82957,1.33302 2.33328,0.0144 3.19708,-0.22693 4.9198,-1.37475 0.75285,-0.50161 0.78762,-0.50764 1.23472,-0.21422 0.25304,0.16606 1.05538,0.58966 1.78298,0.94135 1.28904,0.62305 1.37711,0.63969 3.43958,0.6498 1.84691,0.009 2.25155,-0.0442 3.175,-0.41759 0.58209,-0.23538 1.39014,-0.6521 1.79567,-0.92604 0.40554,-0.27395 0.78811,-0.49808 0.85017,-0.49808 0.062,0 0.44463,0.22071 0.85016,0.49046 0.71564,0.47603 1.05452,0.64828 2.13647,1.08593 0.78028,0.31563 3.22761,0.42964 4.41944,0.20589 1.13141,-0.21241 3.06291,-1.06111 3.43485,-1.50926 0.32181,-0.38776 0.63386,-0.34175 1.47452,0.21744 1.65527,1.10106 2.57272,1.36162 4.79428,1.36162 2.22156,0 3.13901,-0.26056 4.79428,-1.36162 0.87228,-0.58022 1.00263,-0.59318 1.61668,-0.16071 0.73726,0.51923 1.92225,1.08136 2.27955,1.08136 0.17935,0 0.46668,0.10281 0.63852,0.22846 0.29595,0.2164 0.28946,0.27921 -0.12292,1.19062 -0.41557,0.91843 -0.82131,1.82636 -1.55328,3.47571 -0.18298,0.41231 -0.50033,1.12669 -0.70522,1.5875 -0.20489,0.46082 -0.56316,1.27441 -0.79615,1.80799 -0.23299,0.53358 -0.49072,1.0892 -0.57273,1.23472 -0.13113,0.23268 -2.88406,0.26998 -22.82671,0.30935 l -22.6776,0.0448 z m -7.714662,-12.4668 c -0.53358,-0.11828 -1.26585,-0.35639 -1.62726,-0.52913 -1.51573,-0.72446 -2.95885,-2.5037 -2.95885,-3.64798 0,-0.59918 0.59552,-1.94818 1.02567,-2.32338 0.60243,-0.52546 1.5826,-0.71236 2.47316,-0.47157 0.45248,0.12235 0.91843,0.29634 1.03545,0.38665 0.30039,0.23183 0.50816,0.0573 1.058702,-0.88952 2.03036,-3.4917 6.57319,-7.76107 10.99834,-10.33629 6.07893,-3.53764 12.89413,-5.57369 18.65664,-5.57369 1.8941,0 2.49301,0.0586 5.49787,0.53816 2.18872,0.34929 5.11386,1.19688 7.76111,2.24885 6.82987,2.71409 12.6422,7.11405 15.94084,12.06731 l 1.35858,2.04006 0.87718,-0.3333 c 0.48245,-0.18332 1.04971,-0.3333 1.26057,-0.3333 0.68782,0 1.8729,0.69783 2.11538,1.24564 0.12617,0.28503 0.2894,0.51825 0.36273,0.51825 0.0733,0 0.13333,0.48179 0.13333,1.07064 0,0.90326 -0.0835,1.192 -0.534,1.8468 -0.61823,0.89856 -1.3459,1.48652 -2.46461,1.99142 -2.8266,1.27571 -5.90397,0.64527 -8.24832,-1.68977 -0.60875,-0.60633 -1.16963,-1.10243 -1.24639,-1.10243 -0.0768,0 -0.61766,0.50482 -1.20199,1.12182 -0.58433,0.61701 -1.45271,1.35123 -1.92974,1.6316 -0.78354,0.46054 -1.0213,0.50978 -2.46167,0.50978 -1.5102,0 -1.64808,-0.0326 -2.61198,-0.61674 -0.55968,-0.3392 -1.39003,-1.06825 -1.84522,-1.62011 -0.45518,-0.55185 -0.94166,-1.05143 -1.08106,-1.11017 -0.16462,-0.0694 -0.69015,0.35079 -1.49931,1.19866 -1.71019,1.79202 -2.42185,2.14355 -4.34493,2.14624 -1.2536,0.002 -1.6526,-0.0704 -2.33785,-0.42284 -0.78251,-0.40247 -2.25745,-1.75191 -2.8612,-2.61775 -0.1522,-0.21828 -0.37208,-0.39688 -0.48861,-0.39688 -0.11653,0 -0.73581,0.57547 -1.37616,1.27882 -0.64036,0.70335 -1.51217,1.46364 -1.93737,1.68953 -1.0928,0.58055 -2.80722,0.69994 -4.1486,0.28889 -0.8955,-0.27442 -1.23394,-0.51869 -2.47663,-1.78755 -0.79167,-0.80833 -1.52139,-1.46969 -1.6216,-1.46969 -0.10021,0 -0.30673,0.1786 -0.45894,0.39688 -0.60374,0.86584 -2.07868,2.21528 -2.8612,2.61775 -0.68524,0.35243 -1.08425,0.42459 -2.33784,0.42284 -1.93547,-0.003 -2.65659,-0.3585 -4.34002,-2.14129 -0.8266,-0.87539 -1.3272,-1.27736 -1.4993,-1.20389 -0.14211,0.0607 -0.53619,0.45665 -0.87574,0.87997 -0.64747,0.80721 -2.01255,1.81906 -2.91041,2.1573 -0.64409,0.24264 -2.28653,0.58136 -2.69862,0.55654 -0.165,-0.01 -0.73656,-0.11485 -1.270132,-0.23313 z m 31.820632,-12.00203 c 0.44721,-0.44721 0.64417,-0.82901 0.7329,-1.42065 0.13771,-0.91835 -0.0115,-2.33732 -0.32025,-3.04607 -0.3732,-0.85663 -1.4097,-2.33005 -1.63911,-2.33005 -0.34017,0 -1.0877,0.97393 -1.6032,2.08876 -0.74543,1.61211 -0.65173,3.80526 0.20139,4.71364 0.75801,0.80711 1.81781,0.80484 2.62827,-0.006 z m -10.4978,-1.43932 c 1.37966,-0.27593 3.18125,-3.24134 2.99019,-4.92185 -0.0564,-0.49603 -0.0969,-0.52046 -0.76454,-0.46094 -2.02151,0.18025 -4.32845,1.84829 -4.57508,3.30805 -0.27043,1.60071 0.65101,2.41442 2.34943,2.07474 z m 19.74766,-0.17178 c 0.9786,-0.68543 0.90453,-2.09567 -0.17444,-3.32145 -0.82552,-0.93784 -2.50804,-1.80343 -3.678,-1.8922 -0.75262,-0.0571 -0.79665,-0.035 -0.84971,0.42638 -0.0308,0.26763 0.12192,1.05024 0.33934,1.73913 0.29957,0.94918 0.60326,1.48006 1.25396,2.19203 0.47226,0.51673 1.03393,0.97347 1.24816,1.01498 0.84755,0.16423 1.47601,0.11057 1.86069,-0.15887 z m -18.49272,-13.54321 c -0.33955,-0.0999 -1.01915,-0.58197 -1.51024,-1.07138 -0.76447,-0.76186 -0.92589,-1.04561 -1.12245,-1.97304 -0.37229,-1.75661 0.18782,-2.94659 2.02617,-4.30466 0.88473,-0.65359 0.9593,-0.76377 0.9593,-1.41743 0,-0.88478 -0.33171,-1.53965 -1.13885,-2.24832 -0.8442,-0.74123 -0.93605,-1.59596 -0.20719,-1.92806 0.99981,-0.45554 2.89854,1.58833 3.19669,3.44105 0.27125,1.68559 -0.14455,2.464 -2.19601,4.11101 -0.7509,0.60286 -0.78083,0.6635 -0.76739,1.55462 0.0162,1.07555 0.43355,1.65454 1.50297,2.08524 1.50115,0.60457 0.8197,2.21049 -0.743,1.75097 z m 8.5323,0.0169 c -0.99757,-0.29774 -2.20279,-1.37695 -2.75099,-2.46337 -0.44375,-0.87942 -0.51245,-1.21436 -0.51608,-2.51602 -0.004,-1.31218 0.055,-1.60261 0.46547,-2.30295 0.25831,-0.44078 1.01535,-1.24722 1.68231,-1.79209 0.66696,-0.54487 1.30668,-1.21768 1.42161,-1.49512 0.48798,-1.1781 -0.21761,-3.21078 -1.50774,-4.34353 -0.9706,-0.85219 -0.77861,-1.96985 0.33838,-1.96985 0.40781,0 1.77056,1.31613 2.30239,2.22363 1.01072,1.72466 1.23246,3.56858 0.59279,4.92942 -0.25684,0.54642 -0.78758,1.13579 -1.67799,1.86337 -1.48842,1.21623 -1.82689,1.75036 -1.82689,2.88299 0,1.51328 0.8073,2.68593 2.24309,3.25821 1.38243,0.55101 0.67036,2.15412 -0.76635,1.72531 z m 7.52828,-0.0349 c -1.57232,-0.56779 -2.65502,-2.15884 -2.65502,-3.90159 0,-1.32982 0.47806,-2.13954 1.97932,-3.35251 0.89266,-0.72123 1.19568,-1.07638 1.19568,-1.40135 0,-0.672 -0.69038,-1.98412 -1.25579,-2.38673 -0.9671,-0.68863 -1.02469,-1.46 -0.14419,-1.93124 0.69516,-0.37203 2.23751,1.01964 2.91391,2.62924 0.13748,0.32714 0.24996,1.06248 0.24996,1.63407 0,1.28646 -0.3955,1.95291 -1.7274,2.91082 -1.11124,0.79922 -1.2721,1.04626 -1.26861,1.94836 0.004,0.98509 0.33855,1.49401 1.32455,2.01374 0.72341,0.38131 0.8872,0.55697 0.93172,0.99924 0.0399,0.39679 -0.0507,0.60996 -0.34793,0.81813 -0.22107,0.15484 -0.44381,0.27206 -0.49498,0.26049 -0.0512,-0.0116 -0.36672,-0.11988 -0.70122,-0.24067 z"
       id="path1869"
       inkscape:connector-curvature="0" />
  </g>
</svg>
