<?xml version="1.0" encoding="UTF-8" standalone="no"?>
<!-- Created with Inkscape (http://www.inkscape.org/) -->

<svg
   xmlns:dc="http://purl.org/dc/elements/1.1/"
   xmlns:cc="http://creativecommons.org/ns#"
   xmlns:rdf="http://www.w3.org/1999/02/22-rdf-syntax-ns#"
   xmlns:svg="http://www.w3.org/2000/svg"
   xmlns="http://www.w3.org/2000/svg"
   xmlns:sodipodi="http://sodipodi.sourceforge.net/DTD/sodipodi-0.dtd"
   xmlns:inkscape="http://www.inkscape.org/namespaces/inkscape"
   width="52.048611mm"
   height="78.942841mm"
   viewBox="0 0 52.048612 78.942842"
   version="1.1"
   id="svg822"
   inkscape:version="0.92.2 5c3e80d, 2017-08-06"
   sodipodi:docname="questionmark.svg">
  <defs
     id="defs816" />
  <sodipodi:namedview
     id="base"
     pagecolor="#ffffff"
     bordercolor="#666666"
     borderopacity="1.0"
     inkscape:pageopacity="0.0"
     inkscape:pageshadow="2"
     inkscape:zoom="0.49497475"
     inkscape:cx="379.39749"
     inkscape:cy="92.20555"
     inkscape:document-units="mm"
     inkscape:current-layer="layer1"
     showgrid="false"
     fit-margin-top="0"
     fit-margin-left="0"
     fit-margin-right="0"
     fit-margin-bottom="0"
     inkscape:window-width="1440"
     inkscape:window-height="813"
     inkscape:window-x="0"
     inkscape:window-y="1"
     inkscape:window-maximized="1" />
  <metadata
     id="metadata819">
    <rdf:RDF>
      <cc:Work
         rdf:about="">
        <dc:format>image/svg+xml</dc:format>
        <dc:type
           rdf:resource="http://purl.org/dc/dcmitype/StillImage" />
        <dc:title></dc:title>
      </cc:Work>
    </rdf:RDF>
  </metadata>
  <g
     inkscape:label="Layer 1"
     inkscape:groupmode="layer"
     id="layer1"
     transform="translate(-57.278,-211.88515)">
    <path
       style="fill:#000000;stroke-width:0.17638887"
       d="m 80.002364,290.69099 c -0.48299,-0.0807 -1.52658,-0.46809 -2.31907,-0.86078 -1.75584,-0.87005 -3.02782,-2.17284 -3.88394,-3.97802 -1.57702,-3.32523 -0.99648,-6.97792 1.54,-9.68942 2.17193,-2.3218 5.46094,-3.27594 8.53363,-2.47561 4.17503,1.08746 7.10098,5.44536 6.43454,9.58359 -0.82086,5.09708 -5.22625,8.26919 -10.30516,7.42024 z m -1.0621,-24.64766 c -1.97917,-0.68753 -3.38472,-2.1744 -4.17289,-4.41432 -0.29415,-0.83596 -0.33941,-1.31942 -0.27529,-2.94071 0.0947,-2.39369 0.6878,-4.15304 2.13035,-6.31903 1.25354,-1.88216 4.26208,-4.79292 7.5018,-7.25797 3.24438,-2.4686 5.75552,-4.72433 6.78745,-6.0971 1.65977,-2.20798 2.36941,-4.44848 2.14344,-6.76735 -0.33053,-3.3919 -1.93919,-5.79163 -4.73922,-7.06974 -1.88624,-0.86101 -2.90902,-1.05221 -5.58328,-1.04379 -2.61456,0.008 -3.92889,0.26114 -5.50336,1.05898 -2.19996,1.11481 -3.27423,2.45519 -5.35577,6.68245 -1.69374,3.43969 -2.63027,4.65728 -4.18875,5.4458 -2.79578,1.41454 -6.94251,0.78925 -8.85224,-1.33484 -1.16281,-1.29332 -1.56294,-2.48717 -1.55437,-4.63769 0.0219,-5.48257 3.40679,-10.84984 9.31491,-14.76998 5.07045,-3.36434 11.02203,-4.95205 17.46249,-4.65848 7.7641,0.35389 14.16851,2.58002 18.850986,6.55244 5.47612,4.64573 7.83325,13.09841 5.55817,19.93158 -1.71745,5.15832 -5.09304,8.79978 -13.990186,15.09209 -3.64721,2.57941 -4.83254,3.98973 -6.03236,7.17734 -1.26377,3.35753 -2.37891,4.70249 -4.42224,5.33361 -1.47295,0.45495 -3.8267,0.47196 -5.07964,0.0367 z"
       id="path2387"
       inkscape:connector-curvature="0" />
  </g>
</svg>
