<?xml version="1.0" encoding="UTF-8" standalone="no"?>
<svg
   xmlns:dc="http://purl.org/dc/elements/1.1/"
   xmlns:cc="http://creativecommons.org/ns#"
   xmlns:rdf="http://www.w3.org/1999/02/22-rdf-syntax-ns#"
   xmlns:svg="http://www.w3.org/2000/svg"
   xmlns="http://www.w3.org/2000/svg"
   xmlns:sodipodi="http://sodipodi.sourceforge.net/DTD/sodipodi-0.dtd"
   xmlns:inkscape="http://www.inkscape.org/namespaces/inkscape"
   class="icon"
   height="512"
   viewBox="0 0 512 1024"
   version="1.1"
   id="svg4"
   sodipodi:docname="reload.svg"
   width="512"
   inkscape:version="0.92.2 5c3e80d, 2017-08-06">
  <metadata
     id="metadata10">
    <rdf:RDF>
      <cc:Work
         rdf:about="">
        <dc:format>image/svg+xml</dc:format>
        <dc:type
           rdf:resource="http://purl.org/dc/dcmitype/StillImage" />
        <dc:title></dc:title>
      </cc:Work>
    </rdf:RDF>
  </metadata>
  <defs
     id="defs8" />
  <sodipodi:namedview
     pagecolor="#ffffff"
     bordercolor="#666666"
     borderopacity="1"
     objecttolerance="10"
     gridtolerance="10"
     guidetolerance="10"
     inkscape:pageopacity="0"
     inkscape:pageshadow="2"
     inkscape:window-width="738"
     inkscape:window-height="480"
     id="namedview6"
     showgrid="false"
     fit-margin-top="0"
     fit-margin-left="0"
     fit-margin-right="0"
     fit-margin-bottom="0"
     inkscape:zoom="0.31640625"
     inkscape:cx="256"
     inkscape:cy="256"
     inkscape:window-x="0"
     inkscape:window-y="0"
     inkscape:window-maximized="0"
     inkscape:current-layer="svg4" />
  <path
     d="m 774.51852,384 h -384 l 143.53,-143.53 C 461.51852,167.944 365.08852,128 262.51852,128 159.94852,128 63.518519,167.944 -9.011481,240.47 -81.537481,313 -121.48148,409.43 -121.48148,512 c 0,102.57 39.943999,199 112.469999,271.53 72.53,72.526 168.960001,112.47 271.530001,112.47 102.57,0 199,-39.944 271.528,-112.472 a 391.77,391.77 0 0 0 17.456,-18.668 l 96.32,84.282 c -93.846,107.166 -231.664,174.858 -385.304,174.858 -282.770001,0 -512,-229.23 -512,-512 0,-282.77 229.229999,-512 512,-512 141.386,0 269.368,57.326 362.016,149.984 L 774.51852,0 Z"
     id="path2"
     inkscape:connector-curvature="0" />
</svg>
