<?xml version="1.0" encoding="UTF-8" standalone="no"?>
<!-- Created with Inkscape (http://www.inkscape.org/) -->

<svg
   xmlns:dc="http://purl.org/dc/elements/1.1/"
   xmlns:cc="http://creativecommons.org/ns#"
   xmlns:rdf="http://www.w3.org/1999/02/22-rdf-syntax-ns#"
   xmlns:svg="http://www.w3.org/2000/svg"
   xmlns="http://www.w3.org/2000/svg"
   xmlns:sodipodi="http://sodipodi.sourceforge.net/DTD/sodipodi-0.dtd"
   xmlns:inkscape="http://www.inkscape.org/namespaces/inkscape"
   width="162.0118mm"
   height="72.923103mm"
   viewBox="0 0 162.0118 72.923103"
   version="1.1"
   id="svg822"
   inkscape:version="0.92.2 5c3e80d, 2017-08-06"
   sodipodi:docname="rope.svg">
  <defs
     id="defs816" />
  <sodipodi:namedview
     id="base"
     pagecolor="#ffffff"
     bordercolor="#666666"
     borderopacity="1.0"
     inkscape:pageopacity="0.0"
     inkscape:pageshadow="2"
     inkscape:zoom="0.49497475"
     inkscape:cx="494.4545"
     inkscape:cy="-99.869584"
     inkscape:document-units="mm"
     inkscape:current-layer="layer1"
     showgrid="false"
     fit-margin-top="0"
     fit-margin-left="0"
     fit-margin-right="0"
     fit-margin-bottom="0"
     inkscape:window-width="1440"
     inkscape:window-height="813"
     inkscape:window-x="0"
     inkscape:window-y="1"
     inkscape:window-maximized="1" />
  <metadata
     id="metadata819">
    <rdf:RDF>
      <cc:Work
         rdf:about="">
        <dc:format>image/svg+xml</dc:format>
        <dc:type
           rdf:resource="http://purl.org/dc/dcmitype/StillImage" />
        <dc:title></dc:title>
      </cc:Work>
    </rdf:RDF>
  </metadata>
  <g
     inkscape:label="Layer 1"
     inkscape:groupmode="layer"
     id="layer1"
     transform="translate(-26.83583,-167.085)">
    <path
       style="fill:#000000;fill-opacity:1;stroke:#000000;stroke-width:0.2;stroke-miterlimit:4;stroke-dasharray:none;stroke-opacity:1"
       d="m 56.075665,239.81007 c -0.45594,-0.0798 -0.9317,-0.20863 -1.05724,-0.28622 -0.12555,-0.0776 -1.02251,-0.15085 -1.99325,-0.16279 -2.6888,-0.0331 -5.00188,-0.86874 -6.54181,-2.3634 -0.38882,-0.37739 -1.17965,-0.90801 -1.75742,-1.17915 -2.03232,-0.95378 -3.83554,-3.22306 -4.40384,-5.54204 -0.25343,-1.03414 -0.38115,-1.25026 -1.02569,-1.73555 -0.40492,-0.30488 -1.01403,-0.94639 -1.35358,-1.42557 -0.33955,-0.47918 -0.68606,-0.87496 -0.77003,-0.87951 -0.084,-0.005 -0.68254,-0.36052 -1.33017,-0.79106 -1.64272,-1.09208 -3.14442,-2.91781 -3.70181,-4.50055 -0.18257,-0.51844 -0.60013,-1.15333 -1.03804,-1.5783 -1.43674,-1.39431 -2.61454,-3.87255 -2.80272,-5.89727 -0.0658,-0.70761 -0.25824,-1.49396 -0.44184,-1.80514 -0.64802,-1.09832 -0.9178,-2.38479 -0.92224,-4.39774 -0.004,-1.59905 0.0644,-2.1109 0.38592,-2.91042 0.21461,-0.53358 0.39024,-1.29665 0.39028,-1.69572 3.2e-4,-2.55879 1.49544,-5.67307 3.3919,-7.0652 0.46284,-0.33976 0.84153,-0.69674 0.84153,-0.79331 0,-0.502 1.38774,-2.16609 2.5232,-3.02566 1.54357,-1.16852 1.80276,-1.30534 3.26507,-1.72352 0.63363,-0.1812 1.35657,-0.51693 1.60654,-0.74606 1.00759,-0.9236 3.33074,-1.90518 5.06847,-2.14153 0.88051,-0.11977 0.93091,-0.15794 1.56516,-1.18551 0.88189,-1.42877 2.44483,-2.99324 3.54958,-3.55306 0.49799,-0.25235 1.37025,-0.95011 1.93836,-1.55058 1.43515,-1.51688 3.76131,-2.64542 5.70042,-2.76556 0.94019,-0.0582 1.58548,-0.2109 2.20279,-0.5211 0.92982,-0.46724 3.01681,-0.90994 4.33744,-0.92009 0.44044,-0.003 1.27388,0.12557 1.85209,0.28656 0.7383,0.20556 1.60479,0.28004 2.91037,0.25014 2.46135,-0.0564 4.63777,0.47248 6.13702,1.49125 0.45811,0.3113 0.87853,0.43534 1.47549,0.43534 1.45761,0 4.1484,1.12128 5.4588,2.27474 0.55393,0.48759 1.09821,0.76542 1.90382,0.9718 1.53358,0.39289 3.57533,1.55404 4.90078,2.7871 0.60816,0.56578 1.26234,1.02191 1.4656,1.02191 0.86482,0 3.66896,1.686 4.84525,2.91323 0.53285,0.55593 0.95952,0.80598 1.74315,1.02157 1.22844,0.33797 3.38166,1.53129 4.437555,2.4593 0.41393,0.3638 0.93885,0.66226 1.1665,0.66324 0.72558,0.003 3.79991,1.17417 4.74437,1.80719 l 0.91134,0.61082 0.87576,-0.58934 c 0.48167,-0.32414 1.16758,-0.67964 1.52424,-0.79 0.43843,-0.13566 0.86328,-0.47908 1.31164,-1.06028 1.05703,-1.37018 4.06807,-3.50795 4.94094,-3.50795 0.14468,0 0.48544,-0.29766 0.75725,-0.66146 1.0345,-1.38461 2.93723,-2.81414 4.68571,-3.52039 0.62414,-0.2521 1.28358,-0.67203 1.54683,-0.98504 1.09389,-1.3006 3.02797,-2.62378 4.67782,-3.20029 0.74647,-0.26083 1.3213,-0.62192 1.88088,-1.1815 1.03687,-1.03687 3.00178,-2.20098 4.53622,-2.68748 0.80388,-0.25487 1.49784,-0.63096 2.07574,-1.12494 1.17414,-1.00362 3.48847,-2.12856 4.86297,-2.36377 0.61736,-0.10564 1.28122,-0.33158 1.47525,-0.50209 1.27426,-1.11977 4.02205,-2.26108 5.82084,-2.41771 0.87566,-0.0763 1.3886,-0.22132 1.76388,-0.49887 0.29105,-0.21525 0.72761,-0.49411 0.97014,-0.61969 0.86325,-0.44699 3.60735,-1.05066 4.77597,-1.05066 0.87328,0 1.42405,-0.11154 2.12598,-0.43057 0.52105,-0.23681 1.70142,-0.56057 2.62305,-0.71945 1.40592,-0.24237 1.8922,-0.25533 3.02048,-0.0805 0.88705,0.13746 1.45741,0.15016 1.67569,0.0373 1.30324,-0.6737 4.68759,-0.70167 6.50453,-0.0538 0.63669,0.22703 1.62052,0.40191 2.46944,0.43895 2.40413,0.10488 4.70487,1.16846 6.23984,2.88453 1.45696,1.62886 1.51729,1.69114 2.17493,2.245 2.11386,1.78031 2.91762,5.96635 1.6531,8.6095 -0.45237,0.94557 -0.46844,1.0489 -0.20789,1.33681 0.15531,0.17161 0.28333,0.58359 0.28448,0.9155 0.001,0.3319 0.11927,1.04003 0.26249,1.57361 0.14321,0.53357 0.26133,1.71795 0.26249,2.63194 0.001,1.12678 0.0779,1.75146 0.23762,1.94028 0.12955,0.15316 0.343,0.55628 0.47434,0.89583 0.13134,0.33955 0.54944,0.97455 0.9291,1.41111 0.87526,1.00645 1.24165,1.73537 1.60159,3.18627 0.33429,1.34754 0.37679,3.68947 0.0831,4.57601 -0.11229,0.33891 -0.25373,1.48932 -0.31431,2.55647 -0.10187,1.79472 -0.16457,2.05496 -0.83579,3.4689 -0.52797,1.11217 -0.98294,1.77229 -1.67007,2.42307 -0.51943,0.49195 -1.14285,1.08298 -1.38538,1.31339 -0.24254,0.23041 -0.67142,0.79617 -0.95307,1.25725 -0.8444,1.38235 -3.24319,2.9702 -5.29757,3.50668 -0.56538,0.14764 -1.23574,0.46115 -1.4897,0.69668 -1.23435,1.1448 -4.09337,2.23889 -5.85056,2.23889 -0.80181,0 -1.21495,0.0993 -1.71435,0.41216 -1.44286,0.90384 -4.37502,1.58322 -6.07558,1.40771 -0.72203,-0.0745 -1.13615,-0.0241 -1.56645,0.19051 -1.48286,0.73975 -4.45163,1.14755 -6.00559,0.82495 -0.87477,-0.1816 -1.06278,-0.1635 -1.84158,0.17735 -1.04933,0.45923 -4.51724,0.68169 -5.75772,0.36933 -0.64163,-0.16156 -0.94989,-0.13652 -1.87897,0.15264 -0.7917,0.24641 -1.62697,0.34693 -2.90368,0.34946 -0.98575,0.002 -2.26852,0.0711 -2.8506,0.15358 -0.58208,0.0825 -1.49219,0.093 -2.02246,0.0232 -0.74966,-0.0986 -1.18128,-0.05 -1.94028,0.21846 -1.41726,0.50136 -4.17086,0.60783 -5.65046,0.2185 -1.28486,-0.3381 -1.58046,-0.35476 -3.08717,-0.17404 -1.1905,0.1428 -3.47145,-0.24277 -4.79665,-0.81081 -0.42937,-0.18405 -1.31163,-0.41855 -1.96058,-0.52111 -1.35834,-0.21467 -2.43245,-0.51826 -3.56115,-1.00655 -0.46891,-0.20285 -1.44343,-0.39223 -2.38125,-0.46275 -0.87313,-0.0657 -2.26219,-0.18928 -3.08681,-0.27473 -1.44607,-0.14984 -1.53688,-0.13727 -2.55763,0.35415 -1.2268,0.59062 -3.21155,1.04517 -4.8507,1.11092 -0.89995,0.0361 -1.35517,0.16328 -2.11667,0.59137 -1.27431,0.71639 -3.684305,1.45821 -4.737335,1.45821 -0.63243,0 -0.98792,0.11358 -1.44611,0.462 -1.0769,0.81894 -3.75052,1.97016 -5.28183,2.27428 -0.33955,0.0674 -0.99328,0.43565 -1.45274,0.81825 -1.09313,0.91028 -3.43832,2.05914 -4.69386,2.29944 -0.79055,0.1513 -1.16161,0.34568 -1.7909,0.93817 -1.06543,1.00311 -3.12792,2.18794 -4.46513,2.56506 -0.81389,0.22953 -1.30595,0.51004 -1.93664,1.10404 -1.07409,1.0116 -3.32852,2.18942 -4.76662,2.49031 -0.80861,0.16919 -1.37436,0.43199 -2.07165,0.96233 -1.39334,1.05973 -3.44361,1.81872 -5.2808,1.95488 -1.06912,0.0792 -1.67644,0.21869 -2.11666,0.48599 -1.28926,0.78284 -4.26148,1.242 -6.03245,0.93191 z m 4.31265,-1.27277 c 0.36381,-0.1071 0.66146,-0.25107 0.66146,-0.31995 0,-0.0689 -0.49609,-0.41671 -1.10243,-0.77299 -0.60633,-0.35628 -1.7072,-1.18821 -2.44637,-1.84874 -1.27168,-1.13639 -1.39972,-1.20611 -2.38125,-1.29661 -0.57052,-0.0526 -1.51243,-0.3066 -2.09313,-0.56444 -1.12814,-0.50092 -1.85626,-0.48637 -1.85226,0.037 0.004,0.50016 1.36552,2.80396 2.05058,3.46929 0.70243,0.68219 1.91813,1.32999 2.8793,1.53427 0.78291,0.16639 3.40555,0.0208 4.2841,-0.23783 z m -7.8052,-0.23465 c 0,-0.0527 -0.31547,-0.5136 -0.70105,-1.02429 -0.38557,-0.51069 -1.02439,-1.61853 -1.41959,-2.46187 -0.49158,-1.049 -0.81384,-1.53335 -1.0202,-1.53335 -0.40792,0 -3.22608,-1.0047 -3.45208,-1.23069 -0.33699,-0.337 -0.46264,-0.18207 -0.46165,0.56923 0.002,1.60349 0.75391,2.98614 2.24002,4.11964 0.70629,0.53871 2.67228,1.38151 3.57982,1.53464 0.70401,0.1188 1.23473,0.13026 1.23473,0.0267 z m 14.05135,-1.49679 c 0.76047,-0.29407 1.52953,-0.64607 1.70902,-0.78224 0.38262,-0.29026 0.24455,-0.62382 -0.25823,-0.62382 -0.19362,0 -0.91162,-0.23812 -1.59556,-0.52916 -1.12526,-0.47885 -1.42519,-0.52917 -3.15385,-0.52917 -1.05068,0 -2.13253,-0.0845 -2.40412,-0.18774 -0.33959,-0.12911 -0.71498,-0.13222 -1.2021,-0.01 -0.38958,0.0978 -0.9266,0.22347 -1.19339,0.2793 -0.26679,0.0558 -0.48507,0.1638 -0.48507,0.23995 0,0.1809 2.21755,1.84846 2.94878,2.21743 1.54548,0.77982 3.49159,0.75406 5.63452,-0.0746 z m 5.01073,-2.39578 c 1.11257,-0.33001 2.66873,-1.11416 3.4275,-1.72713 l 0.52917,-0.42749 -0.44302,-0.11209 c -0.26038,-0.0659 -0.73306,0.01 -1.14653,0.18333 -1.26473,0.5311 -3.47241,0.96889 -4.75201,0.94233 -1.24177,-0.0258 -2.27689,0.26431 -2.16294,0.60616 0.0996,0.29877 1.74675,0.79088 2.69575,0.80539 0.49171,0.008 1.32515,-0.11421 1.85208,-0.2705 z m -27.06276,-0.55368 c -0.0601,-0.3638 -0.1102,-1.17966 -0.11127,-1.81301 l -0.002,-1.15156 -1.27882,-0.32526 c -0.70335,-0.17889 -1.37097,-0.39877 -1.4836,-0.48861 -0.12718,-0.10144 -0.24628,-0.0962 -0.31429,0.0138 -0.37623,0.60874 2.31348,4.3906 3.14389,4.42046 0.0855,0.003 0.10617,-0.29206 0.046,-0.65587 z m 14.03287,-0.49064 c 0.0516,-0.0516 -0.43473,-0.62705 -1.08069,-1.27882 -0.64595,-0.65178 -1.69187,-1.8337 -2.32426,-2.6265 -1.30322,-1.63376 -2.26667,-2.49767 -3.39416,-3.04348 -0.91063,-0.44083 -3.2922,-1.12795 -3.43042,-0.98973 -0.10525,0.10525 -0.13686,0.0333 1.30827,2.97996 1.50812,3.07514 2.62339,4.17562 4.83362,4.76957 0.92311,0.24806 3.89134,0.3853 4.08764,0.189 z m 6.43368,-0.17626 c 0.50182,-0.0617 1.04307,-0.20765 1.20277,-0.32443 0.2542,-0.18588 0.18043,-0.28358 -0.59214,-0.78418 -0.48538,-0.31452 -1.741,-1.28817 -2.79027,-2.16366 -2.49225,-2.0795 -3.5502,-2.58605 -5.86095,-2.80622 -0.97554,-0.093 -1.89291,-0.12327 -2.03858,-0.0674 -0.20302,0.0779 -0.0192,0.41669 0.78734,1.45077 1.71453,2.19835 3.18088,3.64432 4.23252,4.1737 1.47214,0.74106 2.45067,0.8419 5.05931,0.52138 z m -14.30087,-0.93705 c -0.0506,-0.0818 -0.36305,-0.55163 -0.69442,-1.04404 -0.33137,-0.49241 -1.16285,-2.03282 -1.84774,-3.42313 -1.3781,-2.7975 -1.91802,-3.44617 -4.00132,-4.80725 -1.44684,-0.94527 -1.69839,-0.9964 -1.58598,-0.32232 0.68135,4.08565 0.93727,5.05635 1.66977,6.33329 0.83272,1.45165 2.11176,2.36329 4.14955,2.9576 0.58208,0.16976 1.13771,0.33523 1.23472,0.3677 0.37354,0.12503 1.16286,0.0796 1.07542,-0.0618 z m 22.02069,-0.57368 c 0.67313,-0.23326 1.24828,-0.50348 1.27809,-0.60049 0.0298,-0.097 -0.29589,-0.32037 -0.72379,-0.49633 -0.4279,-0.17597 -1.24117,-0.60554 -1.80726,-0.95461 -3.57006,-2.20137 -3.82138,-2.33029 -5.09591,-2.61384 -1.10498,-0.24584 -1.53944,-0.25977 -2.81342,-0.0902 -1.58184,0.21051 -2.03529,0.32609 -2.01579,0.51382 0.006,0.0624 0.74069,0.71688 1.63159,1.45445 3.58025,2.96405 4.40203,3.36339 6.7351,3.27291 1.08728,-0.0422 1.97315,-0.1952 2.81139,-0.48567 z m 6.44661,-2.02176 c 1.31748,-0.47621 2.11909,-0.89809 2.11909,-1.11526 0,-0.0631 -0.41672,-0.26183 -0.92605,-0.44166 -0.50932,-0.17983 -1.91823,-0.7909 -3.1309,-1.35793 -2.89551,-1.35392 -3.65696,-1.52503 -5.56133,-1.24968 -1.5793,0.22834 -3.25811,0.70325 -3.25811,0.92166 0,0.14417 3.85169,2.5355 5.06844,3.14676 1.69124,0.84962 3.5188,0.8805 5.68886,0.0961 z m -36.24511,-0.89807 c -0.39141,-0.93677 -0.75063,-2.4115 -1.15589,-4.74534 -0.38079,-2.1929 -0.8586,-3.37556 -1.84914,-4.57699 -0.93872,-1.13858 -1.63781,-1.85208 -1.81467,-1.85208 -0.26585,0 -0.56069,2.49327 -0.55883,4.7256 0.002,1.80612 0.0547,2.17916 0.42384,2.97193 0.53546,1.15001 1.48764,2.20531 2.78431,3.08587 1.09763,0.74539 1.63935,1.0059 2.12826,1.02347 0.28961,0.0104 0.29251,-0.0332 0.0421,-0.63246 z m 42.55721,-1.76326 c 1.44527,-0.5782 2.70641,-1.32467 2.62922,-1.55625 -0.0317,-0.0951 -0.28983,-0.22572 -0.57362,-0.29026 -0.28378,-0.0645 -1.54785,-0.49435 -2.80903,-0.95515 -2.77733,-1.01474 -3.168,-1.07186 -4.89373,-0.7154 -0.74426,0.15374 -1.7639,0.27952 -2.26586,0.27952 -0.61672,0 -1.1053,0.11905 -1.50675,0.36716 -0.74076,0.45782 -0.74442,0.62156 -0.0208,0.93382 0.31529,0.13605 1.43672,0.65729 2.49206,1.15829 1.05534,0.50101 2.32534,1.02524 2.82222,1.16496 1.19826,0.33694 2.65989,0.19996 4.1263,-0.38669 z m -24.69256,-0.51621 c 0.36069,-0.15251 1.13205,-0.3311 1.71413,-0.39688 0.58208,-0.0658 1.04465,-0.19897 1.02792,-0.29598 -0.0167,-0.097 -0.63682,-0.38902 -1.37799,-0.6489 -0.74117,-0.25988 -1.61516,-0.6766 -1.9422,-0.92604 -0.32703,-0.24944 -0.74452,-0.45353 -0.92774,-0.45353 -0.46474,0 -1.96663,-0.5266 -2.60082,-0.91191 -0.53855,-0.32719 -1.5419,-0.41131 -2.53559,-0.21257 -0.30317,0.0606 -0.55118,0.15985 -0.55114,0.22048 5e-5,0.0606 0.6549,0.7967 1.45521,1.6357 l 1.45513,1.52545 1.10039,0.11467 c 0.60522,0.0631 1.39897,0.22431 1.76389,0.3583 0.36492,0.134 0.68589,0.24922 0.71326,0.25606 0.0274,0.007 0.34487,-0.11235 0.70555,-0.26485 z m -6.08931,-0.58974 c 0.0737,-0.0684 -0.52388,-0.80331 -1.32803,-1.6332 -1.20615,-1.24477 -1.72478,-1.63606 -2.96271,-2.23525 -1.65428,-0.80072 -2.63429,-1.07846 -2.63429,-0.74658 0,0.46431 0.9311,3.04136 1.11957,3.0987 2.51788,0.76605 3.35032,1.06771 3.92353,1.42181 0.66359,0.40993 1.49662,0.45177 1.88193,0.0945 z m 12.56594,-0.19132 c 0.06,-0.097 0.0296,-0.17638 -0.0674,-0.17638 -0.097,0 -0.22544,0.0794 -0.2854,0.17638 -0.06,0.097 -0.0296,0.17639 0.0674,0.17639 0.097,0 0.22544,-0.0794 0.2854,-0.17639 z m -30.68521,-3.39536 c 0.004,-1.2855 0.0748,-3.14596 0.15827,-4.13434 0.17729,-2.09862 0.0473,-2.7445 -1.00036,-4.972 -0.81588,-1.73463 -0.82871,-1.73094 -1.76578,0.50726 -0.82394,1.96796 -1.36734,3.83797 -1.36734,4.7054 0,0.92257 0.45109,2.40586 1.00458,3.30326 0.50687,0.82183 2.50822,2.92739 2.78269,2.92758 0.11494,8e-5 0.18385,-0.85691 0.18794,-2.33716 z m 30.06785,2.17344 c 0,-0.09 -0.1813,-0.30825 -0.40288,-0.48507 -0.78977,-0.6302 -2.35272,-2.64323 -3.46796,-4.46662 -1.07535,-1.75817 -3.30941,-4.23333 -3.82097,-4.23333 -0.10769,0 -0.29976,0.60785 -0.42685,1.35077 -0.40805,2.38553 0.27927,4.98003 1.63453,6.16996 0.9179,0.80593 1.75039,1.26702 2.79431,1.54769 1.06839,0.28725 3.68982,0.37009 3.68982,0.1166 z m 6.41616,-0.27866 c 1.42114,-0.32959 1.69773,-0.43393 1.69773,-0.64049 0,-0.0897 -0.13891,-0.21492 -0.30868,-0.27831 -0.59847,-0.22346 -2.0921,-1.19002 -3.83646,-2.48265 -1.93903,-1.43688 -2.7229,-1.88432 -3.94785,-2.25347 -0.94314,-0.28422 -3.37229,-0.5378 -3.37229,-0.35203 0,0.0692 0.32117,0.67577 0.71371,1.34789 0.84995,1.45532 2.21094,3.12852 3.09035,3.79928 1.40725,1.07336 3.64895,1.39655 5.96349,0.85978 z m 19.6012,-0.74674 c 1.40092,-0.70602 2.37402,-1.36509 2.20486,-1.49334 -0.24341,-0.18453 -4.20477,-1.26319 -4.58611,-1.24877 -0.24254,0.009 -1.15535,0.27263 -2.02847,0.58547 -1.15377,0.41339 -2.00882,0.59336 -3.12955,0.65869 -0.93164,0.0543 -1.61579,0.17875 -1.72836,0.31438 -0.24857,0.29951 -0.20434,0.3222 2.44309,1.25376 2.13971,0.75291 2.30844,0.78441 3.82593,0.7143 1.42798,-0.066 1.72929,-0.14479 2.99861,-0.78449 z m -45.58163,-0.79538 c -0.27054,-0.80037 -0.66069,-1.78607 -0.86699,-2.19045 -0.46137,-0.90435 -2.447,-3.23351 -2.7566,-3.23351 -0.21659,0 -0.4567,0.94584 -0.7192,2.83309 l -0.11192,0.80461 1.70442,1.03121 c 0.93742,0.56716 1.95622,1.28525 2.264,1.59574 0.92138,0.92952 1.02444,0.75135 0.48629,-0.84069 z m 33.54309,-0.80468 c 1.44195,-0.69959 1.99377,-1.26662 1.23472,-1.26876 -0.44969,-0.001 -2.89198,-0.91351 -4.68133,-1.74856 -2.21108,-1.03186 -3.50305,-1.21946 -5.70493,-0.82837 -0.95726,0.17002 -1.80348,0.37062 -1.88048,0.44576 -0.26307,0.25672 3.31629,2.90731 5.06781,3.75281 0.99273,0.47921 1.18958,0.51192 2.74511,0.45608 1.55115,-0.0557 1.79041,-0.11581 3.2191,-0.80896 z m -22.64271,-0.43005 c -0.48589,-1.22116 -0.60995,-3.87378 -0.29107,-6.2235 0.27428,-2.02113 0.0861,-4.8449 -0.32296,-4.8449 -0.47186,0 -2.832,2.54754 -3.34997,3.61597 -0.69773,1.4392 -0.7258,3.27429 -0.07,4.57351 0.59431,1.17735 1.98242,2.66358 3.07077,3.28782 1.28353,0.73621 1.39927,0.68707 0.9632,-0.4089 z m -4.02463,0.22049 c 0.9481,0 0.87965,-0.30294 -0.24469,-1.08293 l -0.92538,-0.64196 -0.76849,0.6553 -0.76848,0.6553 0.59813,0.35638 c 0.43394,0.25855 0.71022,0.31541 1.00648,0.20715 0.2246,-0.0821 0.72069,-0.14924 1.10243,-0.14924 z m 81.083315,-0.28757 c 0.55527,-0.1488 0.50312,-0.28161 -0.35278,-0.89846 -0.41231,-0.29715 -1.66678,-1.4417 -2.78771,-2.54344 -2.3743,-2.33365 -3.28812,-2.86912 -5.59371,-3.27779 -2.34662,-0.41594 -2.372,-0.37324 -0.99057,1.6662 2.42735,3.58357 3.16848,4.29881 5.07976,4.90233 0.74407,0.23495 3.9438,0.33908 4.64501,0.15116 z m -48.092265,-0.698 c 1.18631,-0.29442 2.21032,-0.70695 2.36132,-0.95129 0.0606,-0.0981 -0.0914,-0.27015 -0.33774,-0.38241 -0.39036,-0.17785 -0.65069,-0.10991 -2.02455,0.52842 -0.86713,0.40288 -1.77659,0.73252 -2.02103,0.73252 -0.49126,0 -0.77023,0.27192 -0.42226,0.41158 0.26859,0.1078 1.1205,-0.0103 2.44426,-0.33882 z m 40.551635,0.35118 c 0,-0.0579 -0.32521,-0.47459 -0.72269,-0.92604 -0.39748,-0.45145 -1.30514,-1.69395 -2.01702,-2.7611 -1.49202,-2.23663 -2.18203,-3.03052 -3.16931,-3.64642 -0.81771,-0.51012 -3.62282,-1.609 -3.75918,-1.47264 -0.12636,0.12635 1.27183,3.6108 2.03956,5.08286 0.6242,1.19682 1.73271,2.3573 2.77795,2.90818 1.12583,0.59336 4.85069,1.21932 4.85069,0.81516 z m -30.350825,-0.34381 c 1.11756,-0.26342 2.5482,-0.96135 3.672005,-1.79136 0.67074,-0.49538 0.73214,-0.75881 0.17639,-0.75674 -0.21828,8.9e-4 -0.92811,-0.13466 -1.577415,-0.30105 -1.09109,-0.27961 -1.20468,-0.28078 -1.4993,-0.0154 -0.76645,0.69036 -3.80686,1.89152 -4.81669,1.90291 -0.24253,0.003 -0.55734,0.0786 -0.69958,0.16854 -0.31742,0.20076 0.26264,0.45325 1.84611,0.80357 1.38336,0.30605 1.55835,0.30542 2.89848,-0.0105 z m 4.099695,-0.27301 c 0.22535,-0.12061 0.29768,-0.25474 0.19354,-0.35889 -0.10415,-0.10415 -0.441,-0.0103 -0.90126,0.25116 -1.177775,0.66898 -0.5263,0.76816 0.70772,0.10773 z m 39.7088,0.28248 c 0.75626,-0.14472 1.57753,-0.36922 1.82504,-0.49891 l 0.45001,-0.23578 -1.21222,-0.72017 c -0.66671,-0.39609 -1.95017,-1.25006 -2.85213,-1.89771 -2.52122,-1.81036 -3.23231,-2.07942 -5.73146,-2.16864 -1.45766,-0.052 -2.15051,-0.0118 -2.29306,0.13307 -0.26923,0.27368 3.96101,4.44413 4.93941,4.86959 1.93525,0.84156 2.73935,0.9271 4.87441,0.51855 z m -90.019495,-0.57467 c 0.38567,-0.26679 0.70423,-0.56496 0.70791,-0.66261 0.009,-0.22882 -3.12705,-1.11763 -4.44713,-1.26054 -1.17036,-0.1267 -1.21535,-0.0473 -0.54945,0.9698 0.37521,0.57308 0.60154,0.733 1.17432,0.82977 0.39024,0.0659 0.95499,0.22674 1.255,0.35736 0.79043,0.34412 1.0758,0.30824 1.85935,-0.23378 z m 101.296585,0.01 c 0.66565,-0.13312 0.60454,-0.40538 -0.21878,-0.97475 l -0.69425,-0.48011 -0.84246,0.4223 c -0.46335,0.23227 -1.08059,0.4791 -1.37163,0.54853 -0.29104,0.0694 -0.63608,0.21076 -0.76675,0.31408 -0.19372,0.15318 -0.17743,0.21354 0.0882,0.32693 0.32167,0.1373 2.85719,0.0327 3.80568,-0.15698 z M 42.060085,218.15822 c 0.40601,-2.34235 0.39405,-4.2893 -0.0296,-4.81245 -0.691,-0.85335 -2.16709,0.0348 -3.27721,1.9718 l -0.46961,0.81943 1.33066,1.36124 c 0.73186,0.74868 1.46604,1.5904 1.6315,1.8705 0.16545,0.2801 0.34927,0.50927 0.40848,0.50927 0.0592,0 0.2418,-0.77391 0.40576,-1.71979 z m 44.71749,0.66373 c 2.21251,-1.15108 2.80825,-1.7591 1.73436,-1.77013 -0.21255,-0.002 -1.33896,-0.28325 -2.50313,-0.6246 -3.63803,-1.0667 -4.15987,-1.17167 -5.32056,-1.07014 -1.16729,0.1021 -3.66832,0.97973 -4.32965,1.51931 -0.39461,0.32196 -0.3958,0.3325 -0.0512,0.4557 0.19403,0.0694 0.86872,0.36196 1.49931,0.65022 3.20723,1.46611 4.13146,1.71942 6.01279,1.64799 1.3835,-0.0525 1.64002,-0.12263 2.95806,-0.80835 z m 72.883665,0.50304 c 0.38252,-0.11461 0.69549,-0.26395 0.69549,-0.33187 0,-0.0679 -0.41672,-0.41005 -0.92604,-0.76028 -0.50933,-0.35022 -1.24712,-0.8798 -1.63954,-1.17683 l -0.7135,-0.54005 -1.1854,0.53749 c -0.66103,0.29972 -1.65479,0.58654 -2.24649,0.64839 -1.17294,0.12259 -1.42748,0.30907 -0.93552,0.68537 0.48007,0.36721 1.79127,0.9946 2.42232,1.15906 0.71927,0.18745 3.64094,0.0447 4.52868,-0.22128 z m -53.7752,-0.0114 c 0.56367,-0.11643 1.02485,-0.27031 1.02485,-0.34197 0,-0.0717 -0.37703,-0.17555 -0.83784,-0.23088 -0.46082,-0.0553 -1.15535,-0.18395 -1.54341,-0.28584 -0.38805,-0.10189 -0.87359,-0.22748 -1.07897,-0.27908 -0.27531,-0.0692 -0.47413,0.0476 -0.75676,0.44454 l -0.38334,0.53836 0.58037,0.16737 c 0.82137,0.23686 1.80773,0.23275 2.9951,-0.0125 z m 13.87058,-0.097 c -0.033,-0.0728 -0.32842,-0.64782 -0.6564,-1.2779 -0.32798,-0.63009 -0.9464,-2.01915 -1.37425,-3.08681 -0.83311,-2.07891 -1.51382,-3.26765 -1.86584,-3.25835 -0.11989,0.003 -0.65455,0.15933 -1.18813,0.34702 -0.53357,0.18769 -1.18373,0.34385 -1.44479,0.34702 -0.63972,0.008 -0.68026,0.12698 -0.40457,1.18978 0.54652,2.10689 1.829,3.90271 3.34433,4.68296 1.48594,0.76512 3.76146,1.43471 3.58965,1.05628 z m 28.69386,-0.4365 c 0.67909,-0.19925 1.45766,-0.5187 1.73014,-0.70988 l 0.49542,-0.34759 -1.30655,-0.56799 c -0.71861,-0.31239 -2.09249,-0.98824 -3.05306,-1.5019 -2.10385,-1.125 -3.16623,-1.46328 -4.56873,-1.45477 -1.12807,0.007 -3.59707,0.47536 -3.85282,0.73111 -0.0873,0.0873 0.0641,0.29185 0.35028,0.47353 0.27716,0.17595 1.17862,0.80815 2.00323,1.4049 3.53934,2.5613 4.99915,2.91238 8.20209,1.97259 z m -53.798615,-0.47527 c 1.1989,-0.41613 1.85208,-0.72907 1.85208,-0.88734 0,-0.0593 -0.59808,-0.40384 -1.32907,-0.76555 l -1.32908,-0.65764 -0.74349,0.33628 c -0.40893,0.18495 -1.10069,0.43637 -1.53725,0.55871 -0.82406,0.23093 -2.08646,1.3308 -1.82016,1.58583 0.47025,0.45034 3.41314,0.34821 4.90697,-0.17029 z m 71.770535,-0.17267 c 1.54141,-0.42742 1.74201,-0.62456 0.969,-0.9523 -0.32806,-0.13909 -1.58782,-0.90991 -2.79945,-1.71294 l -2.20297,-1.46004 -0.70745,0.21108 c -0.38909,0.11609 -1.05268,0.28525 -1.47464,0.3759 -0.76633,0.16464 -1.93002,0.96165 -1.95409,1.33835 -0.007,0.10962 0.42987,0.53348 0.97085,0.94191 2.32571,1.75593 4.21347,2.08583 7.19875,1.25804 z M 31.766525,217.48379 c 0.005,-0.61261 0.81555,-3.12377 1.45791,-4.51407 0.94837,-2.05261 1.2519,-3.55028 1.1024,-5.43927 -0.0692,-0.87426 -0.19793,-1.63414 -0.28607,-1.68861 -0.20772,-0.12838 -2.27457,1.85127 -3.23666,3.1001 -1.27679,1.65732 -1.40434,2.00822 -1.41048,3.88056 -0.005,1.49232 0.0543,1.81303 0.54058,2.93073 0.6753,1.55205 1.47456,2.65612 1.68391,2.32607 0.0801,-0.12635 0.14692,-0.39433 0.14841,-0.59551 z m 82.376315,0.65771 c 0,-0.3311 -0.6711,-0.70718 -1.60074,-0.89703 -0.54085,-0.11046 -1.5132,-0.51045 -2.16076,-0.88886 -1.24131,-0.72538 -1.50083,-0.71873 -0.69232,0.0177 0.81035,0.73814 1.48236,1.09066 2.86632,1.50359 1.52271,0.45433 1.5875,0.46513 1.5875,0.26457 z m -62.701195,-0.6888 c -0.0665,-0.16977 -0.23339,-0.90399 -0.37089,-1.63159 -0.13751,-0.72761 -0.33308,-1.7198 -0.4346,-2.20486 -0.10152,-0.48507 -0.1614,-1.91382 -0.13305,-3.175 l 0.0515,-2.29306 -0.6843,-1.4515 c -0.37637,-0.79832 -0.75538,-1.40757 -0.84224,-1.35389 -0.28067,0.17347 -1.37342,2.4979 -1.82581,3.88376 -0.24566,0.75253 -0.44001,1.76356 -0.44001,2.28892 0,1.9401 1.14644,3.89916 3.17347,5.42291 1.1501,0.86455 1.71916,1.0589 1.5059,0.51431 z m 16.22272,0.0304 c -1.0513,-0.54854 -4.2093,-1.062 -4.25522,-0.69186 -0.012,0.097 0.62296,0.27108 1.41111,0.38682 0.78815,0.11574 1.7505,0.28636 2.13855,0.37916 1.06733,0.25523 1.29162,0.23167 0.70556,-0.0741 z m 41.363195,0.10189 c 0,-0.097 -0.29766,-0.17985 -0.66146,-0.18408 -0.3638,-0.004 -0.98535,-0.0705 -1.38123,-0.14724 -0.77399,-0.15007 -1.57726,0.0395 -1.39782,0.32982 0.14511,0.23478 3.44051,0.23621 3.44051,0.002 z m -61.315995,-1.28342 c -0.46985,-0.50679 -0.90178,-0.94339 -0.95985,-0.9702 -0.17428,-0.0805 -1.75333,1.38375 -1.75333,1.62584 0,0.16518 0.46954,0.22967 1.78373,0.245 l 1.78373,0.0208 z m 56.818075,0.42405 c 0.95521,-0.38877 2.55724,-1.31448 2.55746,-1.47779 3.6e-4,-0.2725 -1.89025,-0.1403 -2.13032,0.14896 -0.31468,0.37918 -1.94378,1.30253 -2.30172,1.3046 -0.15789,8.8e-4 -0.39412,0.13063 -0.52496,0.28827 -0.21657,0.26096 -0.15137,0.27482 0.72806,0.15488 0.53126,-0.0725 1.28343,-0.26098 1.67148,-0.41892 z m 49.30711,-0.0575 c 1.07712,-0.24863 3.74808,-1.54332 3.83989,-1.8613 0.036,-0.12472 -0.0914,-0.22049 -0.29331,-0.22049 -0.38108,0 -2.46365,-0.70985 -3.6589,-1.24715 -0.3978,-0.17882 -1.3503,-0.53631 -2.11667,-0.79443 -1.17261,-0.39494 -1.58904,-0.45366 -2.62812,-0.37057 -1.2923,0.10334 -3.81262,0.86497 -4.13076,1.24831 -0.14243,0.17161 0.43577,0.54331 2.50193,1.6084 3.4986,1.80351 4.58144,2.07684 6.48594,1.63723 z m 19.09336,-0.34435 c 1.38006,-0.47163 2.41967,-0.98939 2.41967,-1.20506 0,-0.0913 -0.33734,-0.25518 -0.74965,-0.36419 -0.41231,-0.109 -1.82122,-0.71597 -3.1309,-1.34882 -2.66287,-1.28672 -3.73562,-1.63653 -5.02709,-1.63928 -0.69616,-0.001 -0.99341,0.0942 -1.41111,0.45419 -0.29104,0.25083 -0.74821,0.5858 -1.01592,0.74437 -0.26772,0.15856 -0.46207,0.36996 -0.43188,0.46976 0.0631,0.20873 3.09501,2.25378 3.98204,2.68594 1.6638,0.81061 3.39537,0.87616 5.36484,0.20309 z m -103.517925,0.11274 c 0.47624,-0.14447 1.13108,-0.26268 1.45521,-0.26268 0.32413,0 0.58933,-0.0728 0.58933,-0.16173 0,-0.21031 -3.29746,-3.26518 -4.1492,-3.84396 -1.48259,-1.00744 -4.11984,-1.41312 -6.13943,-0.94441 -0.93356,0.21666 -0.99179,0.33459 -0.38281,0.77524 0.29074,0.21038 1.36216,1.11691 2.38093,2.01451 1.29396,1.14007 2.06499,1.68753 2.55787,1.8162 0.38805,0.1013 1.14212,0.32905 1.67569,0.50611 0.53358,0.17706 1.00983,0.33126 1.05834,0.34266 0.0485,0.0114 0.47784,-0.0975 0.95407,-0.24194 z m 31.947355,-0.36495 c 0.77342,-0.25027 1.58481,-0.56961 1.80309,-0.70962 0.43222,-0.27724 0.52774,-0.60053 0.17639,-0.597 -0.12127,0.001 -1.23371,-0.49054 -2.47209,-1.09281 -2.200795,-1.07033 -2.266465,-1.08977 -2.910415,-0.86187 -0.36235,0.12824 -1.18694,0.73912 -1.83242,1.35751 l -1.17359,1.12435 0.46804,0.32751 c 1.42075,0.99418 3.7239,1.16938 5.940995,0.45193 z m -56.449345,-0.622 c 0.38806,-0.39508 0.84446,-0.79341 1.01424,-0.88518 0.50343,-0.27212 0.3585,-0.69396 -0.51346,-1.49451 l -0.82213,-0.7548 -0.68389,0.3489 -0.6839,0.34889 0.11504,1.36 c 0.0777,0.91904 0.20523,1.43149 0.39321,1.58049 0.38434,0.30463 0.38868,0.30277 1.18089,-0.50379 z m 45.94032,0.54959 c 0.50661,-0.0961 1.33103,-0.38003 1.83206,-0.631 0.97693,-0.48937 2.76407,-1.76958 2.76144,-1.97815 -10e-4,-0.11596 -3.08472,-0.80951 -6.07047,-1.3655 -2.05995,-0.3836 -3.88652,0.0838 -6.31273,1.61541 -0.81785,0.51629 -0.83872,0.70625 -0.0947,0.86206 0.3153,0.066 1.16858,0.30726 1.89618,0.53607 3.54591,1.11509 4.42897,1.25682 5.98824,0.96111 z m 21.704825,0.0399 c 0,-0.0741 -0.15875,-0.5691 -0.35278,-1.09994 -0.19403,-0.53084 -0.35278,-1.1005 -0.35278,-1.26592 0,-0.5194 -0.27406,-0.5064 -1.3434,0.0637 -0.57082,0.30432 -1.07281,0.58214 -1.11554,0.61738 -0.15834,0.13058 0.46407,0.5853 1.63391,1.19369 1.22002,0.63449 1.53059,0.73414 1.53059,0.49109 z m -37.460675,-0.48481 c 0.55119,-0.24376 1.30927,-0.49231 1.68463,-0.55234 0.37536,-0.06 0.72127,-0.1719 0.76869,-0.24863 0.18007,-0.29137 -2.64963,-2.81927 -3.7945,-3.38979 -1.10771,-0.55201 -1.21175,-0.56951 -3.38666,-0.56951 -1.26756,0 -2.31613,0.0767 -2.40997,0.17639 -0.10724,0.11387 0.45373,0.73906 1.58273,1.76389 2.77008,2.51451 3.72276,3.2632 4.15232,3.2632 0.22032,0 0.85157,-0.19945 1.40276,-0.44321 z m -11.92822,-0.0568 c 0,-0.37132 -3.58788,-3.16806 -4.10104,-3.19674 -0.0728,-0.004 -0.13229,0.35416 -0.13229,0.79607 0,0.79884 0.005,0.80584 0.92604,1.21931 0.50932,0.22872 1.19943,0.62123 1.53357,0.87224 0.58041,0.436 1.77372,0.64397 1.77372,0.30912 z m -10.58333,-0.62873 c 0,-0.1243 0.25068,-0.73477 0.55707,-1.3566 0.43708,-0.88708 1.05789,-1.62453 2.88214,-3.42366 1.90219,-1.87601 2.44249,-2.52568 2.9707,-3.57209 0.3551,-0.70347 0.64564,-1.36402 0.64564,-1.4679 0,-0.50236 -3.59287,0.36746 -5.34379,1.29372 -2.20908,1.16862 -3.2631,3.59429 -2.78868,6.41772 0.23951,1.42544 0.68161,2.57913 0.92959,2.42586 0.081,-0.0501 0.14733,-0.19275 0.14733,-0.31705 z m -14.2285,-0.79904 c 1.06049,-1.60251 2.13394,-2.22421 3.54596,-2.05368 0.71007,0.0858 1.00796,0.0369 1.4545,-0.23867 l 0.56154,-0.34652 -0.6075,-1.23314 c -0.33413,-0.67823 -0.74557,-1.27199 -0.91432,-1.31947 -1.66343,-0.46799 -3.47087,-0.43572 -4.49018,0.0802 -2.07328,1.04934 -2.27465,1.60446 -1.30406,3.59491 0.35135,0.72053 0.71575,1.51243 0.80979,1.75977 0.23291,0.6126 0.40761,0.56757 0.94427,-0.24338 z m 43.11218,-1.17339 c 0.60633,-0.25998 1.10243,-0.52939 1.10243,-0.59869 0,-0.24805 -0.64427,-0.70141 -1.68048,-1.18251 -0.9235,-0.42877 -1.30394,-0.49601 -3.08202,-0.54472 -1.12617,-0.0309 -2.14225,0.0209 -2.28424,0.11625 -0.20297,0.13635 0.1248,0.53409 1.5875,1.92644 l 1.84327,1.75462 0.70555,-0.49934 c 0.38806,-0.27464 1.20165,-0.71206 1.80799,-0.97205 z m 26.275785,0.88018 c 1.51944,-0.50541 2.87248,-1.17383 2.87248,-1.41904 0,-0.13228 -0.11537,-0.2405 -0.25638,-0.2405 -0.141,0 -1.54696,-0.56136 -3.12433,-1.24748 -3.25918,-1.41765 -4.38863,-1.66821 -4.7616,-1.05633 -0.12989,0.21309 -0.78068,0.79293 -1.4462,1.28852 l -1.210045,0.90108 0.857265,0.44172 c 2.51204,1.29438 3.46035,1.60839 4.86395,1.61061 0.77915,0.001 1.72162,-0.11784 2.20486,-0.27858 z m 70.43316,-10e-4 c 0.52234,-0.15512 1.36567,-0.54811 1.87405,-0.87332 0.98887,-0.63263 2.35555,-1.80078 2.35555,-2.01342 0,-0.071 -0.8136,-0.17999 -1.80799,-0.24225 -1.02371,-0.0641 -2.52126,-0.30525 -3.45231,-0.55597 -2.36343,-0.63643 -4.03418,-0.59634 -6.11526,0.14674 -0.92956,0.33191 -1.60465,0.67388 -1.63109,0.82623 -0.0282,0.16273 0.30102,0.41736 0.88042,0.68087 5.13627,2.33595 4.88641,2.24413 6.22928,2.28908 0.3947,0.0132 1.14501,-0.1029 1.66735,-0.25802 z m -45.51354,-0.0661 c 0.34233,-0.21643 0.12635,-0.40108 -0.88047,-0.75273 -1.41849,-0.49542 -4.7625,-0.57629 -4.7625,-0.11517 0,0.18238 0.30758,0.24534 2.45342,0.50214 0.91282,0.10925 1.78595,0.27246 1.94028,0.3627 0.36294,0.21223 0.91629,0.21358 1.24927,0.003 z m 29.29803,-0.79236 c 2.1119,-1.0567 2.99259,-1.85817 2.04174,-1.85817 -0.22643,0 -1.63534,-0.36716 -3.1309,-0.81592 -3.65238,-1.09591 -5.03102,-1.14298 -7.26482,-0.24803 -1.45307,0.58215 -2.42824,1.13952 -2.24272,1.28184 0.17917,0.13746 5.34331,2.13224 5.87622,2.26985 0.30763,0.0794 1.20154,0.11739 1.98645,0.0843 1.22575,-0.0516 1.61151,-0.15235 2.73403,-0.71397 z m -36.42812,0.41516 c 0.0667,-0.10786 0.0118,-0.26733 -0.12188,-0.35437 -0.26354,-0.17158 -1.65979,-0.59055 -2.58024,-0.77425 -0.95135,-0.18987 -0.65791,0.21676 0.37262,0.51634 0.52023,0.15124 1.17508,0.3945 1.45521,0.5406 0.61073,0.3185 0.71639,0.32717 0.87429,0.0717 z m 13.65795,0.0231 c 0,-0.29908 -0.90767,-0.44433 -2.77659,-0.44433 -2.19437,0 -2.43873,0.31012 -0.35632,0.45221 2.51845,0.17184 3.13291,0.17029 3.13291,-0.008 z m 3.92465,-0.29657 c -0.12126,-0.0489 -0.3197,-0.0489 -0.44097,0 -0.12127,0.0489 -0.022,0.089 0.22049,0.089 0.24253,0 0.34175,-0.04 0.22048,-0.089 z m -1.91224,-0.85522 c 0.51751,-0.157 1.582,-0.26371 2.64583,-0.26525 1.11888,-0.002 2.06144,-0.10061 2.53787,-0.26656 0.41685,-0.14519 1.32966,-0.35081 2.02847,-0.45691 0.69881,-0.10611 1.35637,-0.24412 1.46125,-0.30671 0.10487,-0.0626 0.62081,-0.39731 1.14652,-0.74385 1.23382,-0.81331 3.00447,-1.54774 4.16986,-1.72958 0.71911,-0.1122 1.08864,-0.29825 1.68596,-0.84884 0.98312,-0.90621 2.83785,-1.94111 4.33188,-2.41708 0.88626,-0.28236 1.37019,-0.56983 1.96884,-1.16955 1.03231,-1.03417 2.82497,-2.201 4.10133,-2.66953 1.19126,-0.43728 1.7195,-1.11939 1.7195,-2.22033 0,-1.01144 -0.2522,-1.14405 -1.41353,-0.7432 -0.53224,0.18372 -1.14366,0.33662 -1.3587,0.33979 -0.21505,0.003 -0.79136,0.36134 -1.28071,0.79595 -0.48934,0.43461 -1.13779,0.91848 -1.44098,1.07526 -1.05522,0.54568 -2.89084,1.16904 -3.85469,1.30902 -0.64266,0.0933 -1.36092,0.37903 -2.12781,0.84637 -1.48557,0.90531 -3.74388,1.6236 -5.10461,1.6236 -0.84603,0 -1.26482,0.11619 -2.23985,0.62144 -1.48188,0.76789 -3.18002,1.13538 -5.26502,1.13939 -0.87798,0.002 -1.67173,0.0727 -1.76389,0.15776 -0.66205,0.61123 -4.31626,1.12945 -6.08094,0.86236 -0.93175,-0.14103 -1.30526,-0.11441 -2.19104,0.15612 -1.3602,0.41542 -4.75274,0.42615 -5.83729,0.0184 -0.64229,-0.24144 -0.83854,-0.23948 -1.99062,0.0199 l -1.27809,0.28776 -0.25833,0.86986 c -0.14209,0.47843 -0.25834,0.92733 -0.25834,0.99756 0,0.0702 0.62645,0.0848 1.39211,0.0323 1.30268,-0.0893 1.40544,-0.0705 1.59963,0.29234 0.11414,0.21326 0.18514,0.6011 0.15779,0.86185 -0.0807,0.76967 0.12745,0.91474 1.3147,0.91621 0.60061,7.1e-4 1.59589,0.15457 2.21173,0.34184 0.90139,0.2741 1.21093,0.30129 1.5875,0.13946 0.71345,-0.30662 4.89,-0.24177 5.75945,0.0894 0.91903,0.35007 0.91366,0.34995 1.92422,0.0434 z m -42.842765,-0.6449 c 1.34206,-0.64991 3.497655,-2.3121 3.240565,-2.4988 -0.0887,-0.0644 -4.674905,-0.83442 -6.066465,-1.01855 -2.0306,-0.26868 -3.68291,0.23567 -5.92528,1.8086 -0.98582,0.69151 -1.17359,1.03264 -0.56843,1.03264 0.15205,0 1.23877,0.23131 2.41494,0.51402 2.99129,0.71901 2.8594,0.70025 4.51974,0.64282 1.15291,-0.0399 1.70392,-0.15094 2.38493,-0.48073 z m -13.42615,-0.0587 c 0.54841,-0.24254 1.11392,-0.44097 1.25667,-0.44097 0.14275,0 0.25955,-0.11907 0.25955,-0.26459 0,-0.21631 -0.29768,-0.26409 -1.63159,-0.26188 -2.08589,0.003 -2.37898,0.16994 -1.54341,0.87672 0.33955,0.28721 0.62733,0.52434 0.63951,0.52695 0.0122,0.003 0.47085,-0.1937 1.01927,-0.43623 z m -38.69662,-2.61006 c 0.2097,-0.69042 0.65007,-1.78905 0.97859,-2.4414 0.92101,-1.82889 1.28304,-2.91086 1.41205,-4.22018 0.12744,-1.29325 -0.0342,-3.16378 -0.27342,-3.16378 -0.35055,0 -4.00144,3.84837 -4.37206,4.60856 -0.68016,1.39505 -0.84145,2.62486 -0.5168,3.94045 0.33799,1.36961 1.03984,2.89864 1.67942,3.65874 l 0.46983,0.55837 0.12055,-0.84273 c 0.0663,-0.4635 0.29213,-1.40761 0.50184,-2.09803 z m 81.102685,2.12499 c 0.0523,-0.45457 0.0135,-0.4849 -0.61736,-0.48237 -0.37024,0.001 -0.78969,0.0764 -0.9321,0.16646 -0.21627,0.13678 -0.18847,0.22486 0.16874,0.53466 0.60686,0.52633 1.30777,0.41528 1.38072,-0.21875 z m -13.54019,0.12986 c 0.56673,-0.14685 1.6009,-0.55682 2.29816,-0.91105 1.15249,-0.58549 1.23845,-0.66544 0.94569,-0.87951 -0.17712,-0.12952 -0.43333,-0.23548 -0.56936,-0.23548 -0.13602,0 -0.85507,-0.30527 -1.59788,-0.67838 -1.04918,-0.527 -1.63302,-0.70159 -2.61633,-0.78239 -0.69617,-0.0572 -1.83973,-0.27495 -2.54125,-0.48387 l -1.27548,-0.37986 -1.14391,0.37552 c -1.41233,0.46363 -2.62381,1.00782 -2.76991,1.2442 -0.0605,0.098 0.0339,0.2269 0.20979,0.28654 0.17592,0.0596 1.31205,0.54633 2.52472,1.08153 3.83864,1.69416 4.62449,1.85801 6.53576,1.36275 z m 7.70764,0.0386 c 1.24864,0.0353 1.71161,-0.18538 0.8452,-0.40283 -0.54706,-0.13731 -3.7298,-0.0273 -3.89117,0.13447 -0.0661,0.0663 -0.0656,0.20902 0.001,0.31714 0.0821,0.13284 0.38812,0.15095 0.94371,0.0558 0.45221,-0.0774 1.39767,-0.1245 2.10102,-0.10462 z m -61.162845,-0.79215 c 0.89124,-0.25245 2.23354,-0.29933 5.64444,-0.19712 0.43656,0.0131 1.34938,-0.10154 2.02847,-0.25471 1.53374,-0.34594 3.381,-0.36198 4.7446,-0.0412 0.90639,0.21322 1.13364,0.21043 1.76389,-0.0217 1.16862,-0.43044 3.91606,-0.50433 5.43676,-0.14621 1.05532,0.24852 1.43226,0.26784 2.03894,0.10447 0.40936,-0.11022 0.74367,-0.25688 0.74293,-0.3259 -7.1e-4,-0.069 -0.33809,-0.32012 -0.74965,-0.55798 -0.58612,-0.33876 -0.95856,-0.42342 -1.71844,-0.39065 -1.26662,0.0546 -3.95913,-0.51988 -5.08373,-1.08474 -0.78965,-0.39662 -1.00295,-0.43027 -1.91529,-0.30214 -1.2512,0.17573 -3.77028,-0.0761 -5.02378,-0.50214 -0.83143,-0.28262 -1.0207,-0.28863 -1.98867,-0.0632 -1.05937,0.24673 -4.21475,0.21651 -5.49761,-0.0527 -0.52152,-0.10942 -0.57436,-0.0663 -1.12236,0.91561 -0.31629,0.56675 -0.72768,1.19733 -0.91421,1.40129 -0.30716,0.33586 -0.31836,0.44855 -0.11871,1.195 0.16825,0.62909 0.28456,0.7975 0.49135,0.71147 0.14901,-0.062 0.70749,-0.23636 1.24107,-0.38749 z m -30.7875,-1.50618 c 0.38386,-0.58658 1.63667,-1.98442 2.78402,-3.10632 1.80593,-1.76587 2.19191,-2.24792 2.87396,-3.58929 0.43332,-0.8522 0.78785,-1.63098 0.78785,-1.7306 0,-0.22308 -1.24838,-0.0533 -2.74369,0.37323 -2.4821,0.70793 -4.08676,1.91084 -4.8848,3.66183 -0.31298,0.68673 -0.3806,1.17227 -0.38614,2.77279 -0.007,2.16533 0.32024,3.62371 0.67747,3.01463 0.10638,-0.18137 0.50748,-0.80969 0.89133,-1.39627 z m 94.812505,-0.10445 0.39764,-1.39649 -0.77,-1.35854 c -1.29005,-2.27608 -2.67033,-3.28192 -5.4779,-3.9919 -1.46462,-0.37037 -1.77055,-0.33373 -1.42204,0.17029 0.11418,0.16513 0.85666,1.47999 1.64997,2.92192 1.59298,2.89546 2.49751,3.96043 3.93047,4.62765 0.49625,0.23107 0.99046,0.4209 1.09825,0.42185 0.10779,8.8e-4 0.37491,-0.6267 0.59361,-1.39478 z m 42.95486,0.90381 c 1.18127,-0.4597 3.61597,-2.16768 3.61597,-2.53667 0,-0.0801 -0.25797,-0.1459 -0.57326,-0.14623 -0.3153,-3.5e-4 -1.36702,-0.1618 -2.33716,-0.35884 -3.94571,-0.8014 -4.41021,-0.86089 -5.50922,-0.70555 -0.58915,0.0833 -1.45591,0.32067 -1.92612,0.52754 -1.20877,0.5318 -2.70713,1.46031 -2.70643,1.67714 5.3e-4,0.17686 3.65554,1.33961 5.64386,1.79547 1.12232,0.25731 2.76237,0.14796 3.79236,-0.25286 z m 16.23212,-0.51735 c 1.50675,-0.78039 3.06923,-2.96371 3.53712,-4.94258 0.26214,-1.10866 0.0716,-1.33074 -0.60128,-0.70064 -0.93425,0.8749 -3.07123,1.722 -5.20276,2.06237 -0.66234,0.10576 -1.51716,0.3001 -1.89962,0.43187 -1.36775,0.47123 -4.03834,2.30566 -3.7435,2.57143 0.12938,0.11663 2.62874,0.74876 3.76056,0.9511 0.24253,0.0434 1.11566,0.0598 1.94027,0.0365 1.11305,-0.0314 1.6822,-0.13708 2.20921,-0.41003 z m -96.710555,0.20259 c 0.0561,-0.056 -0.15968,-0.55214 -0.47938,-1.10243 -0.31971,-0.55029 -1.02855,-1.80889 -1.5752,-2.79687 -1.40369,-2.53695 -2.46907,-3.53873 -4.42671,-4.16251 -1.03914,-0.3311 -3.25534,-0.68141 -3.47032,-0.54855 -0.0825,0.051 0.11718,0.42477 0.44374,0.83061 0.50614,0.62901 1.61669,2.29122 2.82997,4.23575 0.94348,1.5121 2.66947,2.65181 4.95974,3.27502 1.40947,0.38353 1.57733,0.40981 1.71816,0.26898 z m 2.74524,-0.73595 c 0.55401,-0.3638 1.22484,-0.77409 1.49073,-0.91175 0.57192,-0.29611 0.59541,-0.51455 0.14933,-1.38833 -0.74232,-1.45404 -2.22337,-2.64459 -4.07562,-3.27621 -1.84142,-0.62793 -2.82222,-0.77034 -2.82222,-0.40979 0,0.15219 0.0743,0.32263 0.16509,0.37875 0.15844,0.0979 1.45644,2.31464 2.32844,3.97648 0.52555,1.00159 1.43085,2.28359 1.61608,2.28854 0.0775,0.002 0.59415,-0.29389 1.14817,-0.65769 z m 82.126195,0.30434 c 0.57289,-0.19164 1.29788,-0.34844 1.61107,-0.34844 0.44061,0 0.7138,-0.15976 1.20735,-0.70606 0.93334,-1.0331 0.85409,-1.34968 -0.18002,-0.71911 -0.30432,0.18557 -1.05838,0.47664 -1.67569,0.64682 -1.00834,0.27799 -2.22286,1.00558 -2.25617,1.35162 -0.0183,0.19016 0.12997,0.16439 1.29346,-0.22483 z M 37.209215,207.98768 c 0.2271,-0.20258 0.68407,-0.73693 1.0155,-1.18744 0.35042,-0.47633 1.19585,-1.21448 2.02024,-1.76389 1.17536,-0.78331 1.39835,-1.00508 1.30468,-1.29756 -0.0621,-0.19403 -0.15401,-1.30718 -0.20416,-2.47366 -0.0841,-1.95583 -0.0557,-2.2228 0.36422,-3.43042 0.25048,-0.72024 0.41638,-1.34856 0.36868,-1.39626 -0.0477,-0.0477 -0.46193,0.27689 -0.92051,0.72131 -0.88231,0.85507 -2.95629,2.328 -3.53791,2.51259 -0.22155,0.0703 -0.45316,0.43734 -0.64379,1.02015 -0.33239,1.01623 -1.19514,2.79703 -1.70512,3.51957 -0.29693,0.42068 -0.31447,0.60691 -0.15781,1.67569 0.0969,0.66133 0.22368,1.66155 0.28165,2.22273 l 0.10541,1.0203 0.648,-0.38738 c 0.35641,-0.21306 0.83382,-0.55314 1.06092,-0.75573 z m 82.284475,0.66021 c 0.0649,-0.0649 0.01,-0.24348 -0.12289,-0.39687 -0.13247,-0.15339 -0.88964,-1.46952 -1.6826,-2.92473 -1.96336,-3.60312 -2.84768,-4.41172 -5.68454,-5.19786 -0.71132,-0.19711 -1.52287,-0.35839 -1.80344,-0.35839 -0.49359,0 -0.50114,0.0129 -0.23286,0.39687 0.15249,0.21828 0.88862,1.4881 1.63584,2.82182 0.74722,1.33372 1.62507,2.73628 1.95079,3.11681 0.82222,0.96058 2.11546,1.71067 3.8169,2.21385 1.54074,0.45565 1.93469,0.51661 2.1228,0.3285 z m -77.141135,-2.17507 c 0,-0.66765 -0.078,-1.26214 -0.17343,-1.32109 -0.16209,-0.10018 -1.71139,0.883 -2.60469,1.65293 -0.63468,0.54703 -0.48708,0.72493 0.61736,0.74407 0.55783,0.01 1.21267,0.0765 1.45521,0.1486 0.24253,0.0721 0.5005,0.0992 0.57326,0.0602 0.0728,-0.0389 0.13229,-0.61708 0.13229,-1.28472 z m 61.131435,1.11881 c 0.85987,-0.28913 2.5861,-1.28644 2.78571,-1.60941 0.0592,-0.0958 -0.44784,-0.21703 -1.18919,-0.28421 -1.66344,-0.15074 -3.42207,-0.65734 -4.61078,-1.32821 -0.925075,-0.52208 -0.956525,-0.52691 -1.792235,-0.2755 -1.16684,0.35102 -3.93744,2.24695 -3.93744,2.6944 0,0.0892 0.49609,0.21684 1.10243,0.28354 0.60634,0.0667 1.85649,0.26681 2.77813,0.4447 2.169815,0.41881 3.767035,0.44334 4.863375,0.0747 z M 79.923385,207.3697 c 0,-0.0888 -0.8096,-1.36978 -1.79911,-2.84663 -2.23295,-3.33268 -3.3775,-4.26119 -5.64833,-4.58217 -0.86508,-0.12228 -1.18073,-0.0891 -1.83985,0.19344 l -0.79562,0.34104 0.81945,1.01434 c 0.45069,0.55789 1.29177,1.62636 1.86906,2.37437 1.54629,2.00357 2.66765,2.76084 4.90227,3.31052 1.48349,0.36491 2.49213,0.44387 2.49213,0.19509 z m 13.82746,-1.14971 c 0.35243,-0.4301 0.56723,-0.82746 0.47733,-0.88302 -0.36242,-0.22399 -2.5279,-0.82206 -2.62498,-0.72498 -0.1517,0.1517 1.07191,2.38674 1.30763,2.3885 0.10958,8.9e-4 0.48759,-0.35041 0.84002,-0.7805 z m 18.567635,0.0323 c -0.26099,-0.37006 -1.1332,-1.90283 -2.21324,-3.88938 -0.73888,-1.35903 -1.63235,-2.43223 -2.54772,-3.06019 -0.93023,-0.63816 -2.87969,-1.29692 -4.24855,-1.43568 l -0.86789,-0.088 0.35971,0.5104 c 0.19785,0.28072 0.97198,1.54227 1.72031,2.80345 1.74319,2.93788 1.99704,3.26167 3.16483,4.03681 1.11675,0.74125 3.20083,1.45031 4.40585,1.49898 0.49151,0.0199 0.49826,0.009 0.2267,-0.37641 z m 21.94838,0.099 c 0.12083,-0.12083 0.0262,-0.27883 -0.29185,-0.48721 -0.25887,-0.16962 -1.52641,-1.32421 -2.81677,-2.56576 -2.4813,-2.38745 -3.13694,-2.78477 -5.25959,-3.18732 -0.94355,-0.17894 -3.11276,-0.22512 -3.11276,-0.0663 0,0.0541 0.5127,0.70762 1.13932,1.45232 0.92455,1.09876 1.29863,1.40815 1.98438,1.64122 0.81908,0.27838 0.84382,0.3073 0.80486,0.94075 -0.0319,0.51948 0.0585,0.74037 0.44097,1.07686 0.59241,0.52121 1.46501,0.95995 2.50964,1.26187 0.91395,0.26415 4.32038,0.21495 4.6018,-0.0665 z m -7.60041,-0.14307 c 0,-0.14552 -0.0747,-0.26458 -0.16598,-0.26458 -0.22242,0 -0.38172,0.27545 -0.2408,0.41637 0.19865,0.19864 0.40678,0.12098 0.40678,-0.15179 z m -53.752415,-0.0168 c 0.1142,-0.1142 -3.05006,-4.09686 -3.86595,-4.86584 -0.48342,-0.45563 -0.55524,-0.46921 -1.96277,-0.37128 -1.3268,0.0923 -1.51716,0.15311 -2.07257,0.66184 -0.33637,0.30811 -0.61158,0.64594 -0.61158,0.75073 0,0.34742 2.61956,2.64361 3.47778,3.04846 1.27112,0.59964 4.6853,1.12589 5.03509,0.77609 z m 67.383285,-0.13847 c 0.75451,-0.12363 1.45056,-0.30351 1.54678,-0.39973 0.11567,-0.11567 -0.11009,-0.36121 -0.66628,-0.72466 -0.46268,-0.30234 -1.63498,-1.18899 -2.60512,-1.97033 -0.97014,-0.78135 -2.24014,-1.67575 -2.82222,-1.98756 -0.99065,-0.53068 -1.19518,-0.5716 -3.19797,-0.63979 -1.1768,-0.0401 -2.27378,0.002 -2.43774,0.094 -0.25035,0.14011 0.0609,0.51175 1.94291,2.32014 3.55551,3.41635 4.72144,3.88444 8.23964,3.30796 z m 36.95242,-0.15832 c 0.36173,-0.22098 0.88381,-0.51864 1.1602,-0.66145 0.36022,-0.18614 0.59491,-0.52519 0.8288,-1.19734 0.17945,-0.51572 0.64503,-1.52862 1.03461,-2.25088 0.67501,-1.25142 0.7671,-1.83854 0.28837,-1.83854 -0.1201,0 -0.36939,0.16688 -0.55397,0.37084 -0.18459,0.20396 -0.55474,0.48416 -0.82257,0.62266 -0.26784,0.1385 -0.732,0.68599 -1.03149,1.21665 -0.29949,0.53066 -0.6112,1.00605 -0.69269,1.05641 -0.27837,0.17205 -1.05288,2.06668 -1.05288,2.57559 0,0.61137 0.012,0.61288 0.84162,0.10607 z m -123.727125,-0.3018 c 1.2387,-0.69908 2.63372,-1.16578 4.75706,-1.59144 2.08034,-0.41704 2.91463,-0.76406 4.42063,-1.83872 1.76978,-1.26288 1.77501,-1.21498 -0.19401,-1.77433 -1.2862,-0.36538 -2.14453,-0.49413 -3.39679,-0.50952 -1.49622,-0.0184 -1.78196,0.0316 -2.66781,0.46662 -1.29754,0.63722 -2.49987,1.94554 -3.24324,3.52917 -0.61436,1.3088 -0.91469,2.24542 -0.71999,2.24542 0.0605,0 0.53036,-0.23724 1.04415,-0.5272 z m 12.33155,0.0163 c 0.0716,-0.0658 -0.45637,-0.70222 -1.17314,-1.4142 l -1.30322,-1.29453 -0.59075,0.44246 c -0.32491,0.24336 -0.85281,0.57506 -1.17311,0.73711 -0.67237,0.34018 -0.99068,0.95542 -0.66933,1.29372 0.11692,0.12309 0.56544,0.28524 0.99672,0.36033 0.87376,0.15214 3.71012,0.0616 3.91283,-0.12489 z m 107.402185,-0.22221 c 0.97963,-0.45659 3.7444,-2.86884 3.64159,-3.17727 -0.0277,-0.083 -1.99507,-0.1698 -4.372,-0.19285 l -4.32169,-0.0419 -1.14564,0.56832 c -1.19738,0.59399 -2.83718,1.76079 -2.94675,2.09675 -0.0365,0.1118 0.26022,0.24707 0.69227,0.31565 0.41584,0.066 1.58951,0.31194 2.60815,0.5465 2.50057,0.57579 4.44373,0.53749 5.84407,-0.11519 z m -47.72699,-0.60841 0.11569,-0.72415 -0.74757,-0.11955 c -0.41116,-0.0657 -0.78125,-0.0859 -0.82241,-0.0447 -0.0412,0.0412 0.17814,0.48597 0.48733,0.98846 0.30919,0.5025 0.62721,0.84848 0.70671,0.76886 0.0795,-0.0796 0.19662,-0.47063 0.26025,-0.86892 z m -73.833595,-0.0255 c 0.10152,-0.3638 0.44935,-1.15046 0.77295,-1.74815 l 0.58837,-1.08669 -0.42167,-0.19213 c -0.23193,-0.10566 -0.93585,-0.19212 -1.56427,-0.19212 -1.28951,0 -1.33673,0.0499 -1.54604,1.63456 -0.10639,0.80545 -0.0815,0.87037 0.59153,1.5434 0.90552,0.90553 1.33479,0.91671 1.57913,0.0411 z m 96.886795,-0.13346 c 0.46071,-0.16304 0.88036,-0.36555 0.93257,-0.45003 0.0522,-0.0845 -0.32472,-0.36568 -0.83764,-0.62488 -0.51291,-0.25921 -1.73632,-1.00897 -2.71869,-1.66614 -2.30518,-1.54209 -2.59356,-1.68446 -4.11097,-2.02959 -1.09823,-0.24979 -1.47444,-0.25897 -2.80104,-0.0683 -2.30266,0.33089 -2.36687,0.39854 -1.21614,1.28148 0.52789,0.40504 1.5855,1.21927 2.35023,1.80939 2.74185,2.11579 3.03024,2.22459 5.62376,2.12159 1.17886,-0.0468 2.26899,-0.19339 2.77792,-0.37349 z m -43.25917,-0.16481 c 0,-0.13979 -0.0725,-0.29898 -0.16112,-0.35375 -0.0886,-0.0548 -0.78315,-1.18389 -1.5434,-2.50915 -1.57905,-2.75258 -2.53976,-3.84423 -3.984555,-4.52765 -1.16191,-0.5496 -3.62399,-1.1174 -4.08245,-0.94147 -0.28069,0.10771 -0.28359,0.14378 -0.0319,0.39551 0.15235,0.15235 0.95658,1.37541 1.78718,2.71791 2.20469,3.56343 3.162425,4.38993 5.925685,5.11369 1.58631,0.4155 2.09052,0.4408 2.09052,0.10491 z m 77.29973,-0.19807 c 3.75066,-0.90703 5.53323,-3.42419 5.05099,-7.13248 -0.28801,-2.21465 -1.06197,-3.8148 -1.3086,-2.70549 -0.38779,1.74425 -1.14401,2.97533 -3.21812,5.23892 -0.98087,1.07048 -1.68505,2.0524 -2.23377,3.11483 -0.44074,0.85334 -0.80134,1.63908 -0.80134,1.74608 0,0.22058 0.90712,0.12597 2.51084,-0.26186 z m -86.447395,-0.0632 0.41641,-0.33907 -0.49655,-0.19009 c -0.58038,-0.22219 -1.17914,-0.24907 -1.17914,-0.053 0,0.21565 0.53308,0.9212 0.69602,0.9212 0.0808,0 0.33423,-0.15259 0.56326,-0.33908 z m -2.37703,-0.74647 c -0.26276,-0.71257 -1.07084,-1.20675 -1.96906,-1.20415 -1.20335,0.003 -1.31586,0.25721 -0.33599,0.75767 0.47584,0.24303 1.10329,0.5676 1.39433,0.72128 0.29104,0.15367 0.66118,0.2799 0.82252,0.28049 0.25496,8.9e-4 0.2665,-0.0717 0.0882,-0.55529 z m -50.57546,-0.54888 c 0.1368,-0.31374 1.3329,-1.642 2.658,-2.95168 2.58583,-2.55577 3.10977,-3.28743 3.79332,-5.29714 0.52965,-1.55724 0.55212,-1.84406 0.13043,-1.66534 -0.16977,0.072 -0.62618,0.24496 -1.01423,0.38446 -1.16776,0.41979 -3.46884,1.62064 -4.25709,2.22161 -1.8986,1.44751 -2.73558,4.17884 -2.15953,7.0472 0.21909,1.09094 0.45549,1.16357 0.8491,0.26089 z m 111.665435,-0.0763 c 1.55854,-0.5228 1.94028,-0.70909 1.94028,-0.94687 0,-0.0966 -0.13891,-0.21891 -0.30868,-0.2717 -0.16978,-0.0528 -1.71837,-0.77532 -3.44132,-1.60563 -3.76001,-1.81201 -4.48028,-1.94061 -7.26485,-1.29716 -0.92354,0.21341 -1.71628,0.44806 -1.76163,0.52145 -0.0765,0.12378 1.14328,0.97509 3.95703,2.76166 2.42255,1.53818 4.16109,1.75002 6.87917,0.83825 z m -56.620835,-0.0834 c 0,-0.11363 -0.10503,-0.33191 -0.23339,-0.48507 -0.12836,-0.15316 -0.85214,-1.27066 -1.60839,-2.48333 -0.75626,-1.21268 -1.70295,-2.54899 -2.10377,-2.96959 -0.9487,-0.99551 -2.32389,-1.67843 -4.09775,-2.03494 -2.2449,-0.45118 -2.50523,-0.38975 -1.85927,0.43873 0.1804,0.23136 0.97615,1.37269 1.76834,2.53627 2.32366,3.41307 3.16891,4.10744 5.84117,4.79851 1.71447,0.44338 2.29306,0.4937 2.29306,0.19942 z m 25.223615,-0.11905 c 0,-0.28247 -1.96041,-2.14072 -2.74106,-2.59821 -1.45117,-0.85045 -3.55508,-1.20474 -4.22878,-0.71212 -0.32356,0.2366 -0.31861,0.2654 0.15165,0.88195 0.34709,0.45505 0.62249,0.63736 0.9628,0.63736 1.03082,0 4.26435,1.17794 4.87643,1.77643 0.20955,0.20489 0.97896,0.21636 0.97896,0.0146 z m -34.724055,-0.38578 c -0.22904,-0.1908 -0.6656,-0.34482 -0.97014,-0.34228 l -0.55373,0.005 0.70556,0.33387 c 0.95327,0.4511 1.35748,0.45297 0.81831,0.004 z m -59.10164,-0.88547 c 0.9487,-0.67554 2.71389,-1.35628 4.74118,-1.82844 1.1112,-0.2588 2.3488,-0.61583 2.75022,-0.79339 0.99742,-0.44121 3.28599,-2.12686 3.20746,-2.36246 -0.115,-0.34498 -2.47061,-0.83366 -4.54158,-0.94215 -1.84727,-0.0968 -2.11457,-0.0707 -2.94601,0.28693 -1.23749,0.53235 -2.55615,1.95916 -3.30273,3.5736 -0.65225,1.41044 -0.90624,2.42809 -0.60602,2.42809 0.10387,0 0.41773,-0.16298 0.69748,-0.36218 z m 56.01421,-0.0799 c -0.31863,-0.16618 -0.99942,-0.2635 -1.84327,-0.2635 -1.63474,0 -1.52449,0.30525 0.14364,0.39767 0.63059,0.0349 1.38465,0.0783 1.67569,0.0964 l 0.52917,0.0329 z m 5.53231,-0.0633 c 0,-0.0839 -0.14748,-0.3419 -0.32775,-0.57327 -0.18026,-0.23136 -0.94125,-1.33347 -1.69109,-2.44913 -1.62455,-2.4171 -2.01457,-2.85758 -3.22411,-3.64126 -0.98283,-0.63679 -2.28494,-1.02348 -4.04677,-1.20175 -1.28871,-0.1304 -1.52916,0.0722 -0.89737,0.7563 0.23913,0.2589 1.14945,1.42505 2.02292,2.59143 2.34267,3.12825 3.1373,3.72387 5.75818,4.31609 1.60417,0.36248 2.40599,0.42966 2.40599,0.20159 z m 85.452225,-0.29294 c 1.56751,-0.25419 2.9142,-1.29374 4.17541,-3.22314 0.85319,-1.30522 1.14329,-1.92754 0.97634,-2.09448 -0.0507,-0.0507 -0.53491,0.0735 -1.07609,0.27602 -0.96717,0.36186 -4.51718,1.07742 -5.34529,1.07742 -0.23232,0 -1.01199,0.24545 -1.7326,0.54544 -0.99122,0.41264 -1.63467,0.84844 -2.64281,1.78993 -0.73292,0.68447 -1.2676,1.30948 -1.18818,1.3889 0.14501,0.14501 5.12262,0.48986 5.78309,0.40065 0.19402,-0.0262 0.66658,-0.0985 1.05013,-0.16074 z m -15.75156,-0.35776 c 1.28308,-0.45269 2.97156,-1.35511 2.97156,-1.58815 0,-0.1245 -0.25796,-0.28228 -0.57326,-0.35063 -0.31529,-0.0683 -1.77824,-0.58952 -3.25099,-1.15817 -3.15256,-1.21725 -4.44784,-1.42084 -6.19378,-0.97355 -1.35091,0.34609 -2.85835,0.9782 -2.85835,1.19858 0,0.23146 5.91572,3.11025 6.58529,3.20463 0.84922,0.11971 2.50864,-0.0466 3.31953,-0.33271 z M 52.951805,199.94976 c 0.52482,-0.2892 1.33571,-0.57783 1.80197,-0.6414 0.62579,-0.0853 0.92597,-0.22991 1.14653,-0.55227 1.40759,-2.05724 3.87672,-3.86482 5.73804,-4.20064 0.59578,-0.10749 0.64569,-0.15316 0.41715,-0.3817 -0.21356,-0.21356 -0.48871,-0.23003 -1.55166,-0.0929 -1.4288,0.18437 -4.3091,-0.0245 -5.16737,-0.37471 -0.42864,-0.1749 -0.67605,-0.15813 -1.41589,0.096 -0.49307,0.16934 -1.36379,0.36257 -1.93494,0.42939 -1.01674,0.11895 -1.04429,0.13663 -1.31753,0.84562 -0.1535,0.39827 -0.52096,1.20992 -0.81658,1.80366 -0.37269,0.74852 -0.50142,1.20826 -0.41985,1.49931 0.0647,0.23087 0.12557,0.7968 0.13524,1.25762 l 0.0176,0.83784 h 1.20654 c 1.00789,0 1.36364,-0.0866 2.16076,-0.52581 z m 62.425755,0.25082 c 0,-0.15125 -0.0807,-0.22514 -0.17927,-0.1642 -0.0986,0.0609 -0.1336,0.18468 -0.0778,0.27499 0.15121,0.24466 0.25705,0.19904 0.25705,-0.11079 z m -46.081605,-0.70206 c 0.50933,-0.14714 0.92261,-0.32484 0.9184,-0.39489 -0.0188,-0.31349 -3.9188,-2.84166 -5.1851,-3.36124 -0.9541,-0.39148 -2.94491,-0.37632 -3.95985,0.0302 -1.3108,0.52496 -3.31617,2.02106 -3.73263,2.78471 -0.13944,0.25568 0.0401,0.28817 1.66663,0.30151 1.61656,0.0133 4.10266,0.45869 4.73242,0.8479 0.0837,0.0517 0.68434,0.1481 1.33479,0.21416 1.31382,0.13343 2.82414,-0.0175 4.22534,-0.42231 z m 14.68438,0.26901 c 0,-0.0984 -0.33735,-0.60496 -0.74965,-1.12573 -0.41231,-0.52076 -1.25386,-1.636 -1.87011,-2.47831 -1.93253,-2.64146 -3.32247,-3.36083 -6.49367,-3.36083 -1.08332,0 -2.03567,0.066 -2.11634,0.14666 -0.0807,0.0807 0.0913,0.31555 0.38217,0.52196 0.29087,0.20641 1.6401,1.49983 2.99829,2.87428 2.16505,2.19094 2.59657,2.54564 3.50074,2.87743 1.6446,0.60351 4.34857,0.94211 4.34857,0.54454 z m 45.448595,-0.2621 c 0.55869,-0.14552 1.5746,-0.26722 2.25756,-0.27044 1.31854,-0.006 1.25944,0.0209 3.21773,-1.47648 0.94122,-0.71969 1.5565,-1.497 1.25679,-1.58777 -0.59267,-0.17951 -6.89052,-0.49146 -7.64317,-0.37859 -0.46516,0.0698 -1.25308,0.31969 -1.75092,0.5554 -0.93303,0.44177 -3.09908,2.08723 -3.09908,2.35424 0,0.0828 0.56647,0.20737 1.25883,0.2769 0.95386,0.0958 3.10547,0.5767 3.45097,0.77133 0.0195,0.011 0.4926,-0.0991 1.05129,-0.24459 z m 7.20349,-0.26458 c 0.56395,-0.19403 1.28607,-0.35278 1.6047,-0.35278 0.95322,0 0.85424,-0.30848 -0.28321,-0.88266 l -1.07324,-0.54177 -1.00607,0.83892 c -0.55334,0.4614 -1.03386,0.85599 -1.06783,0.87687 -0.034,0.0209 -0.009,0.12261 0.0545,0.22607 0.16947,0.27421 0.6163,0.23267 1.77114,-0.16465 z m 46.57016,-1.18365 c 1.49312,-1.74992 2.20137,-3.20371 2.20137,-4.51863 0,-1.01246 -0.23016,-1.88244 -0.49801,-1.88244 -0.0847,0 -0.30295,0.33734 -0.48503,0.74965 -0.18208,0.41231 -0.55133,1.05922 -0.82054,1.43758 -0.26921,0.37836 -0.48948,0.86031 -0.48948,1.07101 0,0.58969 -0.53523,2.03261 -1.08867,2.93488 -0.49614,0.80887 -0.60575,1.22588 -0.38123,1.4504 0.23821,0.23821 0.42511,0.0895 1.56159,-1.24245 z m -106.829015,1.07341 c 0.30317,-0.0606 0.55121,-0.17396 0.55121,-0.25184 0,-0.0779 -0.96089,-1.13779 -2.13531,-2.35535 -2.76,-2.8614 -3.37392,-3.19356 -5.89038,-3.187 -1.37029,0.004 -2.02914,0.0952 -2.9526,0.41062 -0.65379,0.22331 -1.23403,0.47936 -1.28943,0.569 -0.0554,0.0896 0.12233,0.24432 0.39496,0.34375 1.01466,0.37005 2.66057,1.3029 4.24904,2.40821 2.46538,1.71549 2.88417,1.85979 6.23466,2.14818 0.15765,0.0136 0.53468,-0.0249 0.83785,-0.0856 z m 38.842855,-0.42388 c 1.03599,-0.27757 4.21808,-2.5231 4.21808,-2.9766 0,-0.065 -0.81359,-0.21178 -1.80798,-0.32607 -0.99439,-0.11428 -2.44299,-0.29691 -3.2191,-0.40584 -1.90324,-0.26712 -3.26052,-0.10771 -4.54407,0.53369 -0.95054,0.47498 -2.92365,1.89943 -2.94411,2.12543 -0.005,0.0507 0.24962,0.22862 0.56492,0.39539 0.48667,0.25741 1.6072,0.4759 4.63021,0.90284 0.6843,0.0966 2.29479,-0.0326 3.10205,-0.24884 z m 6.78611,0.0932 c 0.32829,-0.25369 0.32932,-0.27473 0.0251,-0.51082 -0.43259,-0.3357 -2.47706,-0.70308 -3.07604,-0.55275 -0.46816,0.11751 -0.4737,0.13175 -0.14461,0.37239 0.1882,0.13761 0.50561,0.25353 0.70535,0.2576 0.19973,0.004 0.64097,0.15949 0.98052,0.34538 0.75463,0.41315 1.06566,0.43132 1.50969,0.0882 z m 21.6043,-0.53281 c 0.28527,-0.14752 1.28791,-0.4265 2.22808,-0.61995 1.58866,-0.32688 1.99209,-0.45379 1.80712,-0.56852 -0.52105,-0.32318 -6.15987,-3.12942 -6.28821,-3.12942 -0.0962,0 -0.46725,0.23227 -0.82447,0.51616 -0.35722,0.28388 -1.12111,0.73388 -1.69754,1 -0.5881,0.27151 -1.09487,0.63139 -1.15475,0.82006 -0.13107,0.41295 -0.26666,0.30474 1.47157,1.17437 2.1444,1.07283 3.47779,1.31429 4.4582,0.8073 z m 27.00295,-0.0266 c 0.13315,-0.16216 0.78241,-0.6452 1.44281,-1.07341 0.74495,-0.48304 1.26523,-0.95697 1.37065,-1.24856 0.0935,-0.25849 0.26102,-0.64846 0.37235,-0.8666 0.11132,-0.21813 0.16612,-0.4329 0.12176,-0.47726 -0.23937,-0.23937 -1.61559,0.54276 -2.57572,1.46384 -0.88869,0.85253 -1.11972,1.19054 -1.21317,1.77495 -0.12327,0.77091 0.0632,0.93632 0.48132,0.42704 z m -3.89097,-0.69049 c 1.65125,-0.4822 4.47469,-2.2433 3.86847,-2.41291 -2.67507,-0.74847 -6.53003,-1.61273 -7.45302,-1.67092 -0.88359,-0.0557 -1.49855,0.0209 -2.38125,0.29673 -1.32639,0.41444 -3.03216,1.24259 -3.09162,1.50097 -0.0369,0.16047 1.85329,0.95194 4.9002,2.05181 1.61543,0.58313 2.74478,0.64679 4.15722,0.23432 z m -42.36806,-0.86365 c 1.05062,-0.79899 2.63197,-1.67879 3.01747,-1.67879 0.11527,0 0.17679,-0.0992 0.13672,-0.22049 -0.11311,-0.3423 -2.24619,-0.37182 -3.34204,-0.0463 -1.09955,0.32666 -3.35784,1.50039 -3.44832,1.79223 -0.0544,0.17543 1.73121,0.87025 2.37802,0.92535 0.12019,0.0102 0.68635,-0.33718 1.25815,-0.77204 z m -18.07744,0.1062 0.48675,-0.50805 -0.51844,-0.36917 c -0.5354,-0.38123 -3.11852,-1.43694 -3.51594,-1.43694 -0.29987,0 -0.28854,0.0856 0.16709,1.26056 0.38556,0.99433 0.40663,1.01379 1.36701,1.26186 1.39896,0.36136 1.47538,0.35346 2.01353,-0.20826 z m -4.231,-0.16855 c 0.19287,-0.31206 -0.97699,-2.369 -1.80729,-3.17774 -0.820445,-0.79913 -3.790175,-2.49535 -4.000535,-2.28498 -0.0534,0.0534 0.16395,0.99136 0.48304,2.08432 l 0.58017,1.9872 0.97014,0.24401 c 0.53357,0.1342 1.4067,0.46862 1.940285,0.74316 0.99852,0.51376 1.67437,0.66263 1.83419,0.40403 z m 50.28872,-0.7345 c 0.86102,-0.29104 1.70934,-0.52916 1.88517,-0.52916 0.51839,0 0.36592,-0.42259 -0.25099,-0.69566 -0.31387,-0.13894 -1.12746,-0.58124 -1.80798,-0.9829 -2.77652,-1.63877 -3.94123,-2.10925 -5.38468,-2.1751 -1.74548,-0.0796 -3.69221,0.45653 -4.1402,1.14026 -0.16507,0.25193 -0.23321,0.51765 -0.15142,0.59049 0.0818,0.0728 1.25762,0.70545 2.61294,1.40582 3.75824,1.94206 4.69928,2.10411 7.23716,1.24625 z m 23.98889,-0.0888 c 1.53658,-0.17095 3.88137,-0.74123 4.6374,-1.12787 0.94382,-0.48268 2.06924,-1.691 2.58029,-2.77036 0.50267,-1.06167 0.93143,-3.61102 0.73736,-4.38427 l -0.12946,-0.51583 -0.70935,0.82988 c -0.82741,0.96798 -2.36008,2.09573 -4.15774,3.05927 -1.74957,0.93778 -2.62289,1.71276 -3.70815,3.29062 -0.96621,1.40476 -1.15843,1.97203 -0.61736,1.82193 0.16977,-0.0471 0.78493,-0.13861 1.36701,-0.20337 z M 42.284605,193.67392 c 0.21805,-0.86719 0.40192,-1.66671 0.40859,-1.77671 0.007,-0.11 -0.44427,-0.38627 -1.0021,-0.61393 -1.56851,-0.64014 -3.30349,-0.57366 -4.84592,0.18567 -1.11522,0.54903 -3.31206,2.32101 -3.31206,2.67153 0,0.0889 0.69453,0.16284 1.5434,0.16436 0.91412,0.002 2.22662,0.15466 3.2191,0.37531 1.87525,0.41692 3.18086,0.64566 3.42787,0.60055 0.0906,-0.0165 0.34308,-0.7396 0.56112,-1.60678 z m 1.57537,1.07489 c 0.78156,-0.59612 2.90164,-1.6818 4.45357,-2.28064 0.70767,-0.27308 1.75138,-0.80681 2.31935,-1.18609 0.98464,-0.65752 3.00855,-2.88122 3.00855,-3.30555 0,-0.1358 -0.52839,-0.20052 -1.6316,-0.19983 -4.83854,0.003 -7.01575,1.22847 -8.30298,4.67329 -0.49477,1.32409 -0.78132,2.73403 -0.55566,2.73403 0.076,0 0.39495,-0.19585 0.70877,-0.43521 z m 52.09969,0.14838 c 0.0402,-0.0358 -0.0654,-0.64077 -0.23462,-1.34435 -0.60759,-2.52606 -1.65446,-3.95414 -3.89541,-5.3139 -1.36704,-0.8295 -1.85208,-1.05041 -1.85208,-0.84353 0,0.35241 1.45601,6.30549 1.57178,6.42645 0.0722,0.0754 0.68014,0.39928 1.35097,0.71966 1.01697,0.48568 1.36649,0.56906 2.10298,0.50164 0.48581,-0.0445 0.91618,-0.11016 0.95638,-0.14597 z m 41.025535,0.10191 c 1.1983,-0.31072 2.07691,-0.74026 3.0868,-1.50911 1.35515,-1.0317 2.06434,-1.80246 1.7478,-1.89955 -0.2729,-0.0837 -3.97598,-0.46078 -5.82756,-0.5934 -1.35404,-0.097 -2.79321,0.2549 -3.9228,0.95917 -1.08582,0.67699 -2.97621,2.37541 -2.8121,2.52654 0.0787,0.0725 1.33376,0.22841 2.78897,0.34648 1.45521,0.11807 2.67891,0.2462 2.71933,0.28473 0.14351,0.1368 1.52467,0.0653 2.21956,-0.11486 z m -15.9632,-0.71707 c 0.33955,-0.0887 0.95133,-0.3387 1.35952,-0.55565 0.86787,-0.46126 2.87382,-2.0052 2.87382,-2.21191 0,-0.20563 -5.53758,-1.09652 -6.80365,-1.09459 -1.29211,0.002 -2.50653,0.38465 -3.69149,1.16322 -1.02099,0.67084 -2.38125,1.80731 -2.38125,1.98949 0,0.0687 1.40891,0.30857 3.1309,0.53297 1.722,0.2244 3.21028,0.43228 3.30729,0.46195 0.23352,0.0714 1.43265,-0.0838 2.20486,-0.28548 z m 36.5125,-0.24103 c 0.14553,-0.12064 0.83908,-0.4486 1.54123,-0.72879 0.70216,-0.28019 1.27763,-0.56081 1.27882,-0.6236 0.004,-0.18495 -3.26956,-2.25014 -4.35056,-2.74504 -1.38242,-0.6329 -2.93845,-0.71871 -4.6431,-0.25607 -1.60394,0.4353 -2.46944,0.76622 -2.46944,0.94417 0,0.073 0.45641,0.36236 1.01424,0.64293 0.55783,0.28057 1.78379,0.94924 2.72436,1.48594 2.86179,1.63296 4.09188,1.95411 4.90445,1.28046 z m 16.15999,-0.70042 c 1.29772,-0.65052 3.33313,-2.18748 3.2824,-2.47858 -0.0169,-0.0968 -0.68751,-0.23569 -1.49034,-0.30876 -0.80282,-0.0731 -2.10087,-0.25167 -2.88454,-0.39687 -1.89511,-0.35115 -4.02138,-0.33927 -5.11421,0.0286 -1.041,0.3504 -3.44978,1.84097 -3.36903,2.08478 0.14294,0.43162 5.21903,1.65304 6.92988,1.66749 1.29267,0.0109 1.54929,-0.0469 2.64584,-0.59663 z m -83.986695,-2.46249 c -0.71889,-3.07981 -1.0955,-3.92137 -2.29259,-5.12289 -0.78608,-0.78898 -3.70524,-2.53045 -3.90569,-2.32999 -0.0384,0.0384 0.1664,0.8941 0.45519,1.90149 0.28879,1.00739 0.68531,2.45046 0.88115,3.20681 0.81199,3.13592 2.37588,4.83702 4.69073,5.10226 0.29104,0.0333 0.58638,0.0167 0.6563,-0.0371 0.0699,-0.0537 -0.14836,-1.27801 -0.48509,-2.72061 z m 39.677585,1.91632 c 0.57378,-0.52942 0.99853,-1.00729 0.94389,-1.06193 -0.0986,-0.0986 -1.95741,0.78113 -2.75547,1.30404 -0.39328,0.25769 -0.39867,0.28517 -0.0988,0.50446 0.51942,0.37981 0.81465,0.26443 1.91035,-0.74657 z m -64.665315,0.36113 c 0.50275,-0.24253 0.98917,-0.44097 1.08094,-0.44097 0.48336,0 0.2625,-0.51337 -0.89109,-2.0713 -1.53302,-2.07033 -2.03457,-2.5408 -3.42991,-3.21735 -0.78195,-0.37915 -1.44517,-0.54856 -2.46944,-0.63081 -1.33104,-0.10687 -2.37988,0.0719 -2.36392,0.40294 0.004,0.0752 0.44887,0.61291 0.98944,1.19499 0.54057,0.58209 1.49804,1.6682 2.12771,2.41358 1.0961,1.29753 1.80686,1.89744 2.96168,2.49977 0.72014,0.37561 0.93736,0.35918 1.99459,-0.15085 z m 61.642895,-0.46634 c 1.16261,-0.92282 3.38617,-2.00854 4.68514,-2.28766 0.66462,-0.14282 1.26019,-0.42585 1.78213,-0.84691 0.43115,-0.34783 1.16246,-0.87054 1.62513,-1.16159 0.46267,-0.29104 1.27852,-0.87449 1.813,-1.29655 0.53448,-0.42206 1.41027,-0.9456 1.9462,-1.16342 0.68321,-0.27767 1.12489,-0.60374 1.47788,-1.09102 0.27689,-0.38224 0.75947,-0.91042 1.0724,-1.17373 0.63839,-0.53718 0.61006,-0.54945 -0.69652,-0.30166 -0.74165,0.14065 -1.09443,0.33548 -1.7146,0.9469 -0.90726,0.89448 -3.30759,2.28445 -4.45533,2.57997 -0.55368,0.14256 -1.08716,0.48373 -1.76389,1.12805 -0.53357,0.50802 -1.2678,1.14081 -1.63161,1.40621 -0.81788,0.59663 -2.66249,1.52289 -3.0328,1.52289 -0.15096,0 -0.41338,0.15018 -0.58315,0.33373 -0.16978,0.18356 -0.7004,0.73918 -1.17916,1.23473 -1.08717,1.12527 -0.68105,1.23069 0.65518,0.17006 z m -73.526745,0.38252 c 0.60369,-0.22953 0.56962,-0.35713 -0.25021,-0.93707 l -0.69514,-0.49172 -0.35943,0.35943 c -0.19769,0.19769 -0.35943,0.55787 -0.35943,0.80041 0,0.38478 0.0772,0.44097 0.60587,0.44097 0.33324,0 0.80949,-0.0774 1.05834,-0.17202 z m 7.33162,-0.0156 c 0,-0.25156 -2.72066,-3.39276 -3.84782,-4.44259 -0.49476,-0.46082 -1.0124,-0.83785 -1.15031,-0.83785 -0.13791,0 -0.34377,0.2246 -0.45748,0.49911 -0.1137,0.27451 -0.59446,0.96904 -1.06835,1.5434 l -0.86162,1.0443 0.3819,0.40725 c 0.61796,0.65899 2.74367,1.60011 4.00507,1.77316 1.6611,0.22789 2.99861,0.23379 2.99861,0.0132 z m 11.65032,-0.98545 c 0.51796,-0.51734 -1.75597,-3.11604 -3.30919,-3.78183 -1.28584,-0.55117 -4.63696,-1.11131 -4.63696,-0.77507 0,0.05 0.4564,0.67836 1.01423,1.39642 0.55783,0.71805 1.3374,1.76857 1.73237,2.33448 l 0.71814,1.02893 h 2.13912 c 1.37728,0 2.21148,-0.0723 2.34229,-0.20293 z m 11.02593,0.13137 c -0.15361,-0.24854 -3.05526,-1.25136 -3.62082,-1.25136 h -0.50529 l 0.38222,0.7041 0.38222,0.7041 1.7302,0.001 c 0.98883,8.8e-4 1.6879,-0.067 1.63147,-0.1583 z m 2.28278,-0.0166 c -0.06,-0.097 -0.18371,-0.17639 -0.275,-0.17639 -0.0913,0 -0.16598,0.0794 -0.16598,0.17639 0,0.097 0.12375,0.17638 0.275,0.17638 0.15124,0 0.22593,-0.0794 0.16598,-0.17638 z m 77.798595,-0.36727 c 0.28494,-0.29901 0.97448,-0.82623 1.53231,-1.1716 0.55783,-0.34537 1.01423,-0.68454 1.01423,-0.75371 0,-0.20931 -1.97825,-1.5098 -2.76075,-1.81488 -1.11841,-0.43606 -2.37651,-0.54166 -3.70649,-0.31112 -1.41333,0.24499 -2.88137,0.69802 -2.88137,0.88918 0,0.0738 0.69453,0.53651 1.54341,1.02827 0.84887,0.49175 2.13871,1.29433 2.86632,1.7835 0.7276,0.48917 1.44697,0.89044 1.59859,0.89171 0.15163,0.001 0.50881,-0.24234 0.79375,-0.54135 z m -84.942345,0.0503 c 0,-0.25028 -1.301,-1.3891 -2.11667,-1.85282 -0.7751,-0.44065 -3.30985,-1.18159 -4.04224,-1.18159 -0.20211,0 -0.36748,0.0712 -0.36748,0.15822 0,0.087 0.40961,0.75844 0.91025,1.49205 l 0.91025,1.33383 0.72135,-0.0897 c 0.39674,-0.0493 1.31665,-0.0166 2.04426,0.0726 1.82064,0.22326 1.94028,0.22742 1.94028,0.0674 z m -33.90241,-2.24553 c 0.50472,-0.63327 0.91768,-1.23556 0.91768,-1.33842 0,-0.3553 -2.54765,0.30124 -3.91725,1.00948 -0.67294,0.348 -0.6204,0.50444 0.25718,0.76585 0.41231,0.12282 0.9481,0.33064 1.19063,0.46183 0.24253,0.13119 0.48442,0.24171 0.53752,0.24559 0.0531,0.004 0.50951,-0.51106 1.01424,-1.14433 z m 40.25241,1.06817 c 0,-0.12428 -1.04644,-4.11739 -1.3187,-5.03205 -0.68506,-2.30145 -1.75586,-3.57009 -3.86141,-4.57483 -1.36408,-0.65093 -2.75739,-1.06447 -2.75739,-0.81841 0,0.0627 0.34743,0.84548 0.77206,1.73942 0.42464,0.89394 0.9413,2.12384 1.14813,2.7331 0.60061,1.76921 1.0375,2.57316 1.92391,3.54035 1.01134,1.10349 4.0934,2.91988 4.0934,2.41242 z m 58.404745,-0.2684 c 1.26525,-0.23336 2.14121,-0.62439 3.44221,-1.53661 1.10849,-0.77724 1.58847,-1.23375 1.44648,-1.37574 -0.19504,-0.19504 -5.6256,-1.14573 -6.54472,-1.14574 -1.83801,-2e-5 -3.45236,0.76855 -5.39405,2.56804 l -0.96286,0.89236 3.2468,0.36388 c 1.78575,0.20014 3.37489,0.37404 3.53142,0.38646 0.15653,0.0124 0.71216,-0.0563 1.23472,-0.15265 z m -15.56447,-0.45187 c 1.03496,-0.30735 3.25606,-1.59491 3.85969,-2.23744 l 0.39504,-0.42051 -3.30688,-0.65131 c -1.81878,-0.35822 -3.545,-0.65002 -3.83604,-0.64844 -0.81276,0.004 -2.28546,0.44416 -3.20074,0.95572 -1.04705,0.58521 -2.68899,1.89222 -2.69994,2.1492 -0.005,0.10769 0.40837,0.24332 0.91769,0.30138 1.48562,0.16937 4.62201,0.67054 4.70298,0.7515 0.18359,0.1836 2.33338,0.0478 3.1682,-0.2001 z m -46.897225,-0.0269 c 0,-0.0687 -0.29392,-0.42585 -0.65316,-0.79375 -0.44446,-0.45517 -0.80882,-0.66889 -1.14036,-0.66889 -0.9564,0 -3.89749,-1.20145 -5.00042,-2.0427 -0.49301,-0.37604 -0.83181,-0.46824 -1.92293,-0.52331 -1.44398,-0.0729 -3.09283,-0.43596 -4.33591,-0.95478 -0.73254,-0.30574 -0.86855,-0.31138 -1.76388,-0.0731 -0.53576,0.14257 -1.96082,0.27941 -3.18267,0.30561 -2.09388,0.0449 -2.63817,0.13633 -2.63817,0.44314 0,0.0729 0.41672,0.23752 0.92604,0.36571 0.50933,0.12819 1.14641,0.34475 1.41574,0.48124 0.38642,0.19583 0.70263,0.21021 1.49931,0.0682 1.60966,-0.28695 4.94352,0.33309 6.08324,1.13138 0.2785,0.19507 0.61323,0.2409 1.19546,0.16366 1.46475,-0.1943 5.02778,0.72135 6.10231,1.56822 0.35933,0.28319 0.83328,0.41803 1.73444,0.49345 0.68199,0.0571 1.33921,0.1166 1.46048,0.13229 0.12126,0.0157 0.22048,-0.0277 0.22048,-0.0963 z m 69.320835,-0.7978 c 0.43657,-0.15983 1.1311,-0.37786 1.54341,-0.48452 0.41231,-0.10665 0.74965,-0.25944 0.74965,-0.33952 0,-0.29265 -1.35647,-1.07549 -1.86156,-1.07434 -0.40186,8.8e-4 -0.75386,0.24088 -1.55246,1.05834 -0.56802,0.58143 -1.10381,1.05714 -1.19063,1.05714 -0.0868,0 -0.15785,0.11324 -0.15785,0.25165 0,0.38087 0.55336,0.43424 1.14653,0.11058 0.29104,-0.15881 0.88635,-0.41951 1.32291,-0.57933 z m 27.95764,0.33011 c 1.42653,-0.38106 2.2755,-0.9108 3.3337,-2.08015 0.96689,-1.06844 2.02549,-2.87483 1.81064,-3.08967 -0.0584,-0.0584 -0.29705,0.0188 -0.53026,0.17158 -0.73257,0.47999 -2.49933,0.83227 -5.01109,0.99916 -3.18096,0.21135 -3.76993,0.40037 -5.6884,1.82564 -1.59128,1.18218 -1.79841,1.52613 -0.92604,1.5377 0.26678,0.004 1.55663,0.19339 2.86631,0.42188 2.88411,0.50318 3.03325,0.51087 4.14514,0.21386 z m -10.02713,-0.37577 c 0.68923,-0.20468 1.05144,-0.46038 1.63866,-1.15678 0.41461,-0.49171 0.71893,-0.92894 0.67625,-0.97161 -0.0427,-0.0427 -0.62241,-0.21205 -1.28829,-0.37637 -1.13917,-0.28112 -1.31515,-0.28094 -2.97871,0.003 -0.97241,0.16593 -1.83917,0.37284 -1.92613,0.4598 -0.0932,0.0932 0.15789,0.35673 0.61182,0.64205 0.42346,0.26616 1.11868,0.74917 1.54494,1.07334 0.42626,0.32417 0.78889,0.5894 0.80583,0.5894 0.017,0 0.42898,-0.11824 0.91563,-0.26276 z m -12.33574,-1.17215 c 0.33512,-0.20712 1.04328,-0.51085 1.57369,-0.67496 0.5304,-0.16411 0.96494,-0.35587 0.96564,-0.42614 0.002,-0.21473 -1.31257,-1.71434 -1.81926,-2.07513 l -0.4768,-0.33952 -0.84645,0.60289 c -0.46555,0.33158 -1.26317,0.8188 -1.77249,1.0827 -0.50932,0.2639 -0.92604,0.53603 -0.92604,0.60472 0,0.0687 0.21828,0.32602 0.48507,0.57183 1.22788,1.13132 1.82099,1.26895 2.81664,0.65361 z M 48.173385,187.12308 c 0.63059,-0.14123 2.45622,-0.32021 4.05695,-0.39771 1.60073,-0.0775 3.17838,-0.24131 3.50589,-0.36402 1.18029,-0.44221 3.0205,-1.4071 3.0205,-1.58376 0,-0.20427 -2.06623,-1.19776 -3.52778,-1.69623 -0.66491,-0.22678 -1.4696,-0.33117 -2.55764,-0.33179 -1.42447,-8.8e-4 -1.68274,0.0519 -2.51491,0.51294 -1.11821,0.61956 -2.59933,2.08881 -3.26039,3.23425 -0.56457,0.97827 -0.60148,1.18824 -0.17782,1.01173 0.16977,-0.0707 0.82461,-0.24417 1.4552,-0.38541 z m 29.43009,-1.33399 c -1.8438,-5.05725 -3.01817,-6.47443 -6.01115,-7.254 -1.11239,-0.28975 -2.71002,-0.41456 -2.89815,-0.22643 -0.0687,0.0687 0.15675,0.42115 0.50105,0.78317 0.6962,0.73203 1.6599,2.14077 2.75043,4.02058 0.39746,0.68513 1.09265,1.58674 1.54486,2.00357 1.00747,0.92865 4.07356,2.40999 4.52354,2.18548 0.0655,-0.0327 -0.11924,-0.71326 -0.41058,-1.51237 z m 85.079675,0.55852 c 0.3697,-0.18861 0.67219,-0.45215 0.67219,-0.58565 0,-0.36817 -1.19313,-1.33808 -2.22996,-1.81276 l -0.92314,-0.42263 -1.51292,0.39681 c -0.83211,0.21824 -1.49188,0.4503 -1.46616,0.51569 0.0257,0.0654 0.45671,0.58614 0.95777,1.15723 l 0.911,1.03835 1.45951,0.0279 c 1.13738,0.0218 1.60788,-0.0477 2.13171,-0.31498 z m -12.76931,-0.1664 c 0.69699,-0.16077 1.88345,-0.67902 3.35572,-1.4658 0.45433,-0.2428 0.54216,-0.36554 0.39148,-0.54709 -0.10684,-0.12874 -0.37042,-0.27488 -0.58574,-0.32475 -0.21532,-0.0499 -1.34399,-0.42925 -2.50816,-0.84304 -1.90793,-0.67816 -2.28191,-0.75332 -3.79236,-0.76218 -1.54896,-0.009 -1.76056,0.0333 -2.79786,0.55974 -1.14003,0.57862 -2.31818,1.41432 -2.90731,2.06224 -0.31821,0.34996 -0.31628,0.35888 0.0882,0.40838 0.94029,0.11507 3.66611,0.58637 4.73504,0.81869 1.36641,0.29698 2.97728,0.33456 4.021,0.0938 z m -16.26156,-0.25318 c 1.13343,-0.3366 3.6857,-1.86644 3.6857,-2.20923 0,-0.14852 -0.19344,-0.29108 -0.44098,-0.32498 -0.24253,-0.0332 -1.5919,-0.37002 -2.99861,-0.74845 -2.75539,-0.74125 -3.79262,-0.82705 -5.26383,-0.43546 -1.42558,0.37945 -4.42301,2.33905 -4.17979,2.73258 0.0461,0.0747 0.62217,0.19063 1.28007,0.25774 0.65791,0.0671 1.98994,0.30792 2.96008,0.53514 2.08182,0.48759 3.74638,0.55228 4.95736,0.19266 z m 38.49004,-0.72669 c 1.70757,-0.16278 2.78328,-0.94829 1.31128,-0.95753 -1.01648,-0.006 -3.94992,-0.845 -4.74426,-1.3563 -0.31151,-0.20051 -0.59133,-0.20668 -1.57817,-0.0348 -0.73049,0.12721 -2.04807,0.17224 -3.36962,0.11517 -1.19356,-0.0516 -2.1701,-0.0703 -2.1701,-0.0416 0,0.2411 1.56873,0.88478 2.59887,1.06638 0.70177,0.12371 1.77333,0.47971 2.38125,0.79112 1.54518,0.79152 2.84915,1.05818 3.71866,0.76045 0.3702,-0.12676 1.20364,-0.28105 1.85209,-0.34287 z m -6.76171,0.28652 c 0.0582,-0.0942 -0.0996,-0.22277 -0.35058,-0.28577 -0.50338,-0.12634 -0.71423,-0.0205 -0.53542,0.26886 0.14531,0.23511 0.74408,0.24654 0.886,0.0169 z m -93.698165,-0.64247 c 0.0595,-0.0595 -0.035,-0.31744 -0.20987,-0.57326 -0.1749,-0.25583 -0.74573,-1.16095 -1.2685,-2.01139 -1.69419,-2.75607 -2.71655,-3.70836 -4.57314,-4.25971 -1.57002,-0.46625 -5.04577,-0.213 -5.24302,0.382 -0.0402,0.12127 0.0193,0.22049 0.1322,0.22049 0.41826,0 2.09551,1.26881 3.80069,2.87515 2.42024,2.27996 3.11131,2.6814 5.54842,3.22308 1.13408,0.25206 1.66291,0.29395 1.81322,0.14364 z m 107.594385,-0.61234 c 1.63411,-0.21655 2.37201,-0.50182 3.21688,-1.24362 2.09077,-1.83573 2.35417,-5.64417 0.56455,-8.16289 l -0.36506,-0.51378 -0.24432,1.21934 c -0.43796,2.18578 -1.3685,3.57188 -3.23446,4.81793 -0.58763,0.3924 -1.28342,0.89436 -1.54619,1.11548 -0.63148,0.53135 -2.34454,2.77393 -2.24364,2.93718 0.0976,0.15787 2.01952,0.0732 3.85224,-0.16964 z m -114.262135,-0.3526 c 0.30528,-0.30529 -3.21913,-3.47912 -4.70541,-4.23736 -1.67059,-0.85227 -3.68686,-0.7717 -5.68545,0.2272 -1.21184,0.60567 -2.21711,1.31459 -2.21711,1.56349 0,0.0921 0.26286,0.16741 0.58414,0.16741 0.91003,0 3.23937,0.66809 4.70225,1.34867 1.22978,0.57213 2.22206,0.9525 3.09208,1.18527 0.55367,0.14814 4.03639,-0.0616 4.2295,-0.25468 z m 93.904815,-1.04287 c 0.61623,-0.19572 1.19943,-0.40469 1.29601,-0.46438 0.17304,-0.10694 -0.877,-0.82698 -3.29838,-2.26178 -2.9883,-1.77073 -4.77164,-1.89841 -7.5477,-0.54038 -1.21624,0.59497 -2.19323,1.26191 -2.04638,1.39695 0.038,0.0349 0.73991,0.23608 1.55981,0.44698 0.8199,0.2109 2.24865,0.6707 3.175,1.02179 0.92635,0.35109 2.00177,0.69877 2.38983,0.77262 1.07316,0.20425 3.22013,0.0257 4.47181,-0.3718 z m 14.1967,0.21882 c 0.11768,-0.19386 -1.4572,-3.31242 -2.29373,-4.54201 -1.16161,-1.70744 -2.70397,-2.63378 -4.73101,-2.84146 -1.12581,-0.11534 -3.35871,0.18324 -3.53784,0.47308 -0.0505,0.0817 0.14259,0.26968 0.42902,0.4178 0.28644,0.14813 1.5996,1.31575 2.91813,2.59472 1.31854,1.27897 2.65443,2.4839 2.96866,2.67763 0.58123,0.35835 3.32505,1.30604 3.8682,1.33605 0.16404,0.009 0.3344,-0.043 0.37857,-0.11581 z m 2.49816,-0.86225 c 0.38805,-0.54281 0.88963,-1.1323 1.1146,-1.30998 0.3596,-0.28399 0.39458,-0.41955 0.28935,-1.12128 -0.19486,-1.29946 -1.72685,-2.51561 -3.98874,-3.16642 -1.5143,-0.4357 -3.05051,-0.33088 -2.26505,0.15456 0.38765,0.23958 1.71557,2.40242 2.68004,4.36509 0.56016,1.13992 1.11877,2.07086 1.24136,2.06877 0.12258,-0.002 0.54038,-0.44793 0.92844,-0.99074 z m -35.45417,0.093 c 1.02702,-0.28245 3.61597,-1.58464 3.61597,-1.81877 0,-0.11008 -1.37897,-0.66284 -3.06438,-1.22837 -2.9344,-0.98462 -3.1277,-1.02556 -4.55698,-0.96512 -1.34987,0.0571 -1.63642,0.1364 -2.99675,0.82947 -2.33643,1.1904 -2.95177,1.95603 -1.57924,1.96497 0.22795,0.001 1.18045,0.21034 2.11666,0.46412 3.08139,0.83525 3.45496,0.91051 4.61264,0.92921 0.63059,0.0102 1.46402,-0.0688 1.85208,-0.17551 z m 26.54808,-0.44411 c 0.17306,-0.17717 -1.91681,-2.47302 -3.35294,-3.6834 -1.35444,-1.14153 -2.29971,-1.53865 -3.89107,-1.63468 -1.08779,-0.0657 -1.46146,-0.0161 -2.02847,0.26908 -0.38228,0.19225 -1.11201,0.44767 -1.62163,0.56761 -1.10896,0.26097 -1.29689,0.4743 -0.62743,0.71218 0.27262,0.0969 0.61474,0.24288 0.76026,0.32445 0.14553,0.0816 0.74084,0.41109 1.32292,0.73226 0.58208,0.32117 1.49934,0.8819 2.03835,1.24606 1.95328,1.31965 3.4849,1.7725 5.69259,1.68313 0.85653,-0.0347 1.62487,-0.13219 1.70742,-0.21669 z m -20.96162,-0.88654 c 0.17741,-0.16055 0.32257,-0.35899 0.32257,-0.44097 0,-0.31268 -0.66184,-0.13013 -1.05834,0.29192 l -0.41427,0.44097 h 0.41374 c 0.22755,0 0.55888,-0.13136 0.7363,-0.29192 z m 33.32015,-1.74467 c 1.22608,-0.77399 2.40852,-2.83726 2.44291,-4.26269 0.0423,-1.75474 -1.53536,-3.91351 -3.5765,-4.89375 -1.18426,-0.56873 -2.89238,-1.08043 -3.05702,-0.91579 -0.0407,0.0407 0.23842,0.55735 0.62025,1.14812 1.03197,1.59666 1.54902,3.06105 1.8782,5.31947 0.43815,3.00606 0.65136,4.05373 0.82496,4.05373 0.0857,0 0.47593,-0.20209 0.8672,-0.44909 z m -30.36458,-0.58228 c 0.72055,-0.29868 1.42917,-0.66215 1.57472,-0.8077 0.23525,-0.23525 0.22688,-0.27794 -0.0754,-0.38454 -0.18699,-0.0659 -1.41155,-0.59179 -2.72124,-1.16853 -4.07646,-1.79512 -5.36264,-1.86317 -8.24141,-0.43606 -0.60372,0.29929 -1.31809,0.72459 -1.5875,0.94511 -0.43868,0.35908 -0.45299,0.40241 -0.13706,0.41483 0.19402,0.008 1.74184,0.48735 3.43958,1.06605 3.06059,1.04324 3.10104,1.05159 4.7625,0.98304 1.36906,-0.0565 1.91543,-0.16851 2.98578,-0.6122 z m 6.41919,-2.13549 c 0.74114,-0.18954 1.52451,-0.43935 1.74083,-0.55512 0.38691,-0.20707 0.38769,-0.21453 0.0477,-0.4581 -0.67383,-0.48277 -4.41436,-2.61982 -5.19057,-2.9655 -1.10253,-0.491 -3.78325,-0.49449 -5.0328,-0.007 -1.21538,0.4746 -2.25609,1.03171 -2.32479,1.24452 -0.0316,0.0978 0.47859,0.36792 1.13369,0.6003 0.65511,0.23237 2.02454,0.81364 3.04318,1.2917 2.72556,1.27913 4.17121,1.46552 6.58275,0.84875 z m 21.2867,-0.73233 c 0,-1.32087 -1.34323,-4.62925 -2.26459,-5.57766 -1.44423,-1.48666 -3.01153,-2.04652 -5.48867,-1.96065 -0.9587,0.0332 -1.80626,0.12376 -1.88346,0.20116 -0.0772,0.0774 0.25369,0.46976 0.73532,0.87189 0.48164,0.40213 1.43133,1.32669 2.11042,2.05459 2.62968,2.81863 3.25349,3.35527 4.73199,4.07078 1.66553,0.80602 2.05899,0.87097 2.05899,0.33989 z m -13.18507,-0.89113 c 0.94248,-0.2 1.02273,-0.33962 0.42162,-0.73349 -0.22892,-0.14999 -0.52658,-0.38182 -0.66146,-0.51517 -0.54476,-0.53857 -3.64279,-2.76402 -4.30218,-3.09044 -1.29367,-0.64042 -2.67149,-0.76566 -4.36115,-0.39642 -1.66077,0.36292 -2.7826,0.77842 -2.7826,1.03059 0,0.0912 0.57547,0.44051 1.27882,0.77626 0.70335,0.33575 1.9932,1.04269 2.86632,1.57098 1.61977,0.98004 2.76015,1.47978 3.70417,1.62322 0.68865,0.10463 2.77142,-0.0395 3.83646,-0.26553 z m 7.61482,-0.47869 c 0.0523,-0.0846 -0.84993,-1.1423 -2.00487,-2.35054 -1.71277,-1.79182 -2.32181,-2.30733 -3.3037,-2.79632 -1.14383,-0.56965 -1.29173,-0.59829 -2.96771,-0.57485 -1.73897,0.0243 -3.45048,0.35188 -3.56031,0.68138 -0.031,0.0928 0.16215,0.26579 0.4291,0.38434 0.26696,0.11855 1.31881,0.85489 2.33746,1.6363 3.78961,2.90704 4.31004,3.13898 7.08924,3.1595 1.03717,0.008 1.92853,-0.0553 1.98079,-0.13981 z"
       id="path1955"
       inkscape:connector-curvature="0" />
  </g>
</svg>
