<?xml version="1.0" encoding="UTF-8" standalone="no"?>
<!-- Created with Inkscape (http://www.inkscape.org/) -->

<svg
   xmlns:dc="http://purl.org/dc/elements/1.1/"
   xmlns:cc="http://creativecommons.org/ns#"
   xmlns:rdf="http://www.w3.org/1999/02/22-rdf-syntax-ns#"
   xmlns:svg="http://www.w3.org/2000/svg"
   xmlns="http://www.w3.org/2000/svg"
   xmlns:sodipodi="http://sodipodi.sourceforge.net/DTD/sodipodi-0.dtd"
   xmlns:inkscape="http://www.inkscape.org/namespaces/inkscape"
   width="93.985664mm"
   height="56.289505mm"
   viewBox="0 0 93.985664 56.289505"
   version="1.1"
   id="svg8"
   inkscape:version="0.92.2 5c3e80d, 2017-08-06"
   sodipodi:docname="rush.svg">
  <defs
     id="defs2" />
  <sodipodi:namedview
     id="base"
     pagecolor="#ffffff"
     bordercolor="#666666"
     borderopacity="1.0"
     inkscape:pageopacity="0.0"
     inkscape:pageshadow="2"
     inkscape:zoom="0.53094837"
     inkscape:cx="335.06284"
     inkscape:cy="305.16683"
     inkscape:document-units="mm"
     inkscape:current-layer="layer1"
     showgrid="false"
     fit-margin-top="0"
     fit-margin-left="0"
     fit-margin-right="0"
     fit-margin-bottom="0"
     inkscape:window-width="1440"
     inkscape:window-height="809"
     inkscape:window-x="0"
     inkscape:window-y="1"
     inkscape:window-maximized="1" />
  <metadata
     id="metadata5">
    <rdf:RDF>
      <cc:Work
         rdf:about="">
        <dc:format>image/svg+xml</dc:format>
        <dc:type
           rdf:resource="http://purl.org/dc/dcmitype/StillImage" />
        <dc:title></dc:title>
      </cc:Work>
    </rdf:RDF>
  </metadata>
  <g
     inkscape:label="Layer 1"
     inkscape:groupmode="layer"
     id="layer1"
     transform="translate(-16.347956,-13.489466)">
    <path
       style="fill:#000000;stroke-width:0.17638889"
       d="m 25.578746,69.679791 c 0,-0.62213 -1.03521,-3.47616 -1.45362,-4.00758 l -0.52524,-0.66711 0.35933,-0.8322 c 1.2619,-2.92251 1.4269,-3.16966 3.055865,-4.57751 l 1.58026,-1.36575 4.21254,-1.17503 c 2.31689,-0.64626 4.31706,-1.23861 4.44482,-1.31633 0.79313,-0.48249 5.96576,-4.7196 5.96949,-4.88986 0.0388,-1.77287 0.46502,-3.94048 1.30668,-6.64592 0.52817,-1.69774 0.96515,-2.99031 0.97106,-2.87238 0.006,0.11794 -0.19002,1.53733 -0.43543,3.1542 -0.39535,2.60478 -0.42386,3.10291 -0.25018,4.37139 0.10781,0.7874 0.23159,1.46719 0.27505,1.51066 0.0705,0.0705 8.68577,-0.17854 16.14839,-0.46677 l 2.76247,-0.10669 -0.0797,-1.33999 -0.0797,-1.34 0.58906,1.41111 0.58905,1.41111 3.64465,2.64584 c 2.00456,1.4552 3.7292,2.73129 3.832538,2.83575 0.133519,0.13496 -0.456302,0.79479 -2.038366,2.28029 l -2.226252,2.09038 -2.05589,-2.14112 -2.05589,-2.14113 -1.67569,0.25486 c -0.92164,0.14016 -1.92654,0.29808 -2.23312,0.35091 l -0.55743,0.0961 1.14373,1.67502 1.14373,1.67502 0.84276,-0.1118 0.84277,-0.11179 1.38114,2.04772 c 0.75963,1.12625 1.43449,2.04773 1.49969,2.04773 0.2642,0 11.734377,-3.74401 11.870517,-3.87469 0.08084,-0.0776 0.45232,-1.35444 0.825508,-2.83743 l 0.678518,-2.69635 -1.585822,-2.91205 -1.585825,-2.91204 0.706838,-2.83476 c 0.48263,-1.93558 0.77127,-3.59009 0.909962,-5.21601 0.182739,-2.14229 0.335963,-3.10102 0.35003,-2.19016 0.0029,0.18594 0.119727,1.44932 0.25968,2.80752 0.244797,2.37569 0.239915,2.54456 -0.128616,4.44802 -0.21069,1.08821 -0.347389,2.01267 -0.303777,2.05435 0.04361,0.0417 1.245672,-0.0549 2.671242,-0.21468 l 2.591946,-0.29047 3.178177,-2.68993 c 3.530122,-2.98781 3.156278,-2.82095 5.749043,-2.56602 l 1.234722,0.12139 -1.675694,0.3122 -1.675695,0.3122 -2.833322,2.87244 c -2.696623,2.73386 -2.897861,2.98733 -4.171004,5.25369 -1.009774,1.79753 -1.365107,2.6071 -1.449557,3.30257 -0.121493,1.00053 -0.116062,1.00602 1.133745,1.14597 0.421361,0.0472 0.440972,0.10171 0.440972,1.22594 0,1.1323 0.02985,1.21325 0.79375,2.1522 0.436562,0.5366 0.87452,0.97949 0.973238,0.98421 0.09872,0.005 1.408405,-0.49495 2.910416,-1.11036 l 2.730929,-1.11891 2.07552,0.25845 2.075521,0.25846 0.658507,-0.44341 c 0.362179,-0.24388 1.102594,-0.76503 1.64537,-1.15812 l 0.986862,-0.71471 4.481188,2.12175 c 2.46466,1.16695 4.67963,2.19982 4.92217,2.29527 l 0.44097,0.17353 -0.45742,-0.49718 c -1.17794,-1.28032 -6.88973,-8.02454 -6.83565,-8.07123 0.0336,-0.029 1.80738,1.06973 3.94168,2.44169 2.13431,1.37197 4.19806,2.68517 4.58611,2.91823 l 0.70556,0.42375 -0.36915,-0.42773 c -1.50981,-1.74937 -5.70404,-6.86232 -5.92162,-7.2187 -0.14807,-0.24253 -1.40864,-4.16237 -2.80126,-8.71074 l -2.532029,-8.26977 -10.136893,-8.83995 c -5.575291,-4.86198 -10.22269,-8.8164 -10.327553,-8.78761 -0.104863,0.0288 -5.350035,2.14581 -11.655944,4.70446 -6.3059,2.55866 -15.35465,6.0946 -20.10833,7.85764 -4.75368,1.76303 -8.92087,3.32112 -9.26041,3.4624 -0.33955,0.14129 -2.49834,1.29129 -4.7973,2.55557 l -4.17994,2.29869 -2.943485,0.67987 -2.94348,0.67987 -1.47554,-1.24254 c -0.81155,-0.6834 -1.47554,-1.35924 -1.47554,-1.50187 0,-0.14263 0.32364,-1.37945 0.71919,-2.74849 l 0.71919,-2.48917 2.56072,-2.79438 c 1.4084,-1.53691 2.52044,-2.89107 2.4712,-3.00925 -0.0768,-0.18435 -7.31984,-8.24167 -8.5069,-9.46327 -0.40979,-0.42171 -0.40647,-0.39039 0.19638,1.85208 0.33727,1.25457 0.73674,2.75729 0.8877,3.33938 l 0.27449,1.05833 2.02718,1.4993 c 1.11496,0.82462 2.10039,1.58614 2.18985,1.69226 0.10811,0.12825 -0.56143,0.9936 -1.99685,2.58082 l -2.15951,2.38788 -1.21991,3.58921 -1.21992,3.58921 2.54283,2.43535 2.54283,2.43536 3.48368,-0.12021 c 2.305895,-0.0796 3.483685,-0.06 3.483685,0.0579 0,0.0979 -0.32616,1.04209 -0.72481,2.09815 -0.72466,1.9197 -0.72483,1.92074 -0.82011,5.0069 l -0.0953,3.08681 -1.879565,2.07383 -1.87956,2.07383 -1.61838,4.93529 c -1.33938,4.08447 -1.58857,5.01369 -1.44547,5.39008 0.0951,0.25014 0.17291,1.4815 0.17291,2.73637 v 2.28157 h 2.73403 c 1.50372,0 2.73403,-0.0446 2.73403,-0.0991 z"
       id="path912"
       inkscape:connector-curvature="0" />
  </g>
</svg>
