<?xml version="1.0" encoding="UTF-8" standalone="no"?>
<svg
   xmlns:dc="http://purl.org/dc/elements/1.1/"
   xmlns:cc="http://creativecommons.org/ns#"
   xmlns:rdf="http://www.w3.org/1999/02/22-rdf-syntax-ns#"
   xmlns:svg="http://www.w3.org/2000/svg"
   xmlns="http://www.w3.org/2000/svg"
   xmlns:sodipodi="http://sodipodi.sourceforge.net/DTD/sodipodi-0.dtd"
   xmlns:inkscape="http://www.inkscape.org/namespaces/inkscape"
   version="1.1"
   width="24.998772mm"
   height="25.000767mm"
   viewBox="0 0 94.483638 94.491084"
   preserveAspectRatio="none"
   id="svg2"
   sodipodi:docname="sack.svg"
   inkscape:version="1.0.2-2 (e86c870879, 2021-01-15)">
  <path
     style="color:#000000;font-style:normal;font-variant:normal;font-weight:normal;font-stretch:normal;font-size:medium;line-height:normal;font-family:sans-serif;font-variant-ligatures:normal;font-variant-position:normal;font-variant-caps:normal;font-variant-numeric:normal;font-variant-alternates:normal;font-variant-east-asian:normal;font-feature-settings:normal;font-variation-settings:normal;text-indent:0;text-align:start;text-decoration:none;text-decoration-line:none;text-decoration-style:solid;text-decoration-color:#000000;letter-spacing:normal;word-spacing:normal;text-transform:none;writing-mode:lr-tb;direction:ltr;text-orientation:mixed;dominant-baseline:auto;baseline-shift:baseline;text-anchor:start;white-space:normal;shape-padding:0;shape-margin:0;inline-size:0;clip-rule:nonzero;display:inline;overflow:visible;visibility:visible;opacity:1;isolation:auto;mix-blend-mode:normal;color-interpolation:sRGB;color-interpolation-filters:linearRGB;solid-color:#000000;solid-opacity:1;vector-effect:none;fill:#000000;fill-opacity:1;fill-rule:nonzero;stroke:none;stroke-width:5.7414;stroke-linecap:butt;stroke-linejoin:miter;stroke-miterlimit:4;stroke-dasharray:none;stroke-dashoffset:0;stroke-opacity:1;color-rendering:auto;image-rendering:auto;shape-rendering:auto;text-rendering:auto;enable-background:accumulate;stop-color:#000000;stop-opacity:1"
     d="M 7.922012,88.726491 C 7.6277911,88.598508 7.2582919,88.29727 7.1009053,88.057067 c -0.5857549,-0.89398 -0.038477,-1.898466 2.492338,-4.574434 4.3259077,-4.574049 6.5294397,-7.770092 7.6853417,-11.146988 0.594475,-1.73672 0.679283,-2.352991 0.865848,-6.291878 0.353305,-7.459215 0.871314,-12.309931 1.798429,-16.84051 2.020168,-9.87213 6.496981,-17.90257 13.403601,-24.043155 l 1.814296,-1.613075 -0.418496,-0.49736 c -0.38593,-0.45865 -0.418501,-0.631414 -0.418501,-2.22011 0,-1.149439 0.07012,-1.795398 0.210647,-1.941035 0.169704,-0.175868 0.128939,-0.272473 -0.209801,-0.497114 -3.637386,-2.412285 -6.828452,-5.613491 -7.877322,-7.902364 -0.88314,-1.9272194 -0.486402,-3.3002463 1.203308,-4.1643933 0.893332,-0.4568676 1.154261,-0.5052388 3.069355,-0.5689964 2.211778,-0.073609 4.351078,0.1295924 6.950506,0.6602675 0.867512,0.1771092 1.597662,0.3220095 1.62256,0.3220095 0.02488,0 0.137311,-0.2221985 0.249796,-0.4937855 0.303327,-0.7322978 2.146676,-2.4143212 3.206619,-2.9259868 1.613136,-0.7787007 2.880527,-1.0097669 5.051055,-0.9208749 1.535109,0.062842 2.185258,0.1701783 3.101497,0.5119485 1.596564,0.5955444 2.894959,1.5356883 3.774912,2.7333508 0.408585,0.5561003 0.754997,1.0240609 0.769818,1.0399043 0.01473,0.015831 0.70909,-0.1100315 1.542825,-0.2797292 2.54224,-0.5174445 4.696211,-0.7202033 6.863278,-0.6460488 1.772833,0.060686 2.201354,0.1324947 3.009285,0.5043574 2.192902,1.0093358 2.360651,2.8286617 0.517534,5.6129999 -1.058853,1.599564 -2.920712,3.420024 -5.338189,5.219501 -1.110664,0.826739 -2.03971,1.515648 -2.064536,1.530912 -0.0248,0.01524 0.06953,0.247565 0.209601,0.516226 0.298226,0.57185 0.344673,2.509625 0.07709,3.215856 -0.09886,0.260914 -0.327271,0.631912 -0.507589,0.824451 l -0.327856,0.350066 1.682544,1.476344 c 4.422149,3.880191 8.194943,9.023227 10.474197,14.278303 2.698684,6.222122 4.121354,13.282024 4.698157,23.314336 0.442421,7.695029 0.45903,7.861508 0.933072,9.352479 1.112974,3.500547 3.183333,6.59836 7.48938,11.20613 2.880844,3.082704 3.392999,3.981421 2.791788,4.898984 -0.637833,0.973452 1.938977,0.915289 -40.234717,0.908123 C 14.638181,88.960613 8.3717511,88.922102 7.922012,88.726494 Z M 85.877703,87.297696 C 86.169443,87.113085 85.763666,86.589467 83.192449,83.832724 79.600197,79.981265 77.655367,77.229915 76.387797,74.206198 75.36387,71.763681 75.135872,70.535123 74.93757,66.391604 74.623522,59.829658 74.239761,55.727351 73.57425,51.818034 71.633772,40.419396 66.939175,31.895734 58.906328,25.186494 l -1.452753,-1.213373 -1.749002,0.300796 c -5.487161,0.943701 -12.535979,0.912361 -17.251962,-0.0767 l -1.179324,-0.247339 -0.92389,0.704383 c -1.517386,1.156866 -5.004844,4.630672 -6.459105,6.433825 -6.449884,7.997259 -9.341553,17.494156 -10.056728,33.028589 -0.242469,5.266848 -0.415701,6.699953 -1.032603,8.542604 -1.239646,3.70277 -3.210319,6.692725 -7.308853,11.089181 -2.6798896,2.874694 -3.0626038,3.364848 -2.7712281,3.549228 0.3229706,0.204379 76.8338551,0.204379 77.1568231,0 z M 65.667268,67.486967 c -0.168724,-0.203295 -0.137432,-0.686183 0.159912,-2.468108 0.420382,-2.519235 0.501015,-6.517696 0.17988,-8.919454 -0.609606,-4.559163 -2.361096,-9.80701 -4.549423,-13.631028 -0.926253,-1.618602 -0.951042,-2.033234 -0.137005,-2.291593 0.546979,-0.173604 1.11706,0.601206 2.487842,3.381287 3.619791,7.34127 4.866234,15.479612 3.438366,22.449937 -0.147639,0.720731 -0.34524,1.405212 -0.439108,1.521062 -0.234142,0.288977 -0.885651,0.264933 -1.140458,-0.04213 z M 30.36946,56.558642 c -0.283318,-0.20717 -0.300766,-0.393402 -0.193369,-2.064291 0.404253,-6.289317 1.90526,-13.484024 3.81119,-18.267998 1.799671,-4.517259 4.72047,-9.098319 5.800918,-9.098319 0.837969,0 1.029549,0.878802 0.333404,1.529366 -0.649673,0.607142 -2.355465,3.220663 -3.201398,4.905018 -2.154632,4.29012 -3.752019,9.773328 -4.605648,15.809355 -0.327886,2.318459 -0.686568,5.72209 -0.686872,6.517853 -1.56e-4,0.401439 -0.407924,0.896726 -0.738285,0.896726 -0.114675,0 -0.348663,-0.102475 -0.51994,-0.22771 z M 53.540492,23.032538 c 0.883905,-0.13336 2.419482,-0.413777 3.412395,-0.623155 l 1.805309,-0.380685 v -1.12954 c 0,-0.621245 -0.03461,-1.164168 -0.07698,-1.206494 -0.04234,-0.04234 -1.047088,0.03275 -2.232797,0.166874 -3.004942,0.339881 -15.47376,0.340432 -18.383924,7.43e-4 -1.140124,-0.133056 -2.106966,-0.2079 -2.14854,-0.166325 -0.08953,0.08952 -0.103497,2.378605 -0.01443,2.378605 0.03357,0 0.962532,0.182636 2.064291,0.405868 1.101766,0.223222 2.723605,0.48866 3.604087,0.589869 0.880481,0.101195 1.828365,0.215446 2.106415,0.253886 1.103935,0.15259 8.341471,-0.06002 9.864242,-0.289721 z m 1.847432,-4.678085 c 1.251212,-0.111693 2.464512,-0.299258 2.696219,-0.416832 0.231706,-0.117561 1.255423,-0.804824 2.27493,-1.527226 2.26156,-1.602512 4.872794,-4.099716 5.841283,-5.586208 0.603684,-0.9265654 0.72001,-1.2415856 0.724905,-1.9630442 0.006,-0.8360979 -0.01245,-0.8684853 -0.668222,-1.196387 C 65.671285,7.3718789 65.25187,7.3283434 63.055284,7.3324135 60.623946,7.3367923 59.652708,7.445646 56.904545,8.0209816 l -1.263849,0.2645898 -0.384197,1.3648858 c -0.704122,2.5014598 -1.881025,4.7537038 -3.289075,6.2943328 -0.832294,0.910655 -1.353929,1.117499 -1.769712,0.701722 -0.346501,-0.346508 -0.223416,-0.894095 0.316759,-1.409261 1.68587,-1.607801 3.80732,-6.3418502 3.460746,-7.7227141 -0.155649,-0.6201386 -1.649652,-2.1637896 -2.589022,-2.6750633 -2.934402,-1.5971038 -7.180897,-1.1619775 -9.45938,0.9692787 -1.02056,0.9546131 -1.431887,1.7550103 -1.282604,2.4958288 0.46235,2.2944509 1.536929,4.9469249 2.716201,6.7045889 0.758637,1.130728 0.771673,1.171932 0.501347,1.58449 -0.546601,0.834219 -1.135355,0.444041 -2.351915,-1.558625 C 40.767317,13.81271 40.0343,11.998064 39.44692,9.9281138 39.198879,9.0539989 38.97585,8.3146445 38.951291,8.2851111 38.780585,8.0797811 34.177153,7.3929308 32.385853,7.3055243 29.003967,7.1405006 27.583221,7.5782261 27.583221,8.7851964 c 0,1.4883036 2.592223,4.5629646 5.980217,7.0931936 3.104996,2.318875 2.968096,2.261373 5.89998,2.478163 1.39023,0.102801 2.868938,0.214772 3.286006,0.248829 1.51564,0.123774 10.421553,-0.05303 12.6385,-0.250929 z"
     id="path4134"
     sodipodi:nodetypes="ssssssscssscsscsscscsscscsssscsscsssssscsssssssscsscsssssssscsssssssccsssssssssscscscccsssscccsssscscscsssssssssssscssssss" />
  <sodipodi:namedview
     pagecolor="#ffffff"
     bordercolor="#666666"
     borderopacity="1"
     objecttolerance="10"
     gridtolerance="10"
     guidetolerance="10"
     inkscape:pageopacity="0"
     inkscape:pageshadow="2"
     inkscape:window-width="1440"
     inkscape:window-height="856"
     id="namedview76"
     showgrid="false"
     units="mm"
     inkscape:zoom="0.90509668"
     inkscape:cx="-61.050061"
     inkscape:cy="52.33016"
     inkscape:window-x="0"
     inkscape:window-y="0"
     inkscape:window-maximized="0"
     inkscape:current-layer="svg2"
     inkscape:document-units="mm"
     fit-margin-top="0"
     fit-margin-left="0"
     fit-margin-right="0"
     fit-margin-bottom="0"
     inkscape:document-rotation="0" />
  <defs
     id="defs_A8262DBE" />
  <metadata
     id="metadata7">
    <rdf:RDF>
      <cc:Work
         rdf:about="">
        <dc:format>image/svg+xml</dc:format>
        <dc:type
           rdf:resource="http://purl.org/dc/dcmitype/StillImage" />
        <dc:title></dc:title>
      </cc:Work>
    </rdf:RDF>
  </metadata>
  <g
     inkscape:groupmode="layer"
     id="layer1"
     inkscape:label="Top etch"
     transform="translate(-1368.5355,-767.17919)" />
  <g
     inkscape:groupmode="layer"
     id="layer4"
     inkscape:label="Top cut"
     transform="translate(-1368.5355,-767.17919)" />
  <g
     inkscape:groupmode="layer"
     id="layer2"
     inkscape:label="Middle"
     transform="translate(-1368.5355,-767.17919)" />
  <g
     inkscape:groupmode="layer"
     id="layer3"
     inkscape:label="Bottom"
     transform="translate(-1368.5355,-767.17919)" />
</svg>
