<?xml version="1.0" encoding="UTF-8" standalone="no"?>
<svg
   xmlns:dc="http://purl.org/dc/elements/1.1/"
   xmlns:cc="http://creativecommons.org/ns#"
   xmlns:rdf="http://www.w3.org/1999/02/22-rdf-syntax-ns#"
   xmlns:svg="http://www.w3.org/2000/svg"
   xmlns="http://www.w3.org/2000/svg"
   id="svg841"
   version="1.1"
   viewBox="0 0 55.1894 54.922123"
   height="54.922123mm"
   width="55.1894mm">
  <defs
     id="defs835" />
  <metadata
     id="metadata838">
    <rdf:RDF>
      <cc:Work
         rdf:about="">
        <dc:format>image/svg+xml</dc:format>
        <dc:type
           rdf:resource="http://purl.org/dc/dcmitype/StillImage" />
        <dc:title></dc:title>
      </cc:Work>
    </rdf:RDF>
  </metadata>
  <g
     transform="translate(-4.1505641,-7.4496002)"
     id="layer1">
    <path
       id="path2030"
       d="m 44.233127,45.427176 c -0.181965,0.19288 4.267929,12.31626 4.042243,12.45547 -0.225686,0.13922 -9.781046,-8.07299 -10.035073,-7.99693 -0.254027,0.0761 -5.361352,12.2119 -5.626409,12.21962 -0.265057,0.008 -3.565515,-12.46059 -3.823538,-12.52173 -0.258023,-0.0611 -8.612147,9.62759 -8.845553,9.50175 -0.233406,-0.12584 2.679545,-12.84121 2.486662,-13.02318 -0.192882,-0.18196 -12.316252,4.9361 -12.4554659,4.71042 -0.139215,-0.22569 8.3402559,-11.251029 8.2641969,-11.505059 -0.07606,-0.25402 -13.8155181,-1.08504 -13.8232381,-1.35009 -0.0077,-0.26506 12.8614931,-7.44093 12.9226381,-7.69895 0.06115,-0.25802 -9.7612299,-10.48303 -9.6353869,-10.71644 0.125842,-0.2334 13.9102919,4.95134 14.0922559,4.75846 0.181965,-0.19289 -2.129771,-13.78624 -1.904085,-13.92546 0.225685,-0.13921 8.444697,9.81024 8.698724,9.73419 0.254027,-0.0761 2.020483,-12.3455398 2.285539,-12.3532598 0.265057,-0.008 5.436402,12.0596898 5.694425,12.1208298 0.258023,0.0611 12.353921,-8.95943 12.587327,-8.83358 0.233406,0.12584 -5.753144,12.44031 -5.560262,12.62227 0.192882,0.18197 13.38533,-2.53067 13.524545,-2.30499 0.139214,0.22569 -9.409335,8.84561 -9.333276,9.09963 0.07606,0.25403 11.276458,2.02048 11.284179,2.28554 0.0077,0.26506 -10.990608,5.4364 -11.051753,5.69443 -0.06114,0.25802 9.627596,11.552109 9.501753,11.785509 -0.125842,0.23341 -13.108484,-4.95133 -13.290448,-4.75845 z"
       style="fill:none;fill-opacity:1;stroke:#000000;stroke-width:0.53299999;stroke-linejoin:round;stroke-miterlimit:4;stroke-dasharray:none;stroke-opacity:1" />
    <path
       id="path2032"
       d="m 42.982761,42.942817 c -0.19495,0.23994 -5.499558,-2.45465 -5.749965,-2.27334 -0.250407,0.1813 1.315282,6.014699 1.026482,6.125019 -0.288801,0.11032 -4.196889,-4.828319 -4.504401,-4.796509 -0.307512,0.0318 -2.134021,6.474409 -2.439288,6.425549 -0.305267,-0.0489 -0.954717,-6.887769 -1.236936,-7.013979 -0.282219,-0.12621 -5.01739,4.069679 -5.257328,3.874729 -0.239937,-0.19495 3.681684,-6.594349 3.500378,-6.844759 -0.181305,-0.25041 -7.194493,1.27615 -7.304811,0.98735 -0.110317,-0.2888 4.87557,-3.53544 4.843758,-3.84295 -0.03181,-0.30751 -6.096436,-2.13402 -6.047574,-2.43928 0.04886,-0.30527 7.712512,-0.28653 7.838719,-0.56877 0.126206,-0.28222 -4.799919,-5.59107 -4.60497,-5.831 0.19495,-0.23994 5.499558,2.45465 5.749965,2.27334 0.250408,-0.1813 -1.589266,-5.92832 -1.300466,-6.03864 0.2888,-0.11032 4.470874,4.74194 4.778385,4.71013 0.307512,-0.0318 2.46475,-5.57672 2.770017,-5.52786 0.305267,0.0489 0.718482,6.55704 1.000701,6.68325 0.282219,0.1262 4.828402,-4.16417 5.06834,-3.96922 0.239938,0.19495 -3.122826,6.16773 -2.94152,6.41814 0.181305,0.2504 8.005799,-2.9284 8.116117,-2.6396 0.110318,0.2888 -6.151239,5.14183 -6.119428,5.44934 0.03181,0.30752 6.474413,1.94504 6.42555,2.25031 -0.04886,0.30527 -6.887775,1.1437 -7.013981,1.42592 -0.126207,0.28222 3.597205,4.92289 3.402256,5.16283 z"
       style="fill:none;fill-opacity:1;stroke:#000000;stroke-width:0.87851536;stroke-linejoin:round;stroke-miterlimit:4;stroke-dasharray:none;stroke-opacity:1" />
  </g>
</svg>
