<?xml version="1.0" encoding="UTF-8" standalone="no"?>
<!-- Created with Inkscape (http://www.inkscape.org/) -->

<svg
   xmlns:dc="http://purl.org/dc/elements/1.1/"
   xmlns:cc="http://creativecommons.org/ns#"
   xmlns:rdf="http://www.w3.org/1999/02/22-rdf-syntax-ns#"
   xmlns:svg="http://www.w3.org/2000/svg"
   xmlns="http://www.w3.org/2000/svg"
   xmlns:sodipodi="http://sodipodi.sourceforge.net/DTD/sodipodi-0.dtd"
   xmlns:inkscape="http://www.inkscape.org/namespaces/inkscape"
   width="57.716434mm"
   height="107.81311mm"
   viewBox="0 0 57.716435 107.81311"
   version="1.1"
   id="svg822"
   inkscape:version="0.92.2 5c3e80d, 2017-08-06"
   sodipodi:docname="skull.svg">
  <defs
     id="defs816" />
  <sodipodi:namedview
     id="base"
     pagecolor="#ffffff"
     bordercolor="#666666"
     borderopacity="1.0"
     inkscape:pageopacity="0.0"
     inkscape:pageshadow="2"
     inkscape:zoom="0.49497475"
     inkscape:cx="3.3262158"
     inkscape:cy="3.1434955"
     inkscape:document-units="mm"
     inkscape:current-layer="layer1"
     showgrid="false"
     fit-margin-top="0"
     fit-margin-left="0"
     fit-margin-right="0"
     fit-margin-bottom="0"
     inkscape:window-width="1440"
     inkscape:window-height="813"
     inkscape:window-x="34"
     inkscape:window-y="0"
     inkscape:window-maximized="0" />
  <metadata
     id="metadata819">
    <rdf:RDF>
      <cc:Work
         rdf:about="">
        <dc:format>image/svg+xml</dc:format>
        <dc:type
           rdf:resource="http://purl.org/dc/dcmitype/StillImage" />
        <dc:title></dc:title>
      </cc:Work>
    </rdf:RDF>
  </metadata>
  <g
     inkscape:label="Layer 1"
     inkscape:groupmode="layer"
     id="layer1"
     transform="translate(-57.355927,-159.45055)">
    <path
       style="fill:#000000;stroke-width:0.17638889;stroke:none;stroke-opacity:1;fill-opacity:1"
       d="m -151.4625,387.39597 c -0.24254,-0.0796 -1.07499,-0.28075 -1.84989,-0.44712 -2.95276,-0.63402 -6.32294,-2.42779 -8.32521,-4.43109 -1.8787,-1.87967 -3.05506,-4.8511 -3.05309,-7.71197 0.002,-2.77955 0.47699,-3.71896 3.34683,-6.61811 1.39254,-1.40677 2.36582,-2.55037 2.63443,-3.09546 1.17153,-2.37743 0.43501,-4.69758 -2.88168,-9.07775 -2.05192,-2.70985 -2.76381,-3.88536 -3.27066,-5.40064 -0.99999,-2.98957 0.21324,-6.91775 3.0108,-9.74831 2.62073,-2.65166 6.009,-4.32245 10.09777,-4.9793 1.01872,-0.16365 2.76804,-0.19218 6.61459,-0.10785 5.01758,0.11 8.62065,-0.005 13.43166,-0.42779 2.48542,-0.21855 3.92767,-0.51072 5.56704,-1.12778 1.24864,-0.46999 9.76189,-4.07393 11.51089,-4.87294 0.61311,-0.28008 1.1419,-0.50925 1.17509,-0.50925 0.0829,0 8.42398,-3.61733 9.57715,-4.15339 0.51198,-0.23799 0.96805,-0.43272 1.01349,-0.43272 0.0455,0 0.68407,-0.27781 1.41917,-0.61736 0.7351,-0.33955 1.36809,-0.61736 1.40663,-0.61736 0.03855,0 0.528847,-0.21005 1.089551,-0.46678 0.560705,-0.25673 1.535401,-0.68709 2.165992,-0.95635 0.63059,-0.26925 1.146528,-0.5824 1.146528,-0.69588 0,-0.11349 -0.436563,-0.3852 -0.970139,-0.6038 -0.533577,-0.2186 -1.327327,-0.55877 -1.763889,-0.75592 -0.436563,-0.19716 -1.666873,-0.73517 -2.734023,-1.19559 -1.06716,-0.46042 -2.25778,-0.98208 -2.64584,-1.15925 -1.16752,-0.53305 -7.35022,-3.19909 -14.55208,-6.275 -3.73504,-1.59523 -7.0291,-3.00831 -7.32014,-3.14018 -1.83386,-0.83089 -4.33515,-1.24929 -9.08403,-1.51951 -1.79476,-0.10212 -4.01726,-0.22888 -4.93889,-0.28169 -0.92163,-0.0528 -3.23295,-0.0114 -5.13626,0.092 -5.61294,0.30493 -8.80164,-0.12803 -12.07232,-1.63918 -6.23641,-2.8814 -9.64253,-8.65013 -7.92273,-13.41821 0.55014,-1.52524 1.05018,-2.34035 3.23451,-5.27255 2.04301,-2.74249 2.51081,-3.5257 3.00463,-5.03047 0.82835,-2.52417 0.29846,-3.92896 -2.53835,-6.72944 -1.02534,-1.01221 -2.14851,-2.25103 -2.49591,-2.75292 -2.04783,-2.95845 -1.19817,-8.65567 1.74364,-11.69163 2.35642,-2.43183 5.2278,-3.90526 9.65918,-4.95653 1.59071,-0.37737 6.41298,-0.28885 8.64706,0.15872 5.33008,1.06784 8.09218,3.04729 12.09898,8.67072 1.07143,1.50372 2.40821,3.36903 2.97063,4.14514 0.63499,0.87626 1.88954,3.18226 3.30989,6.08393 2.58546,5.2819 3.75671,7.20118 5.33806,8.74724 1.2129,1.18583 1.81255,1.5572 4.61864,2.86041 1.05077,0.488 2.62487,1.22008 3.49799,1.62684 0.87313,0.40677 2.06375,0.96067 2.64584,1.23089 0.58208,0.27022 1.7727,0.82584 2.64583,1.23472 0.87312,0.40888 2.10344,0.97983 2.73403,1.26878 1.18808,0.5444 1.72309,0.7955 5.533211,2.59687 1.248511,0.59028 2.292462,1.07324 2.31989,1.07324 0.02743,0 1.109357,0.50576 2.404285,1.12392 1.294929,0.61816 2.790978,1.32394 3.324555,1.5684 0.533576,0.24446 1.684513,0.77909 2.557638,1.18806 0.873125,0.40897 2.103438,0.98 2.734028,1.26895 0.630591,0.28895 1.622778,0.74946 2.204861,1.02335 1.010751,0.4756 2.410291,1.12736 5.115278,2.38218 0.679097,0.31503 1.869722,0.86887 2.645833,1.23075 0.776111,0.36189 1.887359,0.87893 2.469449,1.14898 0.58208,0.27005 1.85208,0.86574 2.82222,1.32376 0.97014,0.45802 2.08963,0.97509 2.48775,1.14905 l 0.72387,0.31629 1.48099,-0.66378 c 0.81455,-0.36508 2.10195,-0.9526 2.86089,-1.3056 0.75895,-0.35299 1.40591,-0.64181 1.4377,-0.64181 0.0318,0 0.72052,-0.30776 1.53052,-0.68391 0.81,-0.37614 1.8696,-0.86257 2.35467,-1.08094 0.48507,-0.21837 1.47725,-0.67361 2.20486,-1.01165 0.7276,-0.33804 1.64041,-0.75549 2.02847,-0.92767 0.38806,-0.17218 1.30087,-0.58944 2.02847,-0.92724 0.72761,-0.33781 1.79917,-0.83271 2.38125,-1.09979 0.58209,-0.26707 2.48709,-1.14087 4.23334,-1.94176 1.74625,-0.8009 3.81,-1.75201 4.58611,-2.11358 0.77611,-0.36157 1.84767,-0.85613 2.38125,-1.09903 0.53357,-0.24289 1.87295,-0.86957 2.97638,-1.39261 1.10344,-0.52304 2.03139,-0.95099 2.06213,-0.95099 0.0596,0 0.61384,-0.25723 7.22051,-3.35086 8.87475,-4.15567 10.33121,-4.9435 14.02945,-7.58883 3.3123903,-2.36933 6.8834503,-5.57552 9.3280103,-8.37489 2.16174999,-2.47554 5.08998,-6.80419 6.62239,-9.78959 1.01348,-1.97439 1.58922,-2.75686 3.2557,-4.42474 3.8658097,-3.86902 9.1713797,-5.31426 13.5075097,-3.67945 0.79641,0.30026 1.34714,0.68729 2.22523,1.5638 1.59026,1.58737 2.49884,3.45724 3.30656,6.80498 0.84585,3.50575 1.78162,5.35595 5.39739,10.67153 3.25845,4.79028 4.03761,6.24521 5.01318,9.36113 0.37116,1.18543 0.23336,3.78175 -0.30826,5.80831 -0.97744,3.65728 -2.35835,6.20099 -4.46091,8.21724 -2.59161,2.48525 -4.2724,2.76246 -16.28402,2.68576 -7.1554097,-0.0457 -8.3101397,-0.0151 -9.7353797,0.25812 -2.13023,0.40833 -4.31151,1.14003 -6.58504001,2.20891 -4.66223999,2.19192 -5.33485999,2.50497 -5.38218999,2.50497 -0.0277,0 -1.29409,0.59531 -2.81409,1.32292 -1.52001,0.7276 -2.7882003,1.32291 -2.8182003,1.32291 -0.03,0 -1.21946,0.55563 -2.64324,1.23473 -1.42378,0.67909 -2.61999,1.23472 -2.65825,1.23472 -0.0383,0 -1.23447,0.55562 -2.65825,1.23472 -1.42378,0.6791 -2.60966,1.23472 -2.63529,1.23472 -0.0256,0 -0.90882,0.40627 -1.96264,0.90282 -1.05383,0.49655 -2.39229,1.12303 -2.97438,1.39218 -0.58208,0.26915 -1.77271,0.82398 -2.64583,1.23295 -0.87313,0.40897 -1.98438,0.92721 -2.46945,1.15165 -6.18796,2.86307 -7.41424,3.45202 -7.45742,3.58158 -0.0278,0.0832 1.36101,0.8119 3.08613,1.61926 1.72511,0.80735 4.04148,1.89454 5.14747,2.416 1.10599,0.52144 2.37599,1.11319 2.82222,1.31502 0.44623,0.20182 1.44633,0.6646 2.22244,1.0284 0.77611,0.3638 1.84767,0.8613 2.38125,1.10559 0.53357,0.24428 1.68451,0.77882 2.55764,1.18789 0.87312,0.40906 2.02406,0.94435 2.55764,1.18951 0.53357,0.24518 2.03219,0.95095 3.33026,1.5684 1.29807,0.61745 2.38156,1.12264 2.40777,1.12264 0.0262,0 1.50416,0.68427 3.2843303,1.52058 4.52506,2.12587 6.06102,2.84591 7.3818,3.46052 4.90273,2.28145 6.24387,2.73405 9.525,3.21442 1.50083,0.21973 3.4578997,0.26337 10.3187497,0.23009 9.36417,-0.0454 10.51178,0.0501 12.54612,1.04457 4.82728,2.35971 8.39219,11.1379 6.67609,16.43913 -0.67868,2.09647 -1.77363,4.06747 -4.54757,8.18593 -3.79579,5.6356 -4.65243,7.28653 -5.51026,10.61935 -0.94571,3.6742 -1.92097,5.79256 -3.3031,7.1747 -1.49038,1.49038 -3.05569,2.09422 -5.73853,2.21368 -2.39208,0.10653 -4.81085,-0.55578 -7.09011,-1.94138 -2.8730897,-1.74661 -4.6279297,-3.63496 -6.2648397,-6.74145 -5.10413001,-9.68655 -13.05479,-17.46527 -23.0157103,-22.51798 -1.04796,-0.53158 -5.82962,-2.79382 -5.90525,-2.79382 -0.0253,0 -1.10809,-0.5052 -2.40616,-1.12265 -1.29807,-0.61745 -2.79668,-1.32256 -3.33026,-1.56693 -1.90652,-0.87313 -5.7909,-2.66831 -9.34861,-4.32049 -1.98879,-0.92357 -4.21129,-1.95545 -4.93889,-2.29305 -0.72761,-0.33759 -2.07698,-0.95437 -2.99861,-1.37062 -0.92163,-0.41622 -2.27101,-1.03205 -2.99861,-1.36849 -1.55008,-0.71676 -3.02317,-1.39425 -4.49792,-2.06869 -0.58208,-0.26619 -1.57427,-0.72182 -2.20486,-1.01249 -0.63059,-0.29067 -1.52356,-0.69774 -1.98438,-0.90463 -0.46081,-0.20687 -1.21487,-0.54539 -1.67569,-0.75226 -0.46082,-0.20689 -1.3141,-0.59325 -1.89618,-0.85859 -0.58208,-0.26534 -1.45521,-0.66111 -1.94028,-0.87948 -0.48507,-0.21835 -1.19451,-0.54636 -1.57653,-0.72891 -0.38203,-0.18254 -0.84397,-0.33189 -1.02655,-0.33189 -0.18258,0 -2.60845,1.06345 -5.39083,2.36324 -2.782376,1.29977 -5.574804,2.60094 -6.205394,2.89149 -0.630591,0.29053 -1.860903,0.86244 -2.734028,1.2709 -3.001236,1.40402 -4.235411,1.97898 -5.203472,2.42417 -0.962762,0.44273 -7.676557,3.58759 -11.352846,5.31786 -1.053823,0.49598 -1.936455,0.90178 -1.961404,0.90178 -0.02495,0 -1.107414,0.50538 -2.405484,1.12307 -1.29807,0.61768 -2.757,1.30288 -3.24207,1.52266 -1.3793,0.62495 -2.86074,1.30879 -4.58611,2.11695 -0.87313,0.40896 -2.02406,0.94223 -2.55764,1.18503 -0.53358,0.24279 -2.24703,1.06012 -3.80767,1.81626 -2.4769,1.20008 -2.98712,1.5222 -4.0145,2.53454 -1.60673,1.58317 -2.83884,3.54363 -4.80875,7.65146 -2.58186,5.38389 -2.89798,5.93618 -5.1728,9.03754 -0.74718,1.01864 -1.81886,2.50221 -2.38153,3.29681 -1.3804,1.9494 -3.25763,3.95679 -4.57232,4.88934 -2.20892,1.56685 -4.28078,2.33366 -8.32597,3.0815 -1.21186,0.22405 -5.75823,0.23498 -6.42757,0.0155 z m 83.167358,-102.66762 c -3.23846,-0.29358 -6.646963,-0.78517 -8.554861,-1.23383 -5.947867,-1.39867 -9.421752,-3.0048 -11.643654,-5.38338 -1.013118,-1.08455 -1.355053,-1.68673 -2.293612,-4.03928 -0.309633,-0.77611 -0.670418,-1.64924 -0.801747,-1.94028 -0.131329,-0.29104 -0.590513,-1.44667 -1.020412,-2.56806 -1.782176,-4.64882 -2.829526,-6.55241 -4.690997,-8.52602 -1.872338,-1.98513 -3.487625,-3.01166 -8.329155,-5.29326 -5.65948,-2.66706 -9.78979,-8.22908 -12.25957,-16.50919 -2.23996,-7.50958 -3.12919,-16.09198 -3.34446,-32.27916 -0.0902,-6.78046 -0.0614,-8.4499 0.18519,-10.75973 0.66628,-6.24004 1.74955,-10.70229 3.91386,-16.12225 3.97121,-9.94487 10.89304,-18.8012 19.724829,-25.23747 4.660655,-3.39651 9.214566,-5.75288 15.444451,-7.99155 2.702628,-0.97118 7.649543,-2.11304 10.847918,-2.50395 0.87312,-0.10671 2.11873,-0.27013 2.768,-0.36315 1.54201,-0.22092 8.35049,-0.21822 9.73527,0.004 0.59327,0.0951 1.82314,0.25706 2.73304,0.35982 4.71219,0.53217 11.07198,2.26892 15.45535,4.2206 10.54682,4.69592 19.46291,12.25329 25.53912,21.64722 4.30648,6.6579 7.1537503,13.97057 8.5043603,21.84173 0.63029,3.67332 0.70514,5.11082 0.69344,13.31737 -0.0169,11.84781 -0.52548,20.21909 -1.59676,26.28194 -0.69721,3.94578 -0.94158,5.02243 -1.72861,7.61584 -1.7065803,5.62355 -3.8830903,9.58225 -6.9778503,12.69153 -1.8997,1.90862 -3.46042,2.99252 -5.96617,4.14344 -3.10637,1.4268 -3.71317,1.76286 -5.41031,2.99635 -1.22604,0.8911 -2.79697,2.39141 -3.39721,3.24451 -0.9962,1.41585 -2.26646,4.01267 -3.49311,7.14109 -2.76822,7.05998 -3.01276,7.55944 -4.33713,8.85856 -2.36434,2.31923 -5.61204,3.7817 -11.44296,5.15287 -4.96304,1.16709 -13.00043,1.71028 -18.25625,1.23383 z m 1.01663,-20.13739 c 0.72824,-0.40704 1.21187,-0.91881 1.83023,-1.93674 0.79894,-1.3152 1.52711,-1.70253 2.55989,-1.36168 0.64938,0.21431 1.56061,1.09657 1.56061,1.51099 0,0.35417 1.12557,1.5021 1.71385,1.7479 0.85857,0.35874 2.33573,0.3268 3.25451,-0.0704 0.93903,-0.4059 2.32413,-1.78839 2.82183,-2.81649 0.75061,-1.55056 0.66852,-2.19577 -0.93483,-7.34828 -1.6466,-5.29149 -2.60054,-7.57226 -4.17733,-9.98767 -2.367,-3.62587 -5.37993,-4.32995 -8.06834,-1.88546 -0.94002,0.85474 -2.4305,3.18598 -3.32088,5.19418 -1.35204,3.04942 -3.81242,10.93543 -3.81242,12.21958 0,0.94743 1.08048,3.0398 1.90411,3.68735 1.19174,0.93697 1.98204,1.25099 3.16946,1.25937 0.60766,0.004 1.28234,-0.0914 1.49931,-0.21269 z m -22.610787,-19.26117 c 2.928131,-0.38985 5.27183,-1.07015 7.468791,-2.16797 6.883433,-3.43965 10.084906,-9.49777 9.299256,-17.59691 -0.36827,-3.79641 -1.188462,-5.84587 -3.107544,-7.76495 -2.588343,-2.58835 -6.370737,-3.61213 -13.345079,-3.61213 -4.265036,0 -6.358093,0.45055 -9.569985,2.06002 -4.9546,2.48274 -8.94035,7.02983 -10.58899,12.08033 -0.80344,2.46125 -1.24471,6.5133 -0.82671,7.59128 0.62817,1.61994 0.87659,2.11545 1.53084,3.05347 3.31529,4.75317 11.290142,7.4019 19.139421,6.35686 z m 59.547597,-0.002 c 5.89047,-0.77694 10.31766,-3.08821 12.68483,-6.62231 0.46938,-0.70077 0.73485,-1.25798 1.32753,-2.78643 0.34984,-0.90219 0.0502,-4.48828 -0.55576,-6.65038 -1.27527,-4.55052 -4.06201,-8.47534 -8.01837,-11.29297 -2.40497,-1.71277 -4.96245,-2.85049 -7.90435,-3.51633 -2.38917,-0.54074 -9.58505,-0.27771 -12.38038,0.45253 -4.80221,1.25453 -7.05463,3.4533 -8.20213,8.00677 -0.33939,1.34677 -0.40158,2.06896 -0.41011,4.7625 -0.0112,3.51645 0.21141,4.78511 1.29684,7.39243 2.99578,7.1962 12.39028,11.54297 22.1619,10.25416 z"
       id="path881"
       inkscape:connector-curvature="0" />
  </g>
</svg>
