<?xml version="1.0" encoding="UTF-8" standalone="no"?>
<svg
   class="icon"
   height="350.08026"
   viewBox="0 0 359.27161 700.16052"
   version="1.1"
   id="svg4"
   sodipodi:docname="skull2.svg"
   width="359.27161"
   inkscape:version="1.1.1 (c3084ef, 2021-09-22)"
   xmlns:inkscape="http://www.inkscape.org/namespaces/inkscape"
   xmlns:sodipodi="http://sodipodi.sourceforge.net/DTD/sodipodi-0.dtd"
   xmlns="http://www.w3.org/2000/svg"
   xmlns:svg="http://www.w3.org/2000/svg"
   xmlns:rdf="http://www.w3.org/1999/02/22-rdf-syntax-ns#"
   xmlns:cc="http://creativecommons.org/ns#"
   xmlns:dc="http://purl.org/dc/elements/1.1/">
  <metadata
     id="metadata10">
    <rdf:RDF>
      <cc:Work
         rdf:about="">
        <dc:format>image/svg+xml</dc:format>
        <dc:type
           rdf:resource="http://purl.org/dc/dcmitype/StillImage" />
      </cc:Work>
    </rdf:RDF>
  </metadata>
  <defs
     id="defs8" />
  <sodipodi:namedview
     pagecolor="#ffffff"
     bordercolor="#666666"
     borderopacity="1"
     objecttolerance="10"
     gridtolerance="10"
     guidetolerance="10"
     inkscape:pageopacity="0"
     inkscape:pageshadow="2"
     inkscape:window-width="1037"
     inkscape:window-height="713"
     id="namedview6"
     showgrid="false"
     fit-margin-top="0"
     fit-margin-left="0"
     fit-margin-right="0"
     fit-margin-bottom="0"
     inkscape:zoom="0.72758129"
     inkscape:cx="112.70218"
     inkscape:cy="272.82175"
     inkscape:window-x="184"
     inkscape:window-y="38"
     inkscape:window-maximized="0"
     inkscape:current-layer="svg4"
     inkscape:pagecheckerboard="0" />
  <path
     style="fill:#000000;stroke-width:1.33333"
     d="M 39.350279,622.40124 C 28.674878,620.25469 18.875998,611.60917 15.420308,601.28791 14.382279,598.18756 13.902839,579.1256 13.902839,540.95457 V 485.15353 H -3.1503615 c -18.8824595,0 -28.7554895,-1.91521 -39.2124195,-7.60658 -7.99221,-4.34991 -17.11369,-13.9333 -21.46281,-22.5497 -6.3835,-12.64686 -6.53905,-15.41644 -5.90731,-105.17705 0.54598,-77.57448 0.79711,-85.01992 3.28302,-97.33333 7.33489,-36.33176 18.52059,-63.54287 38.36662,-93.33337 C 20.261828,86.583698 103.475,46.157098 192.54936,51.965798 c 97.93732,6.3867 183.51118,72.560402 214.56786,165.923952 11.95492,35.93924 13.8361,57.9937 13.1867,154.59712 -0.44938,66.84702 -0.50792,68.12672 -3.4527,75.4737 -6.51109,16.24462 -17.49586,27.56618 -32.52947,33.52679 -5.79278,2.29676 -10.79546,2.91349 -27.4189,3.38023 l -20.33334,0.57088 -0.0293,56.85753 c -0.0271,52.54525 -0.21696,57.26203 -2.50385,62.19087 -5.45191,11.75028 -16.67195,18.45826 -30.8002,18.41413 -90.4825,9.80792 -180.58939,14.70395 -263.885851,-0.49976 z M 211.53497,521.44159 c 2.83352,-2.84356 3.03036,-4.12426 2.97144,-19.33334 -0.0523,-13.49694 -0.53338,-17.32781 -2.80755,-22.3558 -6.6644,-14.73442 -20.72039,-23.9293 -36.58306,-23.9312 -15.50949,-0.001 -29.88295,9.46524 -36.26067,23.88314 -3.41967,7.73074 -4.7558,33.60481 -2.00136,38.7562 3.38669,6.33382 6.01232,6.7522 40.01453,6.37613 30.94251,-0.34223 31.69829,-0.41624 34.66667,-3.39513 z m -109.52758,-86.4102 c 18.48499,-5.82227 35.31994,-19.37835 45.59742,-36.71658 32.03288,-54.03986 -7.99024,-123.78164 -71.035301,-123.78164 -21.75783,0 -41.6229,8.27295 -57.472271,23.93475 -33.058489,32.66727 -33.230889,83.82949 -0.39281,116.57389 22.351841,22.2881 52.804851,29.59567 83.302962,19.98958 z m 197.33334,0 c 24.5125,-7.72078 45.58836,-28.96671 53.2681,-53.69798 16.27471,-52.40982 -23.80808,-106.80024 -78.70599,-106.80024 -21.75782,0 -41.6229,8.27295 -57.47227,23.93475 -33.0585,32.66727 -33.2309,83.82949 -0.39282,116.57389 22.35185,22.2881 52.80487,29.59567 83.30298,19.98958 z"
     id="path1068"
     sodipodi:nodetypes="ssscssssscsssssscssccsssscssssssssssssssss" />
</svg>
