<?xml version="1.0" encoding="UTF-8" standalone="no"?>
<svg
   viewBox="0 -256 1.3513514 50"
   version="1.1"
   id="svg6"
   sodipodi:docname="stat_mana.svg"
   width="50"
   height="50"
   inkscape:version="1.4.2 (ebf0e940, 2025-05-08)"
   xml:space="preserve"
   xmlns:inkscape="http://www.inkscape.org/namespaces/inkscape"
   xmlns:sodipodi="http://sodipodi.sourceforge.net/DTD/sodipodi-0.dtd"
   xmlns="http://www.w3.org/2000/svg"
   xmlns:svg="http://www.w3.org/2000/svg"
   xmlns:rdf="http://www.w3.org/1999/02/22-rdf-syntax-ns#"
   xmlns:cc="http://creativecommons.org/ns#"
   xmlns:dc="http://purl.org/dc/elements/1.1/"><metadata
     id="metadata12"><rdf:RDF><cc:Work
         rdf:about=""><dc:format>image/svg+xml</dc:format><dc:type
           rdf:resource="http://purl.org/dc/dcmitype/StillImage" /></cc:Work></rdf:RDF></metadata><defs
     id="defs10" /><sodipodi:namedview
     pagecolor="#ffffff"
     bordercolor="#666666"
     borderopacity="1"
     objecttolerance="10"
     gridtolerance="10"
     guidetolerance="10"
     inkscape:pageopacity="0"
     inkscape:pageshadow="2"
     inkscape:window-width="1168"
     inkscape:window-height="582"
     id="namedview8"
     showgrid="false"
     viewbox-y="-256"
     inkscape:zoom="2.3935453"
     inkscape:cx="5.4312739"
     inkscape:cy="51.597102"
     inkscape:window-x="1118"
     inkscape:window-y="179"
     inkscape:window-maximized="0"
     inkscape:current-layer="svg6"
     inkscape:showpageshadow="2"
     inkscape:pagecheckerboard="0"
     inkscape:deskcolor="#d1d1d1" /><path
     inkscape:connector-curvature="0"
     d="m 2.6607879,-253.75746 c -2.80790164,1.96828 -5.5176116,4.17946 -7.8121557,6.37278 -2.5489837,2.44337 -4.6247502,4.81531 -6.4773702,7.41229 -0.647268,0.90733 -1.821326,2.75773 -2.307924,3.64363 -4.285497,7.79451 -4.34355,14.91745 -0.156246,20.75797 0.674082,0.94306 1.852619,2.29334 2.31688,2.65057 0.124953,0.0964 0.446402,0.32148 0.714222,0.50367 5.4059825,3.65078 12.4860578,4.76887 18.5706001,2.93991 3.9641029,-1.18954 7.1291149,-3.50789 9.1111669,-6.66928 0.919565,-1.46459 1.687417,-3.3257 1.999909,-4.82244 0.178529,-0.85376 0.205343,-1.09309 0.232104,-2.01829 0.107149,-3.37214 -1.30797,-6.45137 -4.749759,-10.34148 -0.629463,-0.70729 -1.557985,-1.69679 -3.165012,-3.36142 -3.4105509,-3.5329 -4.6649999,-5.02607 -5.8836779,-7.01578 -1.3927823,-2.26834 -2.035626,-4.26519 -2.1070592,-6.51924 -0.035498,-1.26098 0.071488,-2.25048 0.3884041,-3.50431 0.075857,-0.30007 0.1294316,-0.55013 0.1205298,-0.55727 -0.013107,-0.007 -0.3705458,0.2322 -0.7946119,0.52869 z"
     id="043DAB01"
     style="opacity:0.91;fill:#000000;fill-opacity:1;fill-rule:nonzero;stroke:#000000;stroke-width:2.18266;stroke-linecap:butt;stroke-linejoin:miter;stroke-miterlimit:4;stroke-opacity:1" /></svg>
