<?xml version="1.0" encoding="UTF-8" standalone="no"?>
<svg
   xmlns:dc="http://purl.org/dc/elements/1.1/"
   xmlns:cc="http://creativecommons.org/ns#"
   xmlns:rdf="http://www.w3.org/1999/02/22-rdf-syntax-ns#"
   xmlns:svg="http://www.w3.org/2000/svg"
   xmlns="http://www.w3.org/2000/svg"
   xmlns:sodipodi="http://sodipodi.sourceforge.net/DTD/sodipodi-0.dtd"
   xmlns:inkscape="http://www.inkscape.org/namespaces/inkscape"
   version="1.1"
   width="50"
   height="50"
   viewBox="0 0 50.000001 50.000002"
   preserveAspectRatio="none"
   id="svg2"
   sodipodi:docname="stat_luck.svg"
   inkscape:version="1.0.2-2 (e86c870879, 2021-01-15)">
  <sodipodi:namedview
     pagecolor="#ffffff"
     bordercolor="#666666"
     borderopacity="1"
     objecttolerance="10"
     gridtolerance="10"
     guidetolerance="10"
     inkscape:pageopacity="0"
     inkscape:pageshadow="2"
     inkscape:window-width="1214"
     inkscape:window-height="714"
     id="namedview4576"
     showgrid="false"
     fit-margin-top="0"
     fit-margin-left="0"
     fit-margin-right="0"
     fit-margin-bottom="0"
     inkscape:zoom="8.3984215"
     inkscape:cx="29.4709"
     inkscape:cy="29.827034"
     inkscape:window-x="1812"
     inkscape:window-y="400"
     inkscape:window-maximized="0"
     inkscape:current-layer="svg2"
     inkscape:document-rotation="0" />
  <defs
     id="defs_A8262DBE" />
  <metadata
     id="metadata7">
    <rdf:RDF>
      <cc:Work
         rdf:about="">
        <dc:format>image/svg+xml</dc:format>
        <dc:type
           rdf:resource="http://purl.org/dc/dcmitype/StillImage" />
        <dc:title />
      </cc:Work>
    </rdf:RDF>
  </metadata>
  <path
     inkscape:connector-curvature="0"
     d="m 30.313892,7.0611065 c -0.612175,0.073668 -0.962016,0.1746175 -1.588845,0.4638338 -0.999985,0.4611146 -1.988284,1.1732399 -2.638367,1.9044711 -0.355714,0.3956271 -0.96789,1.2496326 -1.177842,1.6370786 -0.145762,0.270117 -0.218613,0.676657 -0.335247,1.888097 -0.06122,0.619358 -0.08744,0.944048 -0.221579,2.687533 -0.128261,1.653448 -0.215706,2.474717 -0.274023,2.570216 -0.04663,0.07913 -0.148668,-0.613907 -0.440192,-2.965844 -0.416938,-3.369653 -0.524791,-3.945353 -0.903759,-4.77754 C 22.168432,9.2356881 20.850701,8.2097905 19.191851,7.7132074 18.361003,7.4649158 17.684637,7.4594595 16.780878,7.6914066 15.993753,7.8960363 15.323199,8.2316396 14.57689,8.804616 c -0.670553,0.5129517 -1.046615,0.8894798 -1.918278,1.912652 -0.819222,0.960423 -1.282789,1.549767 -1.454772,1.847172 -0.05814,0.10368 -0.116634,0.160979 -0.201172,0.201904 -0.145762,0.07095 -0.201172,0.111867 -0.92126,0.663019 -0.8017204,0.616633 -1.1456867,0.900392 -1.4722124,1.222353 -0.6763661,0.665744 -1.0320199,1.211434 -1.2623805,1.945395 -0.1544821,0.491121 -0.192391,0.761238 -0.192391,1.364226 0,0.736688 0.090352,1.282384 0.2653021,1.607067 0.1486686,0.281036 0.6850864,0.875838 1.0524279,1.170509 0.57142,0.458384 1.7987979,1.061373 2.6995899,1.328764 1.183656,0.349248 2.323529,0.521139 4.871545,0.736688 2.061193,0.174617 2.833724,0.261928 3.043617,0.343784 l 0.09913,0.03821 -0.09913,0.09822 c -0.122448,0.117325 -0.271116,0.160981 -0.75503,0.212819 -0.518979,0.05728 -1.218659,0.09277 -2.536389,0.12551 -2.425568,0.06002 -3.466308,0.136424 -4.227213,0.313773 -1.017485,0.237379 -2.3294021,1.072291 -3.0903064,1.964496 -0.7987528,0.941316 -1.1077774,1.781684 -1.2681334,3.451507 -0.058135,0.589345 -0.058135,1.148684 0,1.326032 0.078725,0.251017 0.5160099,0.862193 1.1456862,1.601606 0.4577537,0.534783 0.7988133,0.870379 1.3265108,1.298751 l 0.5014158,0.409272 0.259488,0.521132 c 0.142855,0.286491 0.323619,0.627551 0.402345,0.758513 0.475193,0.777612 1.276914,1.762591 1.89787,2.332836 0.585953,0.537508 0.994111,0.758512 1.746295,0.944048 1.017426,0.253748 2.582957,0.362891 3.262229,0.226467 0.778406,-0.152798 1.755076,-0.684844 2.480978,-1.347863 0.326526,-0.297404 0.664679,-0.753056 0.941669,-1.274189 0.341059,-0.641195 0.612235,-1.688924 0.991204,-3.863505 0.279896,-1.587968 0.454786,-2.463803 0.568513,-2.804864 0.113666,-0.341059 0.282743,-0.499307 0.594735,-0.553876 l 0.110759,-0.01908 -0.01756,0.229192 c -0.02362,0.30013 -0.122447,2.319193 -0.16617,3.380566 -0.03815,0.897661 -0.02058,2.332835 0.03209,2.755745 0.12826,1.050459 0.530603,2.302824 1.093242,3.405127 0.411064,0.802168 0.757999,1.255089 1.454773,1.90174 0.542232,0.504764 0.85713,0.733956 1.300228,0.941316 0.344027,0.160981 0.615143,0.242836 1.201157,0.354704 0.510136,0.100949 0.52473,0.09822 0.577235,-0.07914 0.01453,-0.05456 0.05511,-0.240104 0.09035,-0.411996 0.08163,-0.414728 0.06413,-0.570246 -0.09623,-0.873105 -0.110759,-0.212824 -0.163262,-0.272848 -0.670491,-0.744874 -0.889226,-0.832182 -1.128246,-1.124129 -1.480993,-1.806243 -0.810502,-1.563411 -1.11662,-2.843055 -1.268195,-5.293216 -0.07582,-1.197796 -0.05814,-2.215513 0.0436,-2.646615 0.05814,-0.256473 0.06122,-0.259204 0.122446,-0.0955 0.303212,0.823993 0.521824,1.566136 0.778406,2.660251 0.352748,1.481556 0.425598,1.658905 1.046615,2.488361 0.848349,1.13504 1.5014,1.80624 2.425567,2.491084 0.813347,0.602989 1.408082,0.878567 2.236024,1.034091 1.090336,0.20463 1.894963,0.109136 2.778315,-0.330147 0.463567,-0.231917 0.743463,-0.420184 0.93876,-0.630275 0.09913,-0.106413 0.291524,-0.281029 0.428566,-0.390172 0.533511,-0.411997 0.760904,-0.725769 1.408082,-1.934477 0.463567,-0.862199 0.760904,-1.312395 1.303196,-1.964495 0.405189,-0.485665 0.749216,-0.7858 1.15156,-1.00953 l 0.346934,-0.190991 0.136981,-0.245567 c 0.07582,-0.136418 0.209952,-0.362884 0.303211,-0.504765 0.271116,-0.422909 0.39647,-0.783068 0.527697,-1.511568 0.122447,-0.6903 0.171983,-1.238721 0.171983,-1.912653 -0.006,-0.766699 -0.02603,-0.873111 -0.344027,-1.473368 -0.670492,-1.263283 -1.495526,-1.980865 -2.845352,-2.477448 -0.664678,-0.242829 -1.2536,-0.384715 -1.938685,-0.466564 -0.886258,-0.106412 -1.128246,-0.111868 -4.373035,-0.111868 -1.801706,0 -3.195193,-0.0109 -3.218508,-0.02453 -0.03209,-0.01908 -0.03209,-0.02732 0.006,-0.04639 0.09326,-0.04911 0.757938,-0.128237 2.574237,-0.311042 2.399286,-0.242835 3.04071,-0.343789 3.819055,-0.613906 1.2536,-0.431096 2.19236,-0.903118 3.177752,-1.596149 1.116558,-0.7858 1.673383,-1.492469 2.011597,-2.553841 0.227393,-0.703943 0.393563,-1.768046 0.393563,-2.480172 0,-0.570252 -0.07872,-0.864924 -0.378969,-1.432445 -0.434371,-0.81851 -0.892064,-1.295987 -1.711286,-1.792571 C 38.578954,12.455369 38.05713,12.136135 37.65188,11.885118 36.60236,11.241199 36.328337,10.984726 35.547024,9.9260787 35.103865,9.3203656 34.806528,8.9629373 34.480002,8.6246029 33.710317,7.8333533 32.751208,7.2903892 31.803726,7.1130346 31.480107,7.0502789 30.655073,7.0229978 30.31686,7.0611974 Z"
     id="910D273E"
     style="fill:#000000;fill-opacity:1;fill-rule:nonzero;stroke:#000000;stroke-width:1.21115;stroke-linecap:butt;stroke-linejoin:miter;stroke-miterlimit:4;stroke-opacity:1" />
  <g
     id="layer_Top etch"
     style="fill:#000000;fill-opacity:1;fill-rule:nonzero;stroke:#000000;stroke-width:2;stroke-linecap:square;stroke-linejoin:miter;stroke-miterlimit:10;stroke-opacity:1"
     transform="translate(-170.86421,-94.496835)" />
</svg>
