<?xml version="1.0" encoding="UTF-8" standalone="no"?>
<svg
   viewBox="0 -256 1.3513514 50"
   version="1.1"
   id="svg6"
   sodipodi:docname="sword.svg"
   width="50"
   height="50"
   inkscape:version="1.4.2 (ebf0e940, 2025-05-08)"
   xml:space="preserve"
   xmlns:inkscape="http://www.inkscape.org/namespaces/inkscape"
   xmlns:sodipodi="http://sodipodi.sourceforge.net/DTD/sodipodi-0.dtd"
   xmlns="http://www.w3.org/2000/svg"
   xmlns:svg="http://www.w3.org/2000/svg"
   xmlns:rdf="http://www.w3.org/1999/02/22-rdf-syntax-ns#"
   xmlns:cc="http://creativecommons.org/ns#"
   xmlns:dc="http://purl.org/dc/elements/1.1/"><metadata
     id="metadata12"><rdf:RDF><cc:Work
         rdf:about=""><dc:format>image/svg+xml</dc:format><dc:type
           rdf:resource="http://purl.org/dc/dcmitype/StillImage" /></cc:Work></rdf:RDF></metadata><defs
     id="defs10" /><sodipodi:namedview
     pagecolor="#ffffff"
     bordercolor="#666666"
     borderopacity="1"
     objecttolerance="10"
     gridtolerance="10"
     guidetolerance="10"
     inkscape:pageopacity="0"
     inkscape:pageshadow="2"
     inkscape:window-width="1168"
     inkscape:window-height="582"
     id="namedview8"
     showgrid="false"
     viewbox-y="-256"
     inkscape:zoom="2.3935453"
     inkscape:cx="5.4312739"
     inkscape:cy="51.597102"
     inkscape:window-x="1118"
     inkscape:window-y="179"
     inkscape:window-maximized="0"
     inkscape:current-layer="svg6"
     inkscape:showpageshadow="2"
     inkscape:pagecheckerboard="0"
     inkscape:deskcolor="#d1d1d1" /><path
     style="fill:#000000;stroke-width:0.653717"
     d="m -19.700998,-207.37461 c -0.572016,-0.0663 -1.210998,-0.31938 -1.670038,-0.66138 -0.768314,-0.57242 -1.264087,-1.39418 -1.404982,-2.32882 -0.226186,-1.5004 0.553489,-2.98697 1.92636,-3.6729 0.480286,-0.23997 1.076326,-0.37593 1.542792,-0.35193 0.159625,0.008 0.307064,0.0201 0.327643,0.0264 0.02059,0.007 1.378134,-1.69321 3.016794,-3.77672 l 2.979368,-3.78822 -2.505071,-2.50521 c -1.377793,-1.37787 -2.505076,-2.51886 -2.505076,-2.53555 0,-0.0433 2.359984,-2.39827 2.403423,-2.39827 0.01981,0 1.978939,1.37263 4.35356,3.05029 l 4.3174879,3.05028 3.0626647,4.3315 c 1.6844655,2.38233 3.06266459,4.34013 3.06266459,4.35066 0,0.0105 -0.54304929,0.56208 -1.20677489,1.22565 l -1.2067683,1.20648 -2.5166343,-2.51649 -2.5166278,-2.5165 -3.7232259,2.92522 c -2.047769,1.60886 -3.752624,2.95442 -3.788559,2.99013 -0.06093,0.0605 -0.06315,0.0778 -0.03216,0.25719 0.06945,0.40233 -0.07198,1.10978 -0.329342,1.64746 -0.176406,0.36854 -0.340332,0.60612 -0.624235,0.90472 -0.588607,0.61905 -1.338983,0.9925 -2.187259,1.08853 -0.311738,0.0353 -0.453928,0.0348 -0.776008,-0.003 z m 15.1430753,-15.61587 c -0.5484883,-0.86194 -1.0222305,-1.58852 -1.0527526,-1.61461 -0.030529,-0.0261 -0.7462965,-0.48615 -1.5906114,-1.02237 -0.8443083,-0.53622 -1.5351304,-0.98328 -1.53515,-0.99347 -1.96e-5,-0.0102 5.1643455,-5.67721 11.4763733,-12.59338 l 11.4764094,-12.57486 5.540089,-1.84673 c 3.188557,-1.06287 5.540082,-1.83158 5.540082,-1.81106 0,0.0196 -0.826259,2.51444 -1.836128,5.54406 -1.316423,3.94927 -1.854706,5.52606 -1.901754,5.57079 -0.233384,0.22188 -25.0814032,22.8943 -25.0982757,22.90075 -0.011571,0.005 -0.4697938,-0.69717 -1.018282,-1.55912 z"
     id="path1" /></svg>
