<?xml version="1.0" encoding="UTF-8" standalone="no"?>
<!-- Created with Inkscape (http://www.inkscape.org/) -->

<svg
   xmlns:dc="http://purl.org/dc/elements/1.1/"
   xmlns:cc="http://creativecommons.org/ns#"
   xmlns:rdf="http://www.w3.org/1999/02/22-rdf-syntax-ns#"
   xmlns:svg="http://www.w3.org/2000/svg"
   xmlns="http://www.w3.org/2000/svg"
   xmlns:sodipodi="http://sodipodi.sourceforge.net/DTD/sodipodi-0.dtd"
   xmlns:inkscape="http://www.inkscape.org/namespaces/inkscape"
   width="201.23863mm"
   height="174.87505mm"
   viewBox="0 0 201.23866 174.87505"
   version="1.1"
   id="svg822"
   inkscape:version="0.92.2 5c3e80d, 2017-08-06"
   sodipodi:docname="teleport.svg">
  <defs
     id="defs816">
    <marker
       inkscape:stockid="TriangleOutL"
       orient="auto"
       refY="0"
       refX="0"
       id="TriangleOutL"
       style="overflow:visible"
       inkscape:isstock="true">
      <path
         id="path1265"
         d="M 5.77,0 -2.88,5 V -5 Z"
         style="fill:#000000;fill-opacity:1;fill-rule:evenodd;stroke:#000000;stroke-width:1.00000003pt;stroke-opacity:1"
         transform="scale(0.8)"
         inkscape:connector-curvature="0" />
    </marker>
    <marker
       inkscape:stockid="Arrow1Mend"
       orient="auto"
       refY="0"
       refX="0"
       id="Arrow1Mend"
       style="overflow:visible"
       inkscape:isstock="true">
      <path
         id="path1132"
         d="M 0,0 5,-5 -12.5,0 5,5 Z"
         style="fill:#000000;fill-opacity:1;fill-rule:evenodd;stroke:#000000;stroke-width:1.00000003pt;stroke-opacity:1"
         transform="matrix(-0.4,0,0,-0.4,-4,0)"
         inkscape:connector-curvature="0" />
    </marker>
    <marker
       inkscape:stockid="Arrow1Lend"
       orient="auto"
       refY="0"
       refX="0"
       id="Arrow1Lend"
       style="overflow:visible"
       inkscape:isstock="true">
      <path
         id="path1126"
         d="M 0,0 5,-5 -12.5,0 5,5 Z"
         style="fill:#000000;fill-opacity:1;fill-rule:evenodd;stroke:#000000;stroke-width:1.00000003pt;stroke-opacity:1"
         transform="matrix(-0.8,0,0,-0.8,-10,0)"
         inkscape:connector-curvature="0" />
    </marker>
  </defs>
  <sodipodi:namedview
     id="base"
     pagecolor="#ffffff"
     bordercolor="#666666"
     borderopacity="1.0"
     inkscape:pageopacity="0.0"
     inkscape:pageshadow="2"
     inkscape:zoom="0.175"
     inkscape:cx="438.13618"
     inkscape:cy="71.182512"
     inkscape:document-units="mm"
     inkscape:current-layer="g2147"
     showgrid="false"
     fit-margin-top="0"
     fit-margin-left="0"
     fit-margin-right="0"
     fit-margin-bottom="0"
     inkscape:window-width="1440"
     inkscape:window-height="813"
     inkscape:window-x="34"
     inkscape:window-y="0"
     inkscape:window-maximized="0" />
  <metadata
     id="metadata819">
    <rdf:RDF>
      <cc:Work
         rdf:about="">
        <dc:format>image/svg+xml</dc:format>
        <dc:type
           rdf:resource="http://purl.org/dc/dcmitype/StillImage" />
        <dc:title></dc:title>
      </cc:Work>
    </rdf:RDF>
  </metadata>
  <g
     inkscape:label="Layer 1"
     inkscape:groupmode="layer"
     id="layer1"
     transform="translate(-171.39368,-293.20836)">
    <path
       style="fill:#000000;fill-opacity:0.21052635;stroke-width:0.17638889"
       d="m 211.435,467.92495 c -2.96905,-0.49504 -5.25005,-2.40373 -6.49365,-5.43374 l -0.38297,-0.93309 -0.0895,-33.90197 c -0.0717,-27.17823 -0.13415,-33.94666 -0.31477,-34.12725 -0.29155,-0.2915 -1.55091,-0.29151 -1.84246,0 -0.18061,0.18059 -0.24309,6.94926 -0.315,34.12725 l -0.0897,33.90197 -0.38273,0.93309 c -1.08632,2.64837 -2.60364,4.11784 -5.34689,5.17826 -0.39896,0.15423 -1.33498,0.23437 -2.64584,0.22652 -1.78744,-0.0108 -2.14374,-0.0656 -2.99861,-0.46157 -2.293,-1.06227 -3.6569,-2.51951 -4.75699,-5.08255 -0.2333,-0.54355 -0.27583,-7.53892 -0.35573,-58.50943 -0.0903,-57.6322 -0.0923,-57.89326 -0.44353,-58.15862 -0.19402,-0.14661 -0.61191,-0.26908 -0.92863,-0.27217 -0.46335,-0.005 -0.64414,0.10639 -0.92538,0.56765 -0.34334,0.56312 -0.34954,0.95044 -0.35019,21.8911 l -6.6e-4,21.31784 -0.53331,1.11745 c -0.5865,1.22891 -1.4938,2.12056 -2.79407,2.74589 -0.6464,0.31087 -1.13192,0.39379 -2.31706,0.39575 -1.30224,0.002 -1.63498,-0.0648 -2.53148,-0.5089 -1.14955,-0.56951 -2.16399,-1.61314 -2.78765,-2.86784 l -0.41351,-0.83191 v -26.19375 c 0,-28.86876 -0.0777,-26.87002 1.13247,-29.14431 1.24497,-2.33975 3.29257,-4.28656 5.80786,-5.52196 1.85675,-0.91195 1.87712,-0.91967 3.46661,-1.31419 1.36564,-0.33895 2.05567,-0.35032 21.41079,-0.35295 13.57755,-0.002 20.23281,0.0576 20.72569,0.18507 1.13113,0.29254 1.9287,0.52817 2.31352,0.68349 4.47188,1.80488 7.22216,4.71662 8.55887,9.06132 0.31852,1.03525 0.31772,51.97531 -8.8e-4,52.95006 -0.48774,1.49248 -1.77982,2.86644 -3.35457,3.56715 -0.98943,0.44026 -3.41762,0.38164 -4.43374,-0.10703 -1.30027,-0.62533 -2.20756,-1.51698 -2.79406,-2.74589 l -0.53326,-1.11745 -7e-4,-21.31784 c -7.1e-4,-20.94066 -0.007,-21.32798 -0.35019,-21.8911 -0.28269,-0.46365 -0.46284,-0.57326 -0.94214,-0.57326 -0.37845,0 -0.71405,0.13418 -0.92863,0.37128 -0.3286,0.3631 -0.33802,1.64693 -0.42664,58.16424 -0.0975,62.19998 -0.0302,57.86791 -0.92619,59.62728 -1.13704,2.23277 -3.61086,4.03281 -5.95055,4.32983 -0.53358,0.0678 -1.0892,0.14769 -1.23472,0.17766 -0.14553,0.03 -0.82021,-0.0382 -1.49931,-0.15138 z M 200.58708,320.85742 c -0.33955,-0.094 -0.93486,-0.259 -1.32292,-0.36663 -2.54582,-0.70609 -5.42085,-2.8041 -6.98116,-5.09438 -2.33859,-3.43268 -2.96013,-7.53764 -1.73053,-11.42928 1.91757,-6.06908 8.11529,-10.05059 14.17975,-9.1093 2.07928,0.32273 2.66087,0.48385 3.90341,1.08136 2.31323,1.11238 4.28031,2.82673 5.55406,4.84046 0.96919,1.53224 1.27218,2.27871 1.90565,4.69477 0.10469,0.39931 0.19035,1.45557 0.19035,2.34724 0,2.30545 -0.38031,3.89292 -1.44,6.01077 -1.8327,3.66275 -5.03548,6.07531 -9.35373,7.04589 -1.00897,0.22678 -4.05728,0.21379 -4.90488,-0.0209 z"
       id="path1117"
       inkscape:connector-curvature="0" />
    <path
       inkscape:connector-curvature="0"
       id="path1119"
       d="m 349.01834,466.41305 c -2.96905,-0.49504 -5.25005,-2.40373 -6.49365,-5.43374 l -0.38297,-0.93309 -0.0895,-33.90197 c -0.0717,-27.17823 -0.13415,-33.94666 -0.31477,-34.12725 -0.29155,-0.2915 -1.55091,-0.29151 -1.84246,0 -0.18061,0.18059 -0.24309,6.94926 -0.315,34.12725 l -0.0897,33.90197 -0.38273,0.93309 c -1.08632,2.64837 -2.60364,4.11784 -5.34689,5.17826 -0.39896,0.15423 -1.33498,0.23437 -2.64584,0.22652 -1.78744,-0.0108 -2.14374,-0.0656 -2.99861,-0.46157 -2.293,-1.06227 -3.6569,-2.51951 -4.75699,-5.08255 -0.2333,-0.54355 -0.27583,-7.53892 -0.35573,-58.50943 -0.0903,-57.6322 -0.0923,-57.89326 -0.44353,-58.15862 -0.19402,-0.14661 -0.61191,-0.26908 -0.92863,-0.27217 -0.46335,-0.005 -0.64414,0.10639 -0.92538,0.56765 -0.34334,0.56312 -0.34954,0.95044 -0.35019,21.8911 l -6.6e-4,21.31784 -0.53331,1.11745 c -0.5865,1.22891 -1.4938,2.12056 -2.79407,2.74589 -0.6464,0.31087 -1.13192,0.39379 -2.31706,0.39575 -1.30224,0.002 -1.63498,-0.0648 -2.53148,-0.5089 -1.14955,-0.56951 -2.16399,-1.61314 -2.78765,-2.86784 l -0.41351,-0.83191 v -26.19375 c 0,-28.86876 -0.0777,-26.87002 1.13247,-29.14431 1.24497,-2.33975 3.29257,-4.28656 5.80786,-5.52196 1.85675,-0.91195 1.87712,-0.91967 3.46661,-1.31419 1.36564,-0.33895 2.05567,-0.35032 21.41079,-0.35295 13.57755,-0.002 20.23281,0.0576 20.72569,0.18507 1.13113,0.29254 1.9287,0.52817 2.31352,0.68349 4.47188,1.80488 7.22216,4.71662 8.55887,9.06132 0.31852,1.03525 0.31772,51.97531 -8.8e-4,52.95006 -0.48774,1.49248 -1.77982,2.86644 -3.35457,3.56715 -0.98943,0.44026 -3.41762,0.38164 -4.43374,-0.10703 -1.30027,-0.62533 -2.20756,-1.51698 -2.79406,-2.74589 l -0.53326,-1.11745 -7e-4,-21.31784 c -7.1e-4,-20.94066 -0.007,-21.32798 -0.35019,-21.8911 -0.28269,-0.46365 -0.46284,-0.57326 -0.94214,-0.57326 -0.37845,0 -0.71405,0.13418 -0.92863,0.37128 -0.3286,0.3631 -0.33802,1.64693 -0.42664,58.16424 -0.0975,62.19998 -0.0302,57.86791 -0.92619,59.62728 -1.13704,2.23277 -3.61086,4.03281 -5.95055,4.32983 -0.53358,0.0678 -1.0892,0.14769 -1.23472,0.17766 -0.14553,0.03 -0.82021,-0.0382 -1.49931,-0.15138 z M 338.17042,319.34552 c -0.33955,-0.094 -0.93486,-0.259 -1.32292,-0.36663 -2.54582,-0.70609 -5.42085,-2.8041 -6.98116,-5.09438 -2.33859,-3.43268 -2.96013,-7.53764 -1.73053,-11.42928 1.91757,-6.06908 8.11529,-10.05059 14.17975,-9.1093 2.07928,0.32273 2.66087,0.48385 3.90341,1.08136 2.31323,1.11238 4.28031,2.82673 5.55406,4.84046 0.96919,1.53224 1.27218,2.27871 1.90565,4.69477 0.10469,0.39931 0.19035,1.45557 0.19035,2.34724 0,2.30545 -0.38031,3.89292 -1.44,6.01077 -1.8327,3.66275 -5.03548,6.07531 -9.35373,7.04589 -1.00897,0.22678 -4.05728,0.21379 -4.90488,-0.0209 z"
       style="fill:#000000;stroke-width:0.17638889" />
    <g
       id="g2147">
      <path
         style="color:#000000;font-style:normal;font-variant:normal;font-weight:normal;font-stretch:normal;font-size:medium;line-height:normal;font-family:sans-serif;font-variant-ligatures:normal;font-variant-position:normal;font-variant-caps:normal;font-variant-numeric:normal;font-variant-alternates:normal;font-feature-settings:normal;text-indent:0;text-align:start;text-decoration:none;text-decoration-line:none;text-decoration-style:solid;text-decoration-color:#000000;letter-spacing:normal;word-spacing:normal;text-transform:none;writing-mode:lr-tb;direction:ltr;text-orientation:mixed;dominant-baseline:auto;baseline-shift:baseline;text-anchor:start;white-space:normal;shape-padding:0;clip-rule:nonzero;display:inline;overflow:visible;visibility:visible;opacity:1;isolation:auto;mix-blend-mode:normal;color-interpolation:sRGB;color-interpolation-filters:linearRGB;solid-color:#000000;solid-opacity:1;vector-effect:none;fill:#000000;fill-opacity:1;fill-rule:nonzero;stroke:none;stroke-width:12.48649597;stroke-linecap:butt;stroke-linejoin:miter;stroke-miterlimit:1;stroke-dasharray:none;stroke-dashoffset:0;stroke-opacity:1;color-rendering:auto;image-rendering:auto;shape-rendering:auto;text-rendering:auto;enable-background:accumulate"
         d="m 245.61247,365.88098 v 36.72696 h 24.05327 v -36.72696 z"
         id="path1871"
         inkscape:connector-curvature="0" />
      <path
         style="fill:#000000;fill-opacity:1;fill-rule:evenodd;stroke:#000000;stroke-width:4.85831738pt;stroke-opacity:1"
         d="m 297.80558,385.31422 -25.52101,40 v -80 z"
         id="path2151"
         inkscape:connector-curvature="0" />
    </g>
  </g>
</svg>
