<?xml version="1.0" encoding="UTF-8" standalone="no"?>
<!-- Created with Inkscape (http://www.inkscape.org/) -->

<svg
   xmlns:dc="http://purl.org/dc/elements/1.1/"
   xmlns:cc="http://creativecommons.org/ns#"
   xmlns:rdf="http://www.w3.org/1999/02/22-rdf-syntax-ns#"
   xmlns:svg="http://www.w3.org/2000/svg"
   xmlns="http://www.w3.org/2000/svg"
   xmlns:sodipodi="http://sodipodi.sourceforge.net/DTD/sodipodi-0.dtd"
   xmlns:inkscape="http://www.inkscape.org/namespaces/inkscape"
   width="121.32822mm"
   height="113.23821mm"
   viewBox="0 0 121.32822 113.23821"
   version="1.1"
   id="svg824"
   inkscape:version="0.92.2 5c3e80d, 2017-08-06"
   sodipodi:docname="time.svg">
  <defs
     id="defs818" />
  <sodipodi:namedview
     id="base"
     pagecolor="#ffffff"
     bordercolor="#666666"
     borderopacity="1.0"
     inkscape:pageopacity="0.0"
     inkscape:pageshadow="2"
     inkscape:zoom="0.35"
     inkscape:cx="513.38193"
     inkscape:cy="-349.74197"
     inkscape:document-units="mm"
     inkscape:current-layer="layer1"
     showgrid="false"
     fit-margin-top="0"
     fit-margin-left="0"
     fit-margin-right="0"
     fit-margin-bottom="0"
     inkscape:window-width="1440"
     inkscape:window-height="813"
     inkscape:window-x="0"
     inkscape:window-y="1"
     inkscape:window-maximized="1" />
  <metadata
     id="metadata821">
    <rdf:RDF>
      <cc:Work
         rdf:about="">
        <dc:format>image/svg+xml</dc:format>
        <dc:type
           rdf:resource="http://purl.org/dc/dcmitype/StillImage" />
        <dc:title></dc:title>
      </cc:Work>
    </rdf:RDF>
  </metadata>
  <g
     inkscape:label="Layer 1"
     inkscape:groupmode="layer"
     id="layer1"
     transform="translate(-2.9592577,-25.312887)">
    <path
       style="fill:#000000;stroke-width:0.18010032"
       d="m 58.768347,138.50151 c -4.096625,-0.31952 -7.817376,-0.98075 -12.676856,-2.25284 -3.238329,-0.84771 -7.877847,-2.64615 -11.278667,-4.37199 -9.288446,-4.71372 -17.069237,-11.51564 -22.704861,-19.84849 -3.3588498,-4.9664 -6.4533398,-11.96485 -7.6748088,-17.357204 -0.173415,-0.765571 -0.388449,-1.705123 -0.477855,-2.087894 -0.70984,-3.039076 -0.99832,-6.113051 -0.996028,-10.613448 0.0032,-6.171463 0.742965,-11.043186 2.493768,-16.421433 C 11.634375,46.559981 27.990292,31.943754 48.599554,26.990965 56.384576,25.12008 66.161307,24.789437 74.33477,26.12062 c 12.268312,1.998092 24.187896,7.935481 32.92944,16.402842 9.44017,9.144084 14.90523,19.922573 16.78053,33.095509 0.36381,2.555581 0.30749,10.521895 -0.0941,13.310305 -1.84874,12.836454 -7.71918,24.048464 -17.26773,32.979744 -9.612558,8.99118 -21.082241,14.32023 -35.051289,16.28553 -1.688714,0.23758 -10.926395,0.45803 -12.863269,0.30696 z m 10.999028,-8.60207 c 11.477132,-1.33765 21.956758,-6.08714 30.126322,-13.65359 6.117663,-5.66601 10.226993,-11.82584 12.916273,-19.361266 2.62123,-7.344743 3.21255,-16.316038 1.59089,-24.136456 C 112.87207,65.37557 109.37157,58.247234 104.27605,52.130201 102.65609,50.185484 99.015735,46.693025 96.798893,44.956816 84.786527,35.548877 68.787908,31.743287 53.441361,34.643367 51.354019,35.037821 50.197743,35.310818 47.769309,35.98255 43.718243,37.103136 37.476607,40.062372 33.497815,42.748847 23.457491,49.528053 16.354465,59.3257 13.388949,70.486243 12.24918,74.775704 11.908143,77.94323 12.02369,83.166727 c 0.103924,4.698001 0.496269,7.327865 1.706965,11.44161 4.142918,14.076923 14.805842,25.617013 29.148409,31.546263 4.894041,2.0232 11.081993,3.49913 16.432928,3.91954 2.341591,0.18396 8.22094,0.0857 10.455383,-0.1747 z M 63.335734,87.356939 c -1.382396,-0.475379 -2.553054,-1.468422 -3.262419,-2.767468 -0.597283,-1.093777 -0.652178,-1.32141 -0.64886,-2.690314 0.0042,-1.846934 0.403841,-2.762248 1.75565,-4.023903 l 0.943879,-0.880927 0.0032,-18.217255 0.0032,-18.217265 0.419227,-0.690819 c 1.196372,-1.971421 4.068256,-2.166078 5.613943,-0.380507 l 0.578754,0.668574 0.04915,18.42098 0.04915,18.420968 0.941056,0.878293 0.941059,0.878293 13.644132,0.04113 c 15.235734,0.04586 14.277915,-0.03394 15.351515,1.279757 0.40635,0.497205 0.52788,0.854892 0.57648,1.696585 0.0786,1.362823 -0.430339,2.262372 -1.636999,2.892968 l -0.833273,0.435478 -13.549734,0.03631 -13.549743,0.03631 -0.804929,0.750821 c -1.236206,1.153098 -2.362421,1.588004 -4.253786,1.642673 -1.046249,0.0303 -1.837937,-0.04132 -2.330301,-0.21062 z"
       id="path1434"
       inkscape:connector-curvature="0" />
  </g>
</svg>
