<?xml version="1.0" encoding="UTF-8" standalone="no"?>
<!-- Created with Inkscape (http://www.inkscape.org/) -->

<svg
   xmlns:dc="http://purl.org/dc/elements/1.1/"
   xmlns:cc="http://creativecommons.org/ns#"
   xmlns:rdf="http://www.w3.org/1999/02/22-rdf-syntax-ns#"
   xmlns:svg="http://www.w3.org/2000/svg"
   xmlns="http://www.w3.org/2000/svg"
   xmlns:sodipodi="http://sodipodi.sourceforge.net/DTD/sodipodi-0.dtd"
   xmlns:inkscape="http://www.inkscape.org/namespaces/inkscape"
   width="71.209007mm"
   height="69.247887mm"
   viewBox="0 0 71.209007 69.247887"
   version="1.1"
   id="svg1191"
   inkscape:version="0.92.2 5c3e80d, 2017-08-06"
   sodipodi:docname="treasure.svg">
  <defs
     id="defs1185" />
  <sodipodi:namedview
     id="base"
     pagecolor="#ffffff"
     bordercolor="#666666"
     borderopacity="1.0"
     inkscape:pageopacity="0.0"
     inkscape:pageshadow="2"
     inkscape:zoom="0.7"
     inkscape:cx="370.09407"
     inkscape:cy="344.90226"
     inkscape:document-units="mm"
     inkscape:current-layer="layer1"
     showgrid="false"
     fit-margin-top="0"
     fit-margin-left="0"
     fit-margin-right="0"
     fit-margin-bottom="0"
     inkscape:window-width="1440"
     inkscape:window-height="811"
     inkscape:window-x="0"
     inkscape:window-y="1"
     inkscape:window-maximized="1" />
  <metadata
     id="metadata1188">
    <rdf:RDF>
      <cc:Work
         rdf:about="">
        <dc:format>image/svg+xml</dc:format>
        <dc:type
           rdf:resource="http://purl.org/dc/dcmitype/StillImage" />
        <dc:title></dc:title>
      </cc:Work>
    </rdf:RDF>
  </metadata>
  <g
     inkscape:label="Layer 1"
     inkscape:groupmode="layer"
     id="layer1"
     transform="translate(-49.489991,-49.888453)">
    <path
       style="fill:#000000;stroke-width:0.17638889"
       d="m 87.81647,118.84077 c -0.53357,-0.17328 -2.43857,-0.97299 -4.23333,-1.77712 -1.79476,-0.80414 -4.61257,-2.0534 -6.26181,-2.77613 -1.64923,-0.72272 -4.38767,-1.93573 -6.08541,-2.69556 -1.69775,-0.75984 -5.904621,-2.62503 -9.348614,-4.14487 -3.443993,-1.51984 -6.777743,-2.99976 -7.408333,-3.28872 -2.145523,-0.98314 -3.232472,-2.48431 -3.52879,-4.873572 -0.156261,-1.25996 -1.35641,-13.80731 -1.454961,-15.21139 -0.02383,-0.33954 0.03604,-0.60437 0.133056,-0.58849 0.25812,0.0422 12.513007,3.97085 12.582323,4.03357 0.03229,0.0292 0.214444,2.77838 0.404784,6.10924 0.190339,3.33085 0.380384,6.22143 0.422319,6.423502 0.06199,0.29869 0.92635,0.70307 4.622301,2.16248 2.500325,0.9873 4.639605,1.79431 4.753935,1.79337 0.11434,-8.8e-4 0.33262,-0.12645 0.48507,-0.2789 0.24154,-0.24154 0.27719,-1.07942 0.27719,-6.514722 v -6.23754 l 1.80798,0.61423 c 0.99439,0.33783 4.66549,1.52735 8.15799,2.64337 3.4925,1.11603 6.40236,2.08453 6.46637,2.15223 0.064,0.0677 0.008,4.925272 -0.12474,10.794612 -0.13261,5.86934 -0.2445,10.96918 -0.24866,11.33298 -0.009,0.75843 -0.0571,0.76961 -1.41867,0.32743 z m 3.0584,-6.20869 c 0.0646,-3.53202 0.16927,-8.65035 0.23252,-11.37405 l 0.11498,-4.952192 4.69115,-1.68924 c 5.68341,-2.04655 16.14846,-5.83657 17.4586,-6.3228 l 0.9494,-0.35236 -0.12638,7.28231 c -0.15892,9.158042 -0.23118,10.024012 -0.95995,11.504362 -0.96956,1.96944 -1.28786,2.16954 -11.75869,7.392 -5.22129,2.6042 -9.76909,4.77966 -10.10622,4.83436 l -0.61295,0.0995 z M 67.898264,100.76443 c -2.79234,-1.085132 -3.267657,-1.324402 -3.378823,-1.700852 -0.164054,-0.55556 -0.75356,-10.75393 -0.62883,-10.87866 0.05101,-0.051 1.803945,0.44716 3.895413,1.10703 l 3.802676,1.19977 v 5.78668 c 0,4.521852 -0.0482,5.782542 -0.22049,5.767742 -0.12127,-0.0104 -1.68274,-0.58719 -3.469946,-1.28171 z m 0.319846,-3.703302 c 0.2753,-0.33171 0.05185,-3.7452 -0.262222,-4.00585 -0.125581,-0.10423 -0.411293,-0.16356 -0.634915,-0.13186 -0.39046,0.0554 -0.408577,0.12934 -0.456852,1.86568 -0.02917,1.04914 0.02896,1.9561 0.138498,2.16077 0.2171,0.40565 0.917923,0.4698 1.215491,0.11126 z m 18.981,-3.03626 c -0.38805,-0.13984 -0.81479,-0.29435 -0.94829,-0.34335 -0.16192,-0.0595 0.24932,-0.60196 1.23523,-1.62951 1.77975,-1.85492 3.03975,-3.6636 3.56741,-5.12085 l 0.39048,-1.07842 0.58732,0.5489 c 0.54247,0.50698 0.58104,0.61432 0.50499,1.40573 -0.12422,1.29285 -1.16696,3.19785 -2.71122,4.9532 -0.74679,0.84887 -1.48438,1.53781 -1.63908,1.53097 -0.15471,-0.007 -0.59878,-0.12684 -0.98684,-0.26667 z m 4.35172,0.0103 -0.58718,-0.25501 0.36395,-0.48774 c 0.92103,-1.23428 0.71975,-1.15631 2.19719,-0.85113 0.7328,0.15136 1.66909,0.2752 2.08064,0.2752 1.00645,0 0.75081,0.18505 -1.3108,0.94883 -1.94322,0.71991 -1.93907,0.71935 -2.7438,0.36985 z m -9.77568,-1.77693 c -1.13584,-0.36619 -1.89618,-0.70407 -1.89618,-0.84262 0,-0.12722 0.41101,-0.81922 0.91336,-1.53779 2.6086,-3.7314 7.11421,-6.7002 8.79963,-5.79819 0.69771,0.3734 0.36779,2.14408 -0.74144,3.97934 -1.20874,1.99989 -4.05274,4.84 -4.82641,4.8198 -0.19403,-0.005 -1.20606,-0.28431 -2.24896,-0.62054 z m 12.65591,-1.15064 c -0.58209,-0.099 -1.12246,-0.24251 -1.20082,-0.31884 -0.0784,-0.0763 0.0411,-0.5255 0.26553,-0.99817 l 0.40801,-0.85941 0.79281,0.0847 c 0.43604,0.0466 1.7453,0.0695 2.90947,0.051 2.33034,-0.037 4.23209,-0.43082 5.74102,-1.18871 l 0.87356,-0.43877 v 0.84392 c 0,0.64984 -0.0913,0.92754 -0.39687,1.20754 -0.59546,0.54555 -1.75276,1.0785 -2.99306,1.37833 -1.40425,0.33945 -5.01521,0.47399 -6.39965,0.23843 z m -18.90831,-0.83378 c -2.52086,-0.826 -3.08643,-1.08511 -2.36852,-1.08511 0.71608,0 3.0994,-0.55289 3.90252,-0.90532 0.96979,-0.42557 1.71302,-1.10992 2.03392,-1.8728 0.18253,-0.43393 0.3505,-0.57327 0.69111,-0.57327 0.43536,0 0.44997,0.0366 0.44997,1.12552 0,1.04823 -0.0636,1.22934 -0.92604,2.63718 -0.50932,0.83141 -1.00542,1.50775 -1.10243,1.50298 -0.097,-0.005 -1.30325,-0.3779 -2.68053,-0.82918 z m 30.28539,-2.87286 c 0,-1.15104 0.0429,-2.0928 0.0953,-2.0928 0.16799,0 6.51222,1.60984 6.56935,1.66696 0.0302,0.0302 -0.56397,0.27678 -1.32047,0.54786 -0.75649,0.27108 -2.26841,0.8254 -3.35981,1.23183 l -1.98438,0.73894 z m -40.348892,-0.38313 -2.337087,-0.73953 -6.6e-5,-0.55453 -6.7e-5,-0.55453 1.28356,0.4076 c 1.982078,0.62943 4.323592,0.82322 8.983362,0.7435 2.60538,-0.0446 4.1426,-0.009 4.07828,0.0955 -0.20752,0.33577 -1.61503,0.82554 -3.13344,1.09033 -0.93546,0.16313 -2.55033,0.2674 -4.04702,0.26132 -2.422214,-0.01 -2.554456,-0.0304 -4.827522,-0.74965 z m 28.927712,0.4589 c -0.2535,-0.0488 -0.39688,-0.20364 -0.39688,-0.42855 0,-0.57116 -0.32445,-1.05328 -1.55325,-2.30802 l -1.16086,-1.18536 0.6419,-0.26821 c 0.35305,-0.14751 1.38045,-0.39739 2.2831,-0.55529 4.38436,-0.76693 10.01967,0.58667 10.01967,2.40672 0,0.7849 -1.8202,1.79305 -3.98524,2.20729 -1.2308,0.2355 -4.88212,0.31754 -5.84844,0.13142 z m -12.46951,-2.20782 c -0.27714,-0.39567 -0.38732,-1.72801 -0.1423,-1.72069 0.0728,0.002 0.59411,0.22935 1.15854,0.50483 l 1.02625,0.50088 -0.69885,0.5535 c -0.83103,0.65818 -0.98295,0.67644 -1.34364,0.16148 z m -22.411394,-0.17674 c -0.291042,-0.0906 -0.633162,-0.19748 -0.760269,-0.2375 -0.136037,-0.0428 0.432531,-0.70429 1.382192,-1.60801 2.011749,-1.91444 3.674607,-3.9778 4.410699,-5.47302 l 0.564891,-1.14745 0.440574,0.44057 c 0.411718,0.41172 0.426279,0.48519 0.222306,1.12189 -0.480684,1.50044 -3.341289,5.19543 -5.072512,6.55207 -0.565874,0.44343 -0.733296,0.49296 -1.187881,0.35145 z m 13.360824,-0.32081 c -0.89773,-0.0736 -2.04866,-0.23078 -2.55764,-0.34923 -1.03511,-0.24088 -2.601099,-0.86212 -2.601104,-1.03187 0,-0.0608 1.952584,-0.084 4.339084,-0.0516 3.88631,0.0529 5.78913,-0.0538 7.61127,-0.42676 0.57156,-0.11699 0.57326,-0.11522 0.57326,0.59565 0,0.70782 -0.006,0.71429 -0.83785,0.89237 -1.87059,0.40048 -4.41038,0.545 -6.52702,0.37139 z m -7.010824,-0.28872 c -0.835429,-0.18718 -2.028472,-0.62426 -2.028472,-0.74316 0,-0.0711 0.218281,-0.33717 0.485069,-0.59134 0.398641,-0.37978 0.586068,-0.44066 1.051908,-0.34168 0.449407,0.0955 0.654556,0.29402 0.990245,0.95829 0.448258,0.88702 0.422383,0.92427 -0.49875,0.71789 z m -10.583333,-0.75408 c -0.985698,-0.3549 -1.006404,-0.4588 -0.297467,-1.49274 1.692798,-2.46883 4.793135,-5.28836 7.035284,-6.39808 1.948383,-0.96432 2.223139,-0.56923 1.066042,1.53292 -1.030963,1.87299 -2.894441,4.01357 -5.034892,5.78357 -1.215919,1.00548 -1.441503,1.05227 -2.768967,0.57433 z m 49.358567,-0.60025 c -0.56778,-0.47389 -1.42797,-0.93835 -2.29159,-1.23735 -0.55931,-0.19363 -0.57699,-0.22491 -0.32814,-0.5802 l 0.26303,-0.37553 1.95692,0.49512 c 1.0763,0.27232 1.99301,0.53122 2.03714,0.57535 0.0441,0.0441 -0.19399,0.40845 -0.52914,0.8096 l -0.60938,0.72937 z m -20.07801,-0.0932 c -2.0821,-0.60525 -2.91042,-1.32053 -2.91042,-2.51323 0,-0.37497 0.0352,-0.68177 0.0781,-0.68177 0.043,0 0.34062,0.15382 0.66146,0.34183 1.94458,1.13946 7.0016,1.60002 10.19654,0.92863 1.38086,-0.29017 2.38278,-0.63614 3.57188,-1.23341 0.0728,-0.0366 0.13229,0.21798 0.13229,0.56561 0,0.54729 -0.056,0.63206 -0.41787,0.63206 -0.95408,0 -3.60524,0.57424 -4.5996,0.99627 -0.80766,0.34279 -1.33344,0.44593 -2.15727,0.4232 -0.80956,-0.0223 -1.37939,0.086 -2.21871,0.42177 -0.62115,0.2485 -1.16283,0.44616 -1.20372,0.43925 -0.0409,-0.007 -0.55061,-0.15101 -1.13269,-0.32021 z m -32.852432,-0.4163 c -0.315295,-0.10114 -0.57246,-0.23195 -0.571477,-0.29067 9.88e-4,-0.0587 0.556608,-0.2755 1.234722,-0.48171 0.678115,-0.20621 1.232935,-0.33464 1.232935,-0.2854 0,0.0492 -0.165224,0.35686 -0.367164,0.68361 -0.38556,0.62385 -0.592689,0.67453 -1.529016,0.37417 z m 61.956602,-0.22362 c -0.14114,-0.0503 -12.67366,-3.31598 -15.30174,-3.98723 -0.57942,-0.14799 -0.66146,-0.23443 -0.66146,-0.69698 0,-1.88669 -1.84887,-3.26929 -5.30952,-3.97051 -2.04496,-0.41436 -6.07088,-0.28568 -8.01794,0.25629 l -1.4212,0.39559 -3.60588,-0.90099 c -1.98323,-0.49554 -3.90742,-0.98046 -4.27598,-1.07761 l -0.67011,-0.17662 1.37566,-0.89549 c 4.44377,-2.89267 7.4403,-6.03854 8.70654,-9.14042 0.41109,-1.00704 0.51938,-1.13942 0.8901,-1.0881 0.23215,0.0321 2.84302,0.48172 5.80194,0.99907 2.95893,0.51735 5.76489,0.99737 6.23548,1.0667 l 0.85562,0.12605 4.77782,5.75404 c 2.6278,3.16473 5.72906,6.90499 6.89169,8.31169 1.16262,1.4067 2.47796,2.9942 2.92298,3.52777 1.38731,1.66339 1.41442,1.71373 0.806,1.49675 z m 0.38655,-2.32634 c -3.2124,-3.90469 -5.54856,-6.72733 -9.86902,-11.92413 -2.30494,-2.77246 -4.23211,-5.14849 -4.28259,-5.28006 -0.15959,-0.41587 2.70498,-2.41723 5.35337,-3.74021 6.43244,-3.21326 11.77734,-2.15296 14.14047,2.80512 1.02267,2.14567 1.30405,3.4895 1.3126,6.26887 0.008,2.69554 -0.26465,4.28735 -1.24008,7.23195 -0.62722,1.89344 -2.99389,6.70831 -3.35661,6.82883 -0.11062,0.0368 -1.03679,-0.94891 -2.05814,-2.19037 z m -46.598881,1.69385 c -0.77525,-0.0953 -1.478499,-0.24216 -1.562772,-0.32644 -0.08671,-0.0867 -0.02477,-0.3707 0.142669,-0.6542 l 0.29589,-0.50098 4.000914,-0.007 c 4.12733,-0.007 4.18634,-0.015 6.86722,-0.87653 0.35095,-0.11278 0.39688,-0.0671 0.39688,0.39486 0,0.84624 -0.68486,1.25186 -2.91042,1.72377 -1.59283,0.33774 -5.42542,0.46852 -7.230381,0.24673 z m 11.248671,-0.46119 c 0.17277,-0.19508 0.36242,-0.76244 0.42145,-1.26082 0.1069,-0.90265 0.23904,-1.02872 0.8375,-0.79907 0.20617,0.0791 0.27901,0.3527 0.27901,1.04792 0,0.51748 -0.0671,0.98233 -0.14911,1.03302 -0.082,0.0507 -0.49874,0.14649 -0.92605,0.2129 -0.76803,0.11935 -0.77333,0.11667 -0.4628,-0.23395 z m 7.62968,-1.46887 c -1.36348,-0.21472 -2.6417,-0.63108 -3.57493,-1.16448 -0.93196,-0.53267 -1.19603,-0.97478 -0.90668,-1.51798 1.24713,-2.34125 8.88189,-3.03642 12.81236,-1.16661 1.89991,0.90383 2.07084,1.78845 0.52107,2.69667 -1.72289,1.00968 -6.12168,1.58235 -8.85182,1.1524 z m -18.580264,-0.9916 c -0.573848,-0.0818 -0.580754,-0.0937 -0.476111,-0.82076 0.07794,-0.54159 0.01658,-0.9107 -0.230734,-1.38788 l -0.336921,-0.65008 1.146269,-0.12276 c 1.749251,-0.18733 6.143191,0.0258 7.358961,0.35689 1.25922,0.34296 2.24878,0.80859 2.33909,1.10065 0.0943,0.30496 -1.07674,0.84451 -2.60368,1.19963 -1.30207,0.30283 -5.89498,0.5098 -7.196874,0.32431 z m 11.871184,-1.77317 c -0.19403,-0.047 -0.63996,-0.38102 -0.99096,-0.74224 -0.35099,-0.36122 -0.88678,-0.75974 -1.19062,-0.8856 -0.61834,-0.25612 -0.67387,-0.39484 -0.28668,-0.71618 0.21586,-0.17915 0.60965,-0.12943 2.09662,0.2647 l 1.83084,0.48527 -0.42092,0.62026 c -0.23151,0.34114 -0.42092,0.72825 -0.42092,0.86023 0,0.24915 -0.0329,0.2552 -0.61736,0.11356 z m -8.22886,-7.59291 c -0.64531,-1.04163 -2.57389,-4.14571 -4.285731,-6.89796 -1.711836,-2.75224 -3.082876,-5.03363 -3.046753,-5.06976 0.03612,-0.0361 3.552204,0.52768 7.813514,1.25288 4.26131,0.72521 8.54158,1.45171 9.51172,1.61444 0.97014,0.16273 1.83555,0.35875 1.92315,0.4356 0.23944,0.21007 -0.48422,1.80105 -1.40813,3.09579 -1.06215,1.48846 -2.96186,3.37546 -4.68278,4.65145 -1.44327,1.07012 -4.23805,2.81771 -4.49979,2.81374 -0.0835,-0.001 -0.67988,-0.85454 -1.3252,-1.89618 z m 20.04692,-8.79416 c -3.58952,-0.61957 -9.89983,-1.71809 -14.02292,-2.44115 -4.12309,-0.72306 -8.72684,-1.52142 -10.230557,-1.77414 -1.503715,-0.25271 -2.881891,-0.51733 -3.062612,-0.58803 -0.279107,-0.10919 -0.112986,-0.33137 1.103238,-1.47551 1.694895,-1.59443 3.482461,-2.81994 5.104901,-3.49978 1.67468,-0.70173 3.89567,-1.11647 5.31058,-0.99168 0.6364,0.0561 4.53053,0.78243 8.65362,1.61401 6.63603,1.33842 9.90682,1.98878 21.03291,4.18216 l 2.77665,0.54739 -1.64305,0.6612 c -1.90307,0.76584 -4.35378,2.19281 -6.53151,3.80311 -0.84056,0.62153 -1.62651,1.12081 -1.74657,1.10949 -0.12006,-0.0113 -3.15517,-0.5275 -6.74468,-1.14707 z"
       id="path1820"
       inkscape:connector-curvature="0" />
  </g>
</svg>
