<?xml version="1.0" encoding="UTF-8" standalone="no"?>
<svg
   class="icon"
   height="350.08026"
   viewBox="0 0 359.27161 700.16052"
   version="1.1"
   id="svg4"
   sodipodi:docname="unicorn.svg"
   width="359.27161"
   inkscape:version="1.1.1 (c3084ef, 2021-09-22)"
   xmlns:inkscape="http://www.inkscape.org/namespaces/inkscape"
   xmlns:sodipodi="http://sodipodi.sourceforge.net/DTD/sodipodi-0.dtd"
   xmlns="http://www.w3.org/2000/svg"
   xmlns:svg="http://www.w3.org/2000/svg"
   xmlns:rdf="http://www.w3.org/1999/02/22-rdf-syntax-ns#"
   xmlns:cc="http://creativecommons.org/ns#"
   xmlns:dc="http://purl.org/dc/elements/1.1/">
  <metadata
     id="metadata10">
    <rdf:RDF>
      <cc:Work
         rdf:about="">
        <dc:format>image/svg+xml</dc:format>
        <dc:type
           rdf:resource="http://purl.org/dc/dcmitype/StillImage" />
      </cc:Work>
    </rdf:RDF>
  </metadata>
  <defs
     id="defs8" />
  <sodipodi:namedview
     pagecolor="#ffffff"
     bordercolor="#666666"
     borderopacity="1"
     objecttolerance="10"
     gridtolerance="10"
     guidetolerance="10"
     inkscape:pageopacity="0"
     inkscape:pageshadow="2"
     inkscape:window-width="1037"
     inkscape:window-height="713"
     id="namedview6"
     showgrid="false"
     fit-margin-top="0"
     fit-margin-left="0"
     fit-margin-right="0"
     fit-margin-bottom="0"
     inkscape:zoom="0.2175957"
     inkscape:cx="-87.317902"
     inkscape:cy="98.8071"
     inkscape:window-x="184"
     inkscape:window-y="38"
     inkscape:window-maximized="0"
     inkscape:current-layer="svg4"
     inkscape:pagecheckerboard="0" />
  <path
     style="fill:#000000;stroke-width:1.33333"
     d="m 226.6852,510.27416 c -1.83333,-0.31319 -8.73333,-1.23052 -15.33333,-2.03851 -13.8241,-1.69239 -42.38549,-8.74727 -56,-13.83244 -15.28421,-5.70883 -35.33333,-15.70297 -35.33333,-17.61308 0,-0.97907 2.97092,-8.36476 6.60202,-16.41263 14.41746,-31.95432 21.39798,-56.53265 21.39798,-75.34203 0,-5.16424 -1.68155,-16.18676 -4,-26.21986 -4.17808,-18.0807 -4.97723,-29.02298 -2.58279,-35.36462 1.84837,-4.8954 1.33729,-4.29779 -14.62608,17.10214 -15.91273,21.33204 -15.51365,21.12618 -41.048229,21.17368 -24.01767,0.0447 -30.59861,4.18128 -36.24297,22.78136 -5.80072,19.11533 -8.48858,23.23156 -17.67698,27.07072 -11.44391,4.78156 -35.2743198,3.35822 -49.55768,-2.95999 -9.20012,-4.06965 -10.91049,-8.29341 -10.63161,-26.25471 l 0.22772,-14.66666 21.4490102,-50.64665 21.4490098,-50.64665 -1.54629,-9.58536 c -2.90216,-17.99037 0.54068,-26.29448 18.59722,-44.85639 l 10.11851,-10.40169 -68.63109,-68.02498 c -37.74709,-37.413731 -66.83108,-66.861121 -64.63108,-65.438651 2.2,1.42247 35.93641,24.54204 74.9698,51.376811 39.03338,26.83478 72.75358,49.71294 74.93378,50.84036 6.43583,3.3281 12.67924,2.62734 17.96862,-2.01678 8.77371,-7.70343 9.49371,-20.13956 2.0743,-35.82792 -4.01402,-8.48765 -16.16377,-22.55579 -23.27984,-26.95563 -4.89577,-3.02703 -2.98088,-3.13616 10.33282,-0.58883 25.65166,4.90798 49.145179,16.17625 65.667179,31.49616 2.93333,2.71992 6.89679,5.30946 8.80767,5.75455 4.95409,1.15389 16.49508,-2.17577 30.94298,-8.92732 14.40746,-6.73264 21.89376,-12.94118 27.57233,-22.8663 6.2756,-10.968591 6.9966,-11.164651 12.05702,-3.27869 5.8702,9.14791 6.62942,17.20617 2.62897,27.90328 -2.81771,7.5345 -2.86508,8.20296 -0.80412,11.34838 2.52011,3.84616 0.97943,3.61974 26.12848,3.8398 25.86704,0.22633 26.68862,0.64394 52.66667,26.77122 13.95218,14.03234 22.41912,21.43822 28,24.49111 4.4,2.40692 6.8,4.06116 5.33333,3.67609 -4.74263,-1.24517 -41.18653,-7.43593 -43.77398,-7.43593 -2.09975,0 -1.85635,0.60876 1.49516,3.73955 2.28574,2.1352 8.98532,13.71872 15.61601,27 18.05281,36.15976 25.07647,46.91648 35.8656,54.92817 3.00513,2.23152 4.52109,3.72915 3.3688,3.32807 -6.87744,-2.39385 -23.92982,-7.50307 -27.82634,-8.33729 l -4.58808,-0.98228 3.65988,4.34952 c 2.01294,2.39224 5.34323,8.06206 7.40064,12.5996 8.22698,18.14418 25.23302,38.81807 37.86632,46.03324 l 6.49402,3.70888 -10.76547,0.95296 c -10.23177,0.90572 -11.20268,0.74837 -19.58421,-3.17381 l -8.81875,-4.12679 8.23346,9.28688 c 4.52838,5.10779 11.33622,11.51343 15.12853,14.23475 3.79229,2.72133 10.79508,8.05868 15.56174,11.86078 4.76667,3.80211 10.36683,7.78507 12.4448,8.85102 3.75982,1.92869 3.72072,1.95216 -8.06438,4.84242 -6.5134,1.59739 -15.41356,2.95463 -19.77813,3.01611 l -7.93562,0.11173 11.94753,5.79668 c 19.83932,9.6256 24.35544,10.38328 66.94498,11.23163 20.65756,0.41148 37.85212,1.04815 38.21013,1.41481 1.31735,1.34915 -21.9924,30.77471 -33.18559,41.89257 -29.17457,28.9782 -71.38106,48.25188 -125.91705,57.50026 -11.99954,2.03492 -60.3468,3.82458 -68,2.51714 z"
     id="path1349" />
</svg>
