<?xml version="1.0" encoding="UTF-8" standalone="no"?>
<!-- Created with Inkscape (http://www.inkscape.org/) -->

<svg
   xmlns:dc="http://purl.org/dc/elements/1.1/"
   xmlns:cc="http://creativecommons.org/ns#"
   xmlns:rdf="http://www.w3.org/1999/02/22-rdf-syntax-ns#"
   xmlns:svg="http://www.w3.org/2000/svg"
   xmlns="http://www.w3.org/2000/svg"
   xmlns:sodipodi="http://sodipodi.sourceforge.net/DTD/sodipodi-0.dtd"
   xmlns:inkscape="http://www.inkscape.org/namespaces/inkscape"
   width="83.741653mm"
   height="83.837784mm"
   viewBox="0 0 83.741654 83.837783"
   version="1.1"
   id="svg822"
   inkscape:version="0.92.2 5c3e80d, 2017-08-06"
   sodipodi:docname="wine_bottle.svg">
  <defs
     id="defs816" />
  <sodipodi:namedview
     id="base"
     pagecolor="#ffffff"
     bordercolor="#666666"
     borderopacity="1.0"
     inkscape:pageopacity="0.0"
     inkscape:pageshadow="2"
     inkscape:zoom="0.49497475"
     inkscape:cx="346.13972"
     inkscape:cy="-223.15668"
     inkscape:document-units="mm"
     inkscape:current-layer="layer1"
     showgrid="false"
     fit-margin-top="0"
     fit-margin-left="0"
     fit-margin-right="0"
     fit-margin-bottom="0"
     inkscape:window-width="1440"
     inkscape:window-height="813"
     inkscape:window-x="0"
     inkscape:window-y="1"
     inkscape:window-maximized="1" />
  <metadata
     id="metadata819">
    <rdf:RDF>
      <cc:Work
         rdf:about="">
        <dc:format>image/svg+xml</dc:format>
        <dc:type
           rdf:resource="http://purl.org/dc/dcmitype/StillImage" />
        <dc:title></dc:title>
      </cc:Work>
    </rdf:RDF>
  </metadata>
  <g
     inkscape:label="Layer 1"
     inkscape:groupmode="layer"
     id="layer1"
     transform="translate(-66.07745,-123.5506)">
    <path
       style="fill:#000000;stroke-width:0.17638889"
       d="m 136.39988,204.95588 c -0.80107,0.68568 -1.7941,1.45369 -2.20675,1.70666 -1.105,0.67742 -2.38828,0.90739 -3.21495,0.57616 -0.54072,-0.21665 -3.09762,-2.33396 -11.38259,-9.4256 -9.86102,-8.44069 -10.87699,-9.34886 -13.17144,-11.77372 -4.82197,-5.09605 -6.858955,-8.60402 -8.70562,-14.99227 -0.47688,-1.64971 -1.145054,-3.78713 -1.484833,-4.74985 -1.629061,-4.61576 -4.748342,-9.792 -9.449916,-15.68154 -1.828684,-2.29074 -8.063351,-8.79999 -10.919454,-11.40035 -1.915963,-1.7444 -2.093241,-1.86986 -2.673423,-1.89191 -0.79529,-0.0302 -0.879343,-0.12541 -1.282967,-1.45269 -0.294114,-0.96719 -0.421754,-1.16834 -1.037665,-1.63532 -0.606337,-0.45972 -0.704696,-0.61009 -0.720026,-1.1003 l -0.01772,-0.56781 -0.563871,0.17947 c -0.636361,0.20255 -0.788459,0.15638 -1.696929,-0.51516 -0.943507,-0.69743 -1.794276,-2.07774 -1.794276,-2.91106 2e-6,-1.94891 3.420575,-5.50848 5.536182,-5.76117 0.693601,-0.0829 1.604842,0.42007 2.644042,1.45927 0.967216,0.96721 1.124901,1.35433 0.911015,2.23655 -0.08529,0.35185 -0.08601,0.57106 -0.0016,0.48715 0.08443,-0.0839 0.390005,-0.1033 0.679063,-0.0431 0.454592,0.0947 0.569101,0.19589 0.847948,0.74952 0.303604,0.60271 0.384935,0.65706 1.39457,0.93183 1.237982,0.33691 1.744914,0.75574 1.639435,1.35447 -0.06711,0.38095 0.149637,0.67214 2.26803,3.04696 7.049091,7.90233 16.577108,15.46749 23.564645,18.7101 2.31734,1.07538 2.99781,1.31754 7.07297,2.51717 4.27179,1.25751 6.4948,2.15119 8.95046,3.59819 4.9164,2.89702 7.61365,5.57554 18.60665,18.47739 4.41626,5.18314 8.22752,9.62248 8.46948,9.8652 1.56482,1.56907 1.54535,3.28048 -0.062,5.54927 -0.88781,1.25314 -10.10036,10.66056 -12.19844,12.45646 z"
       id="path1632"
       inkscape:connector-curvature="0" />
  </g>
</svg>
