<?xml version="1.0" encoding="UTF-8" standalone="no"?>
<!-- Created with Inkscape (http://www.inkscape.org/) -->

<svg
   xmlns:dc="http://purl.org/dc/elements/1.1/"
   xmlns:cc="http://creativecommons.org/ns#"
   xmlns:rdf="http://www.w3.org/1999/02/22-rdf-syntax-ns#"
   xmlns:svg="http://www.w3.org/2000/svg"
   xmlns="http://www.w3.org/2000/svg"
   xmlns:sodipodi="http://sodipodi.sourceforge.net/DTD/sodipodi-0.dtd"
   xmlns:inkscape="http://www.inkscape.org/namespaces/inkscape"
   width="104.40388mm"
   height="48.320847mm"
   viewBox="0 0 104.40389 48.320846"
   version="1.1"
   id="svg822"
   inkscape:version="0.92.2 5c3e80d, 2017-08-06"
   sodipodi:docname="wings.svg">
  <defs
     id="defs816" />
  <sodipodi:namedview
     id="base"
     pagecolor="#ffffff"
     bordercolor="#666666"
     borderopacity="1.0"
     inkscape:pageopacity="0.0"
     inkscape:pageshadow="2"
     inkscape:zoom="0.175"
     inkscape:cx="-274.28519"
     inkscape:cy="-1169.8276"
     inkscape:document-units="mm"
     inkscape:current-layer="layer1"
     showgrid="false"
     fit-margin-top="0"
     fit-margin-left="0"
     fit-margin-right="0"
     fit-margin-bottom="0"
     inkscape:window-width="1440"
     inkscape:window-height="813"
     inkscape:window-x="34"
     inkscape:window-y="0"
     inkscape:window-maximized="0" />
  <metadata
     id="metadata819">
    <rdf:RDF>
      <cc:Work
         rdf:about="">
        <dc:format>image/svg+xml</dc:format>
        <dc:type
           rdf:resource="http://purl.org/dc/dcmitype/StillImage" />
        <dc:title></dc:title>
      </cc:Work>
    </rdf:RDF>
  </metadata>
  <g
     inkscape:label="Layer 1"
     inkscape:groupmode="layer"
     id="layer1"
     transform="translate(-238.93612,-219.70134)">
    <path
       style="fill:#000000;stroke-width:0.17638889"
       d="m 295.21042,267.80145 c -0.80945,-0.27879 -1.41751,-1.19452 -1.41624,-2.1328 0.003,-1.8448 0.73986,-3.01746 2.95052,-4.69244 5.74302,-4.35138 8.65006,-8.38745 9.48349,-13.1667 0.24424,-1.40058 0.24376,-2.07484 -0.005,-6.81049 -0.21572,-4.10895 -0.23332,-5.64331 -0.0806,-7.0307 0.44124,-4.00992 1.63193,-5.96528 4.4773,-7.35262 1.3837,-0.67467 1.67242,-0.74546 10.24891,-2.5127 3.78354,-0.77963 9.9051,-2.08894 13.60346,-2.90959 3.69836,-0.82064 7.08597,-1.49207 7.52802,-1.49207 1.33774,0 1.42898,0.20224 1.29404,2.86841 -0.0707,1.39761 -0.21893,2.51339 -0.38739,2.91666 -0.34623,0.82886 -1.06626,1.59908 -1.78084,1.90497 -0.30612,0.13104 -4.40884,0.9488 -9.11715,1.81725 -5.26801,0.97168 -8.88456,1.72231 -9.40294,1.95162 -0.86975,0.38473 -1.47262,0.83179 -1.47262,1.09204 0,0.38116 2.66039,0.0329 10.31875,-1.35072 4.55965,-0.82379 8.66155,-1.49804 9.11532,-1.49833 0.68155,-3.5e-4 0.88863,0.0803 1.19062,0.46425 0.48985,0.62274 0.46304,1.12945 -0.18323,3.46279 -0.64055,2.31269 -0.80706,2.67011 -1.5969,3.42774 -1.14434,1.09768 -1.22813,1.10963 -9.7117,1.38515 -4.26784,0.13861 -8.06115,0.33318 -8.42959,0.43239 -0.7745,0.20856 -1.56229,0.78548 -1.35566,0.99281 0.31203,0.3131 2.64706,0.343 9.29544,0.11903 3.83205,-0.12909 7.22278,-0.19096 7.53496,-0.13749 1.49384,0.2559 1.48359,1.21028 -0.0406,3.778 -1.50723,2.53919 -2.59838,3.36093 -4.46283,3.36093 -0.47319,0 -3.31339,-0.28175 -6.31157,-0.62612 -5.42424,-0.62301 -6.21539,-0.639 -7.17069,-0.145 -1.1595,0.5996 -0.2835,0.80341 6.77171,1.57553 3.89024,0.42574 5.83686,0.70928 6.11383,0.89052 0.93425,0.61133 0.74118,1.2468 -0.95249,3.13511 -0.97859,1.09106 -1.56885,1.58961 -2.20703,1.86415 -1.49048,0.64118 -2.33607,0.53737 -6.31365,-0.77514 -3.1825,-1.05015 -3.67682,-1.16705 -4.73791,-1.12042 -0.9094,0.04 -1.19695,0.11648 -1.23748,0.32929 -0.0714,0.37486 0.33603,0.55452 4.54707,2.00502 l 3.61597,1.24553 0.0543,0.56028 c 0.0875,0.90288 -0.8766,2.44249 -1.95906,3.12849 -0.52999,0.33588 -1.74454,0.51155 -2.57116,0.37189 -0.37595,-0.0635 -1.61105,-0.65751 -2.74465,-1.31999 -2.11939,-1.23856 -3.45803,-1.66684 -3.86911,-1.23788 -0.24876,0.25957 0.55077,0.94253 2.5948,2.21651 1.70007,1.0596 1.8753,1.49536 1.08287,2.69281 -1.34969,2.03952 -3.94065,2.35557 -5.81555,0.70938 -0.90212,-0.79207 -2.55925,-1.35817 -2.55925,-0.87428 0,0.089 0.43656,0.69439 0.97014,1.34534 0.53358,0.65096 0.97014,1.25805 0.97014,1.34911 0,0.35987 -0.38784,0.85699 -0.85845,1.10036 -0.41558,0.2149 -13.7491,2.94262 -14.23727,2.91261 -0.0891,-0.005 -0.43698,-0.1047 -0.77317,-0.22049 z m -16.23389,-1.2537 c -7.65871,-1.55669 -7.16768,-1.4288 -7.51374,-1.95696 -0.39661,-0.6053 -0.21928,-1.12739 0.72102,-2.12286 0.70432,-0.74562 1.03701,-1.49339 0.66321,-1.49061 -0.56252,0.004 -1.58441,0.48508 -2.43607,1.1464 -1.09438,0.84981 -1.86023,1.08363 -3.26633,0.99723 -1.10281,-0.0678 -2.98476,-1.9408 -2.98476,-2.97062 0,-0.43767 0.23286,-0.63646 2.11667,-1.80706 1.57726,-0.98011 2.29306,-1.55092 2.29306,-1.8286 0,-0.0944 -0.44819,-0.13443 -1.03152,-0.0922 -0.87746,0.0635 -1.30555,0.23638 -2.86632,1.15772 -1.00914,0.5957 -2.05825,1.16698 -2.33135,1.2695 -0.63949,0.24005 -2.0742,0.23941 -2.71107,-0.001 -1.16851,-0.4415 -2.40736,-2.18875 -2.31575,-3.26609 l 0.0553,-0.65039 3.43959,-1.1751 c 4.43294,-1.51448 5.17162,-1.89776 4.42625,-2.29666 -0.75738,-0.40534 -1.98039,-0.19068 -5.46533,0.95928 -4.14429,1.36752 -4.7259,1.46875 -6.1163,1.06455 -0.89789,-0.26103 -1.20826,-0.48033 -2.3379,-1.6519 -1.99156,-2.0655 -2.26615,-2.62427 -1.65841,-3.3748 0.28971,-0.35778 0.78118,-0.43967 6.45282,-1.07526 5.77311,-0.64697 7.06322,-0.88594 7.07516,-1.31058 0.008,-0.27586 -1.1354,-0.59645 -2.1659,-0.60741 -0.51487,-0.005 -3.35424,0.26665 -6.30972,0.60472 -6.05185,0.69227 -6.57392,0.67036 -7.88659,-0.33084 -0.89076,-0.67941 -3.1238,-4.30487 -3.1238,-5.07166 0,-0.27703 0.16783,-0.64646 0.38603,-0.84975 0.46954,-0.43744 1.72081,-0.45828 10.18259,-0.16957 5.51028,0.188 7.23428,0.1116 7.38051,-0.32707 0.0433,-0.13003 -0.27909,-0.37828 -0.77963,-0.60024 -0.91495,-0.40573 -1.79457,-0.46241 -12.68921,-0.81772 -4.38748,-0.14308 -4.43476,-0.14873 -5.25152,-0.62738 -0.45329,-0.26565 -1.01647,-0.77627 -1.2515,-1.13471 -0.38705,-0.5903 -1.68144,-4.74178 -1.68144,-5.39289 0,-0.81999 0.75655,-1.52062 1.642,-1.52062 0.21488,0 4.35849,0.71407 9.20802,1.58682 8.44975,1.52066 9.9352,1.73444 10.20152,1.46811 0.22578,-0.22577 -0.82272,-1.10487 -1.63315,-1.3693 -0.44515,-0.14524 -4.5003,-0.9388 -9.01145,-1.76347 -4.51114,-0.82467 -8.50105,-1.58466 -8.86646,-1.68887 -0.86851,-0.2477 -1.86756,-1.1386 -2.26985,-2.02414 -0.25765,-0.56715 -0.32198,-1.16531 -0.32509,-3.02282 l -0.004,-2.31576 0.51906,-0.215 c 0.65598,-0.27171 0.67416,-0.26861 8.30039,1.41669 3.44398,0.76107 9.35742,2.0223 13.14096,2.80272 3.78354,0.78042 7.55239,1.58346 8.37522,1.78452 3.83431,0.93695 5.91485,3.0212 6.64776,6.65961 0.33133,1.64487 0.35601,5.39985 0.0675,10.26998 -0.22088,3.72839 -0.12798,4.93997 0.54044,7.04841 0.48807,1.53957 1.72342,3.88651 2.79331,5.3068 1.15538,1.53377 3.92334,4.17432 6.05611,5.77735 1.94125,1.45907 2.51681,2.12209 2.87481,3.31162 0.32414,1.07705 0.3149,1.55311 -0.0448,2.31124 -0.3937,0.82966 -1.18009,1.2876 -2.17488,1.2665 -0.43657,-0.009 -3.61157,-0.58958 -7.05556,-1.2896 z"
       id="path900"
       inkscape:connector-curvature="0" />
  </g>
</svg>
