<?xml version="1.0" encoding="UTF-8" standalone="no"?>
<svg
   xmlns:dc="http://purl.org/dc/elements/1.1/"
   xmlns:cc="http://creativecommons.org/ns#"
   xmlns:rdf="http://www.w3.org/1999/02/22-rdf-syntax-ns#"
   xmlns:svg="http://www.w3.org/2000/svg"
   xmlns="http://www.w3.org/2000/svg"
   xmlns:sodipodi="http://sodipodi.sourceforge.net/DTD/sodipodi-0.dtd"
   xmlns:inkscape="http://www.inkscape.org/namespaces/inkscape"
   viewBox="0 0 512 512"
   style="height: 512px; width: 512px;"
   version="1.1"
   id="svg8"
   sodipodi:docname="wooden-door.svg"
   inkscape:version="0.92.2 5c3e80d, 2017-08-06">
  <metadata
     id="metadata14">
    <rdf:RDF>
      <cc:Work
         rdf:about="">
        <dc:format>image/svg+xml</dc:format>
        <dc:type
           rdf:resource="http://purl.org/dc/dcmitype/StillImage" />
      </cc:Work>
    </rdf:RDF>
  </metadata>
  <defs
     id="defs12" />
  <sodipodi:namedview
     pagecolor="#ffffff"
     bordercolor="#666666"
     borderopacity="1"
     objecttolerance="10"
     gridtolerance="10"
     guidetolerance="10"
     inkscape:pageopacity="0"
     inkscape:pageshadow="2"
     inkscape:window-width="1096"
     inkscape:window-height="626"
     id="namedview10"
     showgrid="false"
     inkscape:zoom="0.65186406"
     inkscape:cx="256"
     inkscape:cy="327.89063"
     inkscape:window-x="0"
     inkscape:window-y="0"
     inkscape:window-maximized="0"
     inkscape:current-layer="svg8" />
  <path
     d="M 0,512 Z"
     id="path2"
     inkscape:connector-curvature="0"
     style="fill:#000000;fill-opacity:1"
     sodipodi:nodetypes="cc" />
  <g
     class=""
     transform="translate(-15.89)"
     id="g6">
    <path
       d="m 271.125,17.813 v 145.562 h 66.938 V 34.5 C 317.457,24.313 294.463,18.772 271.125,17.812 Z m -18.688,0.218 c -22.768,1.465 -45.25,7.305 -65.53,17.376 v 127.97 h 65.53 V 18.03 Z M 356.75,45.5 v 117.875 h 61.844 c -2.66,-48.27 -21.532,-83.515 -48.656,-107.53 -4.2,-3.72 -8.6,-7.17 -13.188,-10.345 z m -188.53,0.813 c -5.32,3.63 -10.403,7.6 -15.22,11.906 -27.108,24.233 -45.9,58.953 -48.656,105.155 h 63.875 V 46.312 Z m 269.936,97.312 v 19.5 H 459 v -19.5 z m 0,38.188 v 0.25 H 84.78 v 32 h 353.376 v 0.156 H 459 V 181.812 H 438.156 Z M 104,232.75 v 130.375 h 64.22 v -26.28 c -2.152,0.362 -4.346,0.56 -6.595,0.56 -21.91,0 -39.875,-17.965 -39.875,-39.874 0,-21.907 17.964,-39.874 39.875,-39.874 2.25,0 4.443,0.2 6.594,0.563 V 232.75 H 104 Z m 82.906,0 v 34.03 c 8.893,7.334 14.594,18.41 14.594,30.75 0,12.34 -5.7,23.42 -14.594,30.75 v 34.845 h 65.53 V 232.75 Z m 84.22,0 v 130.375 h 66.937 V 232.75 h -66.938 z m 85.624,0 v 130.375 h 62.156 V 232.75 Z m 81.406,0.156 v 17.938 H 459 v -17.938 z m -276.53,43.438 c -11.81,0 -21.19,9.38 -21.19,21.187 0,11.81 9.378,21.19 21.19,21.19 11.81,0 21.186,-9.38 21.186,-21.19 0,-11.81 -9.376,-21.186 -21.187,-21.186 z m 276.53,67.03 v 19.907 H 459 V 343.376 H 438.156 Z M 84.78,381.813 v 32 h 353.376 v 0.157 H 459 v -32 h -18.47 v -0.158 H 84.78 Z M 104,432.5 v 59.844 h 64.22 V 432.5 Z m 82.906,0 v 59.844 h 65.53 V 432.5 Z m 84.22,0 v 59.844 h 66.937 V 432.5 h -66.938 z m 85.624,0 v 59.844 h 62.156 V 432.5 Z m 81.406,0.156 v 17.938 H 459 v -17.938 z"
       id="path4"
       inkscape:connector-curvature="0"
       style="fill:#000000;fill-opacity:1" />
  </g>
</svg>
